<svg width="200" height="200" viewBox="0 0 200 200" fill="none" xmlns="http://www.w3.org/2000/svg">
<path d="M53.125 125V118.75C53.1251 113.777 55.1005 109.008 58.6168 105.492C62.133 101.976 66.902 100.001 71.8746 100.001L128.125 99.9994C133.098 99.9994 137.867 98.0241 141.383 94.5079C144.899 90.9917 146.875 86.2228 146.875 81.2501V75" stroke="white" stroke-width="10" stroke-linecap="round" stroke-linejoin="round"/>
<path d="M53.125 75V125" stroke="white" stroke-width="10" stroke-linecap="round" stroke-linejoin="round"/>
<path d="M53.125 168.75C65.2062 168.75 75 158.956 75 146.875C75 134.794 65.2062 125 53.125 125C41.0438 125 31.25 134.794 31.25 146.875C31.25 158.956 41.0438 168.75 53.125 168.75Z" stroke="white" stroke-width="10" stroke-linecap="round" stroke-linejoin="round"/>
<path d="M146.875 74.9985C158.956 74.9985 168.75 65.2048 168.75 53.1235C168.75 41.0423 158.956 31.2485 146.875 31.2485C134.794 31.2485 125 41.0423 125 53.1235C125 65.2048 134.794 74.9985 146.875 74.9985Z" stroke="white" stroke-width="10" stroke-linecap="round" stroke-linejoin="round"/>
<path d="M53.125 74.9985C65.2062 74.9985 75 65.2048 75 53.1235C75 41.0423 65.2062 31.2485 53.125 31.2485C41.0438 31.2485 31.25 41.0423 31.25 53.1235C31.25 65.2048 41.0438 74.9985 53.125 74.9985Z" stroke="white" stroke-width="10" stroke-linecap="round" stroke-linejoin="round"/>
</svg>
