<svg width="479" height="573" viewBox="0 0 479 573" fill="none" xmlns="http://www.w3.org/2000/svg">
<g filter="url(#filter0_d)">
<path opacity="0.64" d="M239.1 564.609C368.942 564.609 474.2 543.432 474.2 517.309C474.2 491.186 368.942 470.009 239.1 470.009C109.258 470.009 4 491.186 4 517.309C4 543.432 109.258 564.609 239.1 564.609Z" fill="#D5E0E3"/>
<path d="M126.4 509.709C129.7 499.009 139.8 493.309 156.2 488.509C166.6 485.509 179.8 484.109 200.5 479.909C210.6 477.909 217.7 473.909 217.7 473.909V485.409C217.7 485.409 149.2 498.909 138.5 516.609C133.3 525.309 134.9 546.609 159.4 548.809C151.9 549.909 139.6 548.009 133 541.309C124.8 533.009 122.6 521.909 126.4 509.709Z" fill="#282323" stroke="black" stroke-width="4" stroke-miterlimit="10" stroke-linecap="round" stroke-linejoin="round"/>
<path d="M217.7 485.409C217.7 485.409 176.7 493.009 154.8 502.409C135.6 510.709 136.2 519.309 135.7 528.109C135.4 533.209 139 545.809 153.6 548.009C171 550.609 191.5 547.809 217.7 531.109C217.7 490.209 217.7 485.409 217.7 485.409Z" fill="#442C2A"/>
<path opacity="0.37" d="M135.7 528.108C136.1 521.008 135.8 514.008 145.8 507.208C145.4 509.708 145.3 512.108 145.2 514.608C144.9 519.708 157.2 513.108 171.8 515.208C187 517.508 196 534.908 217.7 523.208C217.7 525.708 217.7 528.308 217.7 531.008C191.5 547.708 171 550.409 153.6 547.909C139 545.809 135.4 533.108 135.7 528.108Z" fill="#442C2A"/>
<path d="M217.7 485.409C217.7 485.409 176.7 493.009 154.8 502.409C135.6 510.709 136.2 519.309 135.7 528.109C135.4 533.209 139 545.809 153.6 548.009C171 550.609 191.5 547.809 217.7 531.109C217.7 490.209 217.7 485.409 217.7 485.409Z" stroke="black" stroke-width="4" stroke-miterlimit="10" stroke-linecap="round" stroke-linejoin="round"/>
<path d="M179.7 508.909C176.4 510.709 177.2 528.209 185.2 530.609" stroke="black" stroke-width="4" stroke-miterlimit="10" stroke-linecap="round" stroke-linejoin="round"/>
<path d="M192.2 507.608C188.8 512.408 191.2 523.708 197.3 526.508" stroke="black" stroke-width="4" stroke-miterlimit="10" stroke-linecap="round" stroke-linejoin="round"/>
<path d="M203.7 503.608C200.3 508.408 202.7 519.708 208.8 522.508" stroke="black" stroke-width="4" stroke-miterlimit="10" stroke-linecap="round" stroke-linejoin="round"/>
<path d="M321.7 451.809C300.1 466.809 269.4 475.409 237.3 475.409C205.3 475.409 174.5 466.809 152.9 451.809C143 444.909 126.4 430.509 126.4 411.309C126.4 392.109 143 377.709 152.9 370.809C174.5 355.809 205.2 347.209 237.3 347.209C269.3 347.209 300.1 355.809 321.7 370.809C331.6 377.709 348.2 392.109 348.2 411.309C348.2 430.509 331.6 444.909 321.7 451.809Z" fill="#151E28"/>
<path d="M420.6 427.309C420.2 429.309 419.8 431.209 419.2 433.209C403.6 490.109 328.4 533.309 237.9 533.309C147.2 533.309 71.8 489.909 56.5 432.809C56.1 431.209 55.7 429.609 55.4 428.009C55 425.009 55.1 422.009 55.7 419.009C59.4 402.209 79.8 392.509 101.3 397.309C115.4 400.409 126.4 409.109 131.3 419.409C131.8 421.609 132.6 423.809 133.5 425.909C138.7 437.909 149.1 446.909 156.1 451.909C177 466.909 206.9 475.509 237.9 475.509C269 475.509 298.8 466.909 319.7 451.909C326.8 446.809 337.3 437.709 342.4 425.709C343.2 423.809 343.9 421.709 344.4 419.709C349.2 409.309 360.3 400.609 374.5 397.409C396 392.609 416.4 402.409 420.1 419.109C420.8 421.709 420.9 424.509 420.6 427.309Z" fill="#2A3749"/>
<path opacity="0.67" d="M420.1 418.909C420 418.409 419.9 418.009 419.7 417.509C419.4 419.109 419 420.809 418.5 422.409C403.1 479.309 327.8 522.509 237.4 522.509C146.7 522.509 71.3 479.109 56 422.009C55.8 421.409 55.7 420.809 55.5 420.109C55.1 422.709 55 425.309 55.4 427.809C55.7 429.409 56.1 431.009 56.5 432.609C71.8 489.709 147.2 533.109 237.9 533.109C328.4 533.109 403.6 489.909 419.2 433.009C419.7 431.109 420.2 429.109 420.6 427.109C420.9 424.509 420.8 421.709 420.1 418.909Z" fill="#151E28"/>
<path d="M420.6 427.309C420.2 429.309 419.8 431.209 419.2 433.209C403.6 490.109 328.4 533.309 237.9 533.309C147.2 533.309 71.8 489.909 56.5 432.809C56.1 431.209 55.7 429.609 55.4 428.009C55 425.009 55.1 422.009 55.7 419.009C59.4 402.209 79.8 392.509 101.3 397.309C115.4 400.409 126.4 409.109 131.3 419.409C131.8 421.609 132.6 423.809 133.5 425.909C138.7 437.909 149.1 446.909 156.1 451.909C177 466.909 206.9 475.509 237.9 475.509C269 475.509 298.8 466.909 319.7 451.909C326.8 446.809 337.3 437.709 342.4 425.709C343.2 423.809 343.9 421.709 344.4 419.709C349.2 409.309 360.3 400.609 374.5 397.409C396 392.609 416.4 402.409 420.1 419.109C420.8 421.709 420.9 424.509 420.6 427.309Z" stroke="black" stroke-width="4" stroke-miterlimit="10" stroke-linecap="round" stroke-linejoin="round"/>
<path d="M239.1 444.909C288.861 444.909 329.2 431.209 329.2 414.309C329.2 397.409 288.861 383.709 239.1 383.709C189.339 383.709 149 397.409 149 414.309C149 431.209 189.339 444.909 239.1 444.909Z" fill="#9B2121"/>
<path d="M239.1 444.909C288.861 444.909 329.2 431.209 329.2 414.309C329.2 397.409 288.861 383.709 239.1 383.709C189.339 383.709 149 397.409 149 414.309C149 431.209 189.339 444.909 239.1 444.909Z" stroke="black" stroke-width="4" stroke-miterlimit="10" stroke-linecap="round" stroke-linejoin="round"/>
<path d="M341.7 347.509H134.1C118.2 347.509 105.9 333.609 107.9 317.809L117.1 244.309C119.7 223.309 137.5 207.609 158.7 207.609H317.3C338.4 207.609 356.2 223.309 358.9 244.309L368.1 317.809C369.9 333.609 357.6 347.509 341.7 347.509Z" fill="#EF233C"/>
<path d="M341.7 347.509H134.1C118.2 347.509 105.9 333.609 107.9 317.809L117.1 244.309C119.7 223.309 137.5 207.609 158.7 207.609H317.3C338.4 207.609 356.2 223.309 358.9 244.309L368.1 317.809C369.9 333.609 357.6 347.509 341.7 347.509Z" stroke="black" stroke-width="4" stroke-miterlimit="10" stroke-linecap="round" stroke-linejoin="round"/>
<path d="M156.6 269.709L154.6 294.809" stroke="black" stroke-width="4" stroke-miterlimit="10" stroke-linecap="round" stroke-linejoin="round"/>
<path d="M320.7 269.709L322.7 294.809" stroke="black" stroke-width="4" stroke-miterlimit="10" stroke-linecap="round" stroke-linejoin="round"/>
<path d="M341.7 347.508H134.1C118.2 347.508 105.9 333.608 107.9 317.808L117.1 244.308C119.7 223.308 137.5 207.608 158.7 207.608H317.3C338.4 207.608 356.2 223.308 358.9 244.308L368.1 317.808C369.9 333.608 357.6 347.508 341.7 347.508Z" fill="#EF233C"/>
<g opacity="0.24">
<path opacity="0.24" d="M117 252.108C119.6 231.108 137.4 215.408 158.6 215.408H317.2C338.3 215.408 356.1 231.108 358.8 252.108L367.9 325.008C368.2 322.708 368.3 320.308 368 317.808L358.8 244.308C356.2 223.308 338.4 207.608 317.2 207.608H158.6C137.5 207.608 119.7 223.308 117 244.308L107.8 317.808C107.5 320.208 107.5 322.608 107.9 325.008L117 252.108Z" fill="#9B2121"/>
<path opacity="0.24" d="M167.8 215.409C167.8 215.409 180.1 217.609 181.1 224.409C181.9 229.909 181.8 233.509 183.9 235.709C186 237.909 190.9 242.409 200.8 242.409C195.3 236.909 195.2 217.609 193.7 217.609C192.3 217.609 188.7 208.009 188.7 208.009L183.9 205.809C184 205.809 166.3 208.009 167.8 215.409Z" fill="#9B2121"/>
<path opacity="0.24" d="M299.2 215.409C299.2 215.409 286.9 217.609 285.9 224.409C285.1 229.909 285.2 233.509 283.1 235.709C281 237.809 276.1 242.409 266.2 242.409C271.7 236.909 271.8 217.609 273.3 217.609C274.7 217.609 278.3 208.009 278.3 208.009L283.1 205.809C283 205.809 300.7 208.009 299.2 215.409Z" fill="#9B2121"/>
</g>
<path d="M341.7 347.508H134.1C118.2 347.508 105.9 333.608 107.9 317.808L117.1 244.308C119.7 223.308 137.5 207.608 158.7 207.608H317.3C338.4 207.608 356.2 223.308 358.9 244.308L368.1 317.808C369.9 333.608 357.6 347.508 341.7 347.508Z" stroke="black" stroke-width="4" stroke-miterlimit="10" stroke-linecap="round" stroke-linejoin="round"/>
<path d="M156.6 269.708L154.6 294.808" stroke="black" stroke-width="4" stroke-miterlimit="10" stroke-linecap="round" stroke-linejoin="round"/>
<path d="M320.7 269.708L322.7 294.808" stroke="black" stroke-width="4" stroke-miterlimit="10" stroke-linecap="round" stroke-linejoin="round"/>
<path d="M211.2 165.809L178.3 164.109L162.9 165.809C162.9 165.809 152.6 173.509 152.6 175.609C152.6 177.709 153.6 194.809 153.6 194.809C153.6 194.809 177.9 198.109 180.5 200.609C183.1 203.109 198.5 217.509 198.5 217.509L213.4 211.709L221.2 190.909L211.2 165.809Z" fill="#9B2121"/>
<path d="M205.4 153.109H167.4C152.1 153.109 139.6 165.509 139.6 180.909C139.6 196.209 152 208.709 167.4 208.709H172.4C180.5 208.709 187 215.209 187 223.309V224.809C187 234.509 194.9 242.409 204.6 242.409V224.409C204.8 224.409 205 224.609 205 224.809V223.309C205 205.309 190.4 190.709 172.4 190.709H167.4C162 190.709 157.6 186.309 157.6 180.909C157.6 175.509 162 171.109 167.4 171.109H205.4V153.109Z" fill="#EF233C"/>
<path d="M203.1 212.009C198.5 199.609 186.5 190.609 172.5 190.609H167.5C162.1 190.609 157.7 186.209 157.7 180.809C157.7 175.409 162.1 171.009 167.5 171.009H205.5V153.009H167.5C152.2 153.009 139.7 165.409 139.7 180.809C139.7 196.109 152.1 208.609 167.5 208.609H172.5C180.6 208.609 187.1 215.109 187.1 223.209V224.709C187.1 234.409 195 242.309 204.7 242.309" stroke="black" stroke-width="4" stroke-miterlimit="10" stroke-linecap="round" stroke-linejoin="round"/>
<path d="M254.7 165.809L287.6 164.109L303 165.809C303 165.809 313.3 173.509 313.3 175.609C313.3 177.709 312.3 194.809 312.3 194.809C312.3 194.809 288 198.109 285.4 200.609C282.8 203.209 267.4 217.509 267.4 217.509L252.5 211.709L244.7 190.909L254.7 165.809Z" fill="#9B2121"/>
<path d="M260.5 153.109H298.5C313.8 153.109 326.3 165.509 326.3 180.909C326.3 196.209 313.9 208.709 298.5 208.709H293.5C285.4 208.709 278.9 215.209 278.9 223.309V224.809C278.9 234.509 271 242.409 261.3 242.409V224.409C261.1 224.409 260.9 224.609 260.9 224.809V223.309C260.9 205.309 275.5 190.709 293.5 190.709H298.5C303.9 190.709 308.3 186.309 308.3 180.909C308.3 175.509 303.9 171.109 298.5 171.109H260.5V153.109Z" fill="#EF233C"/>
<path d="M262.9 212.009C267.5 199.609 279.5 190.609 293.5 190.609H298.5C303.9 190.609 308.3 186.209 308.3 180.809C308.3 175.409 303.9 171.009 298.5 171.009H260.5V153.009H298.5C313.8 153.009 326.3 165.409 326.3 180.809C326.3 196.109 313.9 208.609 298.5 208.609H293.5C285.4 208.609 278.9 215.109 278.9 223.209V224.709C278.9 234.409 271 242.309 261.3 242.309" stroke="black" stroke-width="4" stroke-miterlimit="10" stroke-linecap="round" stroke-linejoin="round"/>
<path d="M234.8 228.209C256.339 228.209 273.8 210.748 273.8 189.209C273.8 167.67 256.339 150.209 234.8 150.209C213.261 150.209 195.8 167.67 195.8 189.209C195.8 210.748 213.261 228.209 234.8 228.209Z" fill="#F46262"/>
<path d="M197.5 177.709C208.3 184.609 221.1 188.709 234.8 188.709C248.5 188.709 261.3 184.709 272.1 177.709C267.2 161.709 252.4 150.109 234.8 150.109C217.3 150.209 202.4 161.809 197.5 177.709Z" fill="#EF233C"/>
<path d="M234.8 228.209C256.339 228.209 273.8 210.748 273.8 189.209C273.8 167.67 256.339 150.209 234.8 150.209C213.261 150.209 195.8 167.67 195.8 189.209C195.8 210.748 213.261 228.209 234.8 228.209Z" stroke="black" stroke-width="4" stroke-miterlimit="10" stroke-linecap="round" stroke-linejoin="round"/>
<path d="M234.8 211.809C222.1 211.809 211.8 201.509 211.8 188.809V171.609C211.8 168.409 214.4 165.809 217.6 165.809H252.1C255.3 165.809 257.9 168.409 257.9 171.609V188.809C257.8 201.509 247.5 211.809 234.8 211.809Z" fill="#FFC897"/>
<path d="M252.1 165.809H217.6C214.4 165.809 211.8 168.609 211.8 172.009V186.109C219 188.809 226.7 190.309 234.8 190.309C242.9 190.309 250.6 188.809 257.8 186.109V172.009C257.8 168.609 255.2 165.809 252.1 165.809Z" fill="#E5A973"/>
<path d="M234.8 211.809C222.1 211.809 211.8 201.509 211.8 188.809V171.609C211.8 168.409 214.4 165.809 217.6 165.809H252.1C255.3 165.809 257.9 168.409 257.9 171.609V188.809C257.8 201.509 247.5 211.809 234.8 211.809Z" stroke="black" stroke-width="4" stroke-miterlimit="10" stroke-linecap="round" stroke-linejoin="round"/>
<path d="M259.7 470.909H238.3V539.209H259.7V470.909Z" fill="#607691"/>
<path d="M259.7 470.909H238.3V539.209H259.7V470.909Z" stroke="black" stroke-width="4" stroke-miterlimit="10" stroke-linecap="round" stroke-linejoin="round"/>
<path d="M133.4 425.709C132.5 423.609 131.8 421.509 131.2 419.209C132.3 421.409 133 423.509 133.4 425.709Z" stroke="black" stroke-width="4" stroke-miterlimit="10" stroke-linecap="round" stroke-linejoin="round"/>
<path d="M342.5 425.509C342.9 423.409 343.6 421.409 344.5 419.509C344 421.609 343.3 423.609 342.5 425.509Z" stroke="black" stroke-width="4" stroke-miterlimit="10" stroke-linecap="round" stroke-linejoin="round"/>
<path d="M342.2 420.709H133.7C126.3 420.709 120 415.209 119 407.809L106 306.009C104.9 297.209 111.8 289.309 120.7 289.309H355.2C364.1 289.309 371 297.109 369.9 306.009L356.9 407.809C355.9 415.109 349.6 420.709 342.2 420.709Z" fill="#B5B5B5"/>
<path opacity="0.21" d="M356.8 401.409C355.9 408.809 349.6 414.309 342.1 414.309H133.7C126.3 414.309 120 408.809 119 401.409L106.2 301.109C105.9 302.709 105.8 304.309 106 306.009L119 407.809C119.9 415.209 126.2 420.709 133.7 420.709H342.2C349.6 420.709 355.9 415.209 356.9 407.809L369.9 306.009C370.1 304.309 370 302.709 369.7 301.109L356.8 401.409Z" fill="#7E7E7E"/>
<path opacity="0.21" d="M106.1 306.909C107.3 300.109 113.3 294.709 120.6 294.709H355.1C362.5 294.709 368.4 300.009 369.6 306.909L369.7 305.909C370.8 297.109 363.9 289.209 355 289.209H120.7C111.8 289.209 104.9 297.009 106 305.909L106.1 306.909Z" fill="#7E7E7E"/>
<path d="M342.2 420.709H133.7C126.3 420.709 120 415.209 119 407.809L106 306.009C104.9 297.209 111.8 289.309 120.7 289.309H355.2C364.1 289.309 371 297.109 369.9 306.009L356.9 407.809C355.9 415.109 349.6 420.709 342.2 420.709Z" stroke="black" stroke-width="4" stroke-miterlimit="10" stroke-linecap="round" stroke-linejoin="round"/>
<path opacity="0.66" d="M247.8 348.809C243.3 348.809 239.7 345.209 239.7 340.709C239.7 340.409 239.7 340.109 239.8 339.809C239 339.709 238.2 339.609 237.4 339.609C230.1 339.609 224.1 345.609 224.1 352.909C224.1 360.209 230.1 366.209 237.4 366.209C244.7 366.209 250.7 360.209 250.7 352.909C250.7 351.409 250.4 349.909 250 348.509C249.3 348.609 248.6 348.809 247.8 348.809Z" fill="#B5B5B5"/>
<path d="M351 509.709C347.7 499.009 337.6 493.309 321.2 488.509C310.8 485.509 297.6 484.109 276.9 479.909C266.8 477.909 259.7 473.909 259.7 473.909V485.409C259.7 485.409 328.2 498.909 338.9 516.609C344.1 525.309 342.5 546.609 318 548.809C325.5 549.909 337.8 548.009 344.4 541.309C352.6 533.009 354.8 521.909 351 509.709Z" fill="#282323" stroke="black" stroke-width="4" stroke-miterlimit="10" stroke-linecap="round" stroke-linejoin="round"/>
<path d="M259.7 485.409C259.7 485.409 300.7 493.009 322.6 502.409C341.8 510.709 341.2 519.309 341.7 528.109C342 533.209 338.4 545.809 323.8 548.009C306.4 550.609 285.9 547.809 259.7 531.109C259.7 490.209 259.7 485.409 259.7 485.409Z" fill="#442C2A"/>
<path opacity="0.37" d="M341.7 528.108C341.3 521.008 341.6 514.008 331.6 507.208C332 509.708 332.1 512.108 332.2 514.608C332.5 519.708 328.9 532.308 314.3 534.508C299.1 536.808 281.4 534.908 259.7 523.208C259.7 525.708 259.7 528.308 259.7 531.008C285.9 547.708 306.4 550.409 323.8 547.909C338.5 545.809 342 533.108 341.7 528.108Z" fill="#442C2A"/>
<path d="M259.7 485.409C259.7 485.409 300.7 493.009 322.6 502.409C341.8 510.709 341.2 519.309 341.7 528.109C342 533.209 338.4 545.809 323.8 548.009C306.4 550.609 285.9 547.809 259.7 531.109C259.7 490.209 259.7 485.409 259.7 485.409Z" stroke="black" stroke-width="4" stroke-miterlimit="10" stroke-linecap="round" stroke-linejoin="round"/>
<path d="M297.7 508.909C301 510.709 300.2 528.209 292.2 530.609" stroke="black" stroke-width="4" stroke-miterlimit="10" stroke-linecap="round" stroke-linejoin="round"/>
<path d="M285.2 507.608C288.6 512.408 286.2 523.708 280.1 526.508" stroke="black" stroke-width="4" stroke-miterlimit="10" stroke-linecap="round" stroke-linejoin="round"/>
<path d="M273.7 503.608C277.1 508.408 274.7 519.708 268.6 522.508" stroke="black" stroke-width="4" stroke-miterlimit="10" stroke-linecap="round" stroke-linejoin="round"/>
<path d="M199.7 232.209V285.409" stroke="black" stroke-width="6" stroke-miterlimit="10" stroke-linecap="round" stroke-linejoin="round"/>
<path d="M267.2 232.209V269.709" stroke="black" stroke-width="6" stroke-miterlimit="10" stroke-linecap="round" stroke-linejoin="round"/>
<path d="M267.2 281.009C271.784 281.009 275.5 277.293 275.5 272.709C275.5 268.125 271.784 264.409 267.2 264.409C262.616 264.409 258.9 268.125 258.9 272.709C258.9 277.293 262.616 281.009 267.2 281.009Z" fill="black"/>
<path d="M267.2 275.109C269.078 275.109 270.6 273.586 270.6 271.709C270.6 269.831 269.078 268.309 267.2 268.309C265.322 268.309 263.8 269.831 263.8 271.709C263.8 273.586 265.322 275.109 267.2 275.109Z" fill="#7E7E7E"/>
<path d="M234.8 182.709C200 182.709 171.7 154.509 171.7 119.609V46.4087H297.9V119.609C297.9 154.409 269.7 182.709 234.8 182.709Z" fill="#FFC897"/>
<path d="M234.8 174.009C200 174.009 171.7 145.809 171.7 110.909V119.609C171.7 154.409 199.9 182.709 234.8 182.709C269.6 182.709 297.9 154.509 297.9 119.609V110.909C297.9 145.709 269.7 174.009 234.8 174.009Z" fill="#E5A973"/>
<path d="M234.8 182.709C200 182.709 171.7 154.509 171.7 119.609V46.4087H297.9V119.609C297.9 154.409 269.7 182.709 234.8 182.709Z" stroke="black" stroke-width="4" stroke-miterlimit="10" stroke-linecap="round" stroke-linejoin="round"/>
<path d="M298.4 53.7087C298.2 50.3087 298 46.8087 297.9 43.4087C255.9 45.4087 213.7 45.1087 171.8 41.4087C171.5 45.3087 171.3 49.2087 171 53.1087C172.9 54.8087 174.9 56.6087 176.8 58.3087C178.4 59.1087 180.5 60.2087 182.4 61.2087C190.8 65.6087 202.5 71.2087 213.7 73.4087C217.8 74.2087 222.1 74.6087 226.5 74.5087C245.4 74.3087 261.3 66.8087 268 63.7087C269 63.2087 269.8 62.8087 270.3 62.7087C270.7 62.5087 271.1 62.4087 271.7 62.4087C272.9 62.4087 274.3 62.7087 276 63.0087C278.2 63.5087 280.8 64.0087 283.7 63.8087C287 63.6087 290 62.6087 292.9 60.7087C294.6 58.3087 296.5 56.0087 298.4 53.7087Z" fill="#E5A973"/>
<path d="M268 15.7087C268 15.7087 217.5 -17.5912 175.7 19.6088C167.9 26.5088 164.8 36.4088 164.8 45.5088V93.7088H171.8V58.7088C171.8 56.1088 173.6 54.1088 175.8 54.1088C179.4 54.1088 198.9 64.5087 215.4 67.4087C240.3 71.7087 263 60.2088 267.9 58.5088C276.3 55.5088 283.1 65.9088 293.7 54.2088H294.1C296.3 54.2088 298.1 56.3087 298.1 58.8087V93.8087H305.1V45.8088C304.9 34.0088 291.3 4.40875 268 15.7087Z" fill="#231A17"/>
<g opacity="0.34">
<path opacity="0.34" d="M171.7 87.1089H164.7V93.7089H171.7V87.1089Z" fill="#231A17"/>
<path opacity="0.34" d="M304.9 87.1089H297.9V93.7089H304.9V87.1089Z" fill="#231A17"/>
</g>
<path d="M268 15.7087C268 15.7087 217.5 -17.5912 175.7 19.6088C167.9 26.5088 164.8 36.4088 164.8 45.5088V93.7088H171.8V58.7088C171.8 56.1088 173.6 54.1088 175.8 54.1088C179.4 54.1088 198.9 64.5087 215.4 67.4087C240.3 71.7087 263 60.2088 267.9 58.5088C276.3 55.5088 283.1 65.9088 293.7 54.2088H294.1C296.3 54.2088 298.1 56.3087 298.1 58.8087V93.8087H305.1V45.8088C304.9 34.0088 291.3 4.40875 268 15.7087Z" stroke="black" stroke-width="4" stroke-miterlimit="10" stroke-linecap="round" stroke-linejoin="round"/>
<path d="M225.3 48.2087C225.3 48.2087 171.1 51.7087 159.6 22.9087" stroke="black" stroke-width="4" stroke-miterlimit="10" stroke-linecap="round" stroke-linejoin="round"/>
<path d="M233 41.309C233 41.309 180.8 38.009 167.2 9.20898" stroke="black" stroke-width="4" stroke-miterlimit="10" stroke-linecap="round" stroke-linejoin="round"/>
<path d="M297.9 85.9087V118.709C304.9 118.709 310.5 111.409 310.5 102.309C310.5 93.2087 304.9 85.9087 297.9 85.9087Z" fill="#FFC897"/>
<path d="M297.9 87.709V116.809C302 114.109 304.8 108.609 304.8 102.209C304.8 95.909 302 90.409 297.9 87.709Z" fill="#E5A973"/>
<path d="M297.9 85.9087V118.709C304.9 118.709 310.5 111.409 310.5 102.309C310.5 93.2087 304.9 85.9087 297.9 85.9087Z" stroke="black" stroke-width="4" stroke-miterlimit="10" stroke-linecap="round" stroke-linejoin="round"/>
<path d="M171.8 85.9087V118.709C164.8 118.709 159.2 111.409 159.2 102.309C159.1 93.2087 164.8 85.9087 171.8 85.9087Z" fill="#FFC897"/>
<path d="M171.8 88.3086C168.2 91.2086 165.7 96.4086 165.7 102.309C165.7 108.209 168.1 113.409 171.8 116.309V88.3086Z" fill="#E5A973"/>
<path d="M171.8 85.9087V118.709C164.8 118.709 159.2 111.409 159.2 102.309C159.1 93.2087 164.8 85.9087 171.8 85.9087Z" stroke="black" stroke-width="4" stroke-miterlimit="10" stroke-linecap="round" stroke-linejoin="round"/>
<path d="M232.2 112.609L228 126.309C228 127.809 232.9 126.609 237.9 127.809" stroke="black" stroke-width="4" stroke-miterlimit="10" stroke-linecap="round" stroke-linejoin="round"/>
<path d="M255.8 138.209C257.3 148.609 243.9 157.809 233.4 155.909" stroke="black" stroke-width="3" stroke-miterlimit="10" stroke-linecap="round" stroke-linejoin="round"/>
<path d="M212.1 101.009C214.42 101.009 216.3 98.9941 216.3 96.5088C216.3 94.0235 214.42 92.0088 212.1 92.0088C209.78 92.0088 207.9 94.0235 207.9 96.5088C207.9 98.9941 209.78 101.009 212.1 101.009Z" stroke="black" stroke-width="2" stroke-miterlimit="10" stroke-linecap="round" stroke-linejoin="round"/>
<path d="M212.1 101.009C214.42 101.009 216.3 98.9941 216.3 96.5088C216.3 94.0235 214.42 92.0088 212.1 92.0088C209.78 92.0088 207.9 94.0235 207.9 96.5088C207.9 98.9941 209.78 101.009 212.1 101.009Z" fill="black"/>
<path d="M197.6 87.0086C199.7 84.5086 204.6 82.8086 210.4 82.8086C215 82.8086 219 83.9086 221.5 85.6086" stroke="black" stroke-width="3" stroke-miterlimit="10" stroke-linecap="round" stroke-linejoin="round"/>
<path d="M258.1 101.009C260.42 101.009 262.3 98.9941 262.3 96.5088C262.3 94.0235 260.42 92.0088 258.1 92.0088C255.78 92.0088 253.9 94.0235 253.9 96.5088C253.9 98.9941 255.78 101.009 258.1 101.009Z" stroke="black" stroke-width="2" stroke-miterlimit="10" stroke-linecap="round" stroke-linejoin="round"/>
<path d="M258.1 101.009C260.42 101.009 262.3 98.9941 262.3 96.5088C262.3 94.0235 260.42 92.0088 258.1 92.0088C255.78 92.0088 253.9 94.0235 253.9 96.5088C253.9 98.9941 255.78 101.009 258.1 101.009Z" fill="black"/>
<path d="M272.6 87.0086C270.5 84.5086 265.6 82.8086 259.8 82.8086C255.2 82.8086 251.2 83.9086 248.7 85.6086" stroke="black" stroke-width="3" stroke-miterlimit="10" stroke-linecap="round" stroke-linejoin="round"/>
</g>
<defs>
<filter id="filter0_d" x="0" y="0.000976562" width="478.2" height="572.608" filterUnits="userSpaceOnUse" color-interpolation-filters="sRGB">
<feFlood flood-opacity="0" result="BackgroundImageFix"/>
<feColorMatrix in="SourceAlpha" type="matrix" values="0 0 0 0 0 0 0 0 0 0 0 0 0 0 0 0 0 0 127 0"/>
<feOffset dy="4"/>
<feGaussianBlur stdDeviation="2"/>
<feColorMatrix type="matrix" values="0 0 0 0 0 0 0 0 0 0 0 0 0 0 0 0 0 0 0.25 0"/>
<feBlend mode="normal" in2="BackgroundImageFix" result="effect1_dropShadow"/>
<feBlend mode="normal" in="SourceGraphic" in2="effect1_dropShadow" result="shape"/>
</filter>
</defs>
</svg>
