<svg width="200" height="200" viewBox="0 0 200 200" fill="none" xmlns="http://www.w3.org/2000/svg">
<path d="M100 175C141.421 175 175 141.421 175 100C175 58.5786 141.421 25 100 25C58.5786 25 25 58.5786 25 100C25 141.421 58.5786 175 100 175Z" stroke="white" stroke-width="10" stroke-linecap="round" stroke-linejoin="round"/>
<path d="M132.483 118.747C129.188 124.446 124.452 129.177 118.751 132.467C113.049 135.756 106.583 137.488 100 137.488C93.4177 137.488 86.951 135.756 81.2494 132.467C75.5478 129.178 70.8119 124.446 67.5171 118.748" stroke="white" stroke-width="10" stroke-linecap="round" stroke-linejoin="round"/>
<path d="M71.875 96.875C78.7786 96.875 84.375 91.2786 84.375 84.375C84.375 77.4714 78.7786 71.875 71.875 71.875C64.9714 71.875 59.375 77.4714 59.375 84.375C59.375 91.2786 64.9714 96.875 71.875 96.875Z" fill="white"/>
<path d="M128.125 96.875C135.029 96.875 140.625 91.2786 140.625 84.375C140.625 77.4714 135.029 71.875 128.125 71.875C121.221 71.875 115.625 77.4714 115.625 84.375C115.625 91.2786 121.221 96.875 128.125 96.875Z" fill="white"/>
</svg>
