<svg width="1280" height="720" viewBox="0 0 1280 720" fill="none" xmlns="http://www.w3.org/2000/svg">
<g clip-path="url(#clip0)">
<rect width="1280" height="720" fill="white"/>
<g filter="url(#filter0_d)">
<path d="M1443.66 -36.8802C1543.7 8.3845 1616.74 109.135 1657.23 220.106C1697.72 331.078 1704.87 453 1646.91 535.499C1588.16 618.728 1465.1 662.532 1361.89 699.036C1257.88 734.81 1174.52 763.283 1060.99 800.516C947.453 837.75 805.338 883.745 709.272 845.781C613.205 807.087 563.187 684.434 569.539 574.193C575.096 464.682 636.229 368.312 675.132 266.831C714.035 165.351 729.914 58.7597 795.017 3.27397C860.914 -52.9418 975.241 -58.7825 1095.92 -66.0832C1216.6 -73.384 1343.63 -82.1449 1443.66 -36.8802Z" fill="#F1F6FA"/>
</g>
<path opacity="0.2" d="M660.857 88H640V108.042H660.857V88Z" fill="#08BDBA"/>
<path opacity="0.2" d="M687.283 88H667.303V108.042H687.283V88Z" fill="#08BDBA"/>
<path opacity="0.2" d="M714.594 88H694.614V108.042H714.594V88Z" fill="#08BDBA"/>
<path opacity="0.2" d="M741.896 88H721.917V108.042H741.896V88Z" fill="#08BDBA"/>
<path opacity="0.2" d="M769.207 88H749.227V108.042H769.207V88Z" fill="#08BDBA"/>
<path d="M796.518 88H776.538V108.042H796.518V88Z" fill="#08BDBA"/>
<path opacity="0.2" d="M823.821 88H803.841V108.042H823.821V88Z" fill="#08BDBA"/>
<path opacity="0.2" d="M851.132 88H831.152V108.042H851.132V88Z" fill="#08BDBA"/>
<path opacity="0.2" d="M878.435 88H858.455V108.042H878.435V88Z" fill="#08BDBA"/>
<path d="M905.745 88H885.766V108.042H905.745V88Z" fill="#08BDBA"/>
<path opacity="0.2" d="M933.056 88H913.076V108.042H933.056V88Z" fill="#08BDBA"/>
<path opacity="0.2" d="M960.359 88H940.379V108.042H960.359V88Z" fill="#08BDBA"/>
<path opacity="0.2" d="M987.67 88H967.69V108.042H987.67V88Z" fill="#08BDBA"/>
<path opacity="0.2" d="M1014.98 88H995.001V108.042H1014.98V88Z" fill="#08BDBA"/>
<path opacity="0.2" d="M1042.28 88H1022.3V108.042H1042.28V88Z" fill="#08BDBA"/>
<path opacity="0.2" d="M1069.59 88H1049.61V108.042H1069.59V88Z" fill="#08BDBA"/>
<path d="M1096.9 88H1076.92V108.042H1096.9V88Z" fill="#08BDBA"/>
<path d="M1124.21 88H1104.23V108.042H1124.21V88Z" fill="#08BDBA"/>
<path opacity="0.2" d="M1151.52 88H1131.54V108.042H1151.52V88Z" fill="#08BDBA"/>
<path opacity="0.2" d="M1178.82 88H1158.84V108.042H1178.82V88Z" fill="#08BDBA"/>
<path d="M1206.13 88H1186.15V108.042H1206.13V88Z" fill="#08BDBA"/>
<path d="M1233.44 88H1213.46V108.042H1233.44V88Z" fill="#08BDBA"/>
<path d="M659.98 113.385H640V133.427H659.98V113.385Z" fill="#08BDBA"/>
<path opacity="0.2" d="M687.283 113.385H667.303V133.427H687.283V113.385Z" fill="#08BDBA"/>
<path opacity="0.7" d="M714.594 113.385H694.614V133.427H714.594V113.385Z" fill="#08BDBA"/>
<path opacity="0.2" d="M741.896 113.385H721.917V133.427H741.896V113.385Z" fill="#08BDBA"/>
<path opacity="0.4" d="M769.207 113.385H749.227V133.427H769.207V113.385Z" fill="#08BDBA"/>
<path d="M796.518 113.385H776.538V133.427H796.518V113.385Z" fill="#08BDBA"/>
<path opacity="0.4" d="M823.821 113.385H803.841V133.427H823.821V113.385Z" fill="#08BDBA"/>
<path opacity="0.2" d="M851.132 113.385H831.152V133.427H851.132V113.385Z" fill="#08BDBA"/>
<path opacity="0.4" d="M878.435 113.385H858.455V133.427H878.435V113.385Z" fill="#08BDBA"/>
<path d="M905.745 113.385H885.766V133.427H905.745V113.385Z" fill="#08BDBA"/>
<path opacity="0.4" d="M933.056 113.385H913.076V133.427H933.056V113.385Z" fill="#08BDBA"/>
<path opacity="0.4" d="M960.359 113.385H940.379V133.427H960.359V113.385Z" fill="#08BDBA"/>
<path opacity="0.2" d="M987.67 113.385H967.69V133.427H987.67V113.385Z" fill="#08BDBA"/>
<path opacity="0.4" d="M1014.98 113.385H995.001V133.427H1014.98V113.385Z" fill="#08BDBA"/>
<path opacity="0.4" d="M1042.28 113.385H1022.3V133.427H1042.28V113.385Z" fill="#08BDBA"/>
<path opacity="0.2" d="M1069.59 113.385H1049.61V133.427H1069.59V113.385Z" fill="#08BDBA"/>
<path opacity="0.2" d="M1096.9 113.385H1076.92V133.427H1096.9V113.385Z" fill="#08BDBA"/>
<path opacity="0.4" d="M1124.21 113.385H1104.23V133.427H1124.21V113.385Z" fill="#08BDBA"/>
<path opacity="0.2" d="M1151.52 113.385H1131.54V133.427H1151.52V113.385Z" fill="#08BDBA"/>
<path d="M1178.82 113.385H1158.84V133.427H1178.82V113.385Z" fill="#08BDBA"/>
<path d="M1206.13 113.385H1186.15V133.427H1206.13V113.385Z" fill="#08BDBA"/>
<path d="M1233.44 113.385H1213.46V133.427H1233.44V113.385Z" fill="#08BDBA"/>
<path d="M659.98 138.777H640V158.819H659.98V138.777Z" fill="#08BDBA"/>
<path opacity="0.7" d="M687.283 138.777H667.303V158.819H687.283V138.777Z" fill="#08BDBA"/>
<path opacity="0.7" d="M714.594 138.777H694.614V158.819H714.594V138.777Z" fill="#08BDBA"/>
<path opacity="0.2" d="M741.896 138.777H721.917V158.819H741.896V138.777Z" fill="#08BDBA"/>
<path opacity="0.4" d="M769.207 138.777H749.227V158.819H769.207V138.777Z" fill="#08BDBA"/>
<path opacity="0.4" d="M796.518 138.777H776.538V158.819H796.518V138.777Z" fill="#08BDBA"/>
<path d="M823.821 138.777H803.841V158.819H823.821V138.777Z" fill="#08BDBA"/>
<path opacity="0.2" d="M851.132 138.777H831.152V158.819H851.132V138.777Z" fill="#08BDBA"/>
<path opacity="0.4" d="M878.435 138.777H858.455V158.819H878.435V138.777Z" fill="#08BDBA"/>
<path d="M905.745 138.777H885.766V158.819H905.745V138.777Z" fill="#08BDBA"/>
<path opacity="0.2" d="M933.056 138.777H913.076V158.819H933.056V138.777Z" fill="#08BDBA"/>
<path opacity="0.4" d="M960.359 138.777H940.379V158.819H960.359V138.777Z" fill="#08BDBA"/>
<path opacity="0.2" d="M987.67 138.777H967.69V158.819H987.67V138.777Z" fill="#08BDBA"/>
<path d="M1014.98 138.777H995.001V158.819H1014.98V138.777Z" fill="#08BDBA"/>
<path opacity="0.2" d="M1042.28 138.777H1022.3V158.819H1042.28V138.777Z" fill="#08BDBA"/>
<path opacity="0.7" d="M1069.59 138.777H1049.61V158.819H1069.59V138.777Z" fill="#08BDBA"/>
<path opacity="0.7" d="M1096.9 138.777H1076.92V158.819H1096.9V138.777Z" fill="#08BDBA"/>
<path opacity="0.4" d="M1124.21 138.777H1104.23V158.819H1124.21V138.777Z" fill="#08BDBA"/>
<path opacity="0.2" d="M1151.52 138.777H1131.54V158.819H1151.52V138.777Z" fill="#08BDBA"/>
<path d="M1178.82 138.777H1158.84V158.819H1178.82V138.777Z" fill="#08BDBA"/>
<path d="M1206.13 138.777H1186.15V158.819H1206.13V138.777Z" fill="#08BDBA"/>
<path d="M1233.44 138.777H1213.46V158.819H1233.44V138.777Z" fill="#08BDBA"/>
<path d="M659.98 164.161H640V184.203H659.98V164.161Z" fill="#08BDBA"/>
<path opacity="0.7" d="M687.283 164.161H667.303V184.203H687.283V164.161Z" fill="#08BDBA"/>
<path opacity="0.7" d="M714.594 164.161H694.614V184.203H714.594V164.161Z" fill="#08BDBA"/>
<path opacity="0.2" d="M741.896 164.161H721.917V184.203H741.896V164.161Z" fill="#08BDBA"/>
<path opacity="0.2" d="M769.207 164.161H749.227V184.203H769.207V164.161Z" fill="#08BDBA"/>
<path opacity="0.4" d="M796.518 164.161H776.538V184.203H796.518V164.161Z" fill="#08BDBA"/>
<path opacity="0.4" d="M823.821 164.161H803.841V184.203H823.821V164.161Z" fill="#08BDBA"/>
<path d="M851.132 164.161H831.152V184.203H851.132V164.161Z" fill="#08BDBA"/>
<path opacity="0.2" d="M878.435 164.161H858.455V184.203H878.435V164.161Z" fill="#08BDBA"/>
<path opacity="0.4" d="M905.745 164.161H885.766V184.203H905.745V164.161Z" fill="#08BDBA"/>
<path opacity="0.4" d="M933.056 164.161H913.076V184.203H933.056V164.161Z" fill="#08BDBA"/>
<path opacity="0.4" d="M960.359 164.161H940.379V184.203H960.359V164.161Z" fill="#08BDBA"/>
<path opacity="0.4" d="M987.67 164.161H967.69V184.203H987.67V164.161Z" fill="#08BDBA"/>
<path opacity="0.2" d="M1014.98 164.161H995.001V184.203H1014.98V164.161Z" fill="#08BDBA"/>
<path opacity="0.2" d="M1042.28 164.161H1022.3V184.203H1042.28V164.161Z" fill="#08BDBA"/>
<path opacity="0.2" d="M1069.59 164.161H1049.61V184.203H1069.59V164.161Z" fill="#08BDBA"/>
<path opacity="0.2" d="M1096.9 164.161H1076.92V184.203H1096.9V164.161Z" fill="#08BDBA"/>
<path opacity="0.7" d="M1124.21 164.161H1104.23V184.203H1124.21V164.161Z" fill="#08BDBA"/>
<path opacity="0.7" d="M1151.52 164.161H1131.54V184.203H1151.52V164.161Z" fill="#08BDBA"/>
<path opacity="0.4" d="M1178.82 164.161H1158.84V184.203H1178.82V164.161Z" fill="#08BDBA"/>
<path opacity="0.2" d="M1206.13 164.161H1186.15V184.203H1206.13V164.161Z" fill="#08BDBA"/>
<path d="M1233.44 164.161H1213.46V184.203H1233.44V164.161Z" fill="#08BDBA"/>
<path opacity="0.2" d="M659.98 189.553H640V209.596H659.98V189.553Z" fill="#08BDBA"/>
<path opacity="0.7" d="M687.283 189.553H667.303V209.596H687.283V189.553Z" fill="#08BDBA"/>
<path opacity="0.7" d="M714.594 189.553H694.614V209.596H714.594V189.553Z" fill="#08BDBA"/>
<path opacity="0.2" d="M741.896 189.553H721.917V209.596H741.896V189.553Z" fill="#08BDBA"/>
<path opacity="0.2" d="M769.207 189.553H749.227V209.596H769.207V189.553Z" fill="#08BDBA"/>
<path opacity="0.4" d="M796.518 189.553H776.538V209.596H796.518V189.553Z" fill="#08BDBA"/>
<path d="M823.821 189.553H803.841V209.596H823.821V189.553Z" fill="#08BDBA"/>
<path opacity="0.2" d="M851.132 189.553H831.152V209.596H851.132V189.553Z" fill="#08BDBA"/>
<path d="M878.435 189.553H858.455V209.596H878.435V189.553Z" fill="#08BDBA"/>
<path d="M905.745 189.553H885.766V209.596H905.745V189.553Z" fill="#08BDBA"/>
<path d="M933.056 189.553H913.076V209.596H933.056V189.553Z" fill="#08BDBA"/>
<path opacity="0.2" d="M960.359 189.553H940.379V209.596H960.359V189.553Z" fill="#08BDBA"/>
<path d="M987.67 189.553H967.69V209.596H987.67V189.553Z" fill="#08BDBA"/>
<path opacity="0.2" d="M1014.98 189.553H995.001V209.596H1014.98V189.553Z" fill="#08BDBA"/>
<path opacity="0.2" d="M1042.28 189.553H1022.3V209.596H1042.28V189.553Z" fill="#08BDBA"/>
<path opacity="0.2" d="M1069.59 189.553H1049.61V209.596H1069.59V189.553Z" fill="#08BDBA"/>
<path opacity="0.2" d="M1096.9 189.553H1076.92V209.596H1096.9V189.553Z" fill="#08BDBA"/>
<path opacity="0.2" d="M1124.21 189.553H1104.23V209.596H1124.21V189.553Z" fill="#08BDBA"/>
<path opacity="0.7" d="M1151.52 189.553H1131.54V209.596H1151.52V189.553Z" fill="#08BDBA"/>
<path opacity="0.2" d="M1178.82 189.553H1158.84V209.596H1178.82V189.553Z" fill="#08BDBA"/>
<path opacity="0.2" d="M1206.13 189.553H1186.15V209.596H1206.13V189.553Z" fill="#08BDBA"/>
<path d="M1233.44 189.553H1213.46V209.596H1233.44V189.553Z" fill="#08BDBA"/>
<path opacity="0.2" d="M659.98 214.938H640V234.98H659.98V214.938Z" fill="#08BDBA"/>
<path opacity="0.2" d="M687.283 214.938H667.303V234.98H687.283V214.938Z" fill="#08BDBA"/>
<path opacity="0.7" d="M714.594 214.938H694.614V234.98H714.594V214.938Z" fill="#08BDBA"/>
<path opacity="0.2" d="M741.896 214.938H721.917V234.98H741.896V214.938Z" fill="#08BDBA"/>
<path opacity="0.2" d="M769.207 214.938H749.227V234.98H769.207V214.938Z" fill="#08BDBA"/>
<path opacity="0.2" d="M796.518 214.938H776.538V234.98H796.518V214.938Z" fill="#08BDBA"/>
<path d="M823.821 214.938H803.841V234.98H823.821V214.938Z" fill="#08BDBA"/>
<path opacity="0.2" d="M851.132 214.938H831.152V234.98H851.132V214.938Z" fill="#08BDBA"/>
<path d="M878.435 214.938H858.455V234.98H878.435V214.938Z" fill="#08BDBA"/>
<path d="M905.745 214.938H885.766V234.98H905.745V214.938Z" fill="#08BDBA"/>
<path opacity="0.2" d="M933.056 214.938H913.076V234.98H933.056V214.938Z" fill="#08BDBA"/>
<path opacity="0.2" d="M960.359 214.938H940.379V234.98H960.359V214.938Z" fill="#08BDBA"/>
<path opacity="0.2" d="M987.67 214.938H967.69V234.98H987.67V214.938Z" fill="#08BDBA"/>
<path opacity="0.2" d="M1014.98 214.938H995.001V234.98H1014.98V214.938Z" fill="#08BDBA"/>
<path opacity="0.2" d="M1042.28 214.938H1022.3V234.98H1042.28V214.938Z" fill="#08BDBA"/>
<path opacity="0.2" d="M1069.59 214.938H1049.61V234.98H1069.59V214.938Z" fill="#08BDBA"/>
<path opacity="0.2" d="M1096.9 214.938H1076.92V234.98H1096.9V214.938Z" fill="#08BDBA"/>
<path opacity="0.2" d="M1124.21 214.938H1104.23V234.98H1124.21V214.938Z" fill="#08BDBA"/>
<path opacity="0.2" d="M1151.52 214.938H1131.54V234.98H1151.52V214.938Z" fill="#08BDBA"/>
<path opacity="0.2" d="M1178.82 214.938H1158.84V234.98H1178.82V214.938Z" fill="#08BDBA"/>
<path opacity="0.4" d="M1206.13 214.938H1186.15V234.98H1206.13V214.938Z" fill="#08BDBA"/>
<path d="M1233.44 214.938H1213.46V234.98H1233.44V214.938Z" fill="#08BDBA"/>
<path opacity="0.7" d="M659.98 240.33H640V260.372H659.98V240.33Z" fill="#08BDBA"/>
<path opacity="0.2" d="M687.283 240.33H667.303V260.372H687.283V240.33Z" fill="#08BDBA"/>
<path opacity="0.2" d="M714.594 240.33H694.614V260.372H714.594V240.33Z" fill="#08BDBA"/>
<path opacity="0.2" d="M741.896 240.33H721.917V260.372H741.896V240.33Z" fill="#08BDBA"/>
<path opacity="0.2" d="M769.207 240.33H749.227V260.372H769.207V240.33Z" fill="#08BDBA"/>
<path opacity="0.2" d="M796.518 240.33H776.538V260.372H796.518V240.33Z" fill="#08BDBA"/>
<path opacity="0.2" d="M823.821 240.33H803.841V260.372H823.821V240.33Z" fill="#08BDBA"/>
<path d="M851.132 240.33H831.152V260.372H851.132V240.33Z" fill="#08BDBA"/>
<path opacity="0.2" d="M878.435 240.33H858.455V260.372H878.435V240.33Z" fill="#08BDBA"/>
<path opacity="0.2" d="M905.745 240.33H885.766V260.372H905.745V240.33Z" fill="#08BDBA"/>
<path opacity="0.2" d="M933.056 240.33H913.076V260.372H933.056V240.33Z" fill="#08BDBA"/>
<path d="M960.359 240.33H940.379V260.372H960.359V240.33Z" fill="#08BDBA"/>
<path opacity="0.2" d="M987.67 240.33H967.69V260.372H987.67V240.33Z" fill="#08BDBA"/>
<path opacity="0.2" d="M1014.98 240.33H995.001V260.372H1014.98V240.33Z" fill="#08BDBA"/>
<path opacity="0.2" d="M1042.28 240.33H1022.3V260.372H1042.28V240.33Z" fill="#08BDBA"/>
<path opacity="0.2" d="M1069.59 240.33H1049.61V260.372H1069.59V240.33Z" fill="#08BDBA"/>
<path opacity="0.2" d="M1096.9 240.33H1076.92V260.372H1096.9V240.33Z" fill="#08BDBA"/>
<path opacity="0.2" d="M1124.21 240.33H1104.23V260.372H1124.21V240.33Z" fill="#08BDBA"/>
<path opacity="0.2" d="M1151.52 240.33H1131.54V260.372H1151.52V240.33Z" fill="#08BDBA"/>
<path opacity="0.2" d="M1178.82 240.33H1158.84V260.372H1178.82V240.33Z" fill="#08BDBA"/>
<path opacity="0.2" d="M1206.13 240.33H1186.15V260.372H1206.13V240.33Z" fill="#08BDBA"/>
<path d="M1233.44 240.33H1213.46V260.372H1233.44V240.33Z" fill="#08BDBA"/>
<path d="M1058 587H677C676.735 587 676.48 586.895 676.293 586.707C676.105 586.52 676 586.265 676 586C676 585.735 676.105 585.48 676.293 585.293C676.48 585.105 676.735 585 677 585H1058C1058.27 585 1058.52 585.105 1058.71 585.293C1058.89 585.48 1059 585.735 1059 586C1059 586.265 1058.89 586.52 1058.71 586.707C1058.52 586.895 1058.27 587 1058 587Z" fill="#3F3D56"/>
<path d="M875.059 456C889.971 456 902.059 443.912 902.059 429C902.059 414.088 889.971 402 875.059 402C860.147 402 848.059 414.088 848.059 429C848.059 443.912 860.147 456 875.059 456Z" fill="#2F2E41"/>
<path d="M849.405 602.326L848.69 590.088L895.556 581.503L896.612 599.567L849.405 602.326Z" fill="#FFB8B8"/>
<path d="M851.675 581.141L853.055 604.745L838.194 605.613L835.945 567.148C837.897 567.034 839.852 567.306 841.699 567.947C843.545 568.589 845.248 569.587 846.708 570.887C848.169 572.186 849.359 573.76 850.212 575.52C851.064 577.279 851.561 579.189 851.675 581.141Z" fill="#2F2E41"/>
<path d="M869.789 602.214L862.004 611.685L821.768 586.166L833.257 572.188L869.789 602.214Z" fill="#FFB8B8"/>
<path d="M853.737 616.226L868.751 597.96L880.251 607.413L855.785 637.179C854.275 635.938 853.024 634.411 852.104 632.686C851.184 630.962 850.612 629.072 850.422 627.127C850.232 625.181 850.427 623.217 850.996 621.347C851.564 619.476 852.496 617.736 853.737 616.226V616.226Z" fill="#2F2E41"/>
<path d="M847.387 558.17L842.067 583.249C841.944 583.826 841.951 584.424 842.087 584.998C842.223 585.573 842.484 586.11 842.852 586.572C843.219 587.033 843.685 587.408 844.215 587.668C844.744 587.929 845.325 588.069 845.915 588.078L898.213 588.922C898.803 588.931 899.387 588.81 899.924 588.568C900.462 588.325 900.939 587.967 901.321 587.518C901.704 587.069 901.982 586.542 902.137 585.973C902.292 585.404 902.319 584.808 902.217 584.227L897.642 558.305C897.479 557.379 896.994 556.54 896.274 555.936C895.554 555.331 894.643 555 893.703 555H851.3C850.383 555 849.494 555.315 848.782 555.892C848.069 556.469 847.577 557.273 847.387 558.17V558.17Z" fill="#2F2E41"/>
<path d="M856.059 567C856.059 567 805.059 535 795.059 552C790.059 560.5 792.559 568.75 796.309 574.875C799.789 580.452 804.784 584.923 810.712 587.766L852.059 608L867.059 592L857.059 583L856.059 567Z" fill="#2F2E41"/>
<path d="M882.059 562C882.059 562 948.059 543 935.059 579C922.059 615 873.059 601 873.059 601L868.059 586L885.059 574L882.059 562Z" fill="#2F2E41"/>
<path d="M875.398 459.726C888.962 459.726 899.959 448.73 899.959 435.165C899.959 421.601 888.962 410.604 875.398 410.604C861.833 410.604 850.837 421.601 850.837 435.165C850.837 448.73 861.833 459.726 875.398 459.726Z" fill="#FFB8B8"/>
<path d="M876.685 565.969C866.479 565.814 856.325 564.477 846.427 561.982L846.135 561.902L832.429 498.857C831.197 493.318 832.035 487.518 834.786 482.554C837.537 477.59 842.011 473.805 847.362 471.914C863.892 465.983 881.908 465.624 898.662 470.89H898.662C904.284 472.701 909.015 476.566 911.913 481.712C914.812 486.858 915.663 492.908 914.297 498.654L898.989 561.85L898.773 561.952C892.411 564.966 884.456 565.969 876.685 565.969Z" fill="#CCCCCC"/>
<path d="M858.274 570.866C858.772 569.483 859.567 568.226 860.603 567.183C861.64 566.14 862.892 565.337 864.272 564.831C865.652 564.324 867.126 564.127 868.591 564.252C870.056 564.377 871.475 564.821 872.75 565.554L899.736 542.13L902.178 560.538L876.177 579.96C874.804 582.019 872.723 583.503 870.328 584.131C867.934 584.758 865.393 584.486 863.186 583.365C860.98 582.244 859.261 580.353 858.355 578.049C857.45 575.745 857.421 573.19 858.274 570.866V570.866Z" fill="#FFB8B8"/>
<path d="M884.012 575.976C883.573 575.975 883.136 575.911 882.716 575.785C882.033 575.586 881.408 575.227 880.892 574.737C880.377 574.247 879.986 573.641 879.753 572.969L876.496 563.74C876.191 562.887 876.152 561.962 876.385 561.087C876.617 560.211 877.11 559.427 877.798 558.838L914.567 536.764L900.073 472.103L900.442 472.014C900.592 471.977 915.442 468.597 921.527 484.824C925.789 496.189 941.559 520.901 940.446 537.601C940.235 540.941 938.904 544.112 936.668 546.603C934.432 549.094 931.422 550.759 928.124 551.328L886.736 575.041C885.957 575.645 884.999 575.974 884.012 575.976Z" fill="#CCCCCC"/>
<path d="M888.136 568.673C887.638 567.29 886.843 566.032 885.807 564.989C884.771 563.947 883.519 563.144 882.139 562.637C880.759 562.131 879.284 561.933 877.819 562.058C876.355 562.183 874.935 562.628 873.661 563.361L846.674 539.936L844.233 558.345L870.234 577.767C871.607 579.826 873.688 581.31 876.082 581.937C878.476 582.565 881.017 582.292 883.224 581.171C885.431 580.05 887.15 578.159 888.055 575.855C888.96 573.552 888.989 570.996 888.136 568.673V568.673Z" fill="#FFB8B8"/>
<path d="M865.106 575.975C864.12 575.974 863.162 575.645 862.382 575.041L817.994 553.328C814.696 552.758 811.686 551.094 809.45 548.603C807.214 546.112 805.883 542.941 805.672 539.6C804.559 522.901 823.329 496.189 827.591 484.824C833.676 468.597 848.526 471.976 848.677 472.014L849.045 472.102L831.551 538.764L871.32 558.838C872.008 559.427 872.501 560.211 872.733 561.087C872.966 561.962 872.927 562.887 872.622 563.74L869.365 572.969C869.132 573.641 868.741 574.247 868.226 574.737C867.71 575.227 867.085 575.586 866.402 575.785C865.982 575.911 865.545 575.975 865.106 575.975V575.975Z" fill="#CCCCCC"/>
<path d="M918.059 586H829.059C827.203 585.998 825.424 585.26 824.112 583.947C822.799 582.635 822.061 580.856 822.059 579V530C822.061 528.144 822.799 526.365 824.112 525.053C825.424 523.74 827.203 523.002 829.059 523H918.059C919.915 523.002 921.694 523.74 923.006 525.053C924.319 526.365 925.057 528.144 925.059 530V579C925.057 580.856 924.319 582.635 923.006 583.947C921.694 585.26 919.915 585.998 918.059 586V586Z" fill="#08BDBA"/>
<path d="M873.559 560.5C876.873 560.5 879.559 557.814 879.559 554.5C879.559 551.186 876.873 548.5 873.559 548.5C870.245 548.5 867.559 551.186 867.559 554.5C867.559 557.814 870.245 560.5 873.559 560.5Z" fill="white"/>
<path d="M850.591 434.166C849.135 430.473 851.523 426.073 855.066 424.285C858.609 422.496 862.885 422.836 866.675 424.015C869.859 425.006 872.844 426.541 875.951 427.754C879.015 429.111 882.361 429.707 885.704 429.49C889.019 429.116 892.317 427.258 893.673 424.21C895.079 421.052 894.123 417.197 891.958 414.502C889.655 411.896 886.674 409.98 883.347 408.967C876.039 406.392 867.598 406.317 860.814 410.059C854.03 413.802 849.42 421.77 850.822 429.389" fill="#2F2E41"/>
<path d="M708.662 575.318C709.898 562.013 713.31 549.001 718.763 536.801C720.283 533.406 721.955 530.086 723.781 526.84C723.873 526.671 723.895 526.472 723.843 526.286C723.791 526.101 723.668 525.942 723.502 525.845C723.335 525.748 723.138 525.719 722.95 525.765C722.763 525.81 722.601 525.927 722.498 526.09C715.858 537.911 711.207 550.743 708.73 564.072C708.041 567.795 707.523 571.543 707.176 575.318C707.088 576.271 708.575 576.265 708.662 575.318V575.318Z" fill="#E6E6E6"/>
<path d="M727.381 529.225C732.581 529.225 736.796 525.01 736.796 519.81C736.796 514.611 732.581 510.396 727.381 510.396C722.182 510.396 717.967 514.611 717.967 519.81C717.967 525.01 722.182 529.225 727.381 529.225Z" fill="#08BDBA"/>
<path d="M709.625 575.568C710.427 566.937 712.641 558.495 716.178 550.581C717.164 548.378 718.249 546.224 719.434 544.119C719.493 544.008 719.507 543.88 719.474 543.759C719.44 543.639 719.36 543.536 719.252 543.473C719.144 543.41 719.016 543.391 718.895 543.421C718.773 543.45 718.668 543.526 718.601 543.632C714.294 551.301 711.276 559.625 709.669 568.273C709.222 570.688 708.886 573.12 708.661 575.568C708.604 576.186 709.569 576.182 709.625 575.568H709.625Z" fill="#E6E6E6"/>
<path d="M721.769 545.665C725.142 545.665 727.877 542.931 727.877 539.558C727.877 536.185 725.142 533.45 721.769 533.45C718.396 533.45 715.662 536.185 715.662 539.558C715.662 542.931 718.396 545.665 721.769 545.665Z" fill="#08BDBA"/>
<path d="M708.408 574.992C703.731 567.693 700.284 559.675 698.206 551.259C697.629 548.916 697.159 546.55 696.798 544.162C696.777 544.038 696.709 543.928 696.609 543.854C696.508 543.779 696.382 543.747 696.258 543.764C696.134 543.78 696.022 543.845 695.944 543.943C695.866 544.041 695.83 544.165 695.842 544.29C697.163 552.986 699.904 561.406 703.955 569.212C705.088 571.392 706.319 573.516 707.648 575.585C707.983 576.107 708.741 575.511 708.408 574.992V574.992Z" fill="#E6E6E6"/>
<path d="M695.835 545.236C699.208 545.236 701.942 542.502 701.942 539.129C701.942 535.756 699.208 533.021 695.835 533.021C692.462 533.021 689.727 535.756 689.727 539.129C689.727 542.502 692.462 545.236 695.835 545.236Z" fill="#08BDBA"/>
<path d="M689.659 580.396V568.396C689.66 567.203 690.134 566.059 690.978 565.215C691.822 564.372 692.966 563.897 694.159 563.896H722.159C723.352 563.897 724.495 564.372 725.339 565.215C726.183 566.059 726.657 567.203 726.659 568.396V580.396C726.657 581.589 726.183 582.733 725.339 583.576C724.495 584.42 723.352 584.894 722.159 584.896H694.159C692.966 584.894 691.822 584.42 690.978 583.576C690.134 582.733 689.66 581.589 689.659 580.396V580.396Z" fill="#F2F2F2"/>
<path d="M990.409 594.401C990.409 600.978 985.077 603.967 978.5 603.967C971.923 603.967 966.591 600.978 966.591 594.401C966.591 587.824 969.238 580.15 978.5 582.796C987.762 578.826 990.409 587.824 990.409 594.401Z" fill="#FF6584"/>
<path d="M977.92 585.877C977.457 585.878 977.009 585.71 976.661 585.404C976.313 585.099 976.088 584.677 976.029 584.218C975.635 580.936 973.461 574.51 972.545 571.899L972.545 571.898C972.452 571.639 972.424 571.361 972.462 571.088C972.501 570.815 972.604 570.556 972.765 570.332C972.919 570.132 973.113 569.966 973.335 569.847C973.557 569.727 973.802 569.656 974.054 569.638C974.305 569.62 974.558 569.655 974.795 569.741C975.032 569.828 975.248 569.964 975.428 570.139C975.59 570.309 975.715 570.509 975.795 570.729C975.876 570.949 975.91 571.182 975.897 571.416C975.717 574.766 978.16 580.18 979.632 583.11C979.771 583.386 979.84 583.692 979.835 584.001C979.83 584.31 979.749 584.614 979.601 584.885C979.452 585.156 979.24 585.387 978.982 585.558C978.725 585.729 978.429 585.835 978.122 585.866C978.055 585.873 977.987 585.877 977.92 585.877V585.877Z" fill="#3F3D56"/>
<path d="M986.732 578.486C990.866 575.102 987.623 568.178 982.449 569.507C981.752 569.673 981.111 570.016 980.585 570.501C977.411 573.499 976.919 581.17 976.919 581.17C976.919 581.17 982.524 581.93 986.732 578.486Z" fill="#3F3D56"/>
<path d="M1134.72 327.369V302.334L1131.68 304.933V327.369L1136.92 331.875L1131.68 336.382H1134.72L1140 331.875L1134.72 327.369Z" fill="#FF8AE2"/>
<path d="M1213.29 300.361H1210.24L1215.48 304.868V312.368V316.875V333.356L1211.98 336.382H1215.02L1218.57 333.356V316.875V312.368V304.868L1213.29 300.361Z" fill="#FF8AE2"/>
<path d="M1081.94 288.354H1079.12L1084.4 292.86V300.361V304.868V313.848V333.356L1080.86 336.382H1083.71L1087.22 333.356V292.86L1081.94 288.354Z" fill="#FF8AE2"/>
<path d="M1033.39 327.369V302.269L1030.34 304.868V327.369L1035.62 331.875L1030.34 336.382H1033.39L1038.67 331.875L1033.39 327.369Z" fill="#FF8AE2"/>
<path d="M1116.38 295.854H1113.34V300.361H1116.38V295.854Z" fill="#FF8AE2"/>
<path d="M1113.34 330.362L1116.38 327.764V306.348L1123.43 300.361H1120.39L1113.34 306.348V330.362Z" fill="#FF8AE2"/>
<path d="M1116.88 327.369L1118.62 328.882L1113.34 333.356L1109.83 336.383H1112.88L1116.38 333.356L1121.66 328.882L1119.93 327.369H1116.88Z" fill="#FF8AE2"/>
<path d="M1163.39 327.369V304.868V300.361V292.86L1158.11 288.354H1155.07L1160.35 292.86V300.361V304.868V327.369L1165.59 331.875L1160.35 336.382H1163.39L1168.67 331.875L1163.39 327.369Z" fill="#FF8AE2"/>
<path d="M1168.67 300.361H1165.59L1172.64 306.348V325.856L1167.13 330.56L1168.67 331.876L1175.68 325.856V306.348L1168.67 300.361Z" fill="#FF8AE2"/>
<path d="M992.16 298.519V309.473L995.204 306.874V298.519V290.656L989.656 285.919H989.617H986.612L992.16 290.656V298.519Z" fill="#FF8AE2"/>
<path d="M1008.73 292.235V298.519V322.171V326.908L1012.43 330.066L1013.97 328.75L1011.77 326.908V322.171V298.519V292.235V290.656L1006.22 285.919H1003.18L1008.73 290.656V292.235Z" fill="#FF8AE2"/>
<path d="M1001.33 308.453L992.16 316.283V333.224L988.461 336.382H991.505L995.204 333.224V316.283L1001.33 311.052V308.453Z" fill="#FF8AE2"/>
<path d="M982.913 292.268L977.365 296.972H980.447L984.454 293.551L982.913 292.268Z" fill="#FF8AE2"/>
<path d="M1019.17 326.908H1016.13L1017.98 328.487L1014.28 331.645L1012.43 333.224L1008.73 336.382H1011.77L1015.47 333.224L1017.32 331.645L1021.02 328.487L1019.17 326.908Z" fill="#FF8AE2"/>
<path d="M1140 300.361H1136.92L1143.97 306.348V325.856L1138.46 330.56L1140 331.876L1147.02 325.856V306.348L1140 300.361Z" fill="#FF8AE2"/>
<path d="M1199.88 306.315L1187.63 316.776V327.369L1191.13 330.362L1192.67 329.08L1190.67 327.369V316.776L1202.92 306.315L1195.95 300.361H1192.91L1199.88 306.315Z" fill="#FF8AE2"/>
<path d="M1196.41 325.855L1198.18 327.368L1192.91 331.875L1191.13 333.356L1187.63 336.382H1190.67L1194.18 333.356L1195.95 331.875L1201.23 327.368L1199.46 325.855H1196.41Z" fill="#FF8AE2"/>
<path d="M1187.63 313.782L1190.67 311.184V307.466L1187.63 304.867V313.782Z" fill="#FF8AE2"/>
<path d="M1045.68 328.882V306.348L1038.67 300.361H1035.62L1042.64 306.348V328.882L1046.14 331.875L1040.9 336.382H1043.95L1049.19 331.875L1045.68 328.882Z" fill="#FF8AE2"/>
<path d="M1063.83 330.362L1065.33 329.079L1063.37 327.368V307.4L1060.36 304.867H1060.32V327.368L1063.83 330.362Z" fill="#FF8AE2"/>
<path d="M1072.15 325.855H1069.11L1070.84 327.368L1065.6 331.875L1063.83 333.356L1060.32 336.382H1063.37L1066.87 333.356L1068.64 331.875L1073.88 327.368L1072.15 325.855Z" fill="#FF8AE2"/>
<path d="M1065.6 309.309H1068.64L1073.88 304.802L1068.64 300.295H1065.6L1070.84 304.802L1065.6 309.309Z" fill="#FF8AE2"/>
<path d="M1092.73 300.361H1089.64L1094.92 304.868L1089.64 309.374H1092.73L1097.97 304.868L1092.73 300.361Z" fill="#FF8AE2"/>
<path d="M1223.81 300.361H1220.76L1226.04 304.868L1220.76 309.374H1223.81L1229.09 304.868L1223.81 300.361Z" fill="#FF8AE2"/>
<path d="M1092.73 309.375H1089.64L1094.92 313.848V333.356L1091.42 336.383H1094.46L1097.97 333.356V313.848L1092.73 309.375Z" fill="#FF8AE2"/>
<path d="M1120.39 300.361H1113.34V295.854L1101.05 306.348H1106.33V333.356L1109.83 336.382L1113.34 333.356L1118.62 328.882L1116.88 327.368L1113.34 330.362V306.348L1120.39 300.361Z" fill="#9C4668"/>
<path d="M1160.35 304.868V300.361V292.86L1155.07 288.354L1149.79 292.86L1153.3 295.854V330.362L1160.35 336.382L1165.59 331.875L1160.35 327.369V304.868Z" fill="#9C4668"/>
<path d="M1160.35 304.868L1165.59 309.374V331.876L1172.64 325.856V306.348L1165.59 300.361L1160.35 304.868Z" fill="#9C4668"/>
<path d="M1012.43 330.066L1008.73 326.908V322.171V298.519V292.235V290.656L1003.18 285.919L997.67 290.656L1001.33 293.781V301.644L992.161 309.473V298.519V290.656L986.612 285.919H986.574L975.477 295.36L977.365 296.972L982.913 292.268L984.763 293.847V333.224L988.462 336.382L992.161 333.224V316.283L1001.33 308.453V322.171V330.066L1008.73 336.382L1012.43 333.224L1014.28 331.645L1017.98 328.487L1016.13 326.908L1012.43 330.066Z" fill="#9C4668"/>
<path d="M1131.68 304.867L1124.63 310.855V330.362L1131.68 336.382L1136.92 331.875L1131.68 327.368V304.867Z" fill="#9C4668"/>
<path d="M1131.68 304.868L1136.92 309.374V331.876L1143.97 325.856V306.348L1136.92 300.361L1131.68 304.868Z" fill="#9C4668"/>
<path d="M1199.88 306.315L1192.91 300.361L1187.63 304.868L1192.87 309.309L1187.63 313.783V304.868L1180.58 310.855V330.363L1187.63 336.382L1191.13 333.356L1192.91 331.875L1198.18 327.369L1196.41 325.856L1191.13 330.363L1187.63 327.369V316.776L1199.88 306.315Z" fill="#9C4668"/>
<path d="M1030.34 304.867L1023.29 310.855V330.362L1030.34 336.382L1035.62 331.875L1030.34 327.368V304.867Z" fill="#9C4668"/>
<path d="M1042.64 306.348L1035.62 300.361L1030.34 304.868L1035.62 309.374V331.875L1040.9 336.382L1046.14 331.875L1042.64 328.882V306.348Z" fill="#9C4668"/>
<path d="M1063.83 330.362L1060.32 327.369V304.868L1053.27 310.855V330.362L1060.32 336.383L1063.83 333.356L1065.6 331.876L1070.84 327.369L1069.11 325.856L1063.83 330.362Z" fill="#9C4668"/>
<path d="M1065.61 300.305L1060.32 304.818L1065.61 309.33L1070.9 304.818L1065.61 300.305Z" fill="#9C4668"/>
<path d="M1089.68 300.339L1084.4 304.851L1089.68 309.364L1094.97 304.851L1089.68 300.339Z" fill="#9C4668"/>
<path d="M1087.91 316.875V333.356L1091.42 336.383L1094.92 333.356V313.848L1089.64 309.375L1084.4 313.848L1087.91 316.875Z" fill="#9C4668"/>
<path d="M1084.4 300.361V292.86L1079.12 288.354L1073.85 292.86L1077.35 295.854V333.356L1080.86 336.382L1084.4 333.356V313.848V304.868V300.361Z" fill="#9C4668"/>
<path d="M1220.8 300.337L1215.52 304.85L1220.8 309.362L1226.09 304.85L1220.8 300.337Z" fill="#9C4668"/>
<path d="M1204.97 304.868L1208.47 307.861V312.368V316.875V333.356L1211.98 336.382L1215.48 333.356V316.875V312.368V304.868L1210.24 300.361L1204.97 304.868Z" fill="#9C4668"/>
<path d="M1128.79 288.781V287.005H1129.6C1130.33 287.005 1130.91 287.498 1130.91 288.123V292.959C1130.1 293.189 1129.52 293.847 1129.52 294.637C1129.52 295.13 1129.75 295.558 1130.1 295.887C1130.49 296.216 1130.99 296.413 1131.6 296.413C1132.76 296.413 1133.68 295.624 1133.68 294.637C1133.68 293.913 1133.14 293.288 1132.41 292.992V288.123C1132.41 287.465 1132.1 286.873 1131.56 286.413C1131.03 285.952 1130.33 285.689 1129.56 285.689H1128.75V283.913L1125.94 286.314L1128.79 288.781ZM1131.64 293.847C1131.91 293.847 1132.14 293.946 1132.34 294.078C1132.49 294.209 1132.61 294.439 1132.61 294.637C1132.61 294.867 1132.49 295.064 1132.34 295.196C1132.14 295.361 1131.91 295.426 1131.68 295.426C1131.14 295.426 1130.72 295.064 1130.72 294.604C1130.68 294.209 1131.1 293.847 1131.64 293.847Z" fill="#9C4668"/>
<path d="M1125.52 294.67C1125.52 293.946 1124.98 293.321 1124.24 293.025V288.024C1124.98 287.761 1125.52 287.136 1125.52 286.38C1125.52 285.393 1124.59 284.603 1123.43 284.603C1122.28 284.603 1121.35 285.393 1121.35 286.38C1121.35 286.84 1121.55 287.301 1121.93 287.63C1122.16 287.827 1122.43 287.959 1122.7 288.057V292.992C1121.89 293.222 1121.32 293.88 1121.32 294.67C1121.32 295.163 1121.55 295.591 1121.89 295.92C1122.28 296.249 1122.78 296.446 1123.4 296.446C1124.59 296.446 1125.52 295.624 1125.52 294.67ZM1123.43 287.202C1123.16 287.202 1122.93 287.103 1122.78 286.972C1122.59 286.807 1122.51 286.61 1122.51 286.413C1122.51 285.952 1122.93 285.59 1123.47 285.59C1123.74 285.59 1123.97 285.689 1124.17 285.82C1124.32 285.952 1124.44 286.182 1124.44 286.38C1124.4 286.84 1123.97 287.202 1123.43 287.202ZM1123.43 295.459C1122.89 295.459 1122.47 295.097 1122.47 294.637C1122.47 294.406 1122.59 294.209 1122.74 294.077C1122.93 293.913 1123.16 293.847 1123.4 293.847C1123.67 293.847 1123.9 293.946 1124.09 294.077C1124.24 294.209 1124.36 294.439 1124.36 294.637C1124.4 295.097 1123.97 295.459 1123.43 295.459Z" fill="#9C4668"/>
<path d="M1179.8 302.861C1180.65 302.203 1180.73 301.084 1179.96 300.361C1179.73 300.163 1179.5 299.999 1179.23 299.9V296.512C1180.69 298.124 1182.42 298.815 1183.73 299.143C1183.81 299.44 1183.97 299.703 1184.2 299.933C1184.58 300.295 1185.08 300.492 1185.62 300.525C1186.16 300.558 1186.7 300.394 1187.13 300.065C1187.97 299.407 1188.05 298.288 1187.28 297.564C1186.89 297.203 1186.39 297.005 1185.85 296.972C1185.35 296.939 1184.89 297.071 1184.47 297.334C1184.43 297.367 1184.39 297.4 1184.35 297.433C1184.2 297.564 1184.04 297.696 1183.97 297.86C1182.81 297.532 1181.27 296.808 1180.04 295.196C1180.73 294.538 1180.77 293.518 1180.04 292.827C1179.3 292.137 1178.07 292.038 1177.22 292.597C1177.18 292.63 1177.15 292.663 1177.11 292.696C1176.26 293.354 1176.18 294.472 1176.95 295.196C1177.18 295.426 1177.45 295.558 1177.76 295.656V299.867C1177.57 299.933 1177.38 299.999 1177.22 300.13C1177.18 300.163 1177.15 300.196 1177.11 300.229C1176.68 300.558 1176.45 300.986 1176.41 301.446C1176.38 301.907 1176.57 302.367 1176.95 302.729C1177.65 303.42 1178.96 303.486 1179.8 302.861ZM1185.12 298.124C1185.31 297.992 1185.55 297.893 1185.82 297.926C1186.09 297.926 1186.32 298.025 1186.47 298.189C1186.82 298.518 1186.78 299.045 1186.39 299.341C1186.39 299.341 1186.35 299.374 1186.32 299.374C1186.12 299.505 1185.93 299.538 1185.7 299.538C1185.43 299.538 1185.2 299.44 1185.05 299.275C1184.89 299.111 1184.78 298.913 1184.81 298.683C1184.81 298.486 1184.93 298.288 1185.12 298.124ZM1177.84 293.419C1178.23 293.123 1178.84 293.156 1179.19 293.485C1179.54 293.814 1179.5 294.341 1179.11 294.637L1179.07 294.67C1178.69 294.933 1178.11 294.867 1177.8 294.571C1177.42 294.209 1177.45 293.716 1177.84 293.419ZM1177.49 301.479C1177.49 301.249 1177.61 301.051 1177.8 300.92C1178.19 300.624 1178.8 300.657 1179.15 300.986C1179.5 301.315 1179.46 301.841 1179.07 302.137L1179.03 302.17C1178.65 302.433 1178.07 302.367 1177.76 302.071C1177.57 301.907 1177.45 301.676 1177.49 301.479Z" fill="#9C4668"/>
<path d="M1029.3 284.636C1029.3 284.505 1029.34 284.34 1029.42 284.209H1026.65V285.229H1029.42C1029.3 285.064 1029.27 284.834 1029.3 284.636Z" fill="#9C4668"/>
<path d="M1033.16 284.834C1033.16 284.965 1033.12 285.13 1033.04 285.261H1035.82V284.241H1033.08C1033.12 284.406 1033.16 284.603 1033.16 284.834Z" fill="#9C4668"/>
<path d="M1033.74 284.735C1033.74 284.768 1033.74 284.834 1033.74 284.866C1033.7 285.459 1033.39 285.985 1032.89 286.347C1032.39 286.742 1031.73 286.906 1031.08 286.873C1029.69 286.807 1028.61 285.788 1028.69 284.603C1028.73 284.011 1029.03 283.485 1029.54 283.123C1030.04 282.728 1030.69 282.564 1031.35 282.597C1032.73 282.63 1033.74 283.584 1033.74 284.735ZM1029.88 284.735C1029.88 285.327 1030.42 285.82 1031.15 285.886C1031.5 285.919 1031.85 285.788 1032.12 285.59C1032.39 285.393 1032.54 285.097 1032.58 284.801C1032.62 284.176 1032.08 283.649 1031.35 283.584L1031.38 283.09L1031.35 283.584C1031 283.551 1030.65 283.682 1030.38 283.88C1030.11 284.077 1029.96 284.373 1029.92 284.669C1029.88 284.669 1029.88 284.702 1029.88 284.735Z" fill="#9C4668"/>
<path d="M1201.42 338.718C1201.42 338.586 1201.46 338.422 1201.54 338.29H1198.76V339.31H1201.54C1201.46 339.146 1201.42 338.915 1201.42 338.718Z" fill="#9C4668"/>
<path d="M1205.27 338.915C1205.27 339.047 1205.23 339.212 1205.16 339.343H1207.93V338.323H1205.2C1205.27 338.488 1205.31 338.685 1205.27 338.915Z" fill="#9C4668"/>
<path d="M1205.89 338.817C1205.89 338.85 1205.89 338.915 1205.89 338.948C1205.85 339.54 1205.54 340.067 1205.04 340.429C1204.54 340.791 1203.89 340.988 1203.23 340.955C1201.84 340.889 1200.77 339.87 1200.84 338.685C1200.88 338.093 1201.19 337.567 1201.69 337.205C1202.19 336.81 1202.85 336.646 1203.5 336.678C1204.85 336.744 1205.89 337.666 1205.89 338.817ZM1202.04 338.817C1202.04 339.409 1202.58 339.902 1203.31 339.968C1203.66 340.001 1204 339.87 1204.27 339.672C1204.54 339.475 1204.7 339.178 1204.73 338.883C1204.77 338.257 1204.23 337.731 1203.5 337.666L1203.54 337.172L1203.5 337.666C1203.15 337.632 1202.81 337.764 1202.54 337.962C1202.27 338.159 1202.11 338.455 1202.08 338.751C1202.04 338.784 1202.04 338.784 1202.04 338.817Z" fill="#9C4668"/>
<path d="M999.443 342.139C999.443 342.008 999.481 341.843 999.559 341.712H996.784V342.732H999.559C999.443 342.567 999.404 342.337 999.443 342.139Z" fill="#9C4668"/>
<path d="M1003.3 342.337C1003.3 342.468 1003.26 342.633 1003.18 342.764H1005.95V341.745H1003.22C1003.26 341.909 1003.3 342.106 1003.3 342.337Z" fill="#9C4668"/>
<path d="M1003.87 342.238C1003.87 342.271 1003.87 342.337 1003.87 342.37C1003.84 342.962 1003.53 343.488 1003.03 343.85C1002.53 344.245 1001.87 344.409 1001.22 344.376C999.828 344.31 998.749 343.291 998.827 342.106C998.865 341.514 999.173 340.988 999.674 340.626C1000.18 340.264 1000.83 340.067 1001.49 340.1C1002.83 340.133 1003.87 341.087 1003.87 342.238ZM1000.02 342.238C1000.02 342.83 1000.56 343.324 1001.29 343.389C1001.64 343.422 1001.99 343.291 1002.26 343.093C1002.53 342.896 1002.68 342.6 1002.72 342.304C1002.76 341.679 1002.22 341.152 1001.49 341.087L1001.52 340.56L1001.49 341.087C1001.14 341.054 1000.79 341.185 1000.52 341.383C1000.25 341.58 1000.1 341.876 1000.06 342.172C1000.02 342.205 1000.02 342.205 1000.02 342.238Z" fill="#9C4668"/>
<path d="M1098 294.736C1098 294.604 1098.04 294.439 1098.12 294.308H1095.35V295.328H1098.12C1098.04 295.13 1098 294.933 1098 294.736Z" fill="#9C4668"/>
<path d="M1101.86 294.933C1101.86 295.064 1101.82 295.229 1101.74 295.361H1104.52V294.308H1101.78C1101.86 294.505 1101.9 294.703 1101.86 294.933Z" fill="#9C4668"/>
<path d="M1102.47 294.834C1102.47 294.867 1102.47 294.933 1102.47 294.966C1102.44 295.558 1102.13 296.084 1101.63 296.446C1101.13 296.841 1100.47 297.005 1099.82 296.973C1098.43 296.907 1097.35 295.887 1097.43 294.703C1097.46 294.111 1097.77 293.584 1098.27 293.222C1098.77 292.828 1099.43 292.663 1100.08 292.696C1101.43 292.729 1102.47 293.683 1102.47 294.834ZM1098.62 294.834C1098.62 295.426 1099.16 295.92 1099.89 295.986C1100.24 296.019 1100.59 295.887 1100.86 295.69C1101.13 295.492 1101.28 295.196 1101.32 294.9C1101.36 294.275 1100.82 293.749 1100.08 293.683L1100.12 293.189L1100.08 293.683C1099.74 293.65 1099.39 293.782 1099.12 293.979C1098.85 294.176 1098.7 294.472 1098.66 294.768C1098.62 294.768 1098.62 294.801 1098.62 294.834Z" fill="#9C4668"/>
<path d="M1059.59 294.999C1058.97 294.176 1057.66 293.946 1056.7 294.505C1056.24 294.768 1055.93 295.163 1055.81 295.624C1055.7 296.084 1055.81 296.578 1056.12 296.973C1056.31 297.236 1056.74 297.499 1057.08 297.565V298.815C1057.08 299.177 1056.74 299.999 1055.7 299.999H1051.92V296.841C1052.19 296.742 1052.46 296.611 1052.65 296.38C1053.42 295.657 1053.35 294.538 1052.5 293.88C1051.65 293.222 1050.34 293.288 1049.57 294.012C1049.19 294.374 1049.03 294.834 1049.03 295.295C1049.03 295.755 1049.3 296.216 1049.73 296.512C1049.76 296.545 1049.8 296.578 1049.84 296.611C1049.99 296.709 1050.19 296.808 1050.38 296.874V301.085C1050.07 301.183 1049.8 301.348 1049.57 301.545C1048.8 302.269 1048.88 303.387 1049.73 304.045C1049.76 304.078 1049.8 304.111 1049.84 304.144C1050.69 304.703 1051.92 304.604 1052.65 303.914C1053.35 303.223 1053.35 302.17 1052.65 301.545C1052.54 301.446 1052.46 301.381 1052.38 301.315H1055.66C1057.66 301.315 1058.55 299.867 1058.55 298.881V297.663C1058.66 297.63 1058.82 297.565 1058.93 297.499C1058.97 297.466 1059.01 297.433 1059.05 297.4C1059.43 297.137 1059.7 296.775 1059.82 296.347C1060.01 295.854 1059.9 295.394 1059.59 294.999ZM1050.19 295.229C1050.19 294.999 1050.26 294.801 1050.42 294.637C1050.77 294.308 1051.31 294.275 1051.69 294.538C1051.73 294.538 1051.73 294.571 1051.73 294.571C1052.11 294.867 1052.15 295.394 1051.81 295.722C1051.46 296.051 1050.84 296.084 1050.46 295.788C1050.3 295.624 1050.19 295.426 1050.19 295.229ZM1051.88 303.223C1051.54 303.552 1050.96 303.585 1050.53 303.289C1050.15 302.993 1050.11 302.466 1050.46 302.137C1050.8 301.808 1051.34 301.775 1051.73 302.039C1051.77 302.039 1051.77 302.071 1051.77 302.071C1052.19 302.368 1052.23 302.894 1051.88 303.223ZM1058.78 296.15C1058.74 296.347 1058.59 296.545 1058.36 296.676C1058.16 296.808 1057.89 296.841 1057.62 296.808C1057.39 296.775 1057.16 296.644 1057.01 296.446C1056.85 296.282 1056.81 296.051 1056.85 295.821C1056.89 295.624 1057.01 295.459 1057.2 295.361C1057.24 295.361 1057.24 295.328 1057.28 295.328C1057.7 295.097 1058.32 295.196 1058.59 295.558C1058.78 295.722 1058.82 295.92 1058.78 296.15Z" fill="#9C4668"/>
<path d="M988.77 292.729H988.038V330.395H988.77V292.729Z" fill="#FF8AE2"/>
<path d="M1005.57 292.729H1004.84V327.796H1005.57V292.729Z" fill="#FF8AE2"/>
<path d="M1080.86 294.472H1080.13V331.843H1080.86V294.472Z" fill="#FF8AE2"/>
<path d="M1156.92 294.9H1156.19V327.994H1156.92V294.9Z" fill="#FF8AE2"/>
<path d="M1039.44 307.993H1038.71V329.507H1039.44V307.993Z" fill="#FF8AE2"/>
<path d="M1110.1 307.993H1109.37V329.507H1110.1V307.993Z" fill="#FF8AE2"/>
<path d="M1212.09 306.94H1211.36V330.527H1212.09V306.94Z" fill="#FF8AE2"/>
<path d="M1140.62 307.598H1139.89V325.23H1140.62V307.598Z" fill="#FF8AE2"/>
<path d="M1169.02 307.993H1168.28V325.625H1169.02V307.993Z" fill="#FF8AE2"/>
<path d="M1184 311.809H1183.27V329.441H1184V311.809Z" fill="#FF8AE2"/>
<path d="M1128.64 311.611H1127.9V329.244H1128.64V311.611Z" fill="#FF8AE2"/>
<path d="M1057.12 311.151H1056.39V329.145H1057.12V311.151Z" fill="#FF8AE2"/>
<path d="M1027.07 311.545H1026.34V328.981H1027.07V311.545Z" fill="#FF8AE2"/>
<path d="M1091.53 315.065H1090.8V332.501H1091.53V315.065Z" fill="#FF8AE2"/>
<path d="M988.77 315.954L988.192 315.46L1004.91 301.15L1005.49 301.677L988.77 315.954Z" fill="#FF8AE2"/>
<path d="M1206.47 326.349C1206.85 327.336 1207.7 328.06 1208.47 328.421V323.52C1206.62 325.165 1206.47 326.316 1206.47 326.349Z" fill="#FF8AE2"/>
<path d="M1103.01 328.553C1102.94 328.454 1102.9 328.323 1102.86 328.224C1102.9 328.356 1102.94 328.454 1103.01 328.553Z" fill="#FF8AE2"/>
<path d="M1106.29 322.5C1102.13 325.296 1103.01 328.553 1103.01 328.553C1103.67 329.738 1105.05 330.428 1106.33 330.823L1106.29 322.5Z" fill="#FF8AE2"/>
<path d="M1045.68 317.006V324.112C1046.57 323.421 1047.53 322.5 1047.99 321.48C1048.11 321.053 1048.41 319.013 1045.68 317.006Z" fill="#9C4668"/>
<path d="M1020.33 346.35C1020.33 346.35 1023.02 347.403 1022.37 353.39C1022.06 356.022 1023.72 358.456 1023.72 358.456C1023.72 358.456 1018.75 357.436 1018.05 354.245C1017.51 351.844 1019.9 349.442 1020.33 346.35Z" fill="#93C2DB"/>
<path d="M1015.36 293.091C1015.36 293.091 1021.14 289.275 1018.44 282.465C1018.44 282.465 1015.12 283.452 1015.7 286.413C1016.32 289.702 1016.36 291.742 1015.36 293.091Z" fill="#93C2DB"/>
<path d="M1204.66 320C1204.66 320 1202.08 313.388 1209.59 308.453C1209.59 308.453 1211.71 310.954 1209.24 313.585C1206.78 316.217 1204.7 318.224 1204.66 320Z" fill="#93C2DB"/>
<path d="M1101.66 319.474C1101.66 319.474 1098.89 313.289 1104.21 310.657C1104.21 310.657 1104.82 311.809 1104.55 313.717C1104.25 315.723 1102.7 316.02 1101.66 319.474Z" fill="#93C2DB"/>
<path d="M1060.17 293.782C1060.17 293.782 1062.06 289.538 1066.52 290.689C1066.52 290.656 1065.33 294.571 1060.17 293.782Z" fill="#93C2DB"/>
<path d="M1054.89 292.531C1054.89 292.531 1051.46 289.406 1055.08 286.281C1055.12 286.281 1058.24 288.781 1054.89 292.531Z" fill="#93C2DB"/>
<path d="M1048.11 293.781C1048.11 293.781 1043.1 294.472 1041.44 291.215C1041.4 291.215 1046.14 289.801 1048.11 293.781Z" fill="#93C2DB"/>
<path d="M1127.44 343.817C1127.44 343.817 1129.33 339.573 1133.8 340.725C1133.8 340.725 1132.6 344.639 1127.44 343.817Z" fill="#93C2DB"/>
<path d="M1122.16 342.6C1122.16 342.6 1118.73 339.474 1122.36 336.349C1122.36 336.349 1125.52 338.849 1122.16 342.6Z" fill="#93C2DB"/>
<path d="M1115.38 343.85C1115.38 343.85 1110.37 344.541 1108.72 341.284C1108.68 341.251 1113.42 339.837 1115.38 343.85Z" fill="#93C2DB"/>
<path d="M1178.8 289.834C1178.8 289.834 1176.92 286.413 1180.15 283.682C1180.11 283.682 1182.77 286.577 1178.8 289.834Z" fill="#93C2DB"/>
<path d="M1175.99 290.327C1175.99 290.327 1171.56 290.13 1170.29 286.38C1170.29 286.38 1174.53 285.788 1175.99 290.327Z" fill="#93C2DB"/>
<path d="M1072 400.465C1072 400.465 1067.72 402.373 1064.79 399.313C1064.79 399.313 1068.84 397.175 1072 400.465Z" fill="#93C2DB"/>
<path d="M1074 402.866C1074 402.866 1073.81 407.11 1069.38 407.735C1069.38 407.702 1069.03 403.688 1074 402.866Z" fill="#93C2DB"/>
<path d="M1130.02 386.352C1130.02 386.352 1134.03 384.74 1137.23 387.503C1137.23 387.47 1133.84 389.74 1130.02 386.352Z" fill="#93C2DB"/>
<path d="M1129.45 383.951C1129.45 383.951 1129.68 380.168 1134.07 379.082C1134.03 379.082 1134.76 382.701 1129.45 383.951Z" fill="#93C2DB"/>
<path d="M1221.61 338.553C1221.61 338.553 1226.04 339.705 1225.77 343.718C1225.77 343.685 1220.76 343.258 1221.61 338.553Z" fill="#93C2DB"/>
<path d="M1222.42 336.514C1222.42 336.514 1225.27 333.554 1229.7 335.856C1229.7 335.856 1227.2 338.817 1222.42 336.514Z" fill="#93C2DB"/>
<path d="M973.974 298.025C973.974 298.025 971.778 301.611 967 299.933C967 299.933 968.927 295.985 973.974 298.025Z" fill="#93C2DB"/>
<path d="M976.093 299.341C976.093 299.341 979.522 302.631 976.093 305.591C976.055 305.591 972.433 302.302 976.093 299.341Z" fill="#93C2DB"/>
<path d="M1120.54 284.899C1120.54 284.899 1116.23 284.11 1115.65 280.261C1115.61 280.261 1119.93 280.228 1120.54 284.899Z" fill="#93C2DB"/>
<path d="M1119.27 287.103C1119.27 287.103 1116.38 289.965 1112.14 288.584C1112.18 288.584 1114.19 285.327 1119.27 287.103Z" fill="#93C2DB"/>
<path d="M1192.33 324.605C1192.33 324.605 1193.14 323.388 1193.41 322.171C1193.91 320.132 1194.14 318.092 1197.03 317.993C1197.07 317.993 1197.14 323.586 1192.33 324.605Z" fill="#93C2DB"/>
<path d="M1175.22 352.469C1175.22 352.469 1177.99 348.686 1182.85 348.258C1188.82 347.765 1190.82 344.804 1191.94 343.028C1191.94 343.028 1183.74 342.929 1180.54 344.442C1177.26 345.988 1176.34 347.732 1175.22 352.469Z" fill="#93C2DB"/>
<path d="M1087.22 332.172C1087.45 329.935 1087.45 324.375 1086.79 321.908C1085.94 318.618 1085.17 318.717 1084.67 318.881C1084.17 319.046 1084.29 319.507 1084.02 319.77C1083.71 320.033 1083.25 320.362 1082.63 319.309C1082.01 318.224 1081.55 315.131 1080.4 314.046C1079.2 312.927 1078.43 314.736 1077.89 315.164C1077.35 315.592 1077.27 315.888 1075.77 315.032C1074.27 314.177 1070.18 312.401 1068.45 313.552C1066.76 314.704 1068.61 316.151 1069.14 316.447C1070.26 317.072 1073.85 318.026 1074.12 318.552C1074.58 319.507 1072.15 319.605 1071.69 320.296C1071.23 320.987 1071.84 321.711 1072.96 321.941C1074.08 322.171 1077.08 321.678 1078.35 321.941C1079.59 322.204 1079.32 322.566 1078.89 322.796C1078.66 322.928 1076.5 323.947 1076.85 324.836C1077.24 325.888 1078.47 326.217 1081.47 325.987C1083.75 325.823 1085.44 327.204 1085.94 328.323C1086.45 329.474 1087.22 332.172 1087.22 332.172Z" fill="#93C2DB"/>
<path d="M1072.03 314.704C1071.8 314.572 1071.57 314.473 1071.5 314.441L1071.07 314.671C1071.07 314.671 1071.15 314.737 1071.76 315.033C1081.55 320.033 1085.6 325.329 1087.29 329.145C1087.29 328.816 1087.29 328.487 1087.29 328.158C1085.4 324.342 1081.2 319.375 1072.03 314.704Z" fill="#FF8AE2"/>
<path d="M1136.77 317.894C1136.77 317.894 1136.11 312.796 1137.11 308.716C1137.73 306.249 1139.66 302.992 1142.39 300.361C1145.47 297.433 1146.55 296.939 1147.25 296.939C1147.55 296.939 1147.36 297.334 1147.25 297.729C1146.94 298.683 1146.67 299.407 1146.32 300.723C1145.67 303.387 1146.32 304.44 1145.36 305.789C1144.82 306.578 1141.58 307.598 1142.43 308.585C1142.93 309.144 1145.59 306.874 1146.32 307.631C1147.05 308.355 1145.63 311.743 1143.7 312.763C1138.19 315.625 1136.77 317.894 1136.77 317.894Z" fill="#93C2DB"/>
<path d="M1158.38 350.857V348.258H1141.12V352.666H1144.24V355.43H1141.12H1141.04V358.16H1137.92H1147.4V355.43H1161.43V350.857H1158.38Z" fill="#93C2DB"/>
<path d="M1083.48 359.509H1080.28V353.226H1075.46V375.431H1078.58V372.7H1083.48V370.134V364.838H1089.3V362.765H1093.88V359.509H1083.48Z" fill="#93C2DB"/>
<path d="M1126.79 369.509H1123.59V372.24H1126.79V369.509Z" fill="#93C2DB"/>
<path d="M1096.08 370.134H1092.88V372.865H1096.08V370.134Z" fill="#93C2DB"/>
<path d="M1099.28 372.865H1096.08V375.595H1099.28V372.865Z" fill="#93C2DB"/>
<path d="M1120.39 377.733V374.97H1123.59V372.24H1120.78V366.285H1117.08V372.24H1108.1V374.772H1105.09V377.733H1109.37H1120.39Z" fill="#93C2DB"/>
<path d="M1111.45 351.021H1108.25V353.752H1111.45V351.021Z" fill="#93C2DB"/>
<path d="M1114.65 348.258H1111.45V350.988H1114.65V348.258Z" fill="#93C2DB"/>
<path d="M1069.41 351.186H1064.87V353.258H1069.41V351.186Z" fill="#93C2DB"/>
<path d="M1055 354.41H1051.81V351.679H1048.61V354.41H1051.81V359.541V364.838H1066.1V359.541H1055V354.41ZM1058.24 362.075V364.805H1055.04V362.075H1058.24Z" fill="#93C2DB"/>
<path d="M1138.97 370.878V368.576H1136.27V370.878H1138.97Z" fill="#93C2DB"/>
<path d="M1047.26 343.817H1044.37V346.185H1047.26V343.817Z" fill="#93C2DB"/>
<path d="M1092.11 287.37V284.969H1089.3V287.37H1092.11Z" fill="#93C2DB"/>
<path d="M1144.81 290.462V288.061H1142V290.462H1144.81Z" fill="#93C2DB"/>
<path d="M1233 323.772V321.371H1230.19V323.772H1233Z" fill="#93C2DB"/>
<path d="M1135.82 398.923H1138.63V396.521H1135.82V398.923Z" fill="#93C2DB"/>
<path d="M1088.66 407.679H1091.48V405.278H1088.66V407.679Z" fill="#93C2DB"/>
<path d="M1148.68 337.207V334.905H1145.98V337.207H1148.68Z" fill="#93C2DB"/>
<path d="M1176.07 340.955V338.653H1173.37V340.955H1176.07Z" fill="#93C2DB"/>
<path d="M1071.56 338.894H1074.26V336.591H1071.56V338.894Z" fill="#93C2DB"/>
<path d="M1067.28 378.581V376.278H1064.58V378.581H1067.28Z" fill="#93C2DB"/>
<path d="M1147.4 355.429V358.16H1143.32V377.733H1148.25V375.167H1151.25V355.429H1147.4Z" fill="#9C4668"/>
<path d="M1114.65 348.258V351.022H1111.45V353.752H1108.25H1105.06V363.522V360.825H1108.29V362.14H1112.3V360.825V355.43H1122.97V353.258H1125.78V348.258H1114.65Z" fill="#9C4668"/>
<path d="M1074.28 341.21H1076.97V338.907H1074.28V341.21Z" fill="#FF8AE2"/>
<path d="M1092.8 350.725V348.258H1081.71V346.186H1073.77V353.226H1080.28V359.509H1083.48V355.002H1086.75V350.725H1092.8Z" fill="#9C4668"/>
<path d="M1051.81 367.568V364.838V359.509V354.41H1048.61V351.679H1051.81V348.916H1055V348.258V346.219H1047.26V349.015V349.311V376.22H1055V367.568H1051.81Z" fill="#9C4668"/>
<path d="M1047.26 376.22H1044.37V378.589H1047.26V376.22Z" fill="#9C4668"/>
<path d="M1161.35 348.258H1158.34V350.824H1161.35V348.258Z" fill="#9C4668"/>
<path d="M1164.35 350.857H1161.35V355.43H1164.35V350.857Z" fill="#9C4668"/>
<path d="M1164.35 345.692H1161.35V348.258H1164.35V345.692Z" fill="#9C4668"/>
<path d="M1123.59 374.97H1120.39V377.7H1123.59V374.97Z" fill="#9C4668"/>
<path d="M1083.48 375.43H1078.58V377.733H1083.48V375.43Z" fill="#9C4668"/>
<path d="M969.813 308.004V305.603H967V308.004H969.813Z" fill="#FF8AE2"/>
<path d="M1048.66 284.506V282.105H1045.85V284.506H1048.66Z" fill="#FF8AE2"/>
<path d="M1228.8 296.1V293.698H1225.99V296.1H1228.8Z" fill="#FF8AE2"/>
<path d="M1203.68 349.92H1206.49V347.518H1203.68V349.92Z" fill="#FF8AE2"/>
<path d="M1206.43 347.605H1209.24V345.204H1206.43V347.605Z" fill="#FF8AE2"/>
<path d="M1033.1 367.475H1035.91V365.074H1033.1V367.475Z" fill="#FF8AE2"/>
<path d="M1064.17 390.497H1066.99V388.095H1064.17V390.497Z" fill="#FF8AE2"/>
<path d="M1102.28 380.12H1105.09V377.719H1102.28V380.12Z" fill="#FF8AE2"/>
<path d="M1151.13 343.393V341.09H1148.43V343.393H1151.13Z" fill="#FF8AE2"/>
<path d="M1173.33 343.271V340.969H1170.64V343.271H1173.33Z" fill="#FF8AE2"/>
<path d="M1099.89 348.258H1092.8V350.725H1086.75V355.002H1096.66V352.173H1099.89V348.258Z" fill="#FF8AE2"/>
<path d="M1102.78 345.922H1099.89V348.291H1102.78V345.922Z" fill="#FF8AE2"/>
<path d="M1191.75 286.479H1188.74V289.044H1191.75V286.479Z" fill="#FF8AE2"/>
<path d="M1154.26 377.733H1151.25V380.299H1154.26V377.733Z" fill="#FF8AE2"/>
<path d="M1151.25 375.167H1148.25V377.733H1151.25V375.167Z" fill="#FF8AE2"/>
<path d="M1126.79 369.509V364.443H1124.67V362.14H1108.29V360.824H1105.06V363.555H1108.25V366.285H1117.08H1118.77H1120.78V372.24H1123.59V369.509H1126.79Z" fill="#FF8AE2"/>
<path d="M1111.45 348.258H1108.25V350.988H1111.45V348.258Z" fill="#FF8AE2"/>
<path d="M1108.25 351.021H1105.06V353.752H1108.25V351.021Z" fill="#FF8AE2"/>
<path d="M1093.84 362.765H1089.3V364.838H1093.84V362.765Z" fill="#FF8AE2"/>
<path d="M1044.37 378.588H1041.36V381.154H1044.37V378.588Z" fill="#FF8AE2"/>
<path d="M1058.2 362.074H1055V364.805H1058.2V362.074Z" fill="#FF8AE2"/>
<path d="M1055 364.838H1051.81V367.568H1055V364.838Z" fill="#FF8AE2"/>
<path d="M1061.67 348.258V346.186H1058.24H1055V348.916H1051.81V354.41H1055V353.258H1064.87V351.186H1069.45V348.258H1061.67Z" fill="#FF8AE2"/>
<path d="M1147.44 349.936H1144.24V352.666H1147.44V349.936Z" fill="#FF8AE2"/>
<path d="M1141.12 352.666V348.258H1130.6V355.43H1137.84V358.16H1141.04V355.43H1141.12H1144.24V352.666H1141.12Z" fill="#FF8AE2"/>
<path d="M1096.08 375.595V372.865H1092.88V370.134H1083.48V372.7H1078.58V375.43H1083.48V376.22V377.733H1099.31V375.595H1096.08Z" fill="#FF8AE2"/>
<path d="M1126.79 372.24H1123.59V374.97H1126.79V372.24Z" fill="#9C4668"/>
<path d="M1141.96 292.882V290.48H1139.15V292.882H1141.96Z" fill="#9C4668"/>
<path d="M980.372 315.043V312.642H977.559V315.043H980.372Z" fill="#9C4668"/>
<path d="M1055.02 340.017V337.616H1052.21V340.017H1055.02Z" fill="#9C4668"/>
<path d="M1023.59 339.269V336.867H1020.77V339.269H1023.59Z" fill="#9C4668"/>
<path d="M1230.19 326.192V323.791H1227.37V326.192H1230.19Z" fill="#9C4668"/>
<path d="M1133.02 396.505H1135.84V394.104H1133.02V396.505Z" fill="#9C4668"/>
<path d="M1161.46 367.983H1164.27V365.581H1161.46V367.983Z" fill="#9C4668"/>
<path d="M1085.83 405.293H1088.64V402.891H1085.83V405.293Z" fill="#FF8AE2"/>
<path d="M1136.24 373.162V370.859H1133.54V373.162H1136.24Z" fill="#9C4668"/>
<path d="M1092.65 341.416H1089.64V343.981H1092.65V341.416Z" fill="#9C4668"/>
<path d="M1064.58 380.897V378.594H1061.88V380.897H1064.58Z" fill="#9C4668"/>
<path d="M1111.99 398.096L1110.14 396.517L1107.06 399.149H1105.13V393.194L1106.79 391.78L1107.41 391.254L1108.06 390.727L1109.33 389.642V387.997V385.299L1106.6 382.997L1102.82 386.22L1103.48 386.747L1105.36 385.135L1106.79 386.385V390.694L1102.94 393.984L1102.63 394.247V399.642H1105.13H1109.64H1110.14L1111.99 398.096Z" fill="#9C4668"/>
<path d="M1109.33 387.997V389.642L1108.06 390.727L1107.41 391.254L1106.79 391.78L1105.13 393.194V399.149H1106.17V393.194L1107.83 391.78L1108.41 391.254L1109.06 390.727L1110.33 389.642V387.997V385.299L1107.6 382.997H1106.6L1109.33 385.299V387.997Z" fill="#FF8AE2"/>
<path d="M1111.18 396.517H1110.14L1111.99 398.096L1110.14 399.642H1111.18L1112.99 398.096L1111.18 396.517Z" fill="#FF8AE2"/>
<path d="M1105.86 385.596L1105.36 385.135L1103.48 386.747H1104.48L1105.86 385.596Z" fill="#FF8AE2"/>
<path d="M1122.09 392.504V395.958H1119.31V394.971V392.372H1117.35V387.405H1113.8V394.971H1115.61V399.84H1118.31H1119.31H1124.05V397.504V395.958V392.504H1122.09Z" fill="#93C2DB"/>
<path d="M1125.51 387.372V385.332H1122.97V387.405H1122.09V392.504H1124.05V395.958V397.339H1125.51V394.971H1126.75V387.372H1125.51Z" fill="#FF8AE2"/>
<path d="M1123.74 383.095H1117.73V384.345H1115.61V387.405H1117.35V392.372H1119.31V387.405H1122.97V385.332H1123.74V383.095Z" fill="#9C4668"/>
<path d="M1085.02 398.096L1083.17 396.517L1080.09 399.149H1078.16V393.194L1079.82 391.78L1080.43 391.254L1081.09 390.727L1082.36 389.642V387.997V385.299L1079.63 382.997L1075.85 386.22L1076.5 386.747L1078.39 385.135L1079.82 386.385V390.694L1075.96 393.984L1075.66 394.247V399.642H1078.16H1082.67H1083.17L1085.02 398.096Z" fill="#9C4668"/>
<path d="M1082.36 387.997V389.642L1081.09 390.727L1080.43 391.254L1079.82 391.78L1078.16 393.194V399.149H1079.2V393.194L1080.86 391.78L1081.44 391.254L1082.09 390.727L1083.36 389.642V387.997V385.299L1080.63 382.997H1079.63L1082.36 385.299V387.997Z" fill="#FF8AE2"/>
<path d="M1078.89 385.596L1078.39 385.135L1076.5 386.747H1077.51L1078.89 385.596Z" fill="#FF8AE2"/>
<path d="M1084.21 396.517H1083.17L1085.02 398.096L1083.17 399.642H1084.21L1086.02 398.096L1084.21 396.517Z" fill="#FF8AE2"/>
<path d="M1095.11 392.504V395.958H1092.34V394.971V392.372H1090.37V387.405H1086.83V394.971H1088.64V399.84H1091.34H1092.34H1097.08V397.504V395.958V392.504H1095.11Z" fill="#93C2DB"/>
<path d="M1098.54 387.372V385.332H1096V387.405H1095.11V392.504H1097.08V395.958V397.339H1098.54V394.971H1099.78V387.372H1098.54Z" fill="#FF8AE2"/>
<path d="M1096.77 383.095H1090.76V384.345H1088.64V387.405H1090.37V392.372H1092.34V387.405H1096V385.332H1096.77V383.095Z" fill="#9C4668"/>
<path d="M1082.01 351.876C1082.12 351.876 1082.21 351.803 1082.21 351.712C1082.21 351.621 1082.12 351.548 1082.01 351.548C1081.91 351.548 1081.82 351.621 1081.82 351.712C1081.82 351.803 1081.91 351.876 1082.01 351.876Z" fill="#FF8AE2"/>
<path d="M1081.59 356.186C1081.7 356.186 1081.78 356.112 1081.78 356.021C1081.78 355.931 1081.7 355.857 1081.59 355.857C1081.48 355.857 1081.4 355.931 1081.4 356.021C1081.4 356.112 1081.48 356.186 1081.59 356.186Z" fill="#FF8AE2"/>
<path d="M1082.44 358.521C1082.54 358.521 1082.63 358.448 1082.63 358.357C1082.63 358.266 1082.54 358.193 1082.44 358.193C1082.33 358.193 1082.24 358.266 1082.24 358.357C1082.24 358.448 1082.33 358.521 1082.44 358.521Z" fill="#FF8AE2"/>
<path d="M1081.44 354.212C1081.54 354.212 1081.63 354.138 1081.63 354.048C1081.63 353.957 1081.54 353.883 1081.44 353.883C1081.33 353.883 1081.24 353.957 1081.24 354.048C1081.24 354.138 1081.33 354.212 1081.44 354.212Z" fill="#FF8AE2"/>
<path d="M1083.17 350.265C1083.28 350.265 1083.36 350.191 1083.36 350.1C1083.36 350.009 1083.28 349.936 1083.17 349.936C1083.06 349.936 1082.98 350.009 1082.98 350.1C1082.98 350.191 1083.06 350.265 1083.17 350.265Z" fill="#FF8AE2"/>
<path d="M1079.39 348.455C1079.5 348.455 1079.59 348.382 1079.59 348.291C1079.59 348.2 1079.5 348.126 1079.39 348.126C1079.29 348.126 1079.2 348.2 1079.2 348.291C1079.2 348.382 1079.29 348.455 1079.39 348.455Z" fill="#FF8AE2"/>
<path d="M1084.87 354.015C1084.97 354.015 1085.06 353.941 1085.06 353.85C1085.06 353.76 1084.97 353.686 1084.87 353.686C1084.76 353.686 1084.67 353.76 1084.67 353.85C1084.67 353.941 1084.76 354.015 1084.87 354.015Z" fill="#FF8AE2"/>
<path d="M1087.6 349.442C1087.71 349.442 1087.79 349.369 1087.79 349.278C1087.79 349.187 1087.71 349.113 1087.6 349.113C1087.49 349.113 1087.41 349.187 1087.41 349.278C1087.41 349.369 1087.49 349.442 1087.6 349.442Z" fill="#FF8AE2"/>
<path d="M1091.34 350.067C1091.44 350.067 1091.53 349.994 1091.53 349.903C1091.53 349.812 1091.44 349.738 1091.34 349.738C1091.23 349.738 1091.15 349.812 1091.15 349.903C1091.15 349.994 1091.23 350.067 1091.34 350.067Z" fill="#FF8AE2"/>
<path d="M1075.46 350.89C1075.57 350.89 1075.66 350.816 1075.66 350.725C1075.66 350.634 1075.57 350.561 1075.46 350.561C1075.36 350.561 1075.27 350.634 1075.27 350.725C1075.27 350.816 1075.36 350.89 1075.46 350.89Z" fill="#FF8AE2"/>
<path d="M1078.43 352.337C1078.54 352.337 1078.62 352.263 1078.62 352.172C1078.62 352.082 1078.54 352.008 1078.43 352.008C1078.32 352.008 1078.24 352.082 1078.24 352.172C1078.24 352.263 1078.32 352.337 1078.43 352.337Z" fill="#FF8AE2"/>
<path d="M1078.01 350.199C1078.11 350.199 1078.2 350.125 1078.2 350.034C1078.2 349.943 1078.11 349.87 1078.01 349.87C1077.9 349.87 1077.81 349.943 1077.81 350.034C1077.81 350.125 1077.9 350.199 1078.01 350.199Z" fill="#FF8AE2"/>
<path d="M1075.19 347.896C1075.3 347.896 1075.39 347.822 1075.39 347.731C1075.39 347.641 1075.3 347.567 1075.19 347.567C1075.09 347.567 1075 347.641 1075 347.731C1075 347.822 1075.09 347.896 1075.19 347.896Z" fill="#FF8AE2"/>
<path d="M1084.67 351.284C1084.78 351.284 1084.87 351.211 1084.87 351.12C1084.87 351.029 1084.78 350.955 1084.67 350.955C1084.57 350.955 1084.48 351.029 1084.48 351.12C1084.48 351.211 1084.57 351.284 1084.67 351.284Z" fill="#FF8AE2"/>
<path d="M1106.67 356.548C1106.78 356.548 1106.87 356.474 1106.87 356.383C1106.87 356.292 1106.78 356.219 1106.67 356.219C1106.57 356.219 1106.48 356.292 1106.48 356.383C1106.48 356.474 1106.57 356.548 1106.67 356.548Z" fill="#FF8AE2"/>
<path d="M1117.46 351.745C1117.57 351.745 1117.66 351.671 1117.66 351.58C1117.66 351.489 1117.57 351.416 1117.46 351.416C1117.36 351.416 1117.27 351.489 1117.27 351.58C1117.27 351.671 1117.36 351.745 1117.46 351.745Z" fill="#FF8AE2"/>
<path d="M1110.45 359.311C1110.56 359.311 1110.64 359.238 1110.64 359.147C1110.64 359.056 1110.56 358.982 1110.45 358.982C1110.34 358.982 1110.26 359.056 1110.26 359.147C1110.26 359.238 1110.34 359.311 1110.45 359.311Z" fill="#FF8AE2"/>
<path d="M1108.87 357.897C1108.98 357.897 1109.06 357.823 1109.06 357.732C1109.06 357.641 1108.98 357.567 1108.87 357.567C1108.76 357.567 1108.68 357.641 1108.68 357.732C1108.68 357.823 1108.76 357.897 1108.87 357.897Z" fill="#FF8AE2"/>
<path d="M1110.87 361.449C1110.98 361.449 1111.07 361.376 1111.07 361.285C1111.07 361.194 1110.98 361.12 1110.87 361.12C1110.77 361.12 1110.68 361.194 1110.68 361.285C1110.68 361.376 1110.77 361.449 1110.87 361.449Z" fill="#FF8AE2"/>
<path d="M1120.81 353.587C1120.92 353.587 1121.01 353.514 1121.01 353.423C1121.01 353.332 1120.92 353.258 1120.81 353.258C1120.71 353.258 1120.62 353.332 1120.62 353.423C1120.62 353.514 1120.71 353.587 1120.81 353.587Z" fill="#FF8AE2"/>
<path d="M1106.87 359.87C1106.97 359.87 1107.06 359.797 1107.06 359.706C1107.06 359.615 1106.97 359.542 1106.87 359.542C1106.76 359.542 1106.67 359.615 1106.67 359.706C1106.67 359.797 1106.76 359.87 1106.87 359.87Z" fill="#FF8AE2"/>
<path d="M1117.27 354.212C1117.38 354.212 1117.46 354.138 1117.46 354.048C1117.46 353.957 1117.38 353.883 1117.27 353.883C1117.16 353.883 1117.08 353.957 1117.08 354.048C1117.08 354.138 1117.16 354.212 1117.27 354.212Z" fill="#FF8AE2"/>
<path d="M1121.93 350.923C1122.04 350.923 1122.12 350.849 1122.12 350.758C1122.12 350.667 1122.04 350.594 1121.93 350.594C1121.83 350.594 1121.74 350.667 1121.74 350.758C1121.74 350.849 1121.83 350.923 1121.93 350.923Z" fill="#FF8AE2"/>
<path d="M1123.67 349.771C1123.77 349.771 1123.86 349.698 1123.86 349.607C1123.86 349.516 1123.77 349.442 1123.67 349.442C1123.56 349.442 1123.47 349.516 1123.47 349.607C1123.47 349.698 1123.56 349.771 1123.67 349.771Z" fill="#FF8AE2"/>
<path d="M1113.99 352.337C1114.1 352.337 1114.19 352.263 1114.19 352.172C1114.19 352.082 1114.1 352.008 1113.99 352.008C1113.89 352.008 1113.8 352.082 1113.8 352.172C1113.8 352.263 1113.89 352.337 1113.99 352.337Z" fill="#FF8AE2"/>
<path d="M1108.1 354.903C1108.21 354.903 1108.29 354.829 1108.29 354.738C1108.29 354.647 1108.21 354.574 1108.1 354.574C1107.99 354.574 1107.91 354.647 1107.91 354.738C1107.91 354.829 1107.99 354.903 1108.1 354.903Z" fill="#FF8AE2"/>
<path d="M1119.12 350.067C1119.23 350.067 1119.31 349.994 1119.31 349.903C1119.31 349.812 1119.23 349.738 1119.12 349.738C1119.01 349.738 1118.93 349.812 1118.93 349.903C1118.93 349.994 1119.01 350.067 1119.12 350.067Z" fill="#FF8AE2"/>
<path d="M1115.61 349.442C1115.72 349.442 1115.81 349.369 1115.81 349.278C1115.81 349.187 1115.72 349.113 1115.61 349.113C1115.51 349.113 1115.42 349.187 1115.42 349.278C1115.42 349.369 1115.51 349.442 1115.61 349.442Z" fill="#FF8AE2"/>
<path d="M1110.64 356.12C1110.75 356.12 1110.83 356.046 1110.83 355.956C1110.83 355.865 1110.75 355.791 1110.64 355.791C1110.54 355.791 1110.45 355.865 1110.45 355.956C1110.45 356.046 1110.54 356.12 1110.64 356.12Z" fill="#FF8AE2"/>
<path d="M1149.4 368.752C1149.51 368.752 1149.6 368.679 1149.6 368.588C1149.6 368.497 1149.51 368.424 1149.4 368.424C1149.3 368.424 1149.21 368.497 1149.21 368.588C1149.21 368.679 1149.3 368.752 1149.4 368.752Z" fill="#FF8AE2"/>
<path d="M1149.13 362.699C1149.24 362.699 1149.33 362.626 1149.33 362.535C1149.33 362.444 1149.24 362.371 1149.13 362.371C1149.03 362.371 1148.94 362.444 1148.94 362.535C1148.94 362.626 1149.03 362.699 1149.13 362.699Z" fill="#FF8AE2"/>
<path d="M1149.17 358.094C1149.28 358.094 1149.37 358.021 1149.37 357.93C1149.37 357.839 1149.28 357.765 1149.17 357.765C1149.07 357.765 1148.98 357.839 1148.98 357.93C1148.98 358.021 1149.07 358.094 1149.17 358.094Z" fill="#FF8AE2"/>
<path d="M1148.4 365.627C1148.51 365.627 1148.59 365.554 1148.59 365.463C1148.59 365.372 1148.51 365.298 1148.4 365.298C1148.3 365.298 1148.21 365.372 1148.21 365.463C1148.21 365.554 1148.3 365.627 1148.4 365.627Z" fill="#FF8AE2"/>
<path d="M1146.59 373.588C1146.7 373.588 1146.78 373.515 1146.78 373.424C1146.78 373.333 1146.7 373.259 1146.59 373.259C1146.48 373.259 1146.4 373.333 1146.4 373.424C1146.4 373.515 1146.48 373.588 1146.59 373.588Z" fill="#FF8AE2"/>
<path d="M1145.67 376.22C1145.77 376.22 1145.86 376.146 1145.86 376.055C1145.86 375.965 1145.77 375.891 1145.67 375.891C1145.56 375.891 1145.47 375.965 1145.47 376.055C1145.47 376.146 1145.56 376.22 1145.67 376.22Z" fill="#FF8AE2"/>
<path d="M1146.59 360.462C1146.7 360.462 1146.78 360.389 1146.78 360.298C1146.78 360.207 1146.7 360.134 1146.59 360.134C1146.48 360.134 1146.4 360.207 1146.4 360.298C1146.4 360.389 1146.48 360.462 1146.59 360.462Z" fill="#FF8AE2"/>
<path d="M1149.75 373.128C1149.86 373.128 1149.94 373.054 1149.94 372.963C1149.94 372.872 1149.86 372.799 1149.75 372.799C1149.64 372.799 1149.56 372.872 1149.56 372.963C1149.56 373.054 1149.64 373.128 1149.75 373.128Z" fill="#FF8AE2"/>
<path d="M1146.82 368.654C1146.93 368.654 1147.01 368.58 1147.01 368.489C1147.01 368.398 1146.93 368.325 1146.82 368.325C1146.72 368.325 1146.63 368.398 1146.63 368.489C1146.63 368.58 1146.72 368.654 1146.82 368.654Z" fill="#FF8AE2"/>
<path d="M1145.2 371.417C1145.31 371.417 1145.4 371.343 1145.4 371.252C1145.4 371.162 1145.31 371.088 1145.2 371.088C1145.1 371.088 1145.01 371.162 1145.01 371.252C1145.01 371.343 1145.1 371.417 1145.2 371.417Z" fill="#FF8AE2"/>
<path d="M1144.7 363.291C1144.81 363.291 1144.9 363.218 1144.9 363.127C1144.9 363.036 1144.81 362.963 1144.7 362.963C1144.6 362.963 1144.51 363.036 1144.51 363.127C1144.51 363.218 1144.6 363.291 1144.7 363.291Z" fill="#FF8AE2"/>
<path d="M1048.34 375.397C1048.44 375.397 1048.53 375.324 1048.53 375.233C1048.53 375.142 1048.44 375.069 1048.34 375.069C1048.23 375.069 1048.15 375.142 1048.15 375.233C1048.15 375.324 1048.23 375.397 1048.34 375.397Z" fill="#FF8AE2"/>
<path d="M1054.08 374.509C1054.19 374.509 1054.27 374.436 1054.27 374.345C1054.27 374.254 1054.19 374.18 1054.08 374.18C1053.97 374.18 1053.89 374.254 1053.89 374.345C1053.89 374.436 1053.97 374.509 1054.08 374.509Z" fill="#FF8AE2"/>
<path d="M1048.53 356.811C1048.64 356.811 1048.72 356.737 1048.72 356.646C1048.72 356.555 1048.64 356.482 1048.53 356.482C1048.42 356.482 1048.34 356.555 1048.34 356.646C1048.34 356.737 1048.42 356.811 1048.53 356.811Z" fill="#FF8AE2"/>
<path d="M1050.34 350.626C1050.45 350.626 1050.53 350.553 1050.53 350.462C1050.53 350.371 1050.45 350.298 1050.34 350.298C1050.24 350.298 1050.15 350.371 1050.15 350.462C1050.15 350.553 1050.24 350.626 1050.34 350.626Z" fill="#FF8AE2"/>
<path d="M1053.62 347.699C1053.72 347.699 1053.81 347.625 1053.81 347.534C1053.81 347.443 1053.72 347.37 1053.62 347.37C1053.51 347.37 1053.42 347.443 1053.42 347.534C1053.42 347.625 1053.51 347.699 1053.62 347.699Z" fill="#FF8AE2"/>
<path d="M1049.11 366.746C1049.22 366.746 1049.3 366.672 1049.3 366.581C1049.3 366.49 1049.22 366.417 1049.11 366.417C1049 366.417 1048.92 366.49 1048.92 366.581C1048.92 366.672 1049 366.746 1049.11 366.746Z" fill="#FF8AE2"/>
<path d="M1048.95 373.358C1049.06 373.358 1049.15 373.284 1049.15 373.193C1049.15 373.103 1049.06 373.029 1048.95 373.029C1048.85 373.029 1048.76 373.103 1048.76 373.193C1048.76 373.284 1048.85 373.358 1048.95 373.358Z" fill="#FF8AE2"/>
<path d="M1049.69 361.778C1049.79 361.778 1049.88 361.705 1049.88 361.614C1049.88 361.523 1049.79 361.449 1049.69 361.449C1049.58 361.449 1049.49 361.523 1049.49 361.614C1049.49 361.705 1049.58 361.778 1049.69 361.778Z" fill="#FF8AE2"/>
<path d="M1051.84 371.91C1051.95 371.91 1052.04 371.837 1052.04 371.746C1052.04 371.655 1051.95 371.582 1051.84 371.582C1051.74 371.582 1051.65 371.655 1051.65 371.746C1051.65 371.837 1051.74 371.91 1051.84 371.91Z" fill="#FF8AE2"/>
<path d="M1050.73 374.246C1050.83 374.246 1050.92 374.173 1050.92 374.082C1050.92 373.991 1050.83 373.917 1050.73 373.917C1050.62 373.917 1050.53 373.991 1050.53 374.082C1050.53 374.173 1050.62 374.246 1050.73 374.246Z" fill="#FF8AE2"/>
<path d="M1051.69 347.436C1051.8 347.436 1051.88 347.362 1051.88 347.271C1051.88 347.18 1051.8 347.106 1051.69 347.106C1051.58 347.106 1051.5 347.18 1051.5 347.271C1051.5 347.362 1051.58 347.436 1051.69 347.436Z" fill="#FF8AE2"/>
<path d="M1050.69 368.226C1050.79 368.226 1050.88 368.152 1050.88 368.062C1050.88 367.971 1050.79 367.897 1050.69 367.897C1050.58 367.897 1050.5 367.971 1050.5 368.062C1050.5 368.152 1050.58 368.226 1050.69 368.226Z" fill="#FF8AE2"/>
<path d="M1053.39 369.443C1053.49 369.443 1053.58 369.37 1053.58 369.279C1053.58 369.188 1053.49 369.114 1053.39 369.114C1053.28 369.114 1053.19 369.188 1053.19 369.279C1053.19 369.37 1053.28 369.443 1053.39 369.443Z" fill="#FF8AE2"/>
<path d="M1048.53 347.962C1048.64 347.962 1048.72 347.888 1048.72 347.798C1048.72 347.707 1048.64 347.633 1048.53 347.633C1048.42 347.633 1048.34 347.707 1048.34 347.798C1048.34 347.888 1048.42 347.962 1048.53 347.962Z" fill="#FF8AE2"/>
<path d="M1049.34 364.509C1049.45 364.509 1049.53 364.435 1049.53 364.344C1049.53 364.253 1049.45 364.18 1049.34 364.18C1049.23 364.18 1049.15 364.253 1049.15 364.344C1049.15 364.435 1049.23 364.509 1049.34 364.509Z" fill="#FF8AE2"/>
<path d="M1116.54 385.53C1116.67 385.53 1116.77 385.441 1116.77 385.332C1116.77 385.223 1116.67 385.135 1116.54 385.135C1116.41 385.135 1116.31 385.223 1116.31 385.332C1116.31 385.441 1116.41 385.53 1116.54 385.53Z" fill="#FF8AE2"/>
<path d="M1121.01 384.049C1121.13 384.049 1121.24 383.961 1121.24 383.852C1121.24 383.743 1121.13 383.655 1121.01 383.655C1120.88 383.655 1120.78 383.743 1120.78 383.852C1120.78 383.961 1120.88 384.049 1121.01 384.049Z" fill="#FF8AE2"/>
<path d="M1119.27 385.859C1119.4 385.859 1119.5 385.77 1119.5 385.661C1119.5 385.552 1119.4 385.464 1119.27 385.464C1119.15 385.464 1119.04 385.552 1119.04 385.661C1119.04 385.77 1119.15 385.859 1119.27 385.859Z" fill="#FF8AE2"/>
<path d="M1121.85 386.451C1121.98 386.451 1122.09 386.362 1122.09 386.253C1122.09 386.144 1121.98 386.056 1121.85 386.056C1121.73 386.056 1121.62 386.144 1121.62 386.253C1121.62 386.362 1121.73 386.451 1121.85 386.451Z" fill="#FF8AE2"/>
<path d="M1118.54 387.141C1118.67 387.141 1118.77 387.053 1118.77 386.944C1118.77 386.835 1118.67 386.747 1118.54 386.747C1118.41 386.747 1118.31 386.835 1118.31 386.944C1118.31 387.053 1118.41 387.141 1118.54 387.141Z" fill="#FF8AE2"/>
<path d="M1118.31 391.747C1118.44 391.747 1118.54 391.659 1118.54 391.55C1118.54 391.44 1118.44 391.352 1118.31 391.352C1118.18 391.352 1118.08 391.44 1118.08 391.55C1118.08 391.659 1118.18 391.747 1118.31 391.747Z" fill="#FF8AE2"/>
<path d="M1117.96 389.28C1118.09 389.28 1118.19 389.191 1118.19 389.083C1118.19 388.973 1118.09 388.885 1117.96 388.885C1117.84 388.885 1117.73 388.973 1117.73 389.083C1117.73 389.191 1117.84 389.28 1117.96 389.28Z" fill="#FF8AE2"/>
<path d="M1089.57 385.53C1089.69 385.53 1089.8 385.441 1089.8 385.332C1089.8 385.223 1089.69 385.135 1089.57 385.135C1089.44 385.135 1089.33 385.223 1089.33 385.332C1089.33 385.441 1089.44 385.53 1089.57 385.53Z" fill="#FF8AE2"/>
<path d="M1090.99 386.451C1091.12 386.451 1091.22 386.362 1091.22 386.253C1091.22 386.144 1091.12 386.056 1090.99 386.056C1090.86 386.056 1090.76 386.144 1090.76 386.253C1090.76 386.362 1090.86 386.451 1090.99 386.451Z" fill="#FF8AE2"/>
<path d="M1095.11 384.246C1095.24 384.246 1095.35 384.158 1095.35 384.049C1095.35 383.94 1095.24 383.852 1095.11 383.852C1094.99 383.852 1094.88 383.94 1094.88 384.049C1094.88 384.158 1094.99 384.246 1095.11 384.246Z" fill="#FF8AE2"/>
<path d="M1093.8 386.056C1093.93 386.056 1094.04 385.968 1094.04 385.859C1094.04 385.75 1093.93 385.661 1093.8 385.661C1093.68 385.661 1093.57 385.75 1093.57 385.859C1093.57 385.968 1093.68 386.056 1093.8 386.056Z" fill="#FF8AE2"/>
<path d="M1091.34 388.392C1091.47 388.392 1091.57 388.303 1091.57 388.194C1091.57 388.085 1091.47 387.997 1091.34 387.997C1091.21 387.997 1091.11 388.085 1091.11 388.194C1091.11 388.303 1091.21 388.392 1091.34 388.392Z" fill="#FF8AE2"/>
<path d="M1091.57 385.102C1091.7 385.102 1091.8 385.013 1091.8 384.905C1091.8 384.796 1091.7 384.707 1091.57 384.707C1091.44 384.707 1091.34 384.796 1091.34 384.905C1091.34 385.013 1091.44 385.102 1091.57 385.102Z" fill="#FF8AE2"/>
<path d="M1091.22 391.122C1091.35 391.122 1091.45 391.033 1091.45 390.924C1091.45 390.816 1091.35 390.727 1091.22 390.727C1091.09 390.727 1090.99 390.816 1090.99 390.924C1090.99 391.033 1091.09 391.122 1091.22 391.122Z" fill="#FF8AE2"/>
<path d="M1207.93 296.051C1207.93 295.591 1206.89 295.393 1206.7 295.097C1206.58 294.933 1206.93 294.801 1207.2 294.834C1207.39 294.834 1209.05 295.097 1210.21 295.097C1214.14 295.196 1215.18 294.374 1215.14 293.913C1215.1 293.453 1213.6 293.222 1213.37 292.926C1213.17 292.63 1213.44 292.334 1214.79 292.137C1216.18 291.939 1218.57 291.841 1220.15 291.216C1221.73 290.591 1221.38 289.867 1219.38 289.341C1218.64 289.077 1219.11 288.683 1220.49 287.762C1221.88 286.84 1225.31 283.946 1224.23 282.432C1223.31 281.314 1221.61 281.972 1220.42 283.024C1219.49 283.814 1217.68 285.426 1217.03 285.459C1215.83 285.557 1216.91 284.011 1216.29 283.452C1215.68 282.893 1214.37 283.88 1213.83 284.702C1213.29 285.525 1212.86 286.84 1212.29 287.794C1211.67 288.847 1211.05 288.452 1210.86 288.09C1210.71 287.729 1210.98 286.248 1209.78 286.084C1208.74 285.952 1207.51 288.222 1206.47 289.505C1206.08 289.998 1205.58 290.459 1205.04 290.854C1204.73 291.051 1204.58 290.985 1204.5 290.854C1204.35 290.656 1204.5 289.406 1203.46 289.143C1202.54 288.946 1201.65 290.262 1200.46 291.479C1199.49 292.466 1198.15 292.992 1196.68 293.387C1194.68 293.913 1191.63 294.045 1191.63 294.045C1191.63 294.045 1193.14 294.604 1194.41 294.933C1197.49 295.722 1198.95 296.15 1202.42 296.446C1205.04 296.676 1207.78 296.907 1207.93 296.051C1207.93 296.084 1207.93 296.051 1207.93 296.051Z" fill="#93C2DB"/>
<path d="M1047.99 321.546C1049.65 318.553 1049.11 314.803 1047.26 311.842C1045.45 308.947 1043.1 306.874 1039.32 305.361C1038.4 304.999 1035.89 304.374 1035.89 304.374C1035.89 304.374 1035.93 306.184 1036.01 306.71C1036.36 308.914 1036.74 311.217 1038.32 312.73C1039.78 314.145 1041.67 314.835 1043.64 315.756C1049.07 318.355 1047.99 321.546 1047.99 321.546Z" fill="#93C2DB"/>
<path d="M1019.83 342.435C1019.83 342.435 1029.92 342.008 1033.7 348.357C1037.74 355.133 1041.71 357.436 1041.71 357.436C1041.71 357.436 1033.5 358.39 1029.61 354.377C1025.68 350.364 1027.42 346.317 1019.83 342.435Z" fill="#93C2DB"/>
<path d="M1206.47 326.349C1206.47 326.349 1204.5 321.908 1207.01 318.98C1208.97 316.645 1213.63 316.085 1217.8 316.48C1220.61 316.743 1224.19 315.197 1224.19 315.197C1224.19 315.197 1224.19 318.75 1219.65 319.868C1217.1 320.493 1214.87 319.54 1211.36 321.546C1206.78 324.145 1206.47 326.349 1206.47 326.349Z" fill="#93C2DB"/>
<path d="M1103.01 328.553C1101.36 325.56 1101.93 321.842 1103.75 318.849C1107.06 313.421 1115.11 312.368 1115.11 312.368C1115.11 312.368 1114.42 316.809 1111.91 319.342C1110.49 320.79 1107.98 321.316 1106.25 322.5C1102.13 325.296 1103.01 328.553 1103.01 328.553Z" fill="#93C2DB"/>
<path d="M1186.01 335.001C1185.7 334.803 1172.91 330.889 1184.43 322.862L1192.33 317.434C1192.33 317.434 1192.6 323.454 1187.63 327.402C1182.69 331.25 1186.01 335.001 1186.01 335.001Z" fill="#93C2DB"/>
<path d="M1058.63 335.001C1058.32 334.803 1045.53 330.889 1057.05 322.862L1064.94 317.434C1064.94 317.434 1065.21 323.454 1060.24 327.402C1055.35 331.25 1058.63 335.001 1058.63 335.001Z" fill="#93C2DB"/>
<path d="M1172.14 358.39C1172.14 358.39 1176.61 352.502 1184.24 352.008C1190.63 351.58 1198.61 354.738 1198.61 354.738C1198.61 354.738 1192.37 359.179 1184.47 358.456C1178.77 357.929 1177.11 356.317 1172.14 358.39Z" fill="#93C2DB"/>
<path d="M1016.2 301.512C1015.2 301.512 1015.12 303.881 1015.01 306.118C1014.89 309.078 1015.2 310.361 1015.7 313.092C1015.9 314.21 1016.36 315.559 1016.36 315.559C1016.36 315.559 1016.9 312.993 1017.78 311.348C1018.44 310.164 1019.21 309.078 1020.48 308.388C1022.02 307.565 1023.68 306.973 1023.6 306.184C1023.41 305.262 1021.94 305.23 1021.75 305.065C1021.64 304.966 1021.56 304.835 1021.83 304.605C1022.37 304.21 1022.99 303.848 1023.6 303.585C1025.22 302.861 1028.03 302.137 1027.99 301.249C1027.96 300.196 1026.22 300.262 1025.84 300.065C1025.41 299.867 1025.07 299.308 1026.38 298.913C1027.57 298.552 1029.15 298.387 1030.19 298.025C1031.23 297.696 1032.54 296.742 1032 296.117C1031.42 295.492 1029.5 296.216 1029.77 295.196C1029.92 294.637 1032 293.321 1033.08 292.663C1034.47 291.808 1035.47 290.426 1034.27 289.505C1032.66 288.387 1028.84 290.887 1027.57 291.939C1026.3 292.992 1025.8 293.321 1025.57 292.696C1025.22 290.952 1024.41 290.558 1023.49 291.808C1022.56 293.058 1022.1 295.065 1021.71 296.216C1021.33 297.367 1020.9 297.532 1020.6 297.334C1020.29 297.137 1020.21 295.788 1019.67 295.722C1019.17 295.624 1018.09 296.38 1017.63 299.736C1017.51 300.69 1017.55 302.137 1017.55 302.302C1017.51 302.565 1017.36 302.828 1017.17 302.697C1016.82 302.499 1016.74 301.545 1016.2 301.512Z" fill="#93C2DB"/>
<path d="M1154.22 325.757C1154.72 325.658 1154.72 324.737 1155.03 324.54C1155.22 324.408 1155.38 324.671 1155.45 324.901C1155.49 325.066 1155.57 326.513 1155.76 327.467C1156.49 330.79 1157.61 331.448 1158.11 331.316C1158.61 331.185 1158.57 329.869 1158.88 329.639C1159.19 329.408 1159.58 329.573 1160.08 330.658C1160.58 331.777 1161.19 333.751 1162.24 334.935C1163.28 336.119 1164.01 335.658 1164.2 333.882C1164.35 333.224 1164.89 333.52 1166.24 334.474C1167.59 335.428 1171.56 337.665 1173.06 336.481C1174.14 335.494 1173.02 334.178 1171.6 333.422C1170.52 332.796 1168.32 331.645 1168.13 331.086C1167.78 330.099 1169.75 330.691 1170.25 330.033C1170.75 329.375 1169.36 328.52 1168.32 328.257C1167.28 327.994 1165.7 327.895 1164.51 327.632C1163.2 327.336 1163.51 326.744 1163.89 326.513C1164.24 326.283 1165.97 326.25 1165.93 325.198C1165.9 324.309 1163.04 323.75 1161.39 323.158C1160.77 322.928 1160.15 322.599 1159.58 322.237C1159.31 322.039 1159.34 321.875 1159.46 321.776C1159.65 321.612 1161.08 321.447 1161.19 320.526C1161.19 319.737 1159.54 319.243 1157.96 318.519C1156.61 317.928 1155.76 316.908 1155.03 315.756C1154.03 314.21 1153.3 311.776 1153.3 311.776C1153.3 311.776 1152.95 313.026 1152.83 314.177C1152.6 316.94 1152.41 318.256 1152.79 321.184C1152.95 323.454 1153.22 325.823 1154.22 325.757Z" fill="#93C2DB"/>
<path d="M1141.58 303.782C1141.54 303.848 1137.54 309.045 1136.65 317.138C1136.57 316.546 1136.57 315.724 1136.53 315.098C1137.77 307.993 1141.12 303.585 1141.16 303.552L1141.58 303.782Z" fill="#FF8AE2"/>
<path d="M1035.2 354.903C1033 354.015 1032.12 352.469 1031.11 350.659C1030.38 349.343 1029.54 347.83 1027.99 346.383C1023.83 342.534 1014.39 341.678 1014.32 341.678L1014.39 341.185C1014.78 341.218 1024.14 342.073 1028.46 346.054C1030.07 347.534 1030.92 349.08 1031.69 350.429C1032.66 352.14 1033.47 353.62 1035.47 354.409L1035.2 354.903Z" fill="#FF8AE2"/>
<path d="M1016.32 319.342C1016.09 317.796 1015.2 309.868 1018.4 304.012C1022.18 297.17 1029.42 292.696 1029.5 292.663L1029.84 293.058C1029.77 293.091 1022.64 297.499 1018.94 304.243C1015.78 309.967 1016.7 317.796 1016.9 319.309L1016.32 319.342Z" fill="#FF8AE2"/>
<path d="M1197.88 294.735C1192.91 294.735 1188.44 293.814 1187.24 293.551L1187.4 293.058C1189.13 293.453 1198.07 295.262 1205.16 293.387C1213.48 291.183 1219.53 285.755 1219.61 285.689L1220.03 286.018C1219.95 286.084 1213.79 291.577 1205.35 293.847C1202.92 294.505 1200.3 294.735 1197.88 294.735Z" fill="#FF8AE2"/>
<path d="M1168.09 333.685C1168.01 333.652 1160.5 329.671 1156.19 323.092C1154.49 320.526 1153.68 317.434 1153.22 314.704C1153.1 314.046 1152.99 312.697 1152.99 312.697L1153.33 311.151C1153.53 314.342 1154.3 319.21 1156.69 322.862C1160.92 329.309 1168.32 333.257 1168.4 333.29L1168.09 333.685Z" fill="#FF8AE2"/>
<path d="M1048.92 316.94C1048.88 316.546 1048.84 316.118 1048.76 315.723C1045.53 311.381 1039.21 307.631 1038.9 307.466L1038.59 307.861C1038.63 307.894 1046.06 312.269 1048.92 316.94Z" fill="#FF8AE2"/>
<path d="M1061.44 321.776C1061.4 321.809 1059.09 323.717 1056.89 325.494C1054.19 327.665 1053.23 329.869 1053.96 332.435C1054.23 332.665 1054.5 332.895 1054.81 333.093C1053.69 330.362 1054.46 328.125 1057.32 325.856C1059.51 324.079 1061.86 322.138 1061.86 322.138L1061.44 321.776Z" fill="#FF8AE2"/>
<path d="M1188.44 322.533C1188.4 322.566 1186.09 324.474 1183.89 326.25C1181.69 328.027 1180.65 329.803 1180.73 331.777C1180.92 332.007 1181.15 332.205 1181.38 332.402C1181.04 330.297 1181.96 328.454 1184.31 326.579C1186.51 324.803 1188.86 322.862 1188.86 322.862L1188.44 322.533Z" fill="#FF8AE2"/>
<path d="M1102.24 322.697C1102.17 323.125 1102.09 323.553 1102.09 323.98C1104.86 319.112 1111.57 315.822 1111.64 315.789L1111.37 315.361C1111.34 315.361 1108.95 316.546 1106.44 318.487C1105.02 319.572 1103.44 320.987 1102.24 322.697Z" fill="#FF8AE2"/>
<path d="M1210.55 318.947C1213.21 317.829 1217.41 318.224 1217.45 318.224L1217.53 317.73C1217.33 317.697 1213.09 317.302 1210.28 318.487C1208.43 319.243 1206.93 320.46 1205.74 322.105C1205.7 322.434 1205.7 322.796 1205.74 323.125C1206.93 321.217 1208.55 319.802 1210.55 318.947Z" fill="#FF8AE2"/>
<path d="M1169.29 360.89L1168.82 360.594C1168.9 360.528 1170.36 358.883 1172.87 357.568C1174.26 356.844 1175.8 356.252 1177.76 355.66C1183.12 354.114 1191.02 354.64 1191.36 354.673L1191.33 355.166C1191.25 355.166 1183.2 354.607 1177.96 356.153C1175.99 356.712 1174.53 357.304 1173.18 357.995C1170.79 359.245 1169.32 360.89 1169.29 360.89Z" fill="#FF8AE2"/>
</g>
<defs>
<filter id="filter0_d" x="509" y="-132" width="1220" height="1032" filterUnits="userSpaceOnUse" color-interpolation-filters="sRGB">
<feFlood flood-opacity="0" result="BackgroundImageFix"/>
<feColorMatrix in="SourceAlpha" type="matrix" values="0 0 0 0 0 0 0 0 0 0 0 0 0 0 0 0 0 0 127 0"/>
<feOffset dx="-10" dy="-10"/>
<feGaussianBlur stdDeviation="25"/>
<feColorMatrix type="matrix" values="0 0 0 0 0.0313725 0 0 0 0 0.741176 0 0 0 0 0.729412 0 0 0 0.2 0"/>
<feBlend mode="normal" in2="BackgroundImageFix" result="effect1_dropShadow"/>
<feBlend mode="normal" in="SourceGraphic" in2="effect1_dropShadow" result="shape"/>
</filter>
<clipPath id="clip0">
<rect width="1280" height="720" fill="white"/>
</clipPath>
</defs>
</svg>
