<svg xmlns="http://www.w3.org/2000/svg" width="439" height="248" fill="none" viewBox="0 0 439 248">
    <path fill="#FF8AE2" d="M276.807 91.777V43.273l-5.023 5.035v43.47l8.648 8.731-8.648 8.732h5.023l8.712-8.732-8.712-8.732zM406.468 39.449h-5.024l8.649 8.732v55.196l-5.787 5.864h5.023l5.851-5.864V48.181l-8.712-8.732zM189.688 16.185h-4.642l8.713 8.732V103.377l-5.851 5.864h4.706l5.787-5.864v-78.46l-8.713-8.732zM109.566 91.777V43.146l-5.024 5.035v43.596l8.712 8.732-8.712 8.732h5.024l8.712-8.732-8.712-8.732zM246.538 30.717h-5.024v8.732h5.024v-8.732zM241.514 97.577l5.024-5.035V51.049l11.637-11.6h-5.024l-11.637 11.6v46.528zM247.365 91.777l2.862 2.932-8.712 8.668-5.787 5.864h5.024l5.787-5.864 8.711-8.668-2.861-2.932h-5.024zM324.119 91.777v-66.86l-8.712-8.732h-5.024l8.712 8.732v66.86l8.649 8.732-8.649 8.732h5.024l8.711-8.732-8.711-8.732z"/>
    <path fill="#FF8AE2" d="M332.83 39.449h-5.087l11.638 11.6v37.796l-9.094 9.114 2.543 2.55 11.574-11.664V51.05l-11.574-11.6zM41.524 35.88v21.224l5.024-5.035V20.647l-9.157-9.178h-5.024l9.157 9.178V35.88zM68.868 23.706v67.179l6.105 6.118 2.544-2.55-3.625-3.568V20.646l-9.157-9.178H59.71l9.157 9.179v3.059zM56.658 55.128l-15.134 15.17v32.824l-6.105 6.119h5.024l6.104-6.119V70.298l10.111-10.135v-5.035zM26.262 23.77l-9.157 9.114h5.088l6.613-6.628-2.544-2.486zM86.1 90.885h-5.022l3.052 3.059-6.105 6.119-3.053 3.059-6.104 6.119h5.024l6.105-6.119 3.052-3.059 6.104-6.119-3.052-3.06zM285.519 39.449h-5.087l11.637 11.6v37.796l-9.094 9.114 2.544 2.55 11.574-11.664V51.05l-11.574-11.6zM384.339 50.985l-20.222 20.269v20.523l5.787 5.8 2.543-2.486-3.306-3.314V71.254l20.221-20.269-11.51-11.536h-5.023l11.51 11.536zM378.615 88.845l2.926 2.932-8.712 8.732-2.925 2.868-5.787 5.864h5.024l5.786-5.864 2.925-2.868 8.713-8.732-2.926-2.932h-5.024z"/>
    <path fill="#FF8AE2" d="M364.117 65.454l5.024-5.036v-7.202l-5.024-5.035v17.273zM129.85 94.709v-43.66l-11.573-11.6h-5.023l11.573 11.6v43.66l5.787 5.8-8.649 8.732h5.024l8.648-8.732-5.787-5.8zM159.802 97.577l2.48-2.486-3.243-3.314V53.089l-4.96-4.908h-.064v43.596l5.787 5.8zM173.537 88.845h-5.023l2.861 2.932-8.648 8.732-2.925 2.868-5.787 5.864h5.024l5.787-5.864 2.924-2.868 8.649-8.732-2.862-2.932zM162.727 56.785h5.023l8.649-8.732-8.649-8.732h-5.023l8.648 8.732-8.648 8.732zM207.494 39.449h-5.087l8.712 8.732-8.712 8.732h5.087l8.648-8.732-8.648-8.732zM423.828 39.449h-5.024l8.712 8.732-8.712 8.732h5.024l8.712-8.732-8.712-8.732zM207.494 56.913h-5.087l8.712 8.668v37.796l-5.787 5.864h5.024l5.786-5.864V65.581l-8.648-8.668z"/>
    <path fill="#9C4668" d="M253.152 39.449h-11.637v-8.732L221.23 51.049h8.712v52.328l5.786 5.864 5.787-5.864 8.712-8.668-2.861-2.932-5.851 5.8V51.049l11.637-11.6zM319.095 48.18V24.918l-8.712-8.732-8.711 8.732 5.786 5.8v66.86l11.637 11.664 8.649-8.732-8.649-8.732V48.18z"/>
    <path fill="#9C4668" d="M319.095 48.18l8.648 8.733v43.596l11.637-11.664V51.05l-11.637-11.6-8.648 8.732zM74.973 97.003l-6.105-6.118V20.646l-9.156-9.178-9.094 9.179 6.04 6.055v15.233l-15.133 15.17V20.646l-9.157-9.178h-.064L13.99 29.76l3.116 3.123 9.157-9.114 3.052 3.059v76.293l6.105 6.119 6.105-6.119V70.298l15.134-15.17v41.875l12.21 12.238 6.104-6.119 3.052-3.059 6.105-6.119-3.052-3.06-6.105 6.12zM271.784 48.18l-11.637 11.601v37.796l11.637 11.664 8.648-8.732-8.648-8.732V48.18z"/>
    <path fill="#9C4668" d="M271.784 48.18l8.648 8.733v43.596l11.637-11.664V51.05l-11.637-11.6-8.648 8.732zM384.339 50.985l-11.51-11.536-8.712 8.732 8.648 8.604-8.648 8.669V48.18l-11.637 11.6v37.796l11.637 11.664 5.787-5.864 2.925-2.868 8.712-8.732-2.926-2.932-8.711 8.732-5.787-5.8V71.254l20.222-20.269zM104.542 48.18L92.905 59.782v37.796l11.637 11.664 8.712-8.732-8.712-8.732V48.18z"/>
    <path fill="#9C4668" d="M124.827 51.049l-11.573-11.6-8.712 8.732 8.712 8.732v43.596l8.712 8.732 8.648-8.732-5.787-5.8v-43.66zM159.802 97.577l-5.787-5.8V48.181l-11.637 11.6v37.796l11.637 11.664 5.787-5.864 2.925-2.868 8.648-8.732-2.861-2.932-8.712 8.732zM162.745 39.34l-8.724 8.744 8.724 8.743 8.723-8.743-8.723-8.743zM202.474 39.406l-8.723 8.744 8.723 8.743 8.723-8.743-8.723-8.744zM199.546 71.445v31.932l5.786 5.864 5.787-5.864V65.581l-8.711-8.668-8.649 8.668 5.787 5.864z"/>
    <path fill="#9C4668" d="M193.759 39.449V24.917l-8.712-8.732-8.712 8.732 5.787 5.8v72.66l5.787 5.864 5.85-5.864V39.449zM418.868 39.403l-8.723 8.743 8.723 8.743 8.723-8.743-8.723-8.743zM392.732 48.18l5.786 5.8v49.397l5.787 5.864 5.787-5.864V48.181l-8.648-8.732-8.712 8.732zM267.015 17.014v-3.442h1.335c1.209 0 2.162.956 2.162 2.167v9.37c-1.335.445-2.289 1.72-2.289 3.25 0 .956.382 1.784.954 2.422.636.637 1.462 1.02 2.48 1.02 1.908 0 3.434-1.53 3.434-3.442 0-1.402-.89-2.613-2.099-3.187v-9.433c0-1.275-.508-2.422-1.399-3.314-.89-.893-2.034-1.403-3.306-1.403h-1.336V7.581l-4.642 4.652 4.706 4.78zm4.705 9.815c.446 0 .827.191 1.145.446.255.255.446.701.446 1.084 0 .446-.191.828-.446 1.083-.318.319-.699.447-1.081.447-.89 0-1.59-.702-1.59-1.594-.063-.765.636-1.466 1.526-1.466zM261.61 28.423c0-1.403-.891-2.614-2.099-3.187v-9.688c1.208-.51 2.099-1.721 2.099-3.187 0-1.912-1.526-3.442-3.434-3.442-1.908 0-3.434 1.53-3.434 3.442 0 .892.318 1.784.954 2.422.381.382.827.637 1.271.828v9.561c-1.335.446-2.289 1.72-2.289 3.25 0 .957.382 1.785.954 2.423.636.637 1.463 1.02 2.48 1.02 1.972 0 3.498-1.594 3.498-3.442zm-3.434-14.469c-.445 0-.827-.19-1.081-.446-.318-.319-.445-.701-.445-1.083 0-.893.699-1.594 1.589-1.594.446 0 .827.191 1.145.446.254.255.445.702.445 1.084-.063.892-.763 1.593-1.653 1.593zm0 15.998c-.891 0-1.59-.7-1.59-1.593 0-.446.191-.829.445-1.084.318-.318.7-.446 1.081-.446.445 0 .827.191 1.145.446.254.255.445.701.445 1.084.064.892-.636 1.593-1.526 1.593zM351.208 44.293c1.398-1.275 1.526-3.442.254-4.844-.381-.383-.763-.701-1.208-.892v-6.565c2.416 3.123 5.278 4.461 7.44 5.099.127.573.382 1.083.763 1.53.636.7 1.462 1.083 2.353 1.147.89.063 1.781-.255 2.48-.893 1.399-1.274 1.526-3.441.254-4.844-.636-.7-1.463-1.083-2.353-1.147-.826-.064-1.59.191-2.289.701l-.191.191c-.254.255-.508.51-.635.829-1.909-.637-4.452-2.04-6.487-5.163 1.145-1.274 1.208-3.25 0-4.589-1.208-1.338-3.243-1.53-4.642-.446l-.191.191c-1.399 1.275-1.526 3.442-.254 4.844.381.446.827.701 1.335.893v8.158c-.317.127-.635.255-.89.51l-.191.191c-.699.637-1.081 1.466-1.144 2.358-.064.893.254 1.785.89 2.486 1.145 1.339 3.307 1.466 4.706.255zm8.775-9.178c.318-.255.699-.446 1.145-.383.445 0 .826.192 1.081.51.572.638.509 1.658-.128 2.231 0 0-.063.064-.127.064-.317.255-.635.319-1.017.319-.445 0-.827-.192-1.081-.51-.255-.319-.445-.701-.382-1.148 0-.382.191-.764.509-1.083zM347.964 26c.637-.573 1.654-.51 2.226.128.573.637.509 1.657-.127 2.23l-.064.064c-.635.51-1.589.383-2.098-.19-.636-.702-.572-1.658.063-2.232zm-.571 15.616c0-.446.19-.829.508-1.084.636-.573 1.654-.51 2.226.128.572.637.508 1.657-.128 2.23l-.063.065c-.636.51-1.59.382-2.099-.192-.317-.318-.508-.765-.444-1.147zM102.825 8.983c0-.255.064-.574.191-.829h-4.579v1.976h4.579c-.191-.319-.254-.765-.191-1.147zM109.184 9.365c0 .255-.063.574-.191.829h4.579V8.218h-4.515c.064.319.127.701.127 1.147z"/>
    <path fill="#9C4668" d="M110.138 9.174v.255c-.063 1.147-.572 2.167-1.399 2.868-.826.765-1.907 1.084-2.988 1.02-2.289-.128-4.07-2.104-3.943-4.398.063-1.147.573-2.167 1.399-2.868.827-.765 1.908-1.084 2.989-1.02 2.289.064 3.942 1.912 3.942 4.143zm-6.359 0c0 1.147.891 2.103 2.099 2.23.572.065 1.145-.19 1.59-.573.445-.382.699-.956.763-1.53.064-1.21-.827-2.23-2.035-2.358l.063-.956-.063.956c-.573-.064-1.145.191-1.59.574-.445.382-.699.956-.763 1.53-.064 0-.064.063-.064.127zM386.882 113.766c0-.255.063-.573.19-.828h-4.578v1.975h4.578c-.127-.318-.19-.764-.19-1.147zM393.241 114.149c0 .254-.064.573-.191.828h4.579v-1.976h-4.515c.127.319.19.701.127 1.148z"/>
    <path fill="#9C4668" d="M394.258 113.958v.255c-.063 1.146-.572 2.166-1.399 2.868-.826.701-1.907 1.083-2.988 1.02-2.289-.128-4.07-2.104-3.943-4.399.064-1.147.572-2.167 1.399-2.868.827-.764 1.908-1.083 2.989-1.02 2.225.128 3.942 1.913 3.942 4.144zm-6.359 0c0 1.147.891 2.103 2.099 2.23.572.064 1.145-.191 1.589-.573.446-.383.7-.957.764-1.53.063-1.211-.827-2.231-2.035-2.358l.063-.956-.063.956c-.572-.064-1.145.191-1.59.574-.445.382-.7.956-.763 1.529-.064.064-.064.064-.064.128zM53.543 120.395c0-.255.064-.574.19-.829h-4.578v1.976h4.579c-.191-.319-.255-.765-.191-1.147zM59.902 120.777c0 .255-.064.574-.191.829h4.579v-1.976h-4.515c.063.319.127.701.127 1.147z"/>
    <path fill="#9C4668" d="M60.856 120.586v.255c-.064 1.148-.572 2.167-1.399 2.868-.827.765-1.907 1.084-2.989 1.02-2.289-.127-4.07-2.103-3.942-4.398.063-1.147.572-2.167 1.399-2.868.826-.701 1.907-1.084 2.988-1.02 2.226.064 3.943 1.912 3.943 4.143zm-6.359 0c0 1.148.89 2.104 2.099 2.231.572.064 1.144-.191 1.59-.574.444-.382.699-.956.763-1.529.063-1.211-.827-2.231-2.036-2.359l.064-1.02-.064 1.02c-.572-.064-1.144.192-1.59.574-.444.382-.699.956-.762 1.53-.064.063-.064.063-.064.127zM216.206 28.55c0-.255.064-.573.191-.829h-4.579v1.976h4.579c-.127-.382-.191-.764-.191-1.147zM222.565 28.933c0 .255-.064.573-.191.828h4.579v-2.04h-4.515c.127.383.19.765.127 1.212z"/>
    <path fill="#9C4668" d="M223.583 28.741v.255c-.064 1.147-.573 2.167-1.399 2.868-.827.765-1.908 1.084-2.989 1.02-2.29-.127-4.07-2.103-3.943-4.398.064-1.147.572-2.167 1.399-2.868.827-.765 1.908-1.083 2.989-1.02 2.226.064 3.943 1.913 3.943 4.143zm-6.359 0c0 1.148.889 2.104 2.098 2.231.572.064 1.144-.191 1.59-.574.445-.382.699-.956.763-1.53.063-1.21-.827-2.23-2.035-2.357l.064-.957-.064.957c-.573-.064-1.145.19-1.59.573-.445.383-.699.956-.763 1.53-.063 0-.063.063-.063.127zM152.807 29.06c-1.018-1.593-3.18-2.04-4.769-.956-.764.51-1.272 1.275-1.463 2.167-.191.892 0 1.848.509 2.613.317.51 1.017 1.02 1.589 1.148v2.422c0 .7-.572 2.294-2.289 2.294h-6.232v-6.119c.445-.19.891-.446 1.208-.892 1.272-1.402 1.145-3.57-.254-4.844-1.399-1.275-3.561-1.147-4.833.255-.636.701-.89 1.593-.89 2.486 0 .892.445 1.784 1.145 2.358l.19.191c.255.191.573.383.891.51v8.158c-.509.191-.954.51-1.336.893-1.271 1.402-1.144 3.569.255 4.844l.19.19c1.399 1.084 3.434.893 4.642-.445 1.145-1.339 1.145-3.378 0-4.59l-.444-.446h5.404c3.307 0 4.77-2.804 4.77-4.716v-2.358c.191-.064.445-.191.636-.319l.19-.191c.637-.51 1.081-1.211 1.272-2.04.318-.956.127-1.848-.381-2.613zm-15.516.446c0-.446.127-.829.381-1.147.573-.638 1.463-.701 2.099-.191.064 0 .063.063.063.063.636.574.7 1.594.128 2.231-.573.637-1.59.701-2.226.128-.254-.319-.445-.701-.445-1.084zm2.798 15.488c-.572.638-1.526.701-2.226.128-.636-.574-.699-1.594-.127-2.231.572-.637 1.462-.701 2.098-.191.064 0 .064.063.064.063.699.574.763 1.594.191 2.231zm11.383-13.703c-.064.382-.319.765-.7 1.02-.318.255-.763.318-1.208.255-.382-.064-.763-.32-1.018-.702-.254-.318-.318-.765-.254-1.21.063-.383.254-.702.572-.893.064 0 .064-.064.128-.064.699-.446 1.716-.255 2.161.447.319.318.382.7.319 1.147z"/>
    <path fill="#FF8AE2" d="M35.928 24.662H34.72v72.979h1.208V24.662zM63.653 24.662h-1.208v67.944h1.208V24.662zM187.909 28.04H186.7v72.405h1.209V28.04zM313.436 28.869h-1.208v64.119h1.208v-64.12zM119.549 54.236h-1.208V95.92h1.208V54.236zM236.173 54.236h-1.208V95.92h1.208V54.236zM404.496 52.197h-1.208v45.699h1.208v-45.7zM286.536 53.471h-1.208v34.163h1.208V53.47zM333.402 54.236h-1.208V88.4h1.208V54.236zM358.139 61.63h-1.208v34.163h1.208V61.63zM266.76 61.247h-1.208V95.41h1.208V61.247zM148.737 60.355h-1.208v34.864h1.208V60.355zM99.137 61.12H97.93V94.9h1.208V61.12zM205.523 67.94h-1.208v33.78h1.208V67.94z"/>
    <path fill="#FF8AE2" d="M35.928 69.66l-.954-.955 27.598-27.726.954 1.02L35.928 69.66zM395.212 89.801c.637 1.912 2.035 3.314 3.307 4.016V84.32c-3.052 3.187-3.307 5.417-3.307 5.481zM224.473 94.071c-.127-.19-.191-.446-.254-.637.063.255.127.447.254.637z"/>
    <path fill="#FF8AE2" d="M229.878 82.344c-6.868 5.418-5.405 11.727-5.405 11.727 1.081 2.295 3.37 3.634 5.468 4.399l-.063-16.126z"/>
    <path fill="#9C4668" d="M129.85 71.7v13.767c1.463-1.338 3.053-3.123 3.816-5.099.191-.829.699-4.78-3.816-8.668z"/>
    <path fill="#93C2DB" d="M88.009 128.553s4.45 2.04 3.37 13.64c-.509 5.099 2.225 9.816 2.225 9.816s-8.203-1.976-9.347-8.159c-.89-4.653 3.052-9.305 3.752-15.297zM79.806 25.363s9.538-7.393 5.086-20.587c0 0-5.468 1.912-4.514 7.649 1.017 6.373 1.08 10.325-.572 12.938zM392.224 77.5s-4.261-12.81 8.139-22.372c0 0 3.498 4.845-.573 9.943-4.069 5.1-7.503 8.987-7.566 12.429zM222.247 76.48s-4.578-11.982 4.197-17.081c0 0 1.018 2.23.573 5.927-.509 3.888-3.053 4.462-4.77 11.154zM153.76 26.702s3.117-8.222 10.493-5.992c0-.063-1.971 7.521-10.493 5.992zM145.049 24.28s-5.659-6.055.318-12.11c.063 0 5.215 4.844-.318 12.11zM133.857 26.701s-8.267 1.339-11.001-4.97c-.064 0 7.758-2.742 11.001 4.97zM264.789 123.645s3.116-8.222 10.492-5.991c0 0-1.971 7.585-10.492 5.991zM256.077 121.287s-5.659-6.055.318-12.11c0 0 5.215 4.844-.318 12.11zM244.886 123.709s-8.267 1.338-11.002-4.971c-.063-.064 7.759-2.805 11.002 4.971zM349.555 19.053s-3.116-6.628 2.226-11.918c-.064 0 4.324 5.608-2.226 11.918zM344.913 20.01s-7.313-.383-9.412-7.649c0 0 6.995-1.147 9.412 7.648zM173.283 233.401s-7.058 3.696-11.891-2.231c0 0 6.677-4.143 11.891 2.231zM176.59 238.053s-.318 8.222-7.631 9.433c0-.064-.572-7.84 7.631-9.433zM269.049 206.057s6.614-3.123 11.892 2.231c0-.064-5.596 4.334-11.892-2.231zM268.095 201.405s.382-7.33 7.632-9.434c-.064 0 1.144 7.011-7.632 9.434zM420.203 113.447s7.313 2.231 6.868 10.007c0-.064-8.267-.892-6.868-10.007zM421.539 109.496s4.705-5.736 12.018-1.275c0 0-4.133 5.737-12.018 1.275zM11.51 34.924S7.885 41.87 0 38.62c0 0 3.18-7.649 11.51-3.697zM15.007 37.473s5.66 6.374 0 12.11c-.064 0-6.041-6.373 0-12.11zM253.406 9.493s-7.122-1.53-8.076-8.987c-.063 0 7.059-.064 8.076 8.987zM251.308 13.763s-4.77 5.545-11.765 2.868c.064 0 3.371-6.31 11.765-2.868zM371.875 86.423s1.336-2.358 1.781-4.717c.826-3.951 1.208-7.903 5.977-8.094.064 0 .191 10.835-7.758 12.81zM343.641 140.409s4.578-7.331 12.59-8.159c9.857-.956 13.164-6.692 15.008-10.134 0 0-13.545-.191-18.823 2.741-5.405 2.995-6.931 6.373-8.775 15.552zM198.401 101.082c.382-4.333.382-15.105-.7-19.885-1.398-6.374-2.67-6.183-3.497-5.864-.827.318-.636 1.211-1.081 1.72-.509.51-1.272 1.148-2.289-.892-1.018-2.103-1.781-8.094-3.689-10.198-1.971-2.166-3.243 1.339-4.133 2.167-.89.829-1.017 1.403-3.497-.255-2.48-1.657-9.221-5.098-12.083-2.868-2.797 2.231.255 5.036 1.145 5.609 1.844 1.211 7.758 3.06 8.203 4.08.763 1.848-3.243 2.039-4.006 3.378-.763 1.338.254 2.74 2.099 3.187 1.843.445 6.803-.51 8.902 0 2.035.51 1.59 1.21.89 1.657-.381.255-3.942 2.23-3.37 3.951.636 2.04 2.671 2.677 7.631 2.231 3.752-.319 6.55 2.358 7.377 4.525.826 2.231 2.098 7.457 2.098 7.457z"/>
    <path fill="#FF8AE2" d="M173.346 67.238c-.381-.255-.762-.446-.89-.51l-.699.447s.127.127 1.144.701c16.152 9.688 22.829 19.95 25.627 27.343v-1.912c-3.116-7.394-10.047-17.018-25.182-26.069z"/>
    <path fill="#93C2DB" d="M280.178 73.42s-1.081-9.878.572-17.782c1.018-4.78 4.197-11.09 8.712-16.19 5.087-5.672 6.867-6.628 8.012-6.628.509 0 .191.765 0 1.53-.508 1.848-.954 3.25-1.526 5.8-1.081 5.163 0 7.202-1.59 9.816-.89 1.53-6.232 3.505-4.833 5.417.827 1.084 5.215-3.314 6.423-1.848 1.208 1.402-1.145 7.967-4.324 9.943-9.093 5.545-11.446 9.943-11.446 9.943zM315.852 137.285v-5.035h-28.488v8.541h5.15v5.354h-5.277v5.29h-5.152 15.644v-5.29h23.146v-8.86h-5.023zM192.233 154.048h-5.278v-12.174h-7.948v43.023h5.15v-5.291h8.076v-15.233h9.602v-4.015h7.567v-6.31h-17.169zM263.708 173.424h-5.278v5.29h5.278v-5.29zM213.026 174.635h-5.277v5.29h5.277v-5.29zM218.305 179.925h-5.278v5.29h5.278v-5.29zM253.152 189.358v-5.354h5.278v-5.29h-4.642v-11.536h-6.105v11.536h-14.816v4.908h-4.961v5.736H253.152zM238.399 137.604h-5.277v5.29h5.277v-5.29zM243.677 132.25h-5.278v5.29h5.278v-5.29zM169.023 137.922h-7.504v4.016h7.504v-4.016zM145.24 144.169h-5.278v-5.291h-5.278v5.291h5.278v20.204h23.592v-10.262H145.24v-9.942zm5.341 14.85v5.29h-5.278v-5.29h5.278zM283.817 176.077v-4.462h-4.452v4.462h4.452zM132.458 123.645h-4.769v4.589h4.769v-4.589zM206.477 14.28V9.626h-4.642v4.652h4.642zM293.46 20.27v-4.652h-4.643v4.653h4.643zM439 84.81v-4.653h-4.642v4.652H439zM278.613 230.413h4.642v-4.653h-4.642v4.653zM200.791 247.379h4.642v-4.653h-4.642v4.653zM299.842 110.839v-4.461h-4.452v4.461h4.452zM345.042 118.101v-4.462h-4.451v4.462h4.451zM172.569 114.107h4.451v-4.461h-4.451v4.461zM165.495 191v-4.462h-4.451V191h4.451z"/>
    <path fill="#9C4668" d="M297.728 146.145v5.29h-6.74v37.923h8.139v-4.971h4.96v-38.242h-6.359zM243.677 132.25v5.354h-5.278v5.29h-10.556v18.93-5.226h5.342v2.549h6.613V146.145h17.614v-4.207h4.643v-9.688h-18.378z"/>
    <path fill="#FF8AE2" d="M177.046 118.595h4.451v-4.462h-4.451v4.462z"/>
    <path fill="#9C4668" d="M207.621 137.03v-4.78h-18.313v-4.016h-13.1v13.64h10.747v12.174h5.278v-8.732h5.405v-8.286h9.983zM139.962 169.663v-25.494h-5.278v-5.29h5.278v-5.354h5.278v-5.227h-12.782v58.128h12.782v-16.763h-5.278zM132.458 186.426h-4.769v4.589h4.769v-4.589zM320.748 132.25h-4.959v4.972h4.959v-4.972zM325.708 137.285h-4.96v8.86h4.96v-8.86zM325.708 127.278h-4.96v4.972h4.96v-4.972zM258.43 184.004h-5.278v5.29h5.278v-5.29zM192.233 184.897h-8.076v4.461h8.076v-4.461z"/>
    <path fill="#FF8AE2" d="M4.642 54.258v-4.653H0v4.653h4.642zM134.777 8.731V4.08h-4.642V8.73h4.642zM432.067 31.193v-4.652h-4.642v4.652h4.642zM390.608 135.47h4.642v-4.653h-4.642v4.653z"/>
    <path fill="#FF8AE2" d="M395.146 130.986h4.642v-4.653h-4.642v4.653zM109.091 169.483h4.642v-4.652h-4.642v4.652zM160.375 214.087h4.642v-4.653h-4.642v4.653zM223.264 193.982h4.642v-4.652h-4.642v4.652zM303.88 122.823v-4.461h-4.452v4.461h4.452zM340.527 122.588v-4.461h-4.451v4.461h4.451zM219.322 132.25h-11.701v4.78h-9.983v8.286h16.342v-5.481h5.342v-7.585z"/>
    <path fill="#FF8AE2" d="M224.091 127.725h-4.769v4.589h4.769v-4.589zM370.921 12.552h-4.96v4.972h4.96v-4.972zM309.048 189.358h-4.961v4.971h4.961v-4.971zM304.088 184.386h-4.96v4.972h4.96v-4.972zM263.708 173.424v-9.815h-3.497v-4.462h-27.026v-2.55h-5.342v5.29h5.278v5.291H253.788v11.536h4.642v-5.29h5.278zM238.399 132.25h-5.277v5.29h5.277v-5.29zM233.121 137.604h-5.278v5.29h5.278v-5.29zM209.338 160.358h-7.503v4.015h7.503v-4.015zM127.689 191.015h-4.96v4.971h4.96v-4.971zM150.518 159.019h-5.278v5.29h5.278v-5.29zM145.24 164.373h-5.278v5.29h5.278v-5.29zM156.241 132.25v-4.016H145.24v5.291h-5.278v10.644h5.278v-2.231h16.279v-4.016h7.567v-5.672h-12.845zM297.792 135.501h-5.278v5.29h5.278v-5.29z"/>
    <path fill="#FF8AE2" d="M287.363 140.791v-8.541h-17.36v13.895h11.955v5.29h5.278v-5.29h5.278v-5.354h-5.151zM213.027 185.215v-5.29h-5.278v-5.29h-15.516v4.971h-8.076v5.291h8.076v4.461h26.135v-4.143h-5.341z"/>
    <path fill="#9C4668" d="M263.708 178.714h-5.278v5.29h5.278v-5.29zM288.754 24.958v-4.652h-4.642v4.652h4.642zM22.069 67.896v-4.653h-4.642v4.653h4.642zM145.269 116.283v-4.652h-4.642v4.652h4.642zM93.39 114.834v-4.653h-4.643v4.653h4.642zM434.357 89.497v-4.653h-4.642v4.653h4.642zM274.002 225.728h4.642v-4.653h-4.642v4.653zM320.924 170.467h4.642v-4.653h-4.642v4.653z"/>
    <path fill="#FF8AE2" d="M196.114 242.755h4.642v-4.653h-4.642v4.653z"/>
    <path fill="#9C4668" d="M279.301 180.501v-4.462h-4.451v4.462h4.451zM207.367 118.993h-4.96v4.971h4.96v-4.971zM161.044 195.487v-4.461h-4.452v4.461h4.452zM239.29 228.811l-3.053-3.059-5.087 5.099h-3.18v-11.537l2.735-2.74 1.017-1.02 1.081-1.02 2.099-2.103v-8.413l-4.515-4.462-6.232 6.246 1.081 1.02 3.116-3.123 2.353 2.422v8.349l-6.359 6.374-.509.51v10.453h12.4l3.053-2.996z"/>
    <path fill="#FF8AE2" d="M234.902 209.244v3.187l-2.099 2.103-1.081 1.02-1.017 1.02-2.735 2.74v11.537h1.717v-11.537l2.735-2.74.953-1.02 1.081-1.02 2.099-2.103v-8.413l-4.515-4.462h-1.653l4.515 4.462v5.226zM237.954 225.752h-1.717l3.052 3.059-3.052 2.996h1.717l2.989-2.996-2.989-3.059zM229.179 204.591l-.827-.892-3.116 3.123h1.653l2.29-2.231z"/>
    <path fill="#93C2DB" d="M255.95 217.976v6.692h-4.578v-6.947h-3.244v-9.624h-5.85v14.659h2.989v9.433H259.193V217.976h-3.243z"/>
    <path fill="#FF8AE2" d="M261.609 208.033v-3.952h-4.196v4.016h-1.463v9.879h3.243v9.369h2.416v-4.589h2.036v-14.723h-2.036z"/>
    <path fill="#9C4668" d="M258.684 199.747h-9.92v2.422h-3.498v5.928h2.862v9.624h3.243v-9.624h6.041v-4.016h1.272v-4.334zM194.777 228.811l-3.052-3.059-5.088 5.099h-3.179v-11.537l2.734-2.74 1.018-1.02 1.081-1.02 2.098-2.103v-8.413l-4.515-4.462-6.232 6.246 1.081 1.02 3.116-3.123 2.353 2.422v8.349l-6.359 6.374-.509.51v10.453H191.725l3.052-2.996z"/>
    <path fill="#FF8AE2" d="M190.389 209.244v3.187l-2.099 2.103-1.081 1.02-1.018 1.02-2.734 2.74v11.537h1.717v-11.537l2.735-2.74.953-1.02 1.081-1.02 2.099-2.103v-8.413l-4.515-4.462h-1.653l4.515 4.462v5.226zM184.666 204.591l-.827-.892-3.116 3.123h1.653l2.29-2.231zM193.441 225.752h-1.717l3.052 3.059-3.052 2.996h1.717l2.989-2.996-2.989-3.059z"/>
    <path fill="#93C2DB" d="M211.437 217.976v6.692h-4.579v-6.947h-3.243v-9.624h-5.85v14.659h2.988v9.433h13.927V217.976h-3.243z"/>
    <path fill="#FF8AE2" d="M217.096 208.033v-3.952H212.9v4.016h-1.463v9.879h3.243v9.369h2.416v-4.589h2.035v-14.723h-2.035z"/>
    <path fill="#9C4668" d="M214.171 199.747h-9.92v2.422h-3.497v5.928h2.861v9.624h3.244v-9.624h6.04v-4.016h1.272v-4.334z"/>
    <path fill="#FF8AE2" d="M189.817 139.261c.175 0 .317-.143.317-.319 0-.176-.142-.319-.317-.319-.176 0-.318.143-.318.319 0 .176.142.319.318.319zM189.117 147.61c.175 0 .318-.143.318-.319 0-.176-.143-.318-.318-.318-.176 0-.318.142-.318.318 0 .176.142.319.318.319zM190.516 152.135c.175 0 .318-.142.318-.318 0-.176-.143-.319-.318-.319-.176 0-.318.143-.318.319 0 .176.142.318.318.318zM188.863 143.786c.175 0 .317-.143.317-.319 0-.176-.142-.318-.317-.318-.176 0-.318.142-.318.318 0 .176.142.319.318.319zM191.724 136.138c.175 0 .318-.143.318-.319 0-.176-.143-.319-.318-.319-.176 0-.318.143-.318.319 0 .176.142.319.318.319zM185.492 132.632c.176 0 .318-.143.318-.319 0-.176-.142-.318-.318-.318-.175 0-.318.142-.318.318 0 .176.143.319.318.319zM194.522 143.403c.176 0 .318-.142.318-.318 0-.176-.142-.319-.318-.319-.176 0-.318.143-.318.319 0 .176.142.318.318.318zM199.037 134.544c.175 0 .318-.142.318-.318 0-.176-.143-.319-.318-.319-.176 0-.318.143-.318.319 0 .176.142.318.318.318zM205.205 135.755c.176 0 .318-.142.318-.318 0-.176-.142-.319-.318-.319-.175 0-.318.143-.318.319 0 .176.143.318.318.318zM179.007 137.349c.175 0 .317-.143.317-.319 0-.176-.142-.319-.317-.319-.176 0-.319.143-.319.319 0 .176.143.319.319.319zM183.903 140.153c.175 0 .317-.143.317-.319 0-.176-.142-.319-.317-.319-.176 0-.318.143-.318.319 0 .176.142.319.318.319zM183.203 136.01c.175 0 .318-.143.318-.319 0-.176-.143-.318-.318-.318-.176 0-.318.142-.318.318 0 .176.142.319.318.319zM178.561 131.549c.175 0 .318-.143.318-.319 0-.176-.143-.319-.318-.319-.176 0-.318.143-.318.319 0 .176.142.319.318.319zM194.204 138.113c.175 0 .318-.142.318-.318 0-.176-.143-.319-.318-.319-.176 0-.318.143-.318.319 0 .176.142.318.318.318zM230.514 148.311c.175 0 .318-.142.318-.318 0-.176-.143-.319-.318-.319-.176 0-.318.143-.318.319 0 .176.142.318.318.318zM248.32 139.006c.175 0 .318-.143.318-.319 0-.176-.143-.318-.318-.318-.176 0-.319.142-.319.318 0 .176.143.319.319.319zM236.746 153.665c.175 0 .318-.142.318-.318 0-.176-.143-.319-.318-.319-.176 0-.318.143-.318.319 0 .176.142.318.318.318zM234.139 150.925c.175 0 .317-.143.317-.319 0-.176-.142-.319-.317-.319-.176 0-.318.143-.318.319 0 .176.142.319.318.319zM237.445 157.808c.176 0 .318-.142.318-.318 0-.176-.142-.319-.318-.319-.175 0-.318.143-.318.319 0 .176.143.318.318.318zM253.851 142.575c.176 0 .318-.142.318-.318 0-.176-.142-.319-.318-.319-.175 0-.318.143-.318.319 0 .176.143.318.318.318zM230.832 154.749c.176 0 .318-.143.318-.319 0-.176-.142-.319-.318-.319-.176 0-.318.143-.318.319 0 .176.142.319.318.319zM248.001 143.786c.176 0 .319-.143.319-.319 0-.176-.143-.318-.319-.318-.175 0-.317.142-.317.318 0 .176.142.319.317.319zM255.695 137.413c.176 0 .318-.143.318-.319 0-.176-.142-.319-.318-.319-.175 0-.317.143-.317.319 0 .176.142.319.317.319zM258.557 135.182c.176 0 .319-.143.319-.319 0-.176-.143-.319-.319-.319-.175 0-.318.143-.318.319 0 .176.143.319.318.319zM242.596 140.153c.176 0 .318-.143.318-.319 0-.176-.142-.319-.318-.319-.175 0-.318.143-.318.319 0 .176.143.319.318.319zM232.867 145.125c.175 0 .318-.143.318-.319 0-.176-.143-.319-.318-.319-.176 0-.318.143-.318.319 0 .176.142.319.318.319zM251.054 135.755c.175 0 .317-.142.317-.318 0-.176-.142-.319-.317-.319-.176 0-.318.143-.318.319 0 .176.142.318.318.318zM245.267 134.544c.176 0 .318-.142.318-.318 0-.176-.142-.319-.318-.319-.176 0-.318.143-.318.319 0 .176.142.318.318.318zM237.064 147.483c.176 0 .318-.143.318-.319 0-.176-.142-.319-.318-.319-.176 0-.318.143-.318.319 0 .176.142.319.318.319zM301.035 171.958c.176 0 .317-.143.317-.319 0-.176-.141-.318-.317-.318-.176 0-.318.142-.318.318 0 .176.142.319.318.319zM300.59 160.23c.176 0 .318-.143.318-.319 0-.176-.142-.318-.318-.318-.175 0-.318.142-.318.318 0 .176.143.319.318.319zM300.653 151.307c.175 0 .318-.142.318-.318 0-.176-.143-.319-.318-.319-.176 0-.318.143-.318.319 0 .176.142.318.318.318zM299.381 165.903c.175 0 .318-.143.318-.319 0-.176-.143-.319-.318-.319-.176 0-.318.143-.318.319 0 .176.142.319.318.319zM296.393 181.327c.175 0 .318-.142.318-.318 0-.176-.143-.319-.318-.319-.176 0-.318.143-.318.319 0 .176.142.318.318.318zM294.866 186.426c.176 0 .318-.143.318-.319 0-.176-.142-.318-.318-.318-.176 0-.318.142-.318.318 0 .176.142.319.318.319zM296.393 155.896c.175 0 .318-.143.318-.319 0-.176-.143-.318-.318-.318-.176 0-.318.142-.318.318 0 .176.142.319.318.319zM301.607 180.435c.176 0 .318-.143.318-.319 0-.176-.142-.318-.318-.318-.175 0-.318.142-.318.318 0 .176.143.319.318.319zM296.774 171.766c.176 0 .318-.142.318-.318 0-.176-.142-.319-.318-.319-.175 0-.318.143-.318.319 0 .176.143.318.318.318zM294.104 177.121c.175 0 .317-.143.317-.319 0-.176-.142-.319-.317-.319-.176 0-.318.143-.318.319 0 .176.142.319.318.319zM293.277 161.377c.175 0 .318-.142.318-.318 0-.176-.143-.319-.318-.319-.176 0-.318.143-.318.319 0 .176.142.318.318.318zM134.238 184.833c.176 0 .318-.143.318-.319 0-.176-.142-.319-.318-.319-.175 0-.317.143-.317.319 0 .176.142.319.317.319zM143.713 183.111c.176 0 .318-.142.318-.318 0-.176-.142-.319-.318-.319-.175 0-.317.143-.317.319 0 .176.142.318.317.318zM134.556 148.821c.176 0 .318-.143.318-.319 0-.176-.142-.318-.318-.318-.175 0-.318.142-.318.318 0 .176.143.319.318.319zM137.545 136.839c.176 0 .318-.143.318-.319 0-.176-.142-.318-.318-.318-.176 0-.318.142-.318.318 0 .176.142.319.318.319zM142.95 131.166c.175 0 .318-.143.318-.319 0-.176-.143-.318-.318-.318-.176 0-.318.142-.318.318 0 .176.142.319.318.319zM135.51 168.07c.176 0 .318-.143.318-.319 0-.176-.142-.318-.318-.318-.175 0-.318.142-.318.318 0 .176.143.319.318.319zM135.255 180.881c.176 0 .318-.143.318-.319 0-.176-.142-.319-.318-.319-.175 0-.317.143-.317.319 0 .176.142.319.317.319zM136.464 158.446c.176 0 .317-.143.317-.319 0-.176-.141-.318-.317-.318-.176 0-.318.142-.318.318 0 .176.142.319.318.319zM140.025 178.077c.176 0 .318-.143.318-.319 0-.176-.142-.319-.318-.319-.175 0-.318.143-.318.319 0 .176.143.319.318.319zM138.181 182.602c.175 0 .318-.143.318-.319 0-.176-.143-.318-.318-.318-.176 0-.318.142-.318.318 0 .176.142.319.318.319zM139.771 130.657c.175 0 .318-.143.318-.319 0-.176-.143-.319-.318-.319-.176 0-.318.143-.318.319 0 .176.142.319.318.319zM138.117 170.938c.176 0 .319-.143.319-.319 0-.176-.143-.318-.319-.318-.175 0-.318.142-.318.318 0 .176.143.319.318.319zM142.569 173.296c.175 0 .317-.142.317-.318 0-.176-.142-.319-.317-.319-.176 0-.318.143-.318.319 0 .176.142.318.318.318zM134.556 131.676c.176 0 .318-.142.318-.318 0-.176-.142-.319-.318-.319-.175 0-.318.143-.318.319 0 .176.143.318.318.318zM135.892 163.735c.175 0 .317-.142.317-.318 0-.176-.142-.319-.317-.319-.176 0-.319.143-.319.319 0 .176.143.318.319.318zM246.793 204.463c.211 0 .382-.171.382-.382s-.171-.382-.382-.382-.382.171-.382.382.171.382.382.382zM254.17 201.595c.21 0 .381-.171.381-.382s-.171-.382-.381-.382c-.211 0-.382.171-.382.382s.171.382.382.382zM251.307 205.101c.211 0 .382-.171.382-.382 0-.212-.171-.383-.382-.383-.21 0-.381.171-.381.383 0 .211.171.382.381.382zM255.568 206.248c.211 0 .382-.171.382-.382 0-.212-.171-.383-.382-.383s-.381.171-.381.383c0 .211.17.382.381.382zM250.099 207.586c.211 0 .382-.171.382-.382s-.171-.382-.382-.382c-.21 0-.381.171-.381.382s.171.382.381.382zM249.718 216.51c.211 0 .381-.171.381-.383 0-.211-.17-.382-.381-.382-.21 0-.381.171-.381.382 0 .212.171.383.381.383zM249.146 211.73c.21 0 .381-.172.381-.383 0-.211-.171-.382-.381-.382-.211 0-.382.171-.382.382s.171.383.382.383zM202.28 204.463c.211 0 .381-.171.381-.382s-.17-.382-.381-.382-.382.171-.382.382.171.382.382.382zM204.633 206.248c.211 0 .381-.171.381-.382 0-.212-.17-.383-.381-.383-.21 0-.382.171-.382.383 0 .211.172.382.382.382zM211.437 201.978c.211 0 .382-.172.382-.383 0-.211-.171-.382-.382-.382s-.382.171-.382.382.171.383.382.383zM209.275 205.483c.21 0 .381-.171.381-.382s-.171-.383-.381-.383c-.211 0-.382.172-.382.383 0 .211.171.382.382.382zM205.205 210.009c.211 0 .382-.172.382-.383 0-.211-.171-.383-.382-.383s-.381.172-.381.383c0 .211.17.383.381.383zM205.587 203.635c.21 0 .381-.172.381-.382 0-.212-.171-.383-.381-.383-.211 0-.382.171-.382.383 0 .21.171.382.382.382zM205.014 215.299c.211 0 .382-.172.382-.383 0-.211-.171-.382-.382-.382s-.381.171-.381.382.17.383.381.383z"/>
    <path fill="#93C2DB" d="M397.629 31.1c0-.893-1.717-1.275-2.035-1.849-.191-.319.382-.574.827-.51.318 0 3.052.51 4.96.51 6.486.191 8.203-1.402 8.139-2.295-.063-.892-2.544-1.338-2.925-1.912-.318-.573.127-1.147 2.353-1.53 2.289-.382 6.232-.573 8.839-1.784 2.608-1.21 2.035-2.613-1.272-3.633-1.208-.51-.445-1.275 1.844-3.06 2.29-1.784 7.949-7.393 6.168-10.325-1.525-2.167-4.323-.892-6.295 1.148-1.526 1.53-4.515 4.652-5.596 4.716-1.971.191-.19-2.804-1.208-3.888-1.018-1.083-3.18.829-4.07 2.422-.89 1.594-1.59 4.143-2.543 5.992-1.018 2.039-2.035 1.274-2.353.573-.255-.701.191-3.57-1.781-3.888-1.717-.255-3.751 4.143-5.469 6.629-.635.956-1.462 1.848-2.352 2.613-.509.382-.763.255-.89 0-.255-.382 0-2.804-1.718-3.314-1.525-.383-2.988 2.167-4.959 4.525-1.59 1.912-3.816 2.932-6.232 3.697-3.307 1.02-8.331 1.274-8.331 1.274s2.481 1.084 4.579 1.721c5.087 1.53 7.504 2.359 13.227 2.932 4.324.446 8.838.893 9.093-.765 0 .064 0 0 0 0zM133.666 80.495c2.735-5.8 1.845-13.065-1.208-18.802-2.988-5.609-6.868-9.624-13.1-12.556-1.525-.701-5.659-1.912-5.659-1.912s.064 3.505.191 4.525c.572 4.27 1.208 8.732 3.816 11.664 2.416 2.74 5.531 4.08 8.775 5.864 8.966 5.035 7.185 11.217 7.185 11.217zM87.182 120.969s16.66-.829 22.892 11.472c6.677 13.13 13.227 17.592 13.227 17.592s-13.545 1.848-19.967-5.928c-6.486-7.776-3.625-15.616-16.152-23.136zM395.212 89.801s-3.243-8.604.891-14.277c3.243-4.525 10.937-5.609 17.805-4.844 4.642.51 10.556-2.486 10.556-2.486s0 6.884-7.503 9.051c-4.198 1.211-7.886-.637-13.673 3.25-7.566 5.036-8.076 9.306-8.076 9.306zM224.473 94.071c-2.734-5.8-1.78-13.002 1.209-18.802 5.469-10.516 18.759-12.556 18.759-12.556s-1.145 8.604-5.278 13.512c-2.353 2.805-6.486 3.824-9.348 6.119-6.804 5.418-5.342 11.727-5.342 11.727zM361.446 106.564c-.509-.382-21.62-7.967-2.607-23.519l13.036-10.516s.445 11.664-7.758 19.312c-8.139 7.457-2.671 14.723-2.671 14.723zM151.217 106.564c-.508-.382-21.62-7.967-2.607-23.519l13.036-10.516s.445 11.664-7.758 19.312c-8.076 7.457-2.671 14.723-2.671 14.723zM338.554 151.881s7.377-11.409 19.968-12.365c10.556-.829 23.719 5.29 23.719 5.29s-10.302 8.604-23.338 7.202c-9.411-1.019-12.145-4.143-20.349-.127zM81.205 41.68c-1.654 0-1.78 4.589-1.971 8.923-.191 5.736.317 8.222 1.144 13.512.318 2.167 1.081 4.78 1.081 4.78s.89-4.971 2.353-8.158c1.08-2.294 2.353-4.398 4.451-5.736 2.544-1.594 5.278-2.74 5.151-4.27-.318-1.785-2.734-1.849-3.052-2.168-.19-.19-.318-.446.127-.892.89-.765 1.908-1.466 2.925-1.976 2.671-1.402 7.313-2.804 7.249-4.525-.063-2.04-2.925-1.912-3.56-2.295-.7-.382-1.273-1.465.89-2.23 1.97-.702 4.578-1.02 6.295-1.721 1.717-.638 3.879-2.486 2.989-3.697-.954-1.211-4.134.191-3.688-1.785.254-1.083 3.688-3.633 5.468-4.907 2.289-1.657 3.943-4.334 1.972-6.12-2.671-2.166-8.967 2.678-11.065 4.717-2.098 2.04-2.925 2.677-3.307 1.466-.572-3.378-1.908-4.142-3.434-1.72-1.526 2.421-2.29 6.31-2.925 8.54-.636 2.231-1.335 2.55-1.844 2.167-.509-.382-.636-2.995-1.526-3.123-.827-.191-2.608 1.275-3.37 7.776-.191 1.848-.128 4.653-.128 4.971-.063.51-.318 1.02-.635.765-.573-.382-.7-2.23-1.59-2.294zM308.984 88.654c.827-.192.827-1.976 1.335-2.359.319-.254.573.255.7.702.064.318.191 3.122.509 4.971 1.208 6.438 3.052 7.712 3.879 7.457.826-.255.763-2.804 1.272-3.25.508-.446 1.145-.128 1.971 1.975.827 2.168 1.844 5.992 3.561 8.287 1.717 2.294 2.925 1.401 3.243-2.04.254-1.275 1.145-.702 3.37 1.147 2.226 1.849 8.776 6.182 11.256 3.888 1.78-1.912-.064-4.462-2.417-5.927-1.78-1.212-5.405-3.442-5.722-4.526-.573-1.912 2.67-.765 3.497-2.04.826-1.274-1.463-2.932-3.18-3.441-1.717-.51-4.324-.701-6.295-1.211-2.162-.574-1.654-1.721-1.017-2.168.571-.445 3.433-.51 3.37-2.549-.064-1.72-4.77-2.804-7.504-3.952-1.018-.445-2.035-1.083-2.988-1.784-.446-.383-.382-.701-.191-.892.318-.32 2.671-.638 2.861-2.423 0-1.53-2.734-2.485-5.342-3.888-2.225-1.146-3.624-3.122-4.833-5.353-1.653-2.996-2.861-7.712-2.861-7.712s-.572 2.421-.763 4.652c-.381 5.354-.699 7.904-.064 13.576.255 4.398.7 8.987 2.353 8.86z"/>
    <path fill="#FF8AE2" d="M288.127 46.078c-.064.127-6.677 10.197-8.14 25.877-.127-1.148-.127-2.74-.191-3.952 2.035-13.767 7.568-22.308 7.631-22.372l.7.447zM112.554 145.125c-3.624-1.722-5.087-4.717-6.74-8.223-1.209-2.549-2.607-5.481-5.151-8.285-6.868-7.458-22.447-9.115-22.575-9.115l.128-.956c.635.064 16.088 1.721 23.21 9.433 2.671 2.868 4.07 5.864 5.342 8.478 1.589 3.314 2.924 6.182 6.231 7.712l-.445.956zM81.395 76.225c-.381-2.995-1.844-18.356 3.434-29.701 6.232-13.258 18.187-21.926 18.314-21.99l.572.765c-.127.064-11.891 8.605-17.996 21.67-5.214 11.091-3.688 26.26-3.37 29.192l-.954.064zM381.031 28.55c-8.203 0-15.579-1.785-17.551-2.295l.255-.956c2.861.765 17.614 4.27 29.315.638 13.735-4.27 23.719-14.787 23.846-14.915l.699.638c-.127.127-10.301 10.771-24.227 15.169-4.006 1.275-8.33 1.72-12.337 1.72zM331.877 104.014c-.127-.063-12.528-7.776-19.65-20.523-2.797-4.972-4.133-10.962-4.896-16.253-.191-1.275-.382-3.888-.382-3.888l.573-2.995c.317 6.182 1.589 15.615 5.532 22.69 6.995 12.492 19.204 20.141 19.331 20.205l-.508.764zM135.192 71.572c-.063-.765-.127-1.593-.254-2.358-5.342-8.413-15.771-15.68-16.279-15.998l-.509.765c.064.063 12.336 8.54 17.042 17.591zM155.859 80.942c-.063.063-3.879 3.76-7.503 7.202-4.452 4.207-6.041 8.477-4.833 13.449.445.446.89.892 1.399 1.274-1.844-5.29-.572-9.624 4.134-14.022 3.624-3.442 7.503-7.202 7.503-7.202l-.7-.701zM365.452 82.407c-.064.064-3.879 3.761-7.504 7.203-3.624 3.441-5.342 6.884-5.214 10.708.318.446.699.828 1.081 1.211-.572-4.08.953-7.649 4.833-11.282 3.624-3.441 7.503-7.202 7.503-7.202l-.699-.638zM223.201 82.726c-.127.829-.254 1.657-.254 2.486 4.578-9.433 15.643-15.807 15.77-15.87l-.445-.83c-.064 0-4.007 2.295-8.14 6.056-2.352 2.103-4.96 4.844-6.931 8.158zM401.952 75.46c4.388-2.167 11.319-1.402 11.383-1.402l.127-.956c-.318-.064-7.313-.829-11.955 1.466-3.052 1.466-5.532 3.824-7.503 7.01-.064.639-.064 1.34 0 1.977 1.971-3.697 4.642-6.438 7.948-8.095zM333.848 156.725l-.763-.574c.127-.128 2.543-3.314 6.676-5.864 2.29-1.402 4.833-2.549 8.076-3.697 8.839-2.995 21.875-1.975 22.447-1.912l-.063.956c-.127 0-13.417-1.083-22.066 1.912-3.243 1.084-5.659 2.231-7.885 3.57-3.942 2.422-6.359 5.609-6.422 5.609z"/>
</svg>
