<svg width="1280" height="720" viewBox="0 0 1280 720" fill="none" xmlns="http://www.w3.org/2000/svg">
<g clip-path="url(#clip0)">
<rect width="1280" height="720" fill="white"/>
<g filter="url(#filter0_d)">
<path d="M1495.22 -43.9004C1588.91 2.62699 1657.32 106.188 1695.25 220.255C1733.17 334.323 1739.86 459.646 1685.58 544.446C1630.55 629.997 1515.29 675.023 1418.62 712.546C1321.21 749.317 1243.13 778.585 1136.8 816.857C1030.46 855.13 897.356 902.408 807.379 863.385C717.403 823.611 670.556 697.537 676.504 584.22C681.71 471.654 738.967 372.595 775.404 268.284C811.841 163.972 826.713 54.4075 887.689 -2.62611C949.408 -60.4102 1056.49 -66.4137 1169.52 -73.9181C1282.54 -81.4226 1401.52 -90.4279 1495.22 -43.9004Z" fill="#F1F6FA"/>
</g>
<path opacity="0.2" d="M801.857 158H781V177.069H801.857V158Z" fill="#08BDBA" fill-opacity="0.7"/>
<path opacity="0.2" d="M828.283 158H808.303V177.069H828.283V158Z" fill="#08BDBA" fill-opacity="0.7"/>
<path opacity="0.2" d="M855.594 158H835.614V177.069H855.594V158Z" fill="#08BDBA" fill-opacity="0.7"/>
<path opacity="0.2" d="M882.896 158H862.917V177.069H882.896V158Z" fill="#08BDBA" fill-opacity="0.7"/>
<path opacity="0.2" d="M910.207 158H890.227V177.069H910.207V158Z" fill="#08BDBA" fill-opacity="0.7"/>
<path d="M937.518 158H917.538V177.069H937.518V158Z" fill="#08BDBA" fill-opacity="0.7"/>
<path opacity="0.2" d="M964.821 158H944.841V177.069H964.821V158Z" fill="#08BDBA" fill-opacity="0.7"/>
<path opacity="0.2" d="M992.132 158H972.152V177.069H992.132V158Z" fill="#08BDBA" fill-opacity="0.7"/>
<path opacity="0.2" d="M1019.43 158H999.455V177.069H1019.43V158Z" fill="#08BDBA" fill-opacity="0.7"/>
<path d="M1046.75 158H1026.77V177.069H1046.75V158Z" fill="#08BDBA" fill-opacity="0.7"/>
<path opacity="0.2" d="M1074.06 158H1054.08V177.069H1074.06V158Z" fill="#08BDBA" fill-opacity="0.7"/>
<path opacity="0.2" d="M1101.36 158H1081.38V177.069H1101.36V158Z" fill="#08BDBA" fill-opacity="0.7"/>
<path opacity="0.2" d="M1128.67 158H1108.69V177.069H1128.67V158Z" fill="#08BDBA" fill-opacity="0.7"/>
<path opacity="0.2" d="M1155.98 158H1136V177.069H1155.98V158Z" fill="#08BDBA" fill-opacity="0.7"/>
<path opacity="0.2" d="M1183.28 158H1163.3V177.069H1183.28V158Z" fill="#08BDBA" fill-opacity="0.7"/>
<path opacity="0.2" d="M1210.59 158H1190.61V177.069H1210.59V158Z" fill="#08BDBA" fill-opacity="0.7"/>
<path d="M1237.9 158H1217.92V177.069H1237.9V158Z" fill="#08BDBA" fill-opacity="0.7"/>
<path d="M1265.21 158H1245.23V177.069H1265.21V158Z" fill="#08BDBA" fill-opacity="0.7"/>
<path opacity="0.2" d="M1292.52 158H1272.54V177.069H1292.52V158Z" fill="#08BDBA" fill-opacity="0.7"/>
<path d="M800.98 182.152H781V201.22H800.98V182.152Z" fill="#08BDBA" fill-opacity="0.7"/>
<path opacity="0.2" d="M828.283 182.152H808.303V201.22H828.283V182.152Z" fill="#08BDBA" fill-opacity="0.7"/>
<path opacity="0.7" d="M855.594 182.152H835.614V201.22H855.594V182.152Z" fill="#08BDBA" fill-opacity="0.7"/>
<path opacity="0.2" d="M882.896 182.152H862.917V201.22H882.896V182.152Z" fill="#08BDBA" fill-opacity="0.7"/>
<path opacity="0.4" d="M910.207 182.152H890.227V201.22H910.207V182.152Z" fill="#08BDBA" fill-opacity="0.7"/>
<path d="M937.518 182.152H917.538V201.22H937.518V182.152Z" fill="#08BDBA" fill-opacity="0.7"/>
<path opacity="0.4" d="M964.821 182.152H944.841V201.22H964.821V182.152Z" fill="#08BDBA" fill-opacity="0.7"/>
<path opacity="0.2" d="M992.132 182.152H972.152V201.22H992.132V182.152Z" fill="#08BDBA" fill-opacity="0.7"/>
<path opacity="0.4" d="M1019.43 182.152H999.455V201.22H1019.43V182.152Z" fill="#08BDBA" fill-opacity="0.7"/>
<path d="M1046.75 182.152H1026.77V201.22H1046.75V182.152Z" fill="#08BDBA" fill-opacity="0.7"/>
<path opacity="0.4" d="M1074.06 182.152H1054.08V201.22H1074.06V182.152Z" fill="#08BDBA" fill-opacity="0.7"/>
<path opacity="0.4" d="M1101.36 182.152H1081.38V201.22H1101.36V182.152Z" fill="#08BDBA" fill-opacity="0.7"/>
<path opacity="0.2" d="M1128.67 182.152H1108.69V201.22H1128.67V182.152Z" fill="#08BDBA" fill-opacity="0.7"/>
<path opacity="0.4" d="M1155.98 182.152H1136V201.22H1155.98V182.152Z" fill="#08BDBA" fill-opacity="0.7"/>
<path opacity="0.4" d="M1183.28 182.152H1163.3V201.22H1183.28V182.152Z" fill="#08BDBA" fill-opacity="0.7"/>
<path opacity="0.2" d="M1210.59 182.152H1190.61V201.22H1210.59V182.152Z" fill="#08BDBA" fill-opacity="0.7"/>
<path opacity="0.2" d="M1237.9 182.152H1217.92V201.22H1237.9V182.152Z" fill="#08BDBA" fill-opacity="0.7"/>
<path opacity="0.4" d="M1265.21 182.152H1245.23V201.22H1265.21V182.152Z" fill="#08BDBA" fill-opacity="0.7"/>
<path opacity="0.2" d="M1292.52 182.152H1272.54V201.22H1292.52V182.152Z" fill="#08BDBA" fill-opacity="0.7"/>
<path d="M800.98 206.311H781V225.379H800.98V206.311Z" fill="#08BDBA" fill-opacity="0.7"/>
<path opacity="0.7" d="M828.283 206.311H808.303V225.379H828.283V206.311Z" fill="#08BDBA" fill-opacity="0.7"/>
<path opacity="0.7" d="M855.594 206.311H835.614V225.379H855.594V206.311Z" fill="#08BDBA" fill-opacity="0.7"/>
<path opacity="0.2" d="M882.896 206.311H862.917V225.379H882.896V206.311Z" fill="#08BDBA" fill-opacity="0.7"/>
<path opacity="0.4" d="M910.207 206.311H890.227V225.379H910.207V206.311Z" fill="#08BDBA" fill-opacity="0.7"/>
<path opacity="0.4" d="M937.518 206.311H917.538V225.379H937.518V206.311Z" fill="#08BDBA" fill-opacity="0.7"/>
<path d="M964.821 206.311H944.841V225.379H964.821V206.311Z" fill="#08BDBA" fill-opacity="0.7"/>
<path opacity="0.2" d="M992.132 206.311H972.152V225.379H992.132V206.311Z" fill="#08BDBA" fill-opacity="0.7"/>
<path opacity="0.4" d="M1019.43 206.311H999.455V225.379H1019.43V206.311Z" fill="#08BDBA" fill-opacity="0.7"/>
<path d="M1046.75 206.311H1026.77V225.379H1046.75V206.311Z" fill="#08BDBA" fill-opacity="0.7"/>
<path opacity="0.2" d="M1074.06 206.311H1054.08V225.379H1074.06V206.311Z" fill="#08BDBA" fill-opacity="0.7"/>
<path opacity="0.4" d="M1101.36 206.311H1081.38V225.379H1101.36V206.311Z" fill="#08BDBA" fill-opacity="0.7"/>
<path opacity="0.2" d="M1128.67 206.311H1108.69V225.379H1128.67V206.311Z" fill="#08BDBA" fill-opacity="0.7"/>
<path d="M1155.98 206.311H1136V225.379H1155.98V206.311Z" fill="#08BDBA" fill-opacity="0.7"/>
<path opacity="0.2" d="M1183.28 206.311H1163.3V225.379H1183.28V206.311Z" fill="#08BDBA" fill-opacity="0.7"/>
<path opacity="0.7" d="M1210.59 206.311H1190.61V225.379H1210.59V206.311Z" fill="#08BDBA" fill-opacity="0.7"/>
<path opacity="0.7" d="M1237.9 206.311H1217.92V225.379H1237.9V206.311Z" fill="#08BDBA" fill-opacity="0.7"/>
<path opacity="0.4" d="M1265.21 206.311H1245.23V225.379H1265.21V206.311Z" fill="#08BDBA" fill-opacity="0.7"/>
<path opacity="0.2" d="M1292.52 206.311H1272.54V225.379H1292.52V206.311Z" fill="#08BDBA" fill-opacity="0.7"/>
<path d="M800.98 230.462H781V249.531H800.98V230.462Z" fill="#08BDBA" fill-opacity="0.7"/>
<path opacity="0.7" d="M828.283 230.462H808.303V249.531H828.283V230.462Z" fill="#08BDBA" fill-opacity="0.7"/>
<path opacity="0.7" d="M855.594 230.462H835.614V249.531H855.594V230.462Z" fill="#08BDBA" fill-opacity="0.7"/>
<path opacity="0.2" d="M882.896 230.462H862.917V249.531H882.896V230.462Z" fill="#08BDBA" fill-opacity="0.7"/>
<path opacity="0.2" d="M910.207 230.462H890.227V249.531H910.207V230.462Z" fill="#08BDBA" fill-opacity="0.7"/>
<path opacity="0.4" d="M937.518 230.462H917.538V249.531H937.518V230.462Z" fill="#08BDBA" fill-opacity="0.7"/>
<path opacity="0.4" d="M964.821 230.462H944.841V249.531H964.821V230.462Z" fill="#08BDBA" fill-opacity="0.7"/>
<path d="M992.132 230.462H972.152V249.531H992.132V230.462Z" fill="#08BDBA" fill-opacity="0.7"/>
<path opacity="0.2" d="M1019.43 230.462H999.455V249.531H1019.43V230.462Z" fill="#08BDBA" fill-opacity="0.7"/>
<path opacity="0.4" d="M1046.75 230.462H1026.77V249.531H1046.75V230.462Z" fill="#08BDBA" fill-opacity="0.7"/>
<path opacity="0.4" d="M1074.06 230.462H1054.08V249.531H1074.06V230.462Z" fill="#08BDBA" fill-opacity="0.7"/>
<path opacity="0.4" d="M1101.36 230.462H1081.38V249.531H1101.36V230.462Z" fill="#08BDBA" fill-opacity="0.7"/>
<path opacity="0.4" d="M1128.67 230.462H1108.69V249.531H1128.67V230.462Z" fill="#08BDBA" fill-opacity="0.7"/>
<path opacity="0.2" d="M1155.98 230.462H1136V249.531H1155.98V230.462Z" fill="#08BDBA" fill-opacity="0.7"/>
<path opacity="0.2" d="M1183.28 230.462H1163.3V249.531H1183.28V230.462Z" fill="#08BDBA" fill-opacity="0.7"/>
<path opacity="0.2" d="M1210.59 230.462H1190.61V249.531H1210.59V230.462Z" fill="#08BDBA" fill-opacity="0.7"/>
<path opacity="0.2" d="M1237.9 230.462H1217.92V249.531H1237.9V230.462Z" fill="#08BDBA" fill-opacity="0.7"/>
<path opacity="0.7" d="M1265.21 230.462H1245.23V249.531H1265.21V230.462Z" fill="#08BDBA" fill-opacity="0.7"/>
<path opacity="0.7" d="M1292.52 230.462H1272.54V249.531H1292.52V230.462Z" fill="#08BDBA" fill-opacity="0.7"/>
<path opacity="0.2" d="M800.98 254.621H781V273.689H800.98V254.621Z" fill="#08BDBA" fill-opacity="0.7"/>
<path opacity="0.7" d="M828.283 254.621H808.303V273.689H828.283V254.621Z" fill="#08BDBA" fill-opacity="0.7"/>
<path opacity="0.7" d="M855.594 254.621H835.614V273.689H855.594V254.621Z" fill="#08BDBA" fill-opacity="0.7"/>
<path opacity="0.2" d="M882.896 254.621H862.917V273.689H882.896V254.621Z" fill="#08BDBA" fill-opacity="0.7"/>
<path opacity="0.2" d="M910.207 254.621H890.227V273.689H910.207V254.621Z" fill="#08BDBA" fill-opacity="0.7"/>
<path opacity="0.4" d="M937.518 254.621H917.538V273.689H937.518V254.621Z" fill="#08BDBA" fill-opacity="0.7"/>
<path d="M964.821 254.621H944.841V273.689H964.821V254.621Z" fill="#08BDBA" fill-opacity="0.7"/>
<path opacity="0.2" d="M992.132 254.621H972.152V273.689H992.132V254.621Z" fill="#08BDBA" fill-opacity="0.7"/>
<path d="M1019.43 254.621H999.455V273.689H1019.43V254.621Z" fill="#08BDBA" fill-opacity="0.7"/>
<path d="M1046.75 254.621H1026.77V273.689H1046.75V254.621Z" fill="#08BDBA" fill-opacity="0.7"/>
<path d="M1074.06 254.621H1054.08V273.689H1074.06V254.621Z" fill="#08BDBA" fill-opacity="0.7"/>
<path opacity="0.2" d="M1101.36 254.621H1081.38V273.689H1101.36V254.621Z" fill="#08BDBA" fill-opacity="0.7"/>
<path d="M1128.67 254.621H1108.69V273.689H1128.67V254.621Z" fill="#08BDBA" fill-opacity="0.7"/>
<path opacity="0.2" d="M1155.98 254.621H1136V273.689H1155.98V254.621Z" fill="#08BDBA" fill-opacity="0.7"/>
<path opacity="0.2" d="M1183.28 254.621H1163.3V273.689H1183.28V254.621Z" fill="#08BDBA" fill-opacity="0.7"/>
<path opacity="0.2" d="M1210.59 254.621H1190.61V273.689H1210.59V254.621Z" fill="#08BDBA" fill-opacity="0.7"/>
<path opacity="0.2" d="M1237.9 254.621H1217.92V273.689H1237.9V254.621Z" fill="#08BDBA" fill-opacity="0.7"/>
<path opacity="0.2" d="M1265.21 254.621H1245.23V273.689H1265.21V254.621Z" fill="#08BDBA" fill-opacity="0.7"/>
<path opacity="0.7" d="M1292.52 254.621H1272.54V273.689H1292.52V254.621Z" fill="#08BDBA" fill-opacity="0.7"/>
<path opacity="0.2" d="M800.98 278.772H781V297.841H800.98V278.772Z" fill="#08BDBA" fill-opacity="0.7"/>
<path opacity="0.2" d="M828.283 278.772H808.303V297.841H828.283V278.772Z" fill="#08BDBA" fill-opacity="0.7"/>
<path opacity="0.7" d="M855.594 278.772H835.614V297.841H855.594V278.772Z" fill="#08BDBA" fill-opacity="0.7"/>
<path opacity="0.2" d="M882.896 278.772H862.917V297.841H882.896V278.772Z" fill="#08BDBA" fill-opacity="0.7"/>
<path opacity="0.2" d="M910.207 278.772H890.227V297.841H910.207V278.772Z" fill="#08BDBA" fill-opacity="0.7"/>
<path opacity="0.2" d="M937.518 278.772H917.538V297.841H937.518V278.772Z" fill="#08BDBA" fill-opacity="0.7"/>
<path d="M964.821 278.772H944.841V297.841H964.821V278.772Z" fill="#08BDBA" fill-opacity="0.7"/>
<path opacity="0.2" d="M992.132 278.772H972.152V297.841H992.132V278.772Z" fill="#08BDBA" fill-opacity="0.7"/>
<path d="M1019.43 278.772H999.455V297.841H1019.43V278.772Z" fill="#08BDBA" fill-opacity="0.7"/>
<path d="M1046.75 278.772H1026.77V297.841H1046.75V278.772Z" fill="#08BDBA" fill-opacity="0.7"/>
<path opacity="0.2" d="M1074.06 278.772H1054.08V297.841H1074.06V278.772Z" fill="#08BDBA" fill-opacity="0.7"/>
<path opacity="0.2" d="M1101.36 278.772H1081.38V297.841H1101.36V278.772Z" fill="#08BDBA" fill-opacity="0.7"/>
<path opacity="0.2" d="M1128.67 278.772H1108.69V297.841H1128.67V278.772Z" fill="#08BDBA" fill-opacity="0.7"/>
<path opacity="0.2" d="M1155.98 278.772H1136V297.841H1155.98V278.772Z" fill="#08BDBA" fill-opacity="0.7"/>
<path opacity="0.2" d="M1183.28 278.772H1163.3V297.841H1183.28V278.772Z" fill="#08BDBA" fill-opacity="0.7"/>
<path opacity="0.2" d="M1210.59 278.772H1190.61V297.841H1210.59V278.772Z" fill="#08BDBA" fill-opacity="0.7"/>
<path opacity="0.2" d="M1237.9 278.772H1217.92V297.841H1237.9V278.772Z" fill="#08BDBA" fill-opacity="0.7"/>
<path opacity="0.2" d="M1265.21 278.772H1245.23V297.841H1265.21V278.772Z" fill="#08BDBA" fill-opacity="0.7"/>
<path opacity="0.2" d="M1292.52 278.772H1272.54V297.841H1292.52V278.772Z" fill="#08BDBA" fill-opacity="0.7"/>
<path opacity="0.7" d="M800.98 302.931H781V322H800.98V302.931Z" fill="#08BDBA" fill-opacity="0.7"/>
<path opacity="0.2" d="M828.283 302.931H808.303V322H828.283V302.931Z" fill="#08BDBA" fill-opacity="0.7"/>
<path opacity="0.2" d="M855.594 302.931H835.614V322H855.594V302.931Z" fill="#08BDBA" fill-opacity="0.7"/>
<path opacity="0.2" d="M882.896 302.931H862.917V322H882.896V302.931Z" fill="#08BDBA" fill-opacity="0.7"/>
<path opacity="0.2" d="M910.207 302.931H890.227V322H910.207V302.931Z" fill="#08BDBA" fill-opacity="0.7"/>
<path opacity="0.2" d="M937.518 302.931H917.538V322H937.518V302.931Z" fill="#08BDBA" fill-opacity="0.7"/>
<path opacity="0.2" d="M964.821 302.931H944.841V322H964.821V302.931Z" fill="#08BDBA" fill-opacity="0.7"/>
<path d="M992.132 302.931H972.152V322H992.132V302.931Z" fill="#08BDBA" fill-opacity="0.7"/>
<path opacity="0.2" d="M1019.43 302.931H999.455V322H1019.43V302.931Z" fill="#08BDBA" fill-opacity="0.7"/>
<path opacity="0.2" d="M1046.75 302.931H1026.77V322H1046.75V302.931Z" fill="#08BDBA" fill-opacity="0.7"/>
<path opacity="0.2" d="M1074.06 302.931H1054.08V322H1074.06V302.931Z" fill="#08BDBA" fill-opacity="0.7"/>
<path d="M1101.36 302.931H1081.38V322H1101.36V302.931Z" fill="#08BDBA" fill-opacity="0.7"/>
<path opacity="0.2" d="M1128.67 302.931H1108.69V322H1128.67V302.931Z" fill="#08BDBA" fill-opacity="0.7"/>
<path opacity="0.2" d="M1155.98 302.931H1136V322H1155.98V302.931Z" fill="#08BDBA" fill-opacity="0.7"/>
<path opacity="0.2" d="M1183.28 302.931H1163.3V322H1183.28V302.931Z" fill="#08BDBA" fill-opacity="0.7"/>
<path opacity="0.2" d="M1210.59 302.931H1190.61V322H1210.59V302.931Z" fill="#08BDBA" fill-opacity="0.7"/>
<path opacity="0.2" d="M1237.9 302.931H1217.92V322H1237.9V302.931Z" fill="#08BDBA" fill-opacity="0.7"/>
<path opacity="0.2" d="M1265.21 302.931H1245.23V322H1265.21V302.931Z" fill="#08BDBA" fill-opacity="0.7"/>
<path opacity="0.2" d="M1292.52 302.931H1272.54V322H1292.52V302.931Z" fill="#08BDBA" fill-opacity="0.7"/>
<path d="M1158 548H777C776.735 548 776.48 547.895 776.293 547.707C776.105 547.52 776 547.265 776 547C776 546.735 776.105 546.48 776.293 546.293C776.48 546.105 776.735 546 777 546H1158C1158.27 546 1158.52 546.105 1158.71 546.293C1158.89 546.48 1159 546.735 1159 547C1159 547.265 1158.89 547.52 1158.71 547.707C1158.52 547.895 1158.27 548 1158 548Z" fill="#3F3D56"/>
<path d="M975.059 417C989.971 417 1002.06 404.912 1002.06 390C1002.06 375.088 989.971 363 975.059 363C960.147 363 948.059 375.088 948.059 390C948.059 404.912 960.147 417 975.059 417Z" fill="#2F2E41"/>
<path d="M949.405 563.326L948.69 551.088L995.556 542.503L996.612 560.567L949.405 563.326Z" fill="#FFB8B8"/>
<path d="M951.675 542.141L953.055 565.745L938.194 566.613L935.945 528.148C937.897 528.034 939.852 528.306 941.699 528.947C943.545 529.589 945.248 530.587 946.708 531.887C948.169 533.186 949.359 534.76 950.212 536.52C951.064 538.279 951.561 540.189 951.675 542.141Z" fill="#2F2E41"/>
<path d="M969.789 563.214L962.004 572.685L921.768 547.166L933.257 533.188L969.789 563.214Z" fill="#FFB8B8"/>
<path d="M953.737 577.226L968.751 558.96L980.251 568.413L955.785 598.179C954.275 596.938 953.024 595.411 952.104 593.686C951.184 591.962 950.612 590.072 950.422 588.127C950.232 586.181 950.427 584.217 950.996 582.347C951.564 580.476 952.496 578.736 953.737 577.226Z" fill="#2F2E41"/>
<path d="M947.387 519.17L942.067 544.249C941.944 544.826 941.951 545.424 942.087 545.998C942.223 546.573 942.484 547.11 942.852 547.572C943.219 548.033 943.685 548.408 944.215 548.668C944.744 548.929 945.325 549.069 945.915 549.078L998.213 549.922C998.803 549.931 999.387 549.81 999.924 549.568C1000.46 549.325 1000.94 548.967 1001.32 548.518C1001.7 548.069 1001.98 547.542 1002.14 546.973C1002.29 546.404 1002.32 545.808 1002.22 545.227L997.642 519.305C997.479 518.379 996.994 517.54 996.274 516.936C995.554 516.331 994.643 516 993.703 516H951.3C950.383 516 949.494 516.315 948.782 516.892C948.069 517.469 947.577 518.273 947.387 519.17Z" fill="#2F2E41"/>
<path d="M956.059 528C956.059 528 905.059 496 895.059 513C890.059 521.5 892.559 529.75 896.309 535.875C899.789 541.452 904.784 545.923 910.712 548.766L952.059 569L967.059 553L957.059 544L956.059 528Z" fill="#2F2E41"/>
<path d="M982.059 523C982.059 523 1048.06 504 1035.06 540C1022.06 576 973.059 562 973.059 562L968.059 547L985.059 535L982.059 523Z" fill="#2F2E41"/>
<path d="M975.398 420.726C988.962 420.726 999.959 409.73 999.959 396.165C999.959 382.601 988.962 371.604 975.398 371.604C961.833 371.604 950.837 382.601 950.837 396.165C950.837 409.73 961.833 420.726 975.398 420.726Z" fill="#FFB8B8"/>
<path d="M976.685 526.969C966.479 526.814 956.325 525.477 946.427 522.982L946.135 522.902L932.429 459.857C931.197 454.318 932.035 448.518 934.786 443.554C937.537 438.59 942.011 434.805 947.362 432.914C963.892 426.983 981.908 426.624 998.662 431.89H998.662C1004.28 433.701 1009.02 437.566 1011.91 442.712C1014.81 447.858 1015.66 453.908 1014.3 459.654L998.989 522.85L998.773 522.952C992.411 525.966 984.456 526.969 976.685 526.969Z" fill="#CCCCCC"/>
<path d="M958.274 531.866C958.772 530.483 959.567 529.226 960.603 528.183C961.64 527.14 962.892 526.337 964.272 525.831C965.652 525.324 967.126 525.127 968.591 525.252C970.056 525.377 971.475 525.821 972.75 526.554L999.736 503.13L1002.18 521.538L976.177 540.96C974.804 543.019 972.723 544.503 970.328 545.131C967.934 545.758 965.393 545.486 963.186 544.365C960.98 543.244 959.261 541.353 958.355 539.049C957.45 536.745 957.421 534.19 958.274 531.866Z" fill="#FFB8B8"/>
<path d="M984.012 536.976C983.573 536.975 983.136 536.911 982.716 536.785C982.033 536.586 981.408 536.227 980.892 535.737C980.377 535.247 979.986 534.641 979.753 533.969L976.496 524.74C976.191 523.887 976.152 522.962 976.385 522.087C976.617 521.211 977.11 520.427 977.798 519.838L1014.57 497.764L1000.07 433.103L1000.44 433.014C1000.59 432.977 1015.44 429.597 1021.53 445.824C1025.79 457.189 1041.56 481.901 1040.45 498.601C1040.23 501.941 1038.9 505.112 1036.67 507.603C1034.43 510.094 1031.42 511.759 1028.12 512.328L986.736 536.041C985.957 536.645 984.999 536.974 984.012 536.976Z" fill="#CCCCCC"/>
<path d="M988.136 529.673C987.638 528.29 986.843 527.032 985.807 525.989C984.771 524.947 983.519 524.144 982.139 523.637C980.759 523.131 979.284 522.933 977.819 523.058C976.355 523.183 974.935 523.628 973.661 524.361L946.674 500.936L944.233 519.345L970.234 538.767C971.607 540.826 973.688 542.31 976.082 542.937C978.476 543.565 981.017 543.292 983.224 542.171C985.431 541.05 987.15 539.159 988.055 536.855C988.96 534.552 988.989 531.996 988.136 529.673Z" fill="#FFB8B8"/>
<path d="M965.106 536.975C964.12 536.974 963.162 536.645 962.382 536.041L917.994 514.328C914.696 513.758 911.686 512.094 909.45 509.603C907.214 507.112 905.883 503.941 905.672 500.6C904.559 483.901 923.329 457.189 927.591 445.824C933.676 429.597 948.526 432.976 948.677 433.014L949.045 433.102L931.551 499.764L971.32 519.838C972.008 520.427 972.501 521.211 972.733 522.087C972.966 522.962 972.927 523.887 972.622 524.74L969.365 533.969C969.132 534.641 968.741 535.247 968.226 535.737C967.71 536.227 967.085 536.586 966.402 536.785C965.982 536.911 965.545 536.975 965.106 536.975Z" fill="#CCCCCC"/>
<path d="M1018.06 547H929.059C927.203 546.998 925.424 546.26 924.112 544.947C922.799 543.635 922.061 541.856 922.059 540V491C922.061 489.144 922.799 487.365 924.112 486.053C925.424 484.74 927.203 484.002 929.059 484H1018.06C1019.91 484.002 1021.69 484.74 1023.01 486.053C1024.32 487.365 1025.06 489.144 1025.06 491V540C1025.06 541.856 1024.32 543.635 1023.01 544.947C1021.69 546.26 1019.91 546.998 1018.06 547Z" fill="#08BDBA"/>
<path d="M973.559 521.5C976.873 521.5 979.559 518.814 979.559 515.5C979.559 512.186 976.873 509.5 973.559 509.5C970.245 509.5 967.559 512.186 967.559 515.5C967.559 518.814 970.245 521.5 973.559 521.5Z" fill="white"/>
<path d="M950.591 395.166C949.135 391.473 951.523 387.073 955.066 385.285C958.609 383.496 962.885 383.836 966.675 385.015C969.859 386.006 972.844 387.541 975.951 388.754C979.015 390.111 982.361 390.707 985.704 390.49C989.019 390.116 992.317 388.258 993.673 385.21C995.079 382.052 994.123 378.197 991.958 375.502C989.655 372.896 986.674 370.98 983.347 369.967C976.039 367.392 967.598 367.317 960.814 371.059C954.03 374.802 949.42 382.77 950.822 390.389" fill="#2F2E41"/>
<path d="M808.662 536.318C809.898 523.013 813.31 510.001 818.763 497.801C820.283 494.406 821.955 491.086 823.781 487.84C823.873 487.671 823.895 487.472 823.843 487.286C823.791 487.101 823.668 486.942 823.502 486.845C823.335 486.748 823.138 486.719 822.95 486.765C822.763 486.81 822.601 486.927 822.498 487.09C815.858 498.911 811.207 511.743 808.73 525.072C808.041 528.795 807.523 532.543 807.176 536.318C807.088 537.271 808.575 537.264 808.662 536.318Z" fill="#E6E6E6"/>
<path d="M827.381 490.225C832.581 490.225 836.796 486.01 836.796 480.81C836.796 475.611 832.581 471.396 827.381 471.396C822.182 471.396 817.967 475.611 817.967 480.81C817.967 486.01 822.182 490.225 827.381 490.225Z" fill="#08BDBA"/>
<path d="M809.625 536.568C810.427 527.937 812.641 519.495 816.178 511.581C817.164 509.378 818.249 507.224 819.434 505.119C819.493 505.008 819.507 504.88 819.474 504.759C819.44 504.639 819.36 504.536 819.252 504.473C819.144 504.41 819.016 504.391 818.895 504.421C818.773 504.45 818.668 504.526 818.601 504.632C814.294 512.301 811.276 520.625 809.669 529.273C809.222 531.688 808.886 534.12 808.661 536.568C808.604 537.186 809.569 537.182 809.625 536.568H809.625Z" fill="#E6E6E6"/>
<path d="M821.769 506.665C825.142 506.665 827.877 503.931 827.877 500.558C827.877 497.185 825.142 494.45 821.769 494.45C818.396 494.45 815.662 497.185 815.662 500.558C815.662 503.931 818.396 506.665 821.769 506.665Z" fill="#08BDBA"/>
<path d="M808.408 535.992C803.731 528.693 800.284 520.675 798.206 512.259C797.629 509.916 797.159 507.55 796.798 505.162C796.777 505.038 796.709 504.928 796.609 504.854C796.508 504.779 796.382 504.747 796.258 504.764C796.134 504.78 796.022 504.845 795.944 504.943C795.866 505.041 795.83 505.165 795.842 505.29C797.163 513.986 799.904 522.406 803.955 530.212C805.088 532.392 806.319 534.516 807.648 536.585C807.983 537.107 808.741 536.511 808.408 535.992Z" fill="#E6E6E6"/>
<path d="M795.835 506.236C799.208 506.236 801.942 503.502 801.942 500.129C801.942 496.756 799.208 494.021 795.835 494.021C792.462 494.021 789.727 496.756 789.727 500.129C789.727 503.502 792.462 506.236 795.835 506.236Z" fill="#08BDBA"/>
<path d="M789.659 541.396V529.396C789.66 528.203 790.134 527.059 790.978 526.215C791.822 525.372 792.966 524.897 794.159 524.896H822.159C823.352 524.897 824.495 525.372 825.339 526.215C826.183 527.059 826.657 528.203 826.659 529.396V541.396C826.657 542.589 826.183 543.733 825.339 544.576C824.495 545.42 823.352 545.894 822.159 545.896H794.159C792.966 545.894 791.822 545.42 790.978 544.576C790.134 543.733 789.66 542.589 789.659 541.396Z" fill="#F2F2F2"/>
<path d="M1090.41 555.401C1090.41 561.978 1085.08 564.967 1078.5 564.967C1071.92 564.967 1066.59 561.978 1066.59 555.401C1066.59 548.824 1069.24 541.15 1078.5 543.796C1087.76 539.826 1090.41 548.824 1090.41 555.401Z" fill="#FF6584"/>
<path d="M1077.92 546.877C1077.46 546.878 1077.01 546.71 1076.66 546.404C1076.31 546.099 1076.09 545.677 1076.03 545.218C1075.63 541.936 1073.46 535.51 1072.55 532.899L1072.54 532.898C1072.45 532.639 1072.42 532.361 1072.46 532.088C1072.5 531.815 1072.6 531.556 1072.77 531.332C1072.92 531.132 1073.11 530.966 1073.34 530.847C1073.56 530.727 1073.8 530.656 1074.05 530.638C1074.31 530.62 1074.56 530.655 1074.79 530.741C1075.03 530.828 1075.25 530.964 1075.43 531.139C1075.59 531.309 1075.71 531.509 1075.8 531.729C1075.88 531.949 1075.91 532.182 1075.9 532.416C1075.72 535.766 1078.16 541.18 1079.63 544.11C1079.77 544.386 1079.84 544.692 1079.84 545.001C1079.83 545.31 1079.75 545.614 1079.6 545.885C1079.45 546.156 1079.24 546.387 1078.98 546.558C1078.72 546.729 1078.43 546.835 1078.12 546.866C1078.05 546.873 1077.99 546.877 1077.92 546.877Z" fill="#3F3D56"/>
<path d="M1086.73 539.486C1090.87 536.102 1087.62 529.178 1082.45 530.507C1081.75 530.673 1081.11 531.016 1080.58 531.501C1077.41 534.499 1076.92 542.17 1076.92 542.17C1076.92 542.17 1082.52 542.93 1086.73 539.486Z" fill="#3F3D56"/>
<path d="M1180.04 381.117V360.972L1177.63 363.063V381.117L1181.79 384.743L1177.63 388.37H1180.04L1184.23 384.743L1180.04 381.117Z" fill="#FF8AE2"/>
<path d="M1242.36 359.384H1239.95L1244.11 363.011V369.046V372.673V385.935L1241.32 388.37H1243.74L1246.55 385.935V372.673V369.046V363.011L1242.36 359.384Z" fill="#FF8AE2"/>
<path d="M1138.17 349.722H1135.94L1140.13 353.348V359.384V363.011V370.237V385.935L1137.32 388.37H1139.58L1142.36 385.935V353.348L1138.17 349.722Z" fill="#FF8AE2"/>
<path d="M1099.66 381.117V360.919L1097.25 363.011V381.117L1101.43 384.744L1097.25 388.37H1099.66L1103.85 384.744L1099.66 381.117Z" fill="#FF8AE2"/>
<path d="M1165.5 355.758H1163.08V359.384H1165.5V355.758Z" fill="#FF8AE2"/>
<path d="M1163.08 383.526L1165.5 381.435V364.202L1171.09 359.384H1168.67L1163.08 364.202V383.526Z" fill="#FF8AE2"/>
<path d="M1165.89 381.117L1167.27 382.335L1163.08 385.935L1160.3 388.37H1162.71L1165.5 385.935L1169.68 382.335L1168.31 381.117H1165.89Z" fill="#FF8AE2"/>
<path d="M1202.78 381.117V363.011V359.384V353.348L1198.6 349.722H1196.18L1200.37 353.348V359.384V363.011V381.117L1204.53 384.743L1200.37 388.37H1202.78L1206.97 384.743L1202.78 381.117Z" fill="#FF8AE2"/>
<path d="M1206.97 359.384H1204.53L1210.12 364.202V379.899L1205.75 383.685L1206.97 384.743L1212.53 379.899V364.202L1206.97 359.384Z" fill="#FF8AE2"/>
<path d="M1066.96 357.902V366.717L1069.37 364.625V357.902V351.575L1064.97 347.763H1064.94H1062.56L1066.96 351.575V357.902Z" fill="#FF8AE2"/>
<path d="M1080.1 352.846V357.902V376.935V380.746L1083.03 383.288L1084.26 382.229L1082.52 380.746V376.935V357.902V352.846V351.575L1078.11 347.763H1075.7L1080.1 351.575V352.846Z" fill="#FF8AE2"/>
<path d="M1074.23 365.896L1066.96 372.196V385.829L1064.02 388.37H1066.44L1069.37 385.829V372.196L1074.23 367.987V365.896Z" fill="#FF8AE2"/>
<path d="M1059.62 352.872L1055.22 356.657H1057.67L1060.85 353.904L1059.62 352.872Z" fill="#FF8AE2"/>
<path d="M1088.38 380.746H1085.97L1087.44 382.017L1084.5 384.558L1083.03 385.829L1080.1 388.37H1082.52L1085.45 385.829L1086.92 384.558L1089.85 382.017L1088.38 380.746Z" fill="#FF8AE2"/>
<path d="M1184.23 359.384H1181.79L1187.38 364.202V379.899L1183.01 383.685L1184.23 384.743L1189.79 379.899V364.202L1184.23 359.384Z" fill="#FF8AE2"/>
<path d="M1231.73 364.175L1222.01 372.593V381.117L1224.79 383.526L1226.01 382.494L1224.42 381.117V372.593L1234.14 364.175L1228.61 359.384H1226.2L1231.73 364.175Z" fill="#FF8AE2"/>
<path d="M1228.98 379.899L1230.38 381.117L1226.2 384.743L1224.79 385.935L1222.01 388.37H1224.42L1227.2 385.935L1228.61 384.743L1232.8 381.117L1231.39 379.899H1228.98Z" fill="#FF8AE2"/>
<path d="M1222.01 370.184L1224.42 368.093V365.102L1222.01 363.01V370.184Z" fill="#FF8AE2"/>
<path d="M1109.41 382.335V364.202L1103.85 359.384H1101.43L1107 364.202V382.335L1109.78 384.743L1105.62 388.37H1108.04L1112.19 384.743L1109.41 382.335Z" fill="#FF8AE2"/>
<path d="M1123.81 383.526L1125 382.493L1123.44 381.117V365.049L1121.06 363.01H1121.03V381.117L1123.81 383.526Z" fill="#FF8AE2"/>
<path d="M1130.41 379.899H1127.99L1129.37 381.117L1125.21 384.743L1123.81 385.935L1121.03 388.37H1123.44L1126.22 385.935L1127.63 384.743L1131.78 381.117L1130.41 379.899Z" fill="#FF8AE2"/>
<path d="M1125.21 366.584H1127.63L1131.78 362.958L1127.63 359.331H1125.21L1129.37 362.958L1125.21 366.584Z" fill="#FF8AE2"/>
<path d="M1146.73 359.384H1144.28L1148.47 363.011L1144.28 366.637H1146.73L1150.89 363.011L1146.73 359.384Z" fill="#FF8AE2"/>
<path d="M1250.71 359.384H1248.29L1252.48 363.011L1248.29 366.637H1250.71L1254.9 363.011L1250.71 359.384Z" fill="#FF8AE2"/>
<path d="M1146.73 366.637H1144.28L1148.47 370.237V385.935L1145.69 388.37H1148.11L1150.89 385.935V370.237L1146.73 366.637Z" fill="#FF8AE2"/>
<path d="M1168.67 359.384H1163.08V355.757L1153.33 364.202H1157.52V385.935L1160.3 388.37L1163.08 385.935L1167.27 382.335L1165.89 381.117L1163.08 383.526V364.202L1168.67 359.384Z" fill="#9C4668"/>
<path d="M1200.37 363.011V359.384V353.348L1196.18 349.722L1191.99 353.348L1194.78 355.757V383.526L1200.37 388.37L1204.53 384.743L1200.37 381.117V363.011Z" fill="#9C4668"/>
<path d="M1200.37 363.011L1204.53 366.637V384.743L1210.12 379.899V364.202L1204.53 359.384L1200.37 363.011Z" fill="#9C4668"/>
<path d="M1083.03 383.288L1080.1 380.746V376.935V357.902V352.846V351.575L1075.7 347.763L1071.33 351.575L1074.23 354.09V360.416L1066.96 366.717V357.902V351.575L1062.56 347.763H1062.53L1053.72 355.36L1055.22 356.658L1059.62 352.872L1061.09 354.143V385.829L1064.02 388.37L1066.96 385.829V372.196L1074.23 365.896V376.935V383.288L1080.1 388.37L1083.03 385.829L1084.5 384.558L1087.44 382.017L1085.97 380.746L1083.03 383.288Z" fill="#9C4668"/>
<path d="M1177.63 363.01L1172.04 367.828V383.526L1177.63 388.37L1181.79 384.743L1177.63 381.117V363.01Z" fill="#9C4668"/>
<path d="M1177.63 363.011L1181.79 366.637V384.743L1187.38 379.899V364.202L1181.79 359.384L1177.63 363.011Z" fill="#9C4668"/>
<path d="M1231.73 364.175L1226.2 359.384L1222.01 363.011L1226.17 366.584L1222.01 370.184V363.011L1216.42 367.828V383.526L1222.01 388.37L1224.79 385.935L1226.2 384.743L1230.38 381.117L1228.98 379.899L1224.79 383.526L1222.01 381.117V372.593L1231.73 364.175Z" fill="#9C4668"/>
<path d="M1097.25 363.01L1091.65 367.828V383.526L1097.25 388.37L1101.43 384.743L1097.25 381.117V363.01Z" fill="#9C4668"/>
<path d="M1107 364.202L1101.43 359.384L1097.25 363.011L1101.43 366.637V384.743L1105.62 388.37L1109.78 384.743L1107 382.335V364.202Z" fill="#9C4668"/>
<path d="M1123.81 383.526L1121.03 381.117V363.011L1115.43 367.829V383.526L1121.03 388.37L1123.81 385.935L1125.21 384.744L1129.37 381.117L1127.99 379.899L1123.81 383.526Z" fill="#9C4668"/>
<path d="M1125.22 359.339L1121.03 362.97L1125.22 366.602L1129.41 362.97L1125.22 359.339Z" fill="#9C4668"/>
<path d="M1144.32 359.366L1140.12 362.998L1144.32 366.629L1148.51 362.998L1144.32 359.366Z" fill="#9C4668"/>
<path d="M1142.91 372.673V385.935L1145.69 388.37L1148.47 385.935V370.237L1144.28 366.637L1140.13 370.237L1142.91 372.673Z" fill="#9C4668"/>
<path d="M1140.13 359.384V353.348L1135.94 349.722L1131.75 353.348L1134.53 355.757V385.935L1137.32 388.37L1140.13 385.935V370.237V363.011V359.384Z" fill="#9C4668"/>
<path d="M1248.32 359.365L1244.13 362.996L1248.32 366.627L1252.52 362.996L1248.32 359.365Z" fill="#9C4668"/>
<path d="M1235.76 363.011L1238.54 365.42V369.046V372.673V385.935L1241.32 388.37L1244.11 385.935V372.673V369.046V363.011L1239.95 359.384L1235.76 363.011Z" fill="#9C4668"/>
<path d="M1175.34 350.066V348.637H1175.98C1176.56 348.637 1177.02 349.034 1177.02 349.537V353.428C1176.38 353.613 1175.92 354.143 1175.92 354.778C1175.92 355.175 1176.1 355.519 1176.38 355.784C1176.68 356.049 1177.08 356.208 1177.57 356.208C1178.49 356.208 1179.22 355.572 1179.22 354.778C1179.22 354.196 1178.79 353.693 1178.21 353.455V349.537C1178.21 349.007 1177.97 348.531 1177.54 348.16C1177.11 347.79 1176.56 347.578 1175.95 347.578H1175.31V346.148L1173.08 348.081L1175.34 350.066ZM1177.6 354.143C1177.81 354.143 1178 354.222 1178.15 354.328C1178.27 354.434 1178.36 354.619 1178.36 354.778C1178.36 354.963 1178.27 355.122 1178.15 355.228C1178 355.36 1177.81 355.413 1177.63 355.413C1177.2 355.413 1176.87 355.122 1176.87 354.752C1176.84 354.434 1177.17 354.143 1177.6 354.143Z" fill="#9C4668"/>
<path d="M1172.74 354.805C1172.74 354.222 1172.31 353.719 1171.73 353.481V349.457C1172.31 349.246 1172.74 348.743 1172.74 348.134C1172.74 347.34 1172.01 346.704 1171.09 346.704C1170.17 346.704 1169.44 347.34 1169.44 348.134C1169.44 348.504 1169.59 348.875 1169.9 349.14C1170.08 349.299 1170.29 349.404 1170.51 349.484V353.455C1169.87 353.64 1169.41 354.169 1169.41 354.805C1169.41 355.202 1169.59 355.546 1169.87 355.81C1170.17 356.075 1170.57 356.234 1171.06 356.234C1172.01 356.234 1172.74 355.572 1172.74 354.805ZM1171.09 348.796C1170.88 348.796 1170.69 348.716 1170.57 348.61C1170.42 348.478 1170.36 348.319 1170.36 348.16C1170.36 347.79 1170.69 347.498 1171.12 347.498C1171.33 347.498 1171.52 347.578 1171.67 347.684C1171.79 347.79 1171.88 347.975 1171.88 348.134C1171.85 348.504 1171.52 348.796 1171.09 348.796ZM1171.09 355.44C1170.66 355.44 1170.32 355.149 1170.32 354.778C1170.32 354.593 1170.42 354.434 1170.54 354.328C1170.69 354.196 1170.88 354.143 1171.06 354.143C1171.27 354.143 1171.46 354.222 1171.61 354.328C1171.73 354.434 1171.82 354.619 1171.82 354.778C1171.85 355.149 1171.52 355.44 1171.09 355.44Z" fill="#9C4668"/>
<path d="M1215.8 361.396C1216.48 360.866 1216.54 359.966 1215.93 359.384C1215.74 359.225 1215.56 359.093 1215.35 359.013V356.287C1216.51 357.584 1217.88 358.14 1218.92 358.405C1218.98 358.643 1219.1 358.855 1219.29 359.04C1219.59 359.331 1219.99 359.49 1220.42 359.516C1220.85 359.543 1221.27 359.41 1221.61 359.146C1222.28 358.616 1222.34 357.716 1221.73 357.134C1221.43 356.843 1221.03 356.684 1220.6 356.657C1220.2 356.631 1219.84 356.737 1219.5 356.949C1219.47 356.975 1219.44 357.002 1219.41 357.028C1219.29 357.134 1219.17 357.24 1219.1 357.372C1218.19 357.107 1216.97 356.525 1215.99 355.228C1216.54 354.699 1216.57 353.878 1215.99 353.322C1215.41 352.766 1214.43 352.687 1213.76 353.137C1213.73 353.163 1213.69 353.19 1213.66 353.216C1212.99 353.746 1212.93 354.646 1213.54 355.228C1213.73 355.413 1213.94 355.519 1214.18 355.599V358.987C1214.03 359.04 1213.88 359.093 1213.76 359.199C1213.73 359.225 1213.69 359.252 1213.66 359.278C1213.33 359.543 1213.14 359.887 1213.11 360.258C1213.08 360.628 1213.24 360.999 1213.54 361.29C1214.09 361.846 1215.13 361.899 1215.8 361.396ZM1220.02 357.584C1220.17 357.478 1220.36 357.399 1220.57 357.425C1220.79 357.425 1220.97 357.505 1221.09 357.637C1221.37 357.902 1221.34 358.325 1221.03 358.563C1221.03 358.563 1221 358.59 1220.97 358.59C1220.82 358.696 1220.66 358.722 1220.48 358.722C1220.27 358.722 1220.08 358.643 1219.96 358.51C1219.84 358.378 1219.75 358.219 1219.78 358.034C1219.78 357.875 1219.87 357.716 1220.02 357.584ZM1214.24 353.799C1214.55 353.56 1215.04 353.587 1215.31 353.852C1215.59 354.116 1215.56 354.54 1215.25 354.778L1215.22 354.804C1214.92 355.016 1214.46 354.963 1214.21 354.725C1213.91 354.434 1213.94 354.037 1214.24 353.799ZM1213.97 360.284C1213.97 360.099 1214.06 359.94 1214.21 359.834C1214.52 359.596 1215.01 359.622 1215.28 359.887C1215.56 360.152 1215.53 360.575 1215.22 360.813L1215.19 360.84C1214.89 361.052 1214.43 360.999 1214.18 360.761C1214.03 360.628 1213.94 360.443 1213.97 360.284Z" fill="#9C4668"/>
<path d="M1096.42 346.731C1096.42 346.625 1096.45 346.493 1096.51 346.387H1094.31V347.207H1096.51C1096.42 347.075 1096.39 346.89 1096.42 346.731Z" fill="#9C4668"/>
<path d="M1099.48 346.89C1099.48 346.995 1099.45 347.128 1099.39 347.234H1101.59V346.413H1099.42C1099.45 346.545 1099.48 346.704 1099.48 346.89Z" fill="#9C4668"/>
<path d="M1099.94 346.81C1099.94 346.837 1099.94 346.89 1099.94 346.916C1099.91 347.392 1099.66 347.816 1099.26 348.107C1098.87 348.425 1098.35 348.557 1097.83 348.531C1096.73 348.478 1095.87 347.657 1095.93 346.704C1095.96 346.228 1096.21 345.804 1096.61 345.513C1097 345.195 1097.52 345.063 1098.04 345.089C1099.14 345.116 1099.94 345.884 1099.94 346.81ZM1096.88 346.81C1096.88 347.287 1097.31 347.684 1097.89 347.737C1098.16 347.763 1098.44 347.657 1098.65 347.498C1098.87 347.34 1098.99 347.101 1099.02 346.863C1099.05 346.36 1098.62 345.937 1098.04 345.884L1098.07 345.487L1098.04 345.884C1097.77 345.857 1097.49 345.963 1097.28 346.122C1097.06 346.281 1096.94 346.519 1096.91 346.757C1096.88 346.757 1096.88 346.784 1096.88 346.81Z" fill="#9C4668"/>
<path d="M1232.95 390.25C1232.95 390.144 1232.98 390.011 1233.04 389.906H1230.84V390.726H1233.04C1232.98 390.594 1232.95 390.408 1232.95 390.25Z" fill="#9C4668"/>
<path d="M1236.01 390.408C1236.01 390.514 1235.98 390.647 1235.91 390.753H1238.12V389.932H1235.95C1236.01 390.064 1236.04 390.223 1236.01 390.408Z" fill="#9C4668"/>
<path d="M1236.5 390.329C1236.5 390.356 1236.5 390.409 1236.5 390.435C1236.46 390.912 1236.22 391.335 1235.82 391.626C1235.43 391.918 1234.91 392.076 1234.39 392.05C1233.29 391.997 1232.43 391.176 1232.49 390.223C1232.52 389.747 1232.77 389.323 1233.16 389.032C1233.56 388.715 1234.08 388.582 1234.6 388.608C1235.67 388.662 1236.5 389.403 1236.5 390.329ZM1233.44 390.329C1233.44 390.806 1233.87 391.203 1234.45 391.256C1234.72 391.282 1235 391.176 1235.21 391.018C1235.43 390.859 1235.55 390.62 1235.58 390.382C1235.61 389.879 1235.18 389.456 1234.6 389.403L1234.63 389.006L1234.6 389.403C1234.33 389.376 1234.05 389.482 1233.84 389.641C1233.62 389.8 1233.5 390.038 1233.47 390.276C1233.44 390.303 1233.44 390.303 1233.44 390.329Z" fill="#9C4668"/>
<path d="M1072.73 393.003C1072.73 392.897 1072.77 392.764 1072.83 392.658H1070.63V393.479H1072.83C1072.73 393.347 1072.7 393.161 1072.73 393.003Z" fill="#9C4668"/>
<path d="M1075.79 393.161C1075.79 393.267 1075.76 393.4 1075.7 393.506H1077.9V392.685H1075.73C1075.76 392.817 1075.79 392.976 1075.79 393.161Z" fill="#9C4668"/>
<path d="M1076.25 393.082C1076.25 393.108 1076.25 393.161 1076.25 393.188C1076.22 393.665 1075.97 394.088 1075.58 394.379C1075.18 394.697 1074.66 394.829 1074.14 394.803C1073.04 394.75 1072.18 393.929 1072.25 392.976C1072.28 392.5 1072.52 392.076 1072.92 391.785C1073.32 391.494 1073.84 391.335 1074.35 391.362C1075.42 391.388 1076.25 392.156 1076.25 393.082ZM1073.19 393.082C1073.19 393.559 1073.62 393.956 1074.2 394.009C1074.48 394.035 1074.75 393.929 1074.97 393.77C1075.18 393.612 1075.3 393.373 1075.33 393.135C1075.36 392.632 1074.94 392.209 1074.35 392.156L1074.39 391.732L1074.35 392.156C1074.08 392.129 1073.8 392.235 1073.59 392.394C1073.38 392.553 1073.25 392.791 1073.22 393.029C1073.19 393.056 1073.19 393.056 1073.19 393.082Z" fill="#9C4668"/>
<path d="M1150.92 354.858C1150.92 354.752 1150.95 354.619 1151.01 354.513H1148.81V355.334H1151.01C1150.95 355.175 1150.92 355.016 1150.92 354.858Z" fill="#9C4668"/>
<path d="M1153.97 355.016C1153.97 355.122 1153.94 355.255 1153.88 355.361H1156.08V354.513H1153.91C1153.97 354.672 1154 354.831 1153.97 355.016Z" fill="#9C4668"/>
<path d="M1154.46 354.937C1154.46 354.963 1154.46 355.016 1154.46 355.043C1154.43 355.519 1154.19 355.943 1153.79 356.234C1153.39 356.552 1152.87 356.684 1152.35 356.657C1151.25 356.605 1150.4 355.784 1150.46 354.831C1150.49 354.354 1150.73 353.931 1151.13 353.64C1151.53 353.322 1152.05 353.19 1152.57 353.216C1153.64 353.243 1154.46 354.01 1154.46 354.937ZM1151.41 354.937C1151.41 355.413 1151.83 355.81 1152.41 355.863C1152.69 355.89 1152.96 355.784 1153.18 355.625C1153.39 355.466 1153.51 355.228 1153.55 354.99C1153.58 354.487 1153.15 354.063 1152.57 354.01L1152.6 353.613L1152.57 354.01C1152.29 353.984 1152.02 354.09 1151.8 354.249C1151.59 354.407 1151.47 354.646 1151.44 354.884C1151.41 354.884 1151.41 354.91 1151.41 354.937Z" fill="#9C4668"/>
<path d="M1120.44 355.069C1119.96 354.408 1118.92 354.222 1118.15 354.672C1117.79 354.884 1117.54 355.202 1117.45 355.572C1117.36 355.943 1117.45 356.34 1117.69 356.658C1117.85 356.869 1118.18 357.081 1118.46 357.134V358.14C1118.46 358.431 1118.18 359.093 1117.36 359.093H1114.36V356.552C1114.58 356.472 1114.79 356.366 1114.94 356.181C1115.55 355.599 1115.49 354.699 1114.82 354.169C1114.15 353.64 1113.11 353.693 1112.5 354.275C1112.19 354.566 1112.07 354.937 1112.07 355.308C1112.07 355.678 1112.28 356.049 1112.62 356.287C1112.65 356.313 1112.68 356.34 1112.71 356.366C1112.83 356.446 1112.99 356.525 1113.14 356.578V359.967C1112.9 360.046 1112.68 360.178 1112.5 360.337C1111.89 360.92 1111.95 361.82 1112.62 362.349C1112.65 362.375 1112.68 362.402 1112.71 362.428C1113.38 362.878 1114.36 362.799 1114.94 362.243C1115.49 361.687 1115.49 360.84 1114.94 360.337C1114.85 360.258 1114.79 360.205 1114.73 360.152H1117.33C1118.92 360.152 1119.62 358.987 1119.62 358.193V357.214C1119.71 357.187 1119.83 357.134 1119.93 357.081C1119.96 357.055 1119.99 357.028 1120.02 357.002C1120.32 356.79 1120.54 356.499 1120.63 356.155C1120.78 355.758 1120.69 355.387 1120.44 355.069ZM1112.99 355.255C1112.99 355.069 1113.05 354.911 1113.17 354.778C1113.45 354.513 1113.87 354.487 1114.18 354.699C1114.21 354.699 1114.21 354.725 1114.21 354.725C1114.52 354.963 1114.55 355.387 1114.27 355.652C1114 355.916 1113.51 355.943 1113.2 355.705C1113.08 355.572 1112.99 355.413 1112.99 355.255ZM1114.33 361.687C1114.06 361.952 1113.6 361.978 1113.26 361.74C1112.96 361.502 1112.93 361.078 1113.2 360.814C1113.48 360.549 1113.9 360.522 1114.21 360.734C1114.24 360.734 1114.24 360.761 1114.24 360.761C1114.58 360.999 1114.61 361.422 1114.33 361.687ZM1119.8 355.996C1119.77 356.155 1119.65 356.313 1119.47 356.419C1119.31 356.525 1119.1 356.552 1118.89 356.525C1118.7 356.499 1118.52 356.393 1118.4 356.234C1118.27 356.102 1118.24 355.916 1118.27 355.731C1118.31 355.572 1118.4 355.44 1118.55 355.361C1118.58 355.361 1118.58 355.334 1118.61 355.334C1118.95 355.149 1119.44 355.228 1119.65 355.519C1119.8 355.652 1119.83 355.811 1119.8 355.996Z" fill="#9C4668"/>
<path d="M1064.27 353.243H1063.69V383.552H1064.27V353.243Z" fill="#FF8AE2"/>
<path d="M1077.59 353.243H1077.01V381.461H1077.59V353.243Z" fill="#FF8AE2"/>
<path d="M1137.32 354.646H1136.74V384.717H1137.32V354.646Z" fill="#FF8AE2"/>
<path d="M1197.65 354.99H1197.07V381.62H1197.65V354.99Z" fill="#FF8AE2"/>
<path d="M1104.46 365.525H1103.88V382.838H1104.46V365.525Z" fill="#FF8AE2"/>
<path d="M1160.51 365.525H1159.93V382.838H1160.51V365.525Z" fill="#FF8AE2"/>
<path d="M1241.42 364.678H1240.84V383.659H1241.42V364.678Z" fill="#FF8AE2"/>
<path d="M1184.72 365.208H1184.14V379.396H1184.72V365.208Z" fill="#FF8AE2"/>
<path d="M1207.25 365.525H1206.67V379.714H1207.25V365.525Z" fill="#FF8AE2"/>
<path d="M1219.14 368.596H1218.55V382.785H1219.14V368.596Z" fill="#FF8AE2"/>
<path d="M1175.22 368.437H1174.63V382.626H1175.22V368.437Z" fill="#FF8AE2"/>
<path d="M1118.49 368.067H1117.91V382.546H1118.49V368.067Z" fill="#FF8AE2"/>
<path d="M1094.65 368.384H1094.07V382.414H1094.65V368.384Z" fill="#FF8AE2"/>
<path d="M1145.78 371.217H1145.2V385.247H1145.78V371.217Z" fill="#FF8AE2"/>
<path d="M1064.27 371.931L1063.81 371.534L1077.07 360.019L1077.53 360.443L1064.27 371.931Z" fill="#FF8AE2"/>
<path d="M1236.95 380.296C1237.26 381.091 1237.93 381.673 1238.54 381.964V378.02C1237.08 379.344 1236.95 380.27 1236.95 380.296Z" fill="#FF8AE2"/>
<path d="M1154.89 382.07C1154.83 381.991 1154.8 381.885 1154.77 381.805C1154.8 381.911 1154.83 381.991 1154.89 382.07Z" fill="#FF8AE2"/>
<path d="M1157.49 377.199C1154.19 379.449 1154.89 382.07 1154.89 382.07C1155.41 383.023 1156.51 383.579 1157.52 383.897L1157.49 377.199Z" fill="#FF8AE2"/>
<path d="M1109.41 372.779V378.496C1110.11 377.94 1110.88 377.199 1111.24 376.379C1111.34 376.034 1111.58 374.393 1109.41 372.779Z" fill="#9C4668"/>
<path d="M1089.3 396.391C1089.3 396.391 1091.44 397.238 1090.92 402.056C1090.68 404.174 1091.99 406.133 1091.99 406.133C1091.99 406.133 1088.05 405.312 1087.5 402.744C1087.07 400.812 1088.96 398.879 1089.3 396.391Z" fill="#93C2DB"/>
<path d="M1085.36 353.534C1085.36 353.534 1089.94 350.463 1087.8 344.984C1087.8 344.984 1085.17 345.778 1085.63 348.16C1086.12 350.807 1086.15 352.449 1085.36 353.534Z" fill="#93C2DB"/>
<path d="M1235.52 375.187C1235.52 375.187 1233.47 369.867 1239.43 365.896C1239.43 365.896 1241.11 367.908 1239.15 370.026C1237.2 372.143 1235.55 373.758 1235.52 375.187Z" fill="#93C2DB"/>
<path d="M1153.82 374.764C1153.82 374.764 1151.62 369.787 1155.84 367.67C1155.84 367.67 1156.33 368.596 1156.11 370.131C1155.87 371.746 1154.65 371.985 1153.82 374.764Z" fill="#93C2DB"/>
<path d="M1120.9 354.09C1120.9 354.09 1122.4 350.675 1125.95 351.602C1125.95 351.575 1125 354.725 1120.9 354.09Z" fill="#93C2DB"/>
<path d="M1116.72 353.084C1116.72 353.084 1114 350.569 1116.87 348.054C1116.9 348.054 1119.38 350.066 1116.72 353.084Z" fill="#93C2DB"/>
<path d="M1111.34 354.09C1111.34 354.09 1107.36 354.646 1106.05 352.025C1106.02 352.025 1109.78 350.887 1111.34 354.09Z" fill="#93C2DB"/>
<path d="M1174.27 394.353C1174.27 394.353 1175.77 390.938 1179.31 391.864C1179.31 391.864 1178.36 395.015 1174.27 394.353Z" fill="#93C2DB"/>
<path d="M1170.08 393.373C1170.08 393.373 1167.36 390.858 1170.23 388.344C1170.23 388.344 1172.74 390.356 1170.08 393.373Z" fill="#93C2DB"/>
<path d="M1164.7 394.379C1164.7 394.379 1160.73 394.935 1159.41 392.314C1159.38 392.288 1163.14 391.15 1164.7 394.379Z" fill="#93C2DB"/>
<path d="M1215.01 350.913C1215.01 350.913 1213.51 348.16 1216.08 345.963C1216.05 345.963 1218.16 348.293 1215.01 350.913Z" fill="#93C2DB"/>
<path d="M1212.78 351.31C1212.78 351.31 1209.26 351.152 1208.25 348.134C1208.25 348.134 1211.62 347.657 1212.78 351.31Z" fill="#93C2DB"/>
<path d="M1130.29 439.937C1130.29 439.937 1126.89 441.472 1124.57 439.01C1124.57 439.01 1127.78 437.29 1130.29 439.937Z" fill="#93C2DB"/>
<path d="M1131.88 441.869C1131.88 441.869 1131.72 445.284 1128.21 445.787C1128.21 445.76 1127.93 442.531 1131.88 441.869Z" fill="#93C2DB"/>
<path d="M1176.32 428.58C1176.32 428.58 1179.49 427.283 1182.03 429.507C1182.03 429.48 1179.34 431.307 1176.32 428.58Z" fill="#93C2DB"/>
<path d="M1175.86 426.648C1175.86 426.648 1176.04 423.604 1179.52 422.73C1179.49 422.73 1180.07 425.642 1175.86 426.648Z" fill="#93C2DB"/>
<path d="M1248.97 390.117C1248.97 390.117 1252.48 391.044 1252.27 394.274C1252.27 394.247 1248.29 393.903 1248.97 390.117Z" fill="#93C2DB"/>
<path d="M1249.61 388.476C1249.61 388.476 1251.87 386.094 1255.38 387.947C1255.38 387.947 1253.4 390.329 1249.61 388.476Z" fill="#93C2DB"/>
<path d="M1052.53 357.505C1052.53 357.505 1050.79 360.39 1047 359.04C1047 359.04 1048.53 355.863 1052.53 357.505Z" fill="#93C2DB"/>
<path d="M1054.21 358.563C1054.21 358.563 1056.93 361.211 1054.21 363.593C1054.18 363.593 1051.31 360.946 1054.21 358.563Z" fill="#93C2DB"/>
<path d="M1168.8 346.942C1168.8 346.942 1165.37 346.307 1164.91 343.21C1164.88 343.21 1168.31 343.183 1168.8 346.942Z" fill="#93C2DB"/>
<path d="M1167.79 348.716C1167.79 348.716 1165.5 351.019 1162.13 349.907C1162.16 349.907 1163.75 347.287 1167.79 348.716Z" fill="#93C2DB"/>
<path d="M1225.74 378.893C1225.74 378.893 1226.38 377.914 1226.59 376.934C1226.99 375.293 1227.17 373.652 1229.47 373.573C1229.5 373.573 1229.56 378.073 1225.74 378.893Z" fill="#93C2DB"/>
<path d="M1212.17 401.315C1212.17 401.315 1214.37 398.27 1218.22 397.926C1222.96 397.529 1224.55 395.147 1225.43 393.717C1225.43 393.717 1218.92 393.638 1216.38 394.856C1213.79 396.1 1213.05 397.503 1212.17 401.315Z" fill="#93C2DB"/>
<path d="M1142.36 384.982C1142.54 383.182 1142.54 378.708 1142.02 376.723C1141.35 374.076 1140.74 374.155 1140.34 374.287C1139.94 374.42 1140.04 374.791 1139.82 375.002C1139.58 375.214 1139.21 375.479 1138.72 374.632C1138.23 373.758 1137.87 371.27 1136.95 370.396C1136 369.496 1135.39 370.952 1134.96 371.296C1134.53 371.64 1134.47 371.879 1133.28 371.19C1132.09 370.502 1128.85 369.073 1127.47 369.999C1126.13 370.926 1127.6 372.09 1128.02 372.329C1128.91 372.832 1131.75 373.599 1131.97 374.023C1132.33 374.791 1130.41 374.87 1130.04 375.426C1129.67 375.982 1130.16 376.564 1131.05 376.749C1131.94 376.935 1134.32 376.538 1135.33 376.749C1136.31 376.961 1136.09 377.252 1135.76 377.438C1135.57 377.544 1133.86 378.364 1134.14 379.079C1134.44 379.926 1135.42 380.191 1137.8 380.005C1139.61 379.873 1140.95 380.985 1141.35 381.885C1141.75 382.811 1142.36 384.982 1142.36 384.982Z" fill="#93C2DB"/>
<path d="M1130.32 370.926C1130.13 370.82 1129.95 370.74 1129.89 370.714L1129.55 370.899C1129.55 370.899 1129.61 370.952 1130.1 371.19C1137.87 375.214 1141.08 379.476 1142.42 382.547C1142.42 382.282 1142.42 382.017 1142.42 381.752C1140.92 378.682 1137.59 374.685 1130.32 370.926Z" fill="#FF8AE2"/>
<path d="M1181.66 373.493C1181.66 373.493 1181.14 369.39 1181.94 366.108C1182.43 364.122 1183.96 361.502 1186.13 359.384C1188.57 357.028 1189.43 356.631 1189.98 356.631C1190.22 356.631 1190.07 356.949 1189.98 357.266C1189.73 358.034 1189.52 358.616 1189.24 359.675C1188.72 361.819 1189.24 362.666 1188.48 363.752C1188.05 364.387 1185.48 365.208 1186.16 366.002C1186.55 366.452 1188.66 364.625 1189.24 365.234C1189.82 365.816 1188.69 368.543 1187.17 369.364C1182.79 371.667 1181.66 373.493 1181.66 373.493Z" fill="#93C2DB"/>
<path d="M1198.81 400.018V397.927H1185.12V401.474H1187.59V403.697H1185.12H1185.06V405.894H1182.58H1190.1V403.697H1201.22V400.018H1198.81Z" fill="#93C2DB"/>
<path d="M1139.39 406.98H1136.86V401.924H1133.04V419.792H1135.51V417.595H1139.39V415.53V411.268H1144.01V409.6H1147.65V406.98H1139.39Z" fill="#93C2DB"/>
<path d="M1173.75 415.027H1171.21V417.224H1173.75V415.027Z" fill="#93C2DB"/>
<path d="M1149.39 415.53H1146.85V417.727H1149.39V415.53Z" fill="#93C2DB"/>
<path d="M1151.93 417.727H1149.39V419.924H1151.93V417.727Z" fill="#93C2DB"/>
<path d="M1168.67 421.645V419.421H1171.21V417.224H1168.98V412.433H1166.05V417.224H1158.92V419.262H1156.54V421.645H1159.93H1168.67Z" fill="#93C2DB"/>
<path d="M1161.58 400.15H1159.05V402.347H1161.58V400.15Z" fill="#93C2DB"/>
<path d="M1164.12 397.927H1161.58V400.123H1164.12V397.927Z" fill="#93C2DB"/>
<path d="M1128.24 400.282H1124.63V401.95H1128.24V400.282Z" fill="#93C2DB"/>
<path d="M1116.81 402.876H1114.27V400.679H1111.73V402.876H1114.27V407.006V411.268H1125.61V407.006H1116.81V402.876ZM1119.37 409.044V411.241H1116.84V409.044H1119.37Z" fill="#93C2DB"/>
<path d="M1183.41 416.129V414.276H1181.27V416.129H1183.41Z" fill="#93C2DB"/>
<path d="M1110.66 394.353H1108.37V396.259H1110.66V394.353Z" fill="#93C2DB"/>
<path d="M1146.24 348.931V346.998H1144.01V348.931H1146.24Z" fill="#93C2DB"/>
<path d="M1188.05 351.419V349.487H1185.82V351.419H1188.05Z" fill="#93C2DB"/>
<path d="M1258 378.223V376.291H1255.77V378.223H1258Z" fill="#93C2DB"/>
<path d="M1180.91 438.696H1183.14V436.763H1180.91V438.696Z" fill="#93C2DB"/>
<path d="M1143.51 445.742H1145.74V443.809H1143.51V445.742Z" fill="#93C2DB"/>
<path d="M1191.12 389.034V387.181H1188.98V389.034H1191.12Z" fill="#93C2DB"/>
<path d="M1212.84 392.05V390.197H1210.7V392.05H1212.84Z" fill="#93C2DB"/>
<path d="M1129.94 390.391H1132.08V388.538H1129.94V390.391Z" fill="#93C2DB"/>
<path d="M1126.54 422.327V420.474H1124.4V422.327H1126.54Z" fill="#93C2DB"/>
<path d="M1190.1 403.697V405.894H1186.86V421.645H1190.77V419.58H1193.16V403.697H1190.1Z" fill="#9C4668"/>
<path d="M1164.12 397.927V400.15H1161.58V402.347H1159.05H1156.51V410.209V408.039H1159.08V409.097H1162.26V408.039V403.697H1170.72V401.95H1172.95V397.927H1164.12Z" fill="#9C4668"/>
<path d="M1132.09 392.255H1134.23V390.402H1132.09V392.255Z" fill="#FF8AE2"/>
<path d="M1146.79 399.912V397.926H1137.99V396.259H1131.69V401.924H1136.86V406.98H1139.39V403.353H1141.99V399.912H1146.79Z" fill="#9C4668"/>
<path d="M1114.27 413.465V411.268V406.98V402.876H1111.73V400.68H1114.27V398.456H1116.81V397.926V396.285H1110.66V398.535V398.774V420.427H1116.81V413.465H1114.27Z" fill="#9C4668"/>
<path d="M1110.66 420.427H1108.37V422.333H1110.66V420.427Z" fill="#9C4668"/>
<path d="M1201.16 397.927H1198.78V399.991H1201.16V397.927Z" fill="#9C4668"/>
<path d="M1203.55 400.018H1201.16V403.697H1203.55V400.018Z" fill="#9C4668"/>
<path d="M1203.55 395.862H1201.16V397.926H1203.55V395.862Z" fill="#9C4668"/>
<path d="M1171.21 419.421H1168.67V421.618H1171.21V419.421Z" fill="#9C4668"/>
<path d="M1139.39 419.792H1135.51V421.645H1139.39V419.792Z" fill="#9C4668"/>
<path d="M1049.23 365.535V363.602H1047V365.535H1049.23Z" fill="#FF8AE2"/>
<path d="M1111.78 346.626V344.694H1109.55V346.626H1111.78Z" fill="#FF8AE2"/>
<path d="M1254.67 355.955V354.023H1252.44V355.955H1254.67Z" fill="#FF8AE2"/>
<path d="M1234.74 399.264H1236.97V397.331H1234.74V399.264Z" fill="#FF8AE2"/>
<path d="M1236.92 397.401H1239.15V395.469H1236.92V397.401Z" fill="#FF8AE2"/>
<path d="M1099.43 413.39H1101.66V411.458H1099.43V413.39Z" fill="#FF8AE2"/>
<path d="M1124.08 431.915H1126.31V429.983H1124.08V431.915Z" fill="#FF8AE2"/>
<path d="M1154.31 423.565H1156.54V421.633H1154.31V423.565Z" fill="#FF8AE2"/>
<path d="M1193.06 394.011V392.158H1190.92V394.011H1193.06Z" fill="#FF8AE2"/>
<path d="M1210.67 393.914V392.061H1208.53V393.914H1210.67Z" fill="#FF8AE2"/>
<path d="M1152.41 397.927H1146.79V399.912H1141.99V403.353H1149.85V401.077H1152.41V397.927Z" fill="#FF8AE2"/>
<path d="M1154.71 396.047H1152.41V397.953H1154.71V396.047Z" fill="#FF8AE2"/>
<path d="M1225.28 348.213H1222.89V350.278H1225.28V348.213Z" fill="#FF8AE2"/>
<path d="M1195.54 421.645H1193.16V423.709H1195.54V421.645Z" fill="#FF8AE2"/>
<path d="M1193.16 419.58H1190.77V421.645H1193.16V419.58Z" fill="#FF8AE2"/>
<path d="M1173.75 415.027V410.95H1172.07V409.097H1159.08V408.038H1156.51V410.236H1159.05V412.433H1166.05H1167.39H1168.98V417.224H1171.21V415.027H1173.75Z" fill="#FF8AE2"/>
<path d="M1161.58 397.927H1159.05V400.123H1161.58V397.927Z" fill="#FF8AE2"/>
<path d="M1159.05 400.15H1156.51V402.347H1159.05V400.15Z" fill="#FF8AE2"/>
<path d="M1147.62 409.6H1144.01V411.268H1147.62V409.6Z" fill="#FF8AE2"/>
<path d="M1108.37 422.333H1105.99V424.398H1108.37V422.333Z" fill="#FF8AE2"/>
<path d="M1119.34 409.044H1116.81V411.241H1119.34V409.044Z" fill="#FF8AE2"/>
<path d="M1116.81 411.268H1114.27V413.465H1116.81V411.268Z" fill="#FF8AE2"/>
<path d="M1122.1 397.926V396.259H1119.38H1116.81V398.456H1114.27V402.876H1116.81V401.95H1124.63V400.282H1128.27V397.926H1122.1Z" fill="#FF8AE2"/>
<path d="M1190.13 399.276H1187.59V401.474H1190.13V399.276Z" fill="#FF8AE2"/>
<path d="M1185.12 401.474V397.927H1176.77V403.697H1182.52V405.894H1185.06V403.697H1185.12H1187.59V401.474H1185.12Z" fill="#FF8AE2"/>
<path d="M1149.39 419.924V417.727H1146.85V415.53H1139.39V417.595H1135.51V419.792H1139.39V420.427V421.645H1151.96V419.924H1149.39Z" fill="#FF8AE2"/>
<path d="M1173.75 417.224H1171.21V419.421H1173.75V417.224Z" fill="#9C4668"/>
<path d="M1185.79 353.366V351.433H1183.56V353.366H1185.79Z" fill="#9C4668"/>
<path d="M1057.61 371.199V369.266H1055.38V371.199H1057.61Z" fill="#9C4668"/>
<path d="M1116.82 391.295V389.363H1114.59V391.295H1116.82Z" fill="#9C4668"/>
<path d="M1091.89 390.693V388.76H1089.66V390.693H1091.89Z" fill="#9C4668"/>
<path d="M1255.77 380.17V378.238H1253.54V380.17H1255.77Z" fill="#9C4668"/>
<path d="M1178.7 436.75H1180.93V434.818H1178.7V436.75Z" fill="#9C4668"/>
<path d="M1201.25 413.799H1203.48V411.866H1201.25V413.799Z" fill="#9C4668"/>
<path d="M1141.26 443.822H1143.49V441.889H1141.26V443.822Z" fill="#FF8AE2"/>
<path d="M1181.24 417.966V416.113H1179.1V417.966H1181.24Z" fill="#9C4668"/>
<path d="M1146.67 392.42H1144.28V394.485H1146.67V392.42Z" fill="#9C4668"/>
<path d="M1124.4 424.19V422.337H1122.26V424.19H1124.4Z" fill="#9C4668"/>
<path d="M1162.01 438.031L1160.54 436.76L1158.1 438.878H1156.57V434.086L1157.89 432.948L1158.37 432.525L1158.89 432.101L1159.9 431.227V429.904V427.733L1157.73 425.88L1154.74 428.474L1155.26 428.898L1156.75 427.601L1157.89 428.607V432.074L1154.83 434.722L1154.58 434.933V439.275H1156.57H1160.15H1160.54L1162.01 438.031Z" fill="#9C4668"/>
<path d="M1159.9 429.904V431.227L1158.89 432.101L1158.37 432.525L1157.89 432.948L1156.57 434.086V438.878H1157.4V434.086L1158.71 432.948L1159.17 432.525L1159.69 432.101L1160.7 431.227V429.904V427.733L1158.53 425.88H1157.73L1159.9 427.733V429.904Z" fill="#FF8AE2"/>
<path d="M1161.37 436.76H1160.54L1162.01 438.031L1160.54 439.275H1161.37L1162.81 438.031L1161.37 436.76Z" fill="#FF8AE2"/>
<path d="M1157.15 427.972L1156.75 427.601L1155.26 428.898H1156.05L1157.15 427.972Z" fill="#FF8AE2"/>
<path d="M1170.02 433.53V436.31H1167.82V435.516V433.424H1166.26V429.427H1163.45V435.516H1164.88V439.433H1167.02H1167.82H1171.58V437.554V436.31V433.53H1170.02Z" fill="#93C2DB"/>
<path d="M1172.74 429.401V427.76H1170.72V429.427H1170.02V433.53H1171.58V436.31V437.422H1172.74V435.516H1173.72V429.401H1172.74Z" fill="#FF8AE2"/>
<path d="M1171.33 425.959H1166.57V426.965H1164.88V429.427H1166.26V433.424H1167.82V429.427H1170.72V427.759H1171.33V425.959Z" fill="#9C4668"/>
<path d="M1140.62 438.031L1139.15 436.76L1136.7 438.878H1135.18V434.086L1136.49 432.948L1136.98 432.525L1137.5 432.101L1138.51 431.227V429.904V427.733L1136.34 425.88L1133.34 428.474L1133.86 428.898L1135.36 427.601L1136.49 428.607V432.074L1133.43 434.722L1133.19 434.933V439.275H1135.18H1138.75H1139.15L1140.62 438.031Z" fill="#9C4668"/>
<path d="M1138.51 429.904V431.227L1137.5 432.101L1136.98 432.525L1136.49 432.948L1135.18 434.086V438.878H1136V434.086L1137.32 432.948L1137.77 432.525L1138.29 432.101L1139.3 431.227V429.904V427.733L1137.13 425.88H1136.34L1138.51 427.733V429.904Z" fill="#FF8AE2"/>
<path d="M1135.76 427.972L1135.36 427.601L1133.86 428.898H1134.66L1135.76 427.972Z" fill="#FF8AE2"/>
<path d="M1139.98 436.76H1139.15L1140.62 438.031L1139.15 439.275H1139.98L1141.41 438.031L1139.98 436.76Z" fill="#FF8AE2"/>
<path d="M1148.62 433.53V436.31H1146.42V435.516V433.424H1144.87V429.427H1142.05V435.516H1143.49V439.433H1145.63H1146.42H1150.18V437.554V436.31V433.53H1148.62Z" fill="#93C2DB"/>
<path d="M1151.34 429.401V427.76H1149.33V429.427H1148.62V433.53H1150.18V436.31V437.422H1151.34V435.516H1152.32V429.401H1151.34Z" fill="#FF8AE2"/>
<path d="M1149.94 425.959H1145.17V426.965H1143.49V429.427H1144.87V433.424H1146.42V429.427H1149.33V427.759H1149.94V425.959Z" fill="#9C4668"/>
<path d="M1138.23 400.838C1138.32 400.838 1138.39 400.779 1138.39 400.706C1138.39 400.633 1138.32 400.573 1138.23 400.573C1138.15 400.573 1138.08 400.633 1138.08 400.706C1138.08 400.779 1138.15 400.838 1138.23 400.838Z" fill="#FF8AE2"/>
<path d="M1137.9 404.306C1137.98 404.306 1138.05 404.247 1138.05 404.173C1138.05 404.1 1137.98 404.041 1137.9 404.041C1137.81 404.041 1137.74 404.1 1137.74 404.173C1137.74 404.247 1137.81 404.306 1137.9 404.306Z" fill="#FF8AE2"/>
<path d="M1138.57 406.185C1138.65 406.185 1138.72 406.126 1138.72 406.053C1138.72 405.98 1138.65 405.921 1138.57 405.921C1138.48 405.921 1138.42 405.98 1138.42 406.053C1138.42 406.126 1138.48 406.185 1138.57 406.185Z" fill="#FF8AE2"/>
<path d="M1137.77 402.718C1137.86 402.718 1137.93 402.658 1137.93 402.585C1137.93 402.512 1137.86 402.453 1137.77 402.453C1137.69 402.453 1137.62 402.512 1137.62 402.585C1137.62 402.658 1137.69 402.718 1137.77 402.718Z" fill="#FF8AE2"/>
<path d="M1139.15 399.541C1139.23 399.541 1139.3 399.482 1139.3 399.409C1139.3 399.335 1139.23 399.276 1139.15 399.276C1139.07 399.276 1139 399.335 1139 399.409C1139 399.482 1139.07 399.541 1139.15 399.541Z" fill="#FF8AE2"/>
<path d="M1136.15 398.085C1136.24 398.085 1136.31 398.026 1136.31 397.952C1136.31 397.879 1136.24 397.82 1136.15 397.82C1136.07 397.82 1136 397.879 1136 397.952C1136 398.026 1136.07 398.085 1136.15 398.085Z" fill="#FF8AE2"/>
<path d="M1140.49 402.559C1140.58 402.559 1140.65 402.5 1140.65 402.427C1140.65 402.354 1140.58 402.294 1140.49 402.294C1140.41 402.294 1140.34 402.354 1140.34 402.427C1140.34 402.5 1140.41 402.559 1140.49 402.559Z" fill="#FF8AE2"/>
<path d="M1142.66 398.879C1142.75 398.879 1142.82 398.82 1142.82 398.747C1142.82 398.674 1142.75 398.615 1142.66 398.615C1142.58 398.615 1142.51 398.674 1142.51 398.747C1142.51 398.82 1142.58 398.879 1142.66 398.879Z" fill="#FF8AE2"/>
<path d="M1145.63 399.382C1145.71 399.382 1145.78 399.323 1145.78 399.25C1145.78 399.177 1145.71 399.117 1145.63 399.117C1145.54 399.117 1145.48 399.177 1145.48 399.25C1145.48 399.323 1145.54 399.382 1145.63 399.382Z" fill="#FF8AE2"/>
<path d="M1133.04 400.044C1133.12 400.044 1133.19 399.985 1133.19 399.911C1133.19 399.838 1133.12 399.779 1133.04 399.779C1132.95 399.779 1132.88 399.838 1132.88 399.911C1132.88 399.985 1132.95 400.044 1133.04 400.044Z" fill="#FF8AE2"/>
<path d="M1135.39 401.209C1135.48 401.209 1135.54 401.149 1135.54 401.076C1135.54 401.003 1135.48 400.944 1135.39 400.944C1135.31 400.944 1135.24 401.003 1135.24 401.076C1135.24 401.149 1135.31 401.209 1135.39 401.209Z" fill="#FF8AE2"/>
<path d="M1135.05 399.488C1135.14 399.488 1135.21 399.429 1135.21 399.356C1135.21 399.283 1135.14 399.223 1135.05 399.223C1134.97 399.223 1134.9 399.283 1134.9 399.356C1134.9 399.429 1134.97 399.488 1135.05 399.488Z" fill="#FF8AE2"/>
<path d="M1132.82 397.635C1132.91 397.635 1132.98 397.576 1132.98 397.503C1132.98 397.43 1132.91 397.371 1132.82 397.371C1132.74 397.371 1132.67 397.43 1132.67 397.503C1132.67 397.576 1132.74 397.635 1132.82 397.635Z" fill="#FF8AE2"/>
<path d="M1140.34 400.362C1140.43 400.362 1140.49 400.302 1140.49 400.229C1140.49 400.156 1140.43 400.097 1140.34 400.097C1140.26 400.097 1140.19 400.156 1140.19 400.229C1140.19 400.302 1140.26 400.362 1140.34 400.362Z" fill="#FF8AE2"/>
<path d="M1157.79 404.597C1157.88 404.597 1157.95 404.538 1157.95 404.465C1157.95 404.392 1157.88 404.333 1157.79 404.333C1157.71 404.333 1157.64 404.392 1157.64 404.465C1157.64 404.538 1157.71 404.597 1157.79 404.597Z" fill="#FF8AE2"/>
<path d="M1166.35 400.732C1166.44 400.732 1166.5 400.673 1166.5 400.6C1166.5 400.527 1166.44 400.468 1166.35 400.468C1166.27 400.468 1166.2 400.527 1166.2 400.6C1166.2 400.673 1166.27 400.732 1166.35 400.732Z" fill="#FF8AE2"/>
<path d="M1160.79 406.821C1160.87 406.821 1160.94 406.761 1160.94 406.688C1160.94 406.615 1160.87 406.556 1160.79 406.556C1160.7 406.556 1160.64 406.615 1160.64 406.688C1160.64 406.761 1160.7 406.821 1160.79 406.821Z" fill="#FF8AE2"/>
<path d="M1159.54 405.682C1159.62 405.682 1159.69 405.623 1159.69 405.55C1159.69 405.477 1159.62 405.417 1159.54 405.417C1159.45 405.417 1159.38 405.477 1159.38 405.55C1159.38 405.623 1159.45 405.682 1159.54 405.682Z" fill="#FF8AE2"/>
<path d="M1161.13 408.541C1161.21 408.541 1161.28 408.482 1161.28 408.409C1161.28 408.336 1161.21 408.277 1161.13 408.277C1161.04 408.277 1160.97 408.336 1160.97 408.409C1160.97 408.482 1161.04 408.541 1161.13 408.541Z" fill="#FF8AE2"/>
<path d="M1169.01 402.215C1169.09 402.215 1169.16 402.155 1169.16 402.082C1169.16 402.009 1169.09 401.95 1169.01 401.95C1168.93 401.95 1168.86 402.009 1168.86 402.082C1168.86 402.155 1168.93 402.215 1169.01 402.215Z" fill="#FF8AE2"/>
<path d="M1157.95 407.27C1158.03 407.27 1158.1 407.211 1158.1 407.138C1158.1 407.065 1158.03 407.006 1157.95 407.006C1157.86 407.006 1157.79 407.065 1157.79 407.138C1157.79 407.211 1157.86 407.27 1157.95 407.27Z" fill="#FF8AE2"/>
<path d="M1166.2 402.718C1166.28 402.718 1166.35 402.658 1166.35 402.585C1166.35 402.512 1166.28 402.453 1166.2 402.453C1166.11 402.453 1166.05 402.512 1166.05 402.585C1166.05 402.658 1166.11 402.718 1166.2 402.718Z" fill="#FF8AE2"/>
<path d="M1169.9 400.071C1169.98 400.071 1170.05 400.011 1170.05 399.938C1170.05 399.865 1169.98 399.806 1169.9 399.806C1169.81 399.806 1169.74 399.865 1169.74 399.938C1169.74 400.011 1169.81 400.071 1169.9 400.071Z" fill="#FF8AE2"/>
<path d="M1171.27 399.144C1171.36 399.144 1171.43 399.085 1171.43 399.012C1171.43 398.938 1171.36 398.879 1171.27 398.879C1171.19 398.879 1171.12 398.938 1171.12 399.012C1171.12 399.085 1171.19 399.144 1171.27 399.144Z" fill="#FF8AE2"/>
<path d="M1163.6 401.209C1163.69 401.209 1163.75 401.149 1163.75 401.076C1163.75 401.003 1163.69 400.944 1163.6 400.944C1163.52 400.944 1163.45 401.003 1163.45 401.076C1163.45 401.149 1163.52 401.209 1163.6 401.209Z" fill="#FF8AE2"/>
<path d="M1158.92 403.273C1159.01 403.273 1159.08 403.214 1159.08 403.141C1159.08 403.068 1159.01 403.009 1158.92 403.009C1158.84 403.009 1158.77 403.068 1158.77 403.141C1158.77 403.214 1158.84 403.273 1158.92 403.273Z" fill="#FF8AE2"/>
<path d="M1167.67 399.382C1167.75 399.382 1167.82 399.323 1167.82 399.25C1167.82 399.177 1167.75 399.117 1167.67 399.117C1167.58 399.117 1167.51 399.177 1167.51 399.25C1167.51 399.323 1167.58 399.382 1167.67 399.382Z" fill="#FF8AE2"/>
<path d="M1164.88 398.879C1164.97 398.879 1165.04 398.82 1165.04 398.747C1165.04 398.674 1164.97 398.615 1164.88 398.615C1164.8 398.615 1164.73 398.674 1164.73 398.747C1164.73 398.82 1164.8 398.879 1164.88 398.879Z" fill="#FF8AE2"/>
<path d="M1160.94 404.253C1161.03 404.253 1161.09 404.194 1161.09 404.12C1161.09 404.047 1161.03 403.988 1160.94 403.988C1160.86 403.988 1160.79 404.047 1160.79 404.12C1160.79 404.194 1160.86 404.253 1160.94 404.253Z" fill="#FF8AE2"/>
<path d="M1191.69 414.418C1191.77 414.418 1191.84 414.359 1191.84 414.286C1191.84 414.212 1191.77 414.153 1191.69 414.153C1191.6 414.153 1191.54 414.212 1191.54 414.286C1191.54 414.359 1191.6 414.418 1191.69 414.418Z" fill="#FF8AE2"/>
<path d="M1191.47 409.547C1191.56 409.547 1191.63 409.488 1191.63 409.415C1191.63 409.342 1191.56 409.283 1191.47 409.283C1191.39 409.283 1191.32 409.342 1191.32 409.415C1191.32 409.488 1191.39 409.547 1191.47 409.547Z" fill="#FF8AE2"/>
<path d="M1191.51 405.841C1191.59 405.841 1191.66 405.782 1191.66 405.709C1191.66 405.636 1191.59 405.576 1191.51 405.576C1191.42 405.576 1191.35 405.636 1191.35 405.709C1191.35 405.782 1191.42 405.841 1191.51 405.841Z" fill="#FF8AE2"/>
<path d="M1190.89 411.903C1190.98 411.903 1191.05 411.844 1191.05 411.771C1191.05 411.698 1190.98 411.638 1190.89 411.638C1190.81 411.638 1190.74 411.698 1190.74 411.771C1190.74 411.844 1190.81 411.903 1190.89 411.903Z" fill="#FF8AE2"/>
<path d="M1189.46 418.309C1189.54 418.309 1189.61 418.25 1189.61 418.177C1189.61 418.104 1189.54 418.044 1189.46 418.044C1189.37 418.044 1189.3 418.104 1189.3 418.177C1189.3 418.25 1189.37 418.309 1189.46 418.309Z" fill="#FF8AE2"/>
<path d="M1188.72 420.427C1188.81 420.427 1188.88 420.368 1188.88 420.295C1188.88 420.222 1188.81 420.162 1188.72 420.162C1188.64 420.162 1188.57 420.222 1188.57 420.295C1188.57 420.368 1188.64 420.427 1188.72 420.427Z" fill="#FF8AE2"/>
<path d="M1189.46 407.747C1189.54 407.747 1189.61 407.688 1189.61 407.615C1189.61 407.542 1189.54 407.482 1189.46 407.482C1189.37 407.482 1189.3 407.542 1189.3 407.615C1189.3 407.688 1189.37 407.747 1189.46 407.747Z" fill="#FF8AE2"/>
<path d="M1191.96 417.939C1192.05 417.939 1192.12 417.879 1192.12 417.806C1192.12 417.733 1192.05 417.674 1191.96 417.674C1191.88 417.674 1191.81 417.733 1191.81 417.806C1191.81 417.879 1191.88 417.939 1191.96 417.939Z" fill="#FF8AE2"/>
<path d="M1189.64 414.338C1189.73 414.338 1189.79 414.279 1189.79 414.206C1189.79 414.133 1189.73 414.074 1189.64 414.074C1189.56 414.074 1189.49 414.133 1189.49 414.206C1189.49 414.279 1189.56 414.338 1189.64 414.338Z" fill="#FF8AE2"/>
<path d="M1188.36 416.562C1188.44 416.562 1188.51 416.503 1188.51 416.43C1188.51 416.357 1188.44 416.297 1188.36 416.297C1188.27 416.297 1188.2 416.357 1188.2 416.43C1188.2 416.503 1188.27 416.562 1188.36 416.562Z" fill="#FF8AE2"/>
<path d="M1187.96 410.024C1188.04 410.024 1188.11 409.965 1188.11 409.891C1188.11 409.818 1188.04 409.759 1187.96 409.759C1187.88 409.759 1187.81 409.818 1187.81 409.891C1187.81 409.965 1187.88 410.024 1187.96 410.024Z" fill="#FF8AE2"/>
<path d="M1111.52 419.765C1111.6 419.765 1111.67 419.706 1111.67 419.633C1111.67 419.56 1111.6 419.5 1111.52 419.5C1111.44 419.5 1111.37 419.56 1111.37 419.633C1111.37 419.706 1111.44 419.765 1111.52 419.765Z" fill="#FF8AE2"/>
<path d="M1116.07 419.05C1116.16 419.05 1116.23 418.991 1116.23 418.918C1116.23 418.845 1116.16 418.786 1116.07 418.786C1115.99 418.786 1115.92 418.845 1115.92 418.918C1115.92 418.991 1115.99 419.05 1116.07 419.05Z" fill="#FF8AE2"/>
<path d="M1111.67 404.809C1111.76 404.809 1111.83 404.749 1111.83 404.676C1111.83 404.603 1111.76 404.544 1111.67 404.544C1111.59 404.544 1111.52 404.603 1111.52 404.676C1111.52 404.749 1111.59 404.809 1111.67 404.809Z" fill="#FF8AE2"/>
<path d="M1113.11 399.832C1113.19 399.832 1113.26 399.773 1113.26 399.7C1113.26 399.627 1113.19 399.568 1113.11 399.568C1113.02 399.568 1112.96 399.627 1112.96 399.7C1112.96 399.773 1113.02 399.832 1113.11 399.832Z" fill="#FF8AE2"/>
<path d="M1115.71 397.476C1115.79 397.476 1115.86 397.417 1115.86 397.344C1115.86 397.271 1115.79 397.212 1115.71 397.212C1115.62 397.212 1115.55 397.271 1115.55 397.344C1115.55 397.417 1115.62 397.476 1115.71 397.476Z" fill="#FF8AE2"/>
<path d="M1112.13 412.803C1112.22 412.803 1112.28 412.744 1112.28 412.671C1112.28 412.598 1112.22 412.539 1112.13 412.539C1112.05 412.539 1111.98 412.598 1111.98 412.671C1111.98 412.744 1112.05 412.803 1112.13 412.803Z" fill="#FF8AE2"/>
<path d="M1112.01 418.124C1112.09 418.124 1112.16 418.065 1112.16 417.992C1112.16 417.918 1112.09 417.859 1112.01 417.859C1111.92 417.859 1111.86 417.918 1111.86 417.992C1111.86 418.065 1111.92 418.124 1112.01 418.124Z" fill="#FF8AE2"/>
<path d="M1112.59 408.806C1112.67 408.806 1112.74 408.747 1112.74 408.674C1112.74 408.601 1112.67 408.542 1112.59 408.542C1112.51 408.542 1112.44 408.601 1112.44 408.674C1112.44 408.747 1112.51 408.806 1112.59 408.806Z" fill="#FF8AE2"/>
<path d="M1114.3 416.959C1114.39 416.959 1114.45 416.9 1114.45 416.827C1114.45 416.754 1114.39 416.695 1114.3 416.695C1114.22 416.695 1114.15 416.754 1114.15 416.827C1114.15 416.9 1114.22 416.959 1114.3 416.959Z" fill="#FF8AE2"/>
<path d="M1113.41 418.839C1113.5 418.839 1113.57 418.779 1113.57 418.706C1113.57 418.633 1113.5 418.574 1113.41 418.574C1113.33 418.574 1113.26 418.633 1113.26 418.706C1113.26 418.779 1113.33 418.839 1113.41 418.839Z" fill="#FF8AE2"/>
<path d="M1114.18 397.265C1114.26 397.265 1114.33 397.205 1114.33 397.132C1114.33 397.059 1114.26 397 1114.18 397C1114.09 397 1114.03 397.059 1114.03 397.132C1114.03 397.205 1114.09 397.265 1114.18 397.265Z" fill="#FF8AE2"/>
<path d="M1113.38 413.995C1113.47 413.995 1113.54 413.935 1113.54 413.862C1113.54 413.789 1113.47 413.73 1113.38 413.73C1113.3 413.73 1113.23 413.789 1113.23 413.862C1113.23 413.935 1113.3 413.995 1113.38 413.995Z" fill="#FF8AE2"/>
<path d="M1115.52 414.974C1115.61 414.974 1115.68 414.915 1115.68 414.842C1115.68 414.769 1115.61 414.709 1115.52 414.709C1115.44 414.709 1115.37 414.769 1115.37 414.842C1115.37 414.915 1115.44 414.974 1115.52 414.974Z" fill="#FF8AE2"/>
<path d="M1111.67 397.688C1111.76 397.688 1111.83 397.629 1111.83 397.556C1111.83 397.483 1111.76 397.423 1111.67 397.423C1111.59 397.423 1111.52 397.483 1111.52 397.556C1111.52 397.629 1111.59 397.688 1111.67 397.688Z" fill="#FF8AE2"/>
<path d="M1112.31 411.003C1112.4 411.003 1112.47 410.944 1112.47 410.871C1112.47 410.798 1112.4 410.738 1112.31 410.738C1112.23 410.738 1112.16 410.798 1112.16 410.871C1112.16 410.944 1112.23 411.003 1112.31 411.003Z" fill="#FF8AE2"/>
<path d="M1165.62 427.918C1165.72 427.918 1165.8 427.847 1165.8 427.76C1165.8 427.672 1165.72 427.601 1165.62 427.601C1165.52 427.601 1165.43 427.672 1165.43 427.76C1165.43 427.847 1165.52 427.918 1165.62 427.918Z" fill="#FF8AE2"/>
<path d="M1169.16 426.727C1169.26 426.727 1169.35 426.656 1169.35 426.568C1169.35 426.481 1169.26 426.41 1169.16 426.41C1169.06 426.41 1168.98 426.481 1168.98 426.568C1168.98 426.656 1169.06 426.727 1169.16 426.727Z" fill="#FF8AE2"/>
<path d="M1167.79 428.183C1167.89 428.183 1167.97 428.112 1167.97 428.024C1167.97 427.936 1167.89 427.865 1167.79 427.865C1167.69 427.865 1167.6 427.936 1167.6 428.024C1167.6 428.112 1167.69 428.183 1167.79 428.183Z" fill="#FF8AE2"/>
<path d="M1169.84 428.66C1169.94 428.66 1170.02 428.589 1170.02 428.501C1170.02 428.413 1169.94 428.342 1169.84 428.342C1169.73 428.342 1169.65 428.413 1169.65 428.501C1169.65 428.589 1169.73 428.66 1169.84 428.66Z" fill="#FF8AE2"/>
<path d="M1167.21 429.215C1167.31 429.215 1167.39 429.144 1167.39 429.056C1167.39 428.969 1167.31 428.898 1167.21 428.898C1167.11 428.898 1167.02 428.969 1167.02 429.056C1167.02 429.144 1167.11 429.215 1167.21 429.215Z" fill="#FF8AE2"/>
<path d="M1167.02 432.921C1167.13 432.921 1167.21 432.85 1167.21 432.763C1167.21 432.675 1167.13 432.604 1167.02 432.604C1166.92 432.604 1166.84 432.675 1166.84 432.763C1166.84 432.85 1166.92 432.921 1167.02 432.921Z" fill="#FF8AE2"/>
<path d="M1166.75 430.936C1166.85 430.936 1166.93 430.865 1166.93 430.777C1166.93 430.69 1166.85 430.618 1166.75 430.618C1166.65 430.618 1166.57 430.69 1166.57 430.777C1166.57 430.865 1166.65 430.936 1166.75 430.936Z" fill="#FF8AE2"/>
<path d="M1144.22 427.918C1144.32 427.918 1144.41 427.847 1144.41 427.76C1144.41 427.672 1144.32 427.601 1144.22 427.601C1144.12 427.601 1144.04 427.672 1144.04 427.76C1144.04 427.847 1144.12 427.918 1144.22 427.918Z" fill="#FF8AE2"/>
<path d="M1145.35 428.66C1145.46 428.66 1145.54 428.589 1145.54 428.501C1145.54 428.413 1145.46 428.342 1145.35 428.342C1145.25 428.342 1145.17 428.413 1145.17 428.501C1145.17 428.589 1145.25 428.66 1145.35 428.66Z" fill="#FF8AE2"/>
<path d="M1148.62 426.886C1148.73 426.886 1148.81 426.815 1148.81 426.727C1148.81 426.639 1148.73 426.568 1148.62 426.568C1148.52 426.568 1148.44 426.639 1148.44 426.727C1148.44 426.815 1148.52 426.886 1148.62 426.886Z" fill="#FF8AE2"/>
<path d="M1147.59 428.342C1147.69 428.342 1147.77 428.271 1147.77 428.183C1147.77 428.095 1147.69 428.024 1147.59 428.024C1147.48 428.024 1147.4 428.095 1147.4 428.183C1147.4 428.271 1147.48 428.342 1147.59 428.342Z" fill="#FF8AE2"/>
<path d="M1145.63 430.221C1145.73 430.221 1145.81 430.15 1145.81 430.063C1145.81 429.975 1145.73 429.904 1145.63 429.904C1145.53 429.904 1145.45 429.975 1145.45 430.063C1145.45 430.15 1145.53 430.221 1145.63 430.221Z" fill="#FF8AE2"/>
<path d="M1145.81 427.574C1145.91 427.574 1146 427.503 1146 427.415C1146 427.328 1145.91 427.256 1145.81 427.256C1145.71 427.256 1145.63 427.328 1145.63 427.415C1145.63 427.503 1145.71 427.574 1145.81 427.574Z" fill="#FF8AE2"/>
<path d="M1145.54 432.419C1145.64 432.419 1145.72 432.347 1145.72 432.26C1145.72 432.172 1145.64 432.101 1145.54 432.101C1145.44 432.101 1145.35 432.172 1145.35 432.26C1145.35 432.347 1145.44 432.419 1145.54 432.419Z" fill="#FF8AE2"/>
<path d="M1238.12 355.916C1238.12 355.546 1237.29 355.387 1237.14 355.149C1237.05 355.016 1237.32 354.91 1237.53 354.937C1237.69 354.937 1239 355.149 1239.92 355.149C1243.04 355.228 1243.86 354.566 1243.83 354.196C1243.8 353.825 1242.61 353.64 1242.42 353.401C1242.27 353.163 1242.49 352.925 1243.56 352.766C1244.66 352.607 1246.55 352.528 1247.8 352.025C1249.06 351.522 1248.78 350.94 1247.19 350.516C1246.61 350.304 1246.98 349.987 1248.08 349.245C1249.18 348.504 1251.9 346.175 1251.04 344.957C1250.31 344.057 1248.97 344.586 1248.02 345.434C1247.28 346.069 1245.85 347.366 1245.33 347.392C1244.38 347.472 1245.24 346.228 1244.75 345.778C1244.26 345.328 1243.22 346.122 1242.79 346.784C1242.36 347.445 1242.03 348.504 1241.57 349.272C1241.08 350.119 1240.59 349.801 1240.44 349.51C1240.32 349.219 1240.53 348.028 1239.58 347.895C1238.76 347.789 1237.78 349.616 1236.95 350.648C1236.65 351.045 1236.25 351.416 1235.82 351.734C1235.58 351.893 1235.46 351.84 1235.4 351.734C1235.27 351.575 1235.4 350.569 1234.57 350.357C1233.84 350.198 1233.13 351.257 1232.19 352.237C1231.42 353.031 1230.35 353.454 1229.19 353.772C1227.6 354.196 1225.19 354.301 1225.19 354.301C1225.19 354.301 1226.38 354.751 1227.39 355.016C1229.83 355.651 1230.99 355.996 1233.74 356.234C1235.82 356.419 1237.99 356.604 1238.12 355.916C1238.12 355.943 1238.12 355.916 1238.12 355.916Z" fill="#93C2DB"/>
<path d="M1111.25 376.432C1112.56 374.023 1112.13 371.005 1110.66 368.623C1109.23 366.293 1107.36 364.625 1104.37 363.408C1103.63 363.116 1101.65 362.614 1101.65 362.614C1101.65 362.614 1101.68 364.069 1101.74 364.493C1102.01 366.267 1102.32 368.12 1103.57 369.337C1104.74 370.476 1106.23 371.031 1107.79 371.773C1112.1 373.864 1111.25 376.432 1111.25 376.432Z" fill="#93C2DB"/>
<path d="M1088.9 393.241C1088.9 393.241 1096.91 392.897 1099.91 398.006C1103.12 403.459 1106.26 405.312 1106.26 405.312C1106.26 405.312 1099.75 406.079 1096.67 402.85C1093.55 399.621 1094.92 396.364 1088.9 393.241Z" fill="#93C2DB"/>
<path d="M1236.95 380.296C1236.95 380.296 1235.4 376.723 1237.38 374.367C1238.94 372.487 1242.64 372.037 1245.94 372.355C1248.17 372.567 1251.01 371.323 1251.01 371.323C1251.01 371.323 1251.01 374.182 1247.41 375.082C1245.39 375.584 1243.62 374.817 1240.84 376.431C1237.2 378.523 1236.95 380.296 1236.95 380.296Z" fill="#93C2DB"/>
<path d="M1154.89 382.07C1153.58 379.661 1154.03 376.67 1155.47 374.261C1158.1 369.893 1164.49 369.046 1164.49 369.046C1164.49 369.046 1163.94 372.62 1161.95 374.658C1160.82 375.823 1158.83 376.246 1157.46 377.199C1154.19 379.449 1154.89 382.07 1154.89 382.07Z" fill="#93C2DB"/>
<path d="M1220.72 387.258C1220.48 387.1 1210.33 383.949 1219.47 377.491L1225.74 373.123C1225.74 373.123 1225.95 377.967 1222.01 381.144C1218.1 384.241 1220.72 387.258 1220.72 387.258Z" fill="#93C2DB"/>
<path d="M1119.68 387.258C1119.44 387.1 1109.29 383.949 1118.43 377.491L1124.69 373.123C1124.69 373.123 1124.91 377.967 1120.96 381.144C1117.08 384.241 1119.68 387.258 1119.68 387.258Z" fill="#93C2DB"/>
<path d="M1209.72 406.079C1209.72 406.079 1213.27 401.341 1219.32 400.944C1224.39 400.6 1230.72 403.141 1230.72 403.141C1230.72 403.141 1225.77 406.715 1219.5 406.132C1214.98 405.709 1213.66 404.412 1209.72 406.079Z" fill="#93C2DB"/>
<path d="M1086.03 360.311C1085.24 360.311 1085.17 362.216 1085.08 364.016C1084.99 366.399 1085.24 367.431 1085.63 369.629C1085.79 370.528 1086.15 371.614 1086.15 371.614C1086.15 371.614 1086.58 369.549 1087.28 368.225C1087.8 367.273 1088.41 366.399 1089.42 365.843C1090.65 365.181 1091.96 364.705 1091.9 364.069C1091.75 363.328 1090.58 363.302 1090.43 363.169C1090.34 363.09 1090.28 362.984 1090.49 362.799C1090.92 362.481 1091.41 362.19 1091.9 361.978C1093.18 361.396 1095.41 360.813 1095.38 360.099C1095.35 359.252 1093.98 359.305 1093.67 359.146C1093.33 358.987 1093.06 358.537 1094.1 358.219C1095.05 357.928 1096.3 357.796 1097.12 357.505C1097.95 357.24 1098.99 356.472 1098.56 355.969C1098.1 355.466 1096.57 356.049 1096.79 355.228C1096.91 354.778 1098.56 353.719 1099.42 353.19C1100.52 352.501 1101.31 351.39 1100.36 350.648C1099.08 349.748 1096.06 351.76 1095.05 352.607C1094.04 353.454 1093.64 353.719 1093.46 353.216C1093.18 351.813 1092.54 351.496 1091.81 352.501C1091.07 353.507 1090.71 355.122 1090.4 356.049C1090.09 356.975 1089.76 357.107 1089.51 356.949C1089.27 356.79 1089.21 355.704 1088.78 355.652C1088.38 355.572 1087.53 356.181 1087.16 358.881C1087.07 359.649 1087.1 360.813 1087.1 360.946C1087.07 361.158 1086.95 361.369 1086.79 361.263C1086.52 361.105 1086.46 360.337 1086.03 360.311Z" fill="#93C2DB"/>
<path d="M1195.51 379.82C1195.91 379.74 1195.91 378.999 1196.15 378.84C1196.3 378.735 1196.43 378.946 1196.49 379.132C1196.52 379.264 1196.58 380.429 1196.73 381.196C1197.31 383.87 1198.2 384.399 1198.6 384.293C1198.99 384.188 1198.96 383.129 1199.21 382.944C1199.45 382.758 1199.76 382.891 1200.16 383.764C1200.55 384.664 1201.04 386.252 1201.87 387.205C1202.69 388.158 1203.27 387.788 1203.43 386.358C1203.55 385.829 1203.98 386.067 1205.05 386.835C1206.12 387.603 1209.26 389.402 1210.46 388.45C1211.31 387.655 1210.42 386.596 1209.29 385.988C1208.44 385.485 1206.7 384.558 1206.54 384.108C1206.27 383.314 1207.83 383.791 1208.22 383.261C1208.62 382.732 1207.52 382.043 1206.7 381.832C1205.87 381.62 1204.62 381.54 1203.67 381.329C1202.63 381.09 1202.88 380.614 1203.18 380.429C1203.46 380.243 1204.83 380.217 1204.8 379.37C1204.77 378.655 1202.51 378.205 1201.19 377.729C1200.71 377.543 1200.22 377.279 1199.76 376.987C1199.54 376.829 1199.57 376.696 1199.67 376.617C1199.82 376.484 1200.95 376.352 1201.04 375.611C1201.04 374.976 1199.73 374.578 1198.47 373.996C1197.4 373.52 1196.73 372.699 1196.15 371.773C1195.36 370.528 1194.78 368.57 1194.78 368.57C1194.78 368.57 1194.5 369.575 1194.41 370.502C1194.23 372.725 1194.07 373.784 1194.38 376.14C1194.5 377.967 1194.71 379.873 1195.51 379.82Z" fill="#93C2DB"/>
<path d="M1185.48 362.137C1185.45 362.19 1182.28 366.372 1181.57 372.884C1181.51 372.408 1181.51 371.746 1181.48 371.243C1182.46 365.525 1185.12 361.978 1185.15 361.952L1185.48 362.137Z" fill="#FF8AE2"/>
<path d="M1101.1 403.273C1099.36 402.559 1098.65 401.315 1097.86 399.859C1097.28 398.8 1096.6 397.582 1095.38 396.417C1092.08 393.32 1084.59 392.632 1084.53 392.632L1084.59 392.235C1084.9 392.261 1092.33 392.95 1095.75 396.153C1097.03 397.344 1097.71 398.588 1098.32 399.673C1099.08 401.05 1099.72 402.241 1101.31 402.876L1101.1 403.273Z" fill="#FF8AE2"/>
<path d="M1086.12 374.658C1085.94 373.414 1085.24 367.034 1087.77 362.322C1090.77 356.816 1096.51 353.216 1096.57 353.19L1096.85 353.507C1096.79 353.534 1091.13 357.081 1088.2 362.508C1085.69 367.114 1086.43 373.414 1086.58 374.631L1086.12 374.658Z" fill="#FF8AE2"/>
<path d="M1230.14 354.857C1226.2 354.857 1222.65 354.116 1221.7 353.904L1221.82 353.507C1223.2 353.825 1230.29 355.281 1235.91 353.772C1242.52 351.998 1247.31 347.631 1247.38 347.578L1247.71 347.842C1247.65 347.895 1242.76 352.316 1236.07 354.143C1234.14 354.672 1232.06 354.857 1230.14 354.857Z" fill="#FF8AE2"/>
<path d="M1206.51 386.199C1206.45 386.173 1200.49 382.97 1197.07 377.676C1195.72 375.611 1195.08 373.123 1194.71 370.925C1194.62 370.396 1194.53 369.311 1194.53 369.311L1194.81 368.067C1194.96 370.634 1195.57 374.552 1197.47 377.49C1200.83 382.679 1206.7 385.855 1206.76 385.882L1206.51 386.199Z" fill="#FF8AE2"/>
<path d="M1111.98 372.725C1111.95 372.408 1111.92 372.064 1111.86 371.746C1109.29 368.252 1104.28 365.234 1104.03 365.102L1103.79 365.419C1103.82 365.446 1109.72 368.967 1111.98 372.725Z" fill="#FF8AE2"/>
<path d="M1121.91 376.617C1121.88 376.643 1120.05 378.179 1118.31 379.608C1116.17 381.355 1115.4 383.129 1115.98 385.194C1116.2 385.379 1116.41 385.564 1116.65 385.723C1115.77 383.526 1116.38 381.726 1118.64 379.899C1120.38 378.47 1122.25 376.908 1122.25 376.908L1121.91 376.617Z" fill="#FF8AE2"/>
<path d="M1222.65 377.226C1222.62 377.252 1220.79 378.787 1219.04 380.217C1217.3 381.646 1216.48 383.076 1216.54 384.664C1216.69 384.849 1216.87 385.008 1217.06 385.167C1216.78 383.473 1217.52 381.99 1219.38 380.482C1221.12 379.052 1222.99 377.49 1222.99 377.49L1222.65 377.226Z" fill="#FF8AE2"/>
<path d="M1154.28 377.358C1154.22 377.702 1154.16 378.046 1154.16 378.39C1156.36 374.473 1161.68 371.826 1161.74 371.799L1161.52 371.455C1161.49 371.455 1159.6 372.408 1157.61 373.97C1156.48 374.843 1155.23 375.982 1154.28 377.358Z" fill="#FF8AE2"/>
<path d="M1240.19 374.34C1242.3 373.44 1245.63 373.758 1245.66 373.758L1245.73 373.361C1245.57 373.334 1242.21 373.017 1239.98 373.97C1238.51 374.579 1237.32 375.558 1236.37 376.882C1236.34 377.146 1236.34 377.437 1236.37 377.702C1237.32 376.167 1238.6 375.028 1240.19 374.34Z" fill="#FF8AE2"/>
<path d="M1207.46 408.091L1207.09 407.853C1207.15 407.8 1208.32 406.476 1210.3 405.418C1211.4 404.835 1212.63 404.359 1214.18 403.882C1218.43 402.638 1224.7 403.062 1224.97 403.088L1224.94 403.485C1224.88 403.485 1218.49 403.035 1214.34 404.279C1212.78 404.729 1211.62 405.206 1210.55 405.762C1208.65 406.768 1207.49 408.091 1207.46 408.091Z" fill="#FF8AE2"/>
</g>
<defs>
<filter id="filter0_d" x="616" y="-140" width="1149" height="1058" filterUnits="userSpaceOnUse" color-interpolation-filters="sRGB">
<feFlood flood-opacity="0" result="BackgroundImageFix"/>
<feColorMatrix in="SourceAlpha" type="matrix" values="0 0 0 0 0 0 0 0 0 0 0 0 0 0 0 0 0 0 127 0"/>
<feOffset dx="-10" dy="-10"/>
<feGaussianBlur stdDeviation="25"/>
<feColorMatrix type="matrix" values="0 0 0 0 0.0313725 0 0 0 0 0.741176 0 0 0 0 0.729412 0 0 0 0.2 0"/>
<feBlend mode="normal" in2="BackgroundImageFix" result="effect1_dropShadow"/>
<feBlend mode="normal" in="SourceGraphic" in2="effect1_dropShadow" result="shape"/>
</filter>
<clipPath id="clip0">
<rect width="1280" height="720" fill="white"/>
</clipPath>
</defs>
</svg>
