<svg width="1280" height="720" viewBox="0 0 1280 720" fill="none" xmlns="http://www.w3.org/2000/svg">
<g clip-path="url(#clip0)">
<rect width="1280" height="720" fill="white"/>
<g filter="url(#filter0_d)">
<path d="M1459.22 -35.9004C1552.91 10.627 1621.32 114.188 1659.25 228.255C1697.17 342.323 1703.86 467.646 1649.58 552.446C1594.55 637.997 1479.29 683.023 1382.62 720.546C1285.21 757.317 1207.13 786.585 1100.8 824.857C994.462 863.13 861.356 910.408 771.379 871.385C681.403 831.611 634.556 705.537 640.504 592.22C645.71 479.654 702.967 380.595 739.404 276.284C775.841 171.972 790.713 62.4075 851.689 5.37389C913.408 -52.4102 1020.49 -58.4137 1133.52 -65.9181C1246.54 -73.4226 1365.52 -82.4279 1459.22 -35.9004Z" fill="#F1F6FA"/>
</g>
<path opacity="0.2" d="M772.857 121H752V141.042H772.857V121Z" fill="#08BDBA"/>
<path opacity="0.2" d="M799.283 121H779.303V141.042H799.283V121Z" fill="#08BDBA"/>
<path opacity="0.2" d="M826.594 121H806.614V141.042H826.594V121Z" fill="#08BDBA"/>
<path opacity="0.2" d="M853.896 121H833.917V141.042H853.896V121Z" fill="#08BDBA"/>
<path opacity="0.2" d="M881.207 121H861.227V141.042H881.207V121Z" fill="#08BDBA"/>
<path d="M908.518 121H888.538V141.042H908.518V121Z" fill="#08BDBA"/>
<path opacity="0.2" d="M935.821 121H915.841V141.042H935.821V121Z" fill="#08BDBA"/>
<path opacity="0.2" d="M963.132 121H943.152V141.042H963.132V121Z" fill="#08BDBA"/>
<path opacity="0.2" d="M990.435 121H970.455V141.042H990.435V121Z" fill="#08BDBA"/>
<path d="M1017.75 121H997.766V141.042H1017.75V121Z" fill="#08BDBA"/>
<path opacity="0.2" d="M1045.06 121H1025.08V141.042H1045.06V121Z" fill="#08BDBA"/>
<path opacity="0.2" d="M1072.36 121H1052.38V141.042H1072.36V121Z" fill="#08BDBA"/>
<path opacity="0.2" d="M1099.67 121H1079.69V141.042H1099.67V121Z" fill="#08BDBA"/>
<path opacity="0.2" d="M1126.98 121H1107V141.042H1126.98V121Z" fill="#08BDBA"/>
<path opacity="0.2" d="M1154.28 121H1134.3V141.042H1154.28V121Z" fill="#08BDBA"/>
<path opacity="0.2" d="M1181.59 121H1161.61V141.042H1181.59V121Z" fill="#08BDBA"/>
<path d="M1208.9 121H1188.92V141.042H1208.9V121Z" fill="#08BDBA"/>
<path d="M1236.21 121H1216.23V141.042H1236.21V121Z" fill="#08BDBA"/>
<path opacity="0.2" d="M1263.52 121H1243.54V141.042H1263.52V121Z" fill="#08BDBA"/>
<path opacity="0.2" d="M1290.82 121H1270.84V141.042H1290.82V121Z" fill="#08BDBA"/>
<path d="M771.98 146.385H752V166.427H771.98V146.385Z" fill="#08BDBA"/>
<path opacity="0.2" d="M799.283 146.385H779.303V166.427H799.283V146.385Z" fill="#08BDBA"/>
<path opacity="0.7" d="M826.594 146.385H806.614V166.427H826.594V146.385Z" fill="#08BDBA"/>
<path opacity="0.2" d="M853.896 146.385H833.917V166.427H853.896V146.385Z" fill="#08BDBA"/>
<path opacity="0.4" d="M881.207 146.385H861.227V166.427H881.207V146.385Z" fill="#08BDBA"/>
<path d="M908.518 146.385H888.538V166.427H908.518V146.385Z" fill="#08BDBA"/>
<path opacity="0.4" d="M935.821 146.385H915.841V166.427H935.821V146.385Z" fill="#08BDBA"/>
<path opacity="0.2" d="M963.132 146.385H943.152V166.427H963.132V146.385Z" fill="#08BDBA"/>
<path opacity="0.4" d="M990.435 146.385H970.455V166.427H990.435V146.385Z" fill="#08BDBA"/>
<path d="M1017.75 146.385H997.766V166.427H1017.75V146.385Z" fill="#08BDBA"/>
<path opacity="0.4" d="M1045.06 146.385H1025.08V166.427H1045.06V146.385Z" fill="#08BDBA"/>
<path opacity="0.4" d="M1072.36 146.385H1052.38V166.427H1072.36V146.385Z" fill="#08BDBA"/>
<path opacity="0.2" d="M1099.67 146.385H1079.69V166.427H1099.67V146.385Z" fill="#08BDBA"/>
<path opacity="0.4" d="M1126.98 146.385H1107V166.427H1126.98V146.385Z" fill="#08BDBA"/>
<path opacity="0.4" d="M1154.28 146.385H1134.3V166.427H1154.28V146.385Z" fill="#08BDBA"/>
<path opacity="0.2" d="M1181.59 146.385H1161.61V166.427H1181.59V146.385Z" fill="#08BDBA"/>
<path opacity="0.2" d="M1208.9 146.385H1188.92V166.427H1208.9V146.385Z" fill="#08BDBA"/>
<path opacity="0.4" d="M1236.21 146.385H1216.23V166.427H1236.21V146.385Z" fill="#08BDBA"/>
<path opacity="0.2" d="M1263.52 146.385H1243.54V166.427H1263.52V146.385Z" fill="#08BDBA"/>
<path d="M1290.82 146.385H1270.84V166.427H1290.82V146.385Z" fill="#08BDBA"/>
<path d="M771.98 171.777H752V191.819H771.98V171.777Z" fill="#08BDBA"/>
<path opacity="0.7" d="M799.283 171.777H779.303V191.819H799.283V171.777Z" fill="#08BDBA"/>
<path opacity="0.7" d="M826.594 171.777H806.614V191.819H826.594V171.777Z" fill="#08BDBA"/>
<path opacity="0.2" d="M853.896 171.777H833.917V191.819H853.896V171.777Z" fill="#08BDBA"/>
<path opacity="0.4" d="M881.207 171.777H861.227V191.819H881.207V171.777Z" fill="#08BDBA"/>
<path opacity="0.4" d="M908.518 171.777H888.538V191.819H908.518V171.777Z" fill="#08BDBA"/>
<path d="M935.821 171.777H915.841V191.819H935.821V171.777Z" fill="#08BDBA"/>
<path opacity="0.2" d="M963.132 171.777H943.152V191.819H963.132V171.777Z" fill="#08BDBA"/>
<path opacity="0.4" d="M990.435 171.777H970.455V191.819H990.435V171.777Z" fill="#08BDBA"/>
<path d="M1017.75 171.777H997.766V191.819H1017.75V171.777Z" fill="#08BDBA"/>
<path opacity="0.2" d="M1045.06 171.777H1025.08V191.819H1045.06V171.777Z" fill="#08BDBA"/>
<path opacity="0.4" d="M1072.36 171.777H1052.38V191.819H1072.36V171.777Z" fill="#08BDBA"/>
<path opacity="0.2" d="M1099.67 171.777H1079.69V191.819H1099.67V171.777Z" fill="#08BDBA"/>
<path d="M1126.98 171.777H1107V191.819H1126.98V171.777Z" fill="#08BDBA"/>
<path opacity="0.2" d="M1154.28 171.777H1134.3V191.819H1154.28V171.777Z" fill="#08BDBA"/>
<path opacity="0.7" d="M1181.59 171.777H1161.61V191.819H1181.59V171.777Z" fill="#08BDBA"/>
<path opacity="0.7" d="M1208.9 171.777H1188.92V191.819H1208.9V171.777Z" fill="#08BDBA"/>
<path opacity="0.4" d="M1236.21 171.777H1216.23V191.819H1236.21V171.777Z" fill="#08BDBA"/>
<path opacity="0.2" d="M1263.52 171.777H1243.54V191.819H1263.52V171.777Z" fill="#08BDBA"/>
<path d="M1290.82 171.777H1270.84V191.819H1290.82V171.777Z" fill="#08BDBA"/>
<path d="M771.98 197.161H752V217.203H771.98V197.161Z" fill="#08BDBA"/>
<path opacity="0.7" d="M799.283 197.161H779.303V217.203H799.283V197.161Z" fill="#08BDBA"/>
<path opacity="0.7" d="M826.594 197.161H806.614V217.203H826.594V197.161Z" fill="#08BDBA"/>
<path opacity="0.2" d="M853.896 197.161H833.917V217.203H853.896V197.161Z" fill="#08BDBA"/>
<path opacity="0.2" d="M881.207 197.161H861.227V217.203H881.207V197.161Z" fill="#08BDBA"/>
<path opacity="0.4" d="M908.518 197.161H888.538V217.203H908.518V197.161Z" fill="#08BDBA"/>
<path opacity="0.4" d="M935.821 197.161H915.841V217.203H935.821V197.161Z" fill="#08BDBA"/>
<path d="M963.132 197.161H943.152V217.203H963.132V197.161Z" fill="#08BDBA"/>
<path opacity="0.2" d="M990.435 197.161H970.455V217.203H990.435V197.161Z" fill="#08BDBA"/>
<path opacity="0.4" d="M1017.75 197.161H997.766V217.203H1017.75V197.161Z" fill="#08BDBA"/>
<path opacity="0.4" d="M1045.06 197.161H1025.08V217.203H1045.06V197.161Z" fill="#08BDBA"/>
<path opacity="0.4" d="M1072.36 197.161H1052.38V217.203H1072.36V197.161Z" fill="#08BDBA"/>
<path opacity="0.4" d="M1099.67 197.161H1079.69V217.203H1099.67V197.161Z" fill="#08BDBA"/>
<path opacity="0.2" d="M1126.98 197.161H1107V217.203H1126.98V197.161Z" fill="#08BDBA"/>
<path opacity="0.2" d="M1154.28 197.161H1134.3V217.203H1154.28V197.161Z" fill="#08BDBA"/>
<path opacity="0.2" d="M1181.59 197.161H1161.61V217.203H1181.59V197.161Z" fill="#08BDBA"/>
<path opacity="0.2" d="M1208.9 197.161H1188.92V217.203H1208.9V197.161Z" fill="#08BDBA"/>
<path opacity="0.7" d="M1236.21 197.161H1216.23V217.203H1236.21V197.161Z" fill="#08BDBA"/>
<path opacity="0.7" d="M1263.52 197.161H1243.54V217.203H1263.52V197.161Z" fill="#08BDBA"/>
<path opacity="0.4" d="M1290.82 197.161H1270.84V217.203H1290.82V197.161Z" fill="#08BDBA"/>
<path opacity="0.2" d="M771.98 222.553H752V242.596H771.98V222.553Z" fill="#08BDBA"/>
<path opacity="0.7" d="M799.283 222.553H779.303V242.596H799.283V222.553Z" fill="#08BDBA"/>
<path opacity="0.7" d="M826.594 222.553H806.614V242.596H826.594V222.553Z" fill="#08BDBA"/>
<path opacity="0.2" d="M853.896 222.553H833.917V242.596H853.896V222.553Z" fill="#08BDBA"/>
<path opacity="0.2" d="M881.207 222.553H861.227V242.596H881.207V222.553Z" fill="#08BDBA"/>
<path opacity="0.4" d="M908.518 222.553H888.538V242.596H908.518V222.553Z" fill="#08BDBA"/>
<path d="M935.821 222.553H915.841V242.596H935.821V222.553Z" fill="#08BDBA"/>
<path opacity="0.2" d="M963.132 222.553H943.152V242.596H963.132V222.553Z" fill="#08BDBA"/>
<path d="M990.435 222.553H970.455V242.596H990.435V222.553Z" fill="#08BDBA"/>
<path d="M1017.75 222.553H997.766V242.596H1017.75V222.553Z" fill="#08BDBA"/>
<path d="M1045.06 222.553H1025.08V242.596H1045.06V222.553Z" fill="#08BDBA"/>
<path opacity="0.2" d="M1072.36 222.553H1052.38V242.596H1072.36V222.553Z" fill="#08BDBA"/>
<path d="M1099.67 222.553H1079.69V242.596H1099.67V222.553Z" fill="#08BDBA"/>
<path opacity="0.2" d="M1126.98 222.553H1107V242.596H1126.98V222.553Z" fill="#08BDBA"/>
<path opacity="0.2" d="M1154.28 222.553H1134.3V242.596H1154.28V222.553Z" fill="#08BDBA"/>
<path opacity="0.2" d="M1181.59 222.553H1161.61V242.596H1181.59V222.553Z" fill="#08BDBA"/>
<path opacity="0.2" d="M1208.9 222.553H1188.92V242.596H1208.9V222.553Z" fill="#08BDBA"/>
<path opacity="0.2" d="M1236.21 222.553H1216.23V242.596H1236.21V222.553Z" fill="#08BDBA"/>
<path opacity="0.7" d="M1263.52 222.553H1243.54V242.596H1263.52V222.553Z" fill="#08BDBA"/>
<path opacity="0.2" d="M1290.82 222.553H1270.84V242.596H1290.82V222.553Z" fill="#08BDBA"/>
<path opacity="0.2" d="M771.98 247.938H752V267.98H771.98V247.938Z" fill="#08BDBA"/>
<path opacity="0.2" d="M799.283 247.938H779.303V267.98H799.283V247.938Z" fill="#08BDBA"/>
<path opacity="0.7" d="M826.594 247.938H806.614V267.98H826.594V247.938Z" fill="#08BDBA"/>
<path opacity="0.2" d="M853.896 247.938H833.917V267.98H853.896V247.938Z" fill="#08BDBA"/>
<path opacity="0.2" d="M881.207 247.938H861.227V267.98H881.207V247.938Z" fill="#08BDBA"/>
<path opacity="0.2" d="M908.518 247.938H888.538V267.98H908.518V247.938Z" fill="#08BDBA"/>
<path d="M935.821 247.938H915.841V267.98H935.821V247.938Z" fill="#08BDBA"/>
<path opacity="0.2" d="M963.132 247.938H943.152V267.98H963.132V247.938Z" fill="#08BDBA"/>
<path d="M990.435 247.938H970.455V267.98H990.435V247.938Z" fill="#08BDBA"/>
<path d="M1017.75 247.938H997.766V267.98H1017.75V247.938Z" fill="#08BDBA"/>
<path opacity="0.2" d="M1045.06 247.938H1025.08V267.98H1045.06V247.938Z" fill="#08BDBA"/>
<path opacity="0.2" d="M1072.36 247.938H1052.38V267.98H1072.36V247.938Z" fill="#08BDBA"/>
<path opacity="0.2" d="M1099.67 247.938H1079.69V267.98H1099.67V247.938Z" fill="#08BDBA"/>
<path opacity="0.2" d="M1126.98 247.938H1107V267.98H1126.98V247.938Z" fill="#08BDBA"/>
<path opacity="0.2" d="M1154.28 247.938H1134.3V267.98H1154.28V247.938Z" fill="#08BDBA"/>
<path opacity="0.2" d="M1181.59 247.938H1161.61V267.98H1181.59V247.938Z" fill="#08BDBA"/>
<path opacity="0.2" d="M1208.9 247.938H1188.92V267.98H1208.9V247.938Z" fill="#08BDBA"/>
<path opacity="0.2" d="M1236.21 247.938H1216.23V267.98H1236.21V247.938Z" fill="#08BDBA"/>
<path opacity="0.2" d="M1263.52 247.938H1243.54V267.98H1263.52V247.938Z" fill="#08BDBA"/>
<path opacity="0.2" d="M1290.82 247.938H1270.84V267.98H1290.82V247.938Z" fill="#08BDBA"/>
<path opacity="0.7" d="M771.98 273.33H752V293.372H771.98V273.33Z" fill="#08BDBA"/>
<path opacity="0.2" d="M799.283 273.33H779.303V293.372H799.283V273.33Z" fill="#08BDBA"/>
<path opacity="0.2" d="M826.594 273.33H806.614V293.372H826.594V273.33Z" fill="#08BDBA"/>
<path opacity="0.2" d="M853.896 273.33H833.917V293.372H853.896V273.33Z" fill="#08BDBA"/>
<path opacity="0.2" d="M881.207 273.33H861.227V293.372H881.207V273.33Z" fill="#08BDBA"/>
<path opacity="0.2" d="M908.518 273.33H888.538V293.372H908.518V273.33Z" fill="#08BDBA"/>
<path opacity="0.2" d="M935.821 273.33H915.841V293.372H935.821V273.33Z" fill="#08BDBA"/>
<path d="M963.132 273.33H943.152V293.372H963.132V273.33Z" fill="#08BDBA"/>
<path opacity="0.2" d="M990.435 273.33H970.455V293.372H990.435V273.33Z" fill="#08BDBA"/>
<path opacity="0.2" d="M1017.75 273.33H997.766V293.372H1017.75V273.33Z" fill="#08BDBA"/>
<path opacity="0.2" d="M1045.06 273.33H1025.08V293.372H1045.06V273.33Z" fill="#08BDBA"/>
<path d="M1072.36 273.33H1052.38V293.372H1072.36V273.33Z" fill="#08BDBA"/>
<path opacity="0.2" d="M1099.67 273.33H1079.69V293.372H1099.67V273.33Z" fill="#08BDBA"/>
<path opacity="0.2" d="M1126.98 273.33H1107V293.372H1126.98V273.33Z" fill="#08BDBA"/>
<path opacity="0.2" d="M1154.28 273.33H1134.3V293.372H1154.28V273.33Z" fill="#08BDBA"/>
<path opacity="0.2" d="M1181.59 273.33H1161.61V293.372H1181.59V273.33Z" fill="#08BDBA"/>
<path opacity="0.2" d="M1208.9 273.33H1188.92V293.372H1208.9V273.33Z" fill="#08BDBA"/>
<path opacity="0.2" d="M1236.21 273.33H1216.23V293.372H1236.21V273.33Z" fill="#08BDBA"/>
<path opacity="0.2" d="M1263.52 273.33H1243.54V293.372H1263.52V273.33Z" fill="#08BDBA"/>
<path opacity="0.2" d="M1290.82 273.33H1270.84V293.372H1290.82V273.33Z" fill="#08BDBA"/>
<path d="M1122 553H741C740.735 553 740.48 552.895 740.293 552.707C740.105 552.52 740 552.265 740 552C740 551.735 740.105 551.48 740.293 551.293C740.48 551.105 740.735 551 741 551H1122C1122.27 551 1122.52 551.105 1122.71 551.293C1122.89 551.48 1123 551.735 1123 552C1123 552.265 1122.89 552.52 1122.71 552.707C1122.52 552.895 1122.27 553 1122 553Z" fill="#3F3D56"/>
<path d="M939.059 422C953.971 422 966.059 409.912 966.059 395C966.059 380.088 953.971 368 939.059 368C924.147 368 912.059 380.088 912.059 395C912.059 409.912 924.147 422 939.059 422Z" fill="#2F2E41"/>
<path d="M913.405 568.326L912.69 556.088L959.556 547.503L960.612 565.567L913.405 568.326Z" fill="#FFB8B8"/>
<path d="M915.675 547.141L917.055 570.745L902.194 571.613L899.945 533.148C901.897 533.034 903.852 533.306 905.699 533.947C907.545 534.589 909.248 535.587 910.708 536.887C912.169 538.186 913.359 539.76 914.212 541.52C915.064 543.279 915.561 545.189 915.675 547.141Z" fill="#2F2E41"/>
<path d="M933.789 568.214L926.004 577.685L885.768 552.166L897.257 538.188L933.789 568.214Z" fill="#FFB8B8"/>
<path d="M917.737 582.226L932.751 563.96L944.251 573.413L919.785 603.179C918.275 601.938 917.024 600.411 916.104 598.686C915.184 596.962 914.612 595.072 914.422 593.127C914.232 591.181 914.427 589.217 914.996 587.347C915.564 585.476 916.496 583.736 917.737 582.226V582.226Z" fill="#2F2E41"/>
<path d="M911.387 524.17L906.067 549.249C905.944 549.826 905.951 550.424 906.087 550.998C906.223 551.573 906.484 552.11 906.852 552.572C907.219 553.033 907.685 553.408 908.215 553.668C908.744 553.929 909.325 554.069 909.915 554.078L962.213 554.922C962.803 554.931 963.387 554.81 963.924 554.568C964.462 554.325 964.939 553.967 965.321 553.518C965.704 553.069 965.982 552.542 966.137 551.973C966.292 551.404 966.319 550.808 966.217 550.227L961.642 524.305C961.479 523.379 960.994 522.54 960.274 521.936C959.554 521.331 958.643 521 957.703 521H915.3C914.383 521 913.494 521.315 912.782 521.892C912.069 522.469 911.577 523.273 911.387 524.17V524.17Z" fill="#2F2E41"/>
<path d="M920.059 533C920.059 533 869.059 501 859.059 518C854.059 526.5 856.559 534.75 860.309 540.875C863.789 546.452 868.784 550.923 874.712 553.766L916.059 574L931.059 558L921.059 549L920.059 533Z" fill="#2F2E41"/>
<path d="M946.059 528C946.059 528 1012.06 509 999.059 545C986.059 581 937.059 567 937.059 567L932.059 552L949.059 540L946.059 528Z" fill="#2F2E41"/>
<path d="M939.398 425.726C952.962 425.726 963.959 414.73 963.959 401.165C963.959 387.601 952.962 376.604 939.398 376.604C925.833 376.604 914.837 387.601 914.837 401.165C914.837 414.73 925.833 425.726 939.398 425.726Z" fill="#FFB8B8"/>
<path d="M940.685 531.969C930.479 531.814 920.325 530.477 910.427 527.982L910.135 527.902L896.429 464.857C895.197 459.318 896.035 453.518 898.786 448.554C901.537 443.59 906.011 439.805 911.362 437.914C927.892 431.983 945.908 431.624 962.662 436.89H962.662C968.284 438.701 973.015 442.566 975.913 447.712C978.812 452.858 979.663 458.908 978.297 464.654L962.989 527.85L962.773 527.952C956.411 530.966 948.456 531.969 940.685 531.969Z" fill="#CCCCCC"/>
<path d="M922.274 536.866C922.772 535.483 923.567 534.226 924.603 533.183C925.64 532.14 926.892 531.337 928.272 530.831C929.652 530.324 931.126 530.127 932.591 530.252C934.056 530.377 935.475 530.821 936.75 531.554L963.736 508.13L966.178 526.538L940.177 545.96C938.804 548.019 936.723 549.503 934.328 550.131C931.934 550.758 929.393 550.486 927.186 549.365C924.98 548.244 923.261 546.353 922.355 544.049C921.45 541.745 921.421 539.19 922.274 536.866V536.866Z" fill="#FFB8B8"/>
<path d="M948.012 541.976C947.573 541.975 947.136 541.911 946.716 541.785C946.033 541.586 945.408 541.227 944.892 540.737C944.377 540.247 943.986 539.641 943.753 538.969L940.496 529.74C940.191 528.887 940.152 527.962 940.385 527.087C940.617 526.211 941.11 525.427 941.798 524.838L978.567 502.764L964.073 438.103L964.442 438.014C964.592 437.977 979.442 434.597 985.527 450.824C989.789 462.189 1005.56 486.901 1004.45 503.601C1004.23 506.941 1002.9 510.112 1000.67 512.603C998.432 515.094 995.422 516.759 992.124 517.328L950.736 541.041C949.957 541.645 948.999 541.974 948.012 541.976Z" fill="#CCCCCC"/>
<path d="M952.136 534.673C951.638 533.29 950.843 532.032 949.807 530.989C948.771 529.947 947.519 529.144 946.139 528.637C944.759 528.131 943.284 527.933 941.819 528.058C940.355 528.183 938.935 528.628 937.661 529.361L910.674 505.936L908.233 524.345L934.234 543.767C935.607 545.826 937.688 547.31 940.082 547.937C942.476 548.565 945.017 548.292 947.224 547.171C949.431 546.05 951.15 544.159 952.055 541.855C952.96 539.552 952.989 536.996 952.136 534.673V534.673Z" fill="#FFB8B8"/>
<path d="M929.106 541.975C928.12 541.974 927.162 541.645 926.382 541.041L881.994 519.328C878.696 518.758 875.686 517.094 873.45 514.603C871.214 512.112 869.883 508.941 869.672 505.6C868.559 488.901 887.329 462.189 891.591 450.824C897.676 434.597 912.526 437.976 912.677 438.014L913.045 438.102L895.551 504.764L935.32 524.838C936.008 525.427 936.501 526.211 936.733 527.087C936.966 527.962 936.927 528.887 936.622 529.74L933.365 538.969C933.132 539.641 932.741 540.247 932.226 540.737C931.71 541.227 931.085 541.586 930.402 541.785C929.982 541.911 929.545 541.975 929.106 541.975V541.975Z" fill="#CCCCCC"/>
<path d="M982.059 552H893.059C891.203 551.998 889.424 551.26 888.112 549.947C886.799 548.635 886.061 546.856 886.059 545V496C886.061 494.144 886.799 492.365 888.112 491.053C889.424 489.74 891.203 489.002 893.059 489H982.059C983.915 489.002 985.694 489.74 987.006 491.053C988.319 492.365 989.057 494.144 989.059 496V545C989.057 546.856 988.319 548.635 987.006 549.947C985.694 551.26 983.915 551.998 982.059 552V552Z" fill="#08BDBA"/>
<path d="M937.559 526.5C940.873 526.5 943.559 523.814 943.559 520.5C943.559 517.186 940.873 514.5 937.559 514.5C934.245 514.5 931.559 517.186 931.559 520.5C931.559 523.814 934.245 526.5 937.559 526.5Z" fill="white"/>
<path d="M914.591 400.166C913.135 396.473 915.523 392.073 919.066 390.285C922.609 388.496 926.885 388.836 930.675 390.015C933.859 391.006 936.844 392.541 939.951 393.754C943.015 395.111 946.361 395.707 949.704 395.49C953.019 395.116 956.317 393.258 957.673 390.21C959.079 387.052 958.123 383.197 955.958 380.502C953.655 377.896 950.674 375.98 947.347 374.967C940.039 372.392 931.598 372.317 924.814 376.059C918.03 379.802 913.42 387.77 914.822 395.389" fill="#2F2E41"/>
<path d="M772.662 541.318C773.898 528.013 777.31 515.001 782.763 502.801C784.283 499.406 785.955 496.086 787.781 492.84C787.873 492.671 787.895 492.472 787.843 492.286C787.791 492.101 787.668 491.942 787.502 491.845C787.335 491.748 787.138 491.719 786.95 491.765C786.763 491.81 786.601 491.927 786.498 492.09C779.858 503.911 775.207 516.743 772.73 530.072C772.041 533.795 771.523 537.543 771.176 541.318C771.088 542.271 772.575 542.265 772.662 541.318V541.318Z" fill="#E6E6E6"/>
<path d="M791.381 495.225C796.581 495.225 800.796 491.01 800.796 485.81C800.796 480.611 796.581 476.396 791.381 476.396C786.182 476.396 781.967 480.611 781.967 485.81C781.967 491.01 786.182 495.225 791.381 495.225Z" fill="#08BDBA"/>
<path d="M773.625 541.568C774.427 532.937 776.641 524.495 780.178 516.581C781.164 514.378 782.249 512.224 783.434 510.119C783.493 510.008 783.507 509.88 783.474 509.759C783.44 509.639 783.36 509.536 783.252 509.473C783.144 509.41 783.016 509.391 782.895 509.421C782.773 509.45 782.668 509.526 782.601 509.632C778.294 517.301 775.276 525.625 773.669 534.273C773.222 536.688 772.886 539.12 772.661 541.568C772.604 542.186 773.569 542.182 773.625 541.568H773.625Z" fill="#E6E6E6"/>
<path d="M785.769 511.665C789.142 511.665 791.877 508.931 791.877 505.558C791.877 502.185 789.142 499.45 785.769 499.45C782.396 499.45 779.662 502.185 779.662 505.558C779.662 508.931 782.396 511.665 785.769 511.665Z" fill="#08BDBA"/>
<path d="M772.408 540.992C767.731 533.693 764.284 525.675 762.206 517.259C761.629 514.916 761.159 512.55 760.798 510.162C760.777 510.038 760.709 509.928 760.609 509.854C760.508 509.779 760.382 509.747 760.258 509.764C760.134 509.78 760.022 509.845 759.944 509.943C759.866 510.041 759.83 510.165 759.842 510.29C761.163 518.986 763.904 527.406 767.955 535.212C769.088 537.392 770.319 539.516 771.648 541.585C771.983 542.107 772.741 541.511 772.408 540.992V540.992Z" fill="#E6E6E6"/>
<path d="M759.835 511.236C763.208 511.236 765.942 508.502 765.942 505.129C765.942 501.756 763.208 499.021 759.835 499.021C756.462 499.021 753.727 501.756 753.727 505.129C753.727 508.502 756.462 511.236 759.835 511.236Z" fill="#08BDBA"/>
<path d="M753.659 546.396V534.396C753.66 533.203 754.134 532.059 754.978 531.215C755.822 530.372 756.966 529.897 758.159 529.896H786.159C787.352 529.897 788.495 530.372 789.339 531.215C790.183 532.059 790.657 533.203 790.659 534.396V546.396C790.657 547.589 790.183 548.733 789.339 549.576C788.495 550.42 787.352 550.894 786.159 550.896H758.159C756.966 550.894 755.822 550.42 754.978 549.576C754.134 548.733 753.66 547.589 753.659 546.396V546.396Z" fill="#F2F2F2"/>
<path d="M1054.41 560.401C1054.41 566.978 1049.08 569.967 1042.5 569.967C1035.92 569.967 1030.59 566.978 1030.59 560.401C1030.59 553.824 1033.24 546.15 1042.5 548.796C1051.76 544.826 1054.41 553.824 1054.41 560.401Z" fill="#FF6584"/>
<path d="M1041.92 551.877C1041.46 551.878 1041.01 551.71 1040.66 551.404C1040.31 551.099 1040.09 550.677 1040.03 550.218C1039.63 546.936 1037.46 540.51 1036.55 537.899L1036.54 537.898C1036.45 537.639 1036.42 537.361 1036.46 537.088C1036.5 536.815 1036.6 536.556 1036.77 536.332C1036.92 536.132 1037.11 535.966 1037.34 535.847C1037.56 535.727 1037.8 535.656 1038.05 535.638C1038.31 535.62 1038.56 535.655 1038.79 535.741C1039.03 535.828 1039.25 535.964 1039.43 536.139C1039.59 536.309 1039.71 536.509 1039.8 536.729C1039.88 536.949 1039.91 537.182 1039.9 537.416C1039.72 540.766 1042.16 546.18 1043.63 549.11C1043.77 549.386 1043.84 549.692 1043.84 550.001C1043.83 550.31 1043.75 550.614 1043.6 550.885C1043.45 551.156 1043.24 551.387 1042.98 551.558C1042.72 551.729 1042.43 551.835 1042.12 551.866C1042.05 551.873 1041.99 551.877 1041.92 551.877V551.877Z" fill="#3F3D56"/>
<path d="M1050.73 544.486C1054.87 541.102 1051.62 534.178 1046.45 535.507C1045.75 535.673 1045.11 536.016 1044.58 536.501C1041.41 539.499 1040.92 547.17 1040.92 547.17C1040.92 547.17 1046.52 547.93 1050.73 544.486Z" fill="#3F3D56"/>
<path d="M1165.72 369.369V344.334L1162.68 346.933V369.369L1167.92 373.875L1162.68 378.382H1165.72L1171 373.875L1165.72 369.369Z" fill="#FF8AE2"/>
<path d="M1244.29 342.361H1241.24L1246.48 346.868V354.368V358.875V375.356L1242.98 378.382H1246.02L1249.57 375.356V358.875V354.368V346.868L1244.29 342.361Z" fill="#FF8AE2"/>
<path d="M1112.94 330.354H1110.12L1115.4 334.86V342.361V346.868V355.848V375.356L1111.86 378.382H1114.71L1118.22 375.356V334.86L1112.94 330.354Z" fill="#FF8AE2"/>
<path d="M1064.39 369.369V344.269L1061.34 346.868V369.369L1066.62 373.875L1061.34 378.382H1064.39L1069.67 373.875L1064.39 369.369Z" fill="#FF8AE2"/>
<path d="M1147.38 337.854H1144.34V342.361H1147.38V337.854Z" fill="#FF8AE2"/>
<path d="M1144.34 372.362L1147.38 369.764V348.348L1154.43 342.361H1151.39L1144.34 348.348V372.362Z" fill="#FF8AE2"/>
<path d="M1147.88 369.369L1149.62 370.882L1144.34 375.356L1140.83 378.383H1143.88L1147.38 375.356L1152.66 370.882L1150.93 369.369H1147.88Z" fill="#FF8AE2"/>
<path d="M1194.39 369.369V346.868V342.361V334.86L1189.11 330.354H1186.07L1191.35 334.86V342.361V346.868V369.369L1196.59 373.875L1191.35 378.382H1194.39L1199.67 373.875L1194.39 369.369Z" fill="#FF8AE2"/>
<path d="M1199.67 342.361H1196.59L1203.64 348.348V367.856L1198.13 372.56L1199.67 373.876L1206.68 367.856V348.348L1199.67 342.361Z" fill="#FF8AE2"/>
<path d="M1023.16 340.519V351.473L1026.2 348.874V340.519V332.656L1020.66 327.919H1020.62H1017.61L1023.16 332.656V340.519Z" fill="#FF8AE2"/>
<path d="M1039.73 334.235V340.519V364.171V368.908L1043.43 372.066L1044.97 370.75L1042.77 368.908V364.171V340.519V334.235V332.656L1037.22 327.919H1034.18L1039.73 332.656V334.235Z" fill="#FF8AE2"/>
<path d="M1032.33 350.453L1023.16 358.283V375.224L1019.46 378.382H1022.51L1026.2 375.224V358.283L1032.33 353.052V350.453Z" fill="#FF8AE2"/>
<path d="M1013.91 334.268L1008.36 338.972H1011.45L1015.45 335.551L1013.91 334.268Z" fill="#FF8AE2"/>
<path d="M1050.17 368.908H1047.13L1048.98 370.487L1045.28 373.645L1043.43 375.224L1039.73 378.382H1042.77L1046.47 375.224L1048.32 373.645L1052.02 370.487L1050.17 368.908Z" fill="#FF8AE2"/>
<path d="M1171 342.361H1167.92L1174.97 348.348V367.856L1169.46 372.56L1171 373.876L1178.02 367.856V348.348L1171 342.361Z" fill="#FF8AE2"/>
<path d="M1230.88 348.315L1218.63 358.776V369.369L1222.13 372.362L1223.67 371.08L1221.67 369.369V358.776L1233.92 348.315L1226.95 342.361H1223.91L1230.88 348.315Z" fill="#FF8AE2"/>
<path d="M1227.41 367.855L1229.18 369.368L1223.91 373.875L1222.13 375.356L1218.63 378.382H1221.67L1225.18 375.356L1226.95 373.875L1232.23 369.368L1230.46 367.855H1227.41Z" fill="#FF8AE2"/>
<path d="M1218.63 355.782L1221.67 353.184V349.466L1218.63 346.867V355.782Z" fill="#FF8AE2"/>
<path d="M1076.68 370.882V348.348L1069.67 342.361H1066.62L1073.64 348.348V370.882L1077.14 373.875L1071.9 378.382H1074.95L1080.19 373.875L1076.68 370.882Z" fill="#FF8AE2"/>
<path d="M1094.83 372.362L1096.33 371.079L1094.37 369.368V349.4L1091.36 346.867H1091.32V369.368L1094.83 372.362Z" fill="#FF8AE2"/>
<path d="M1103.15 367.855H1100.11L1101.84 369.368L1096.6 373.875L1094.83 375.356L1091.32 378.382H1094.37L1097.87 375.356L1099.64 373.875L1104.88 369.368L1103.15 367.855Z" fill="#FF8AE2"/>
<path d="M1096.6 351.309H1099.64L1104.88 346.802L1099.64 342.295H1096.6L1101.84 346.802L1096.6 351.309Z" fill="#FF8AE2"/>
<path d="M1123.73 342.361H1120.64L1125.92 346.868L1120.64 351.374H1123.73L1128.97 346.868L1123.73 342.361Z" fill="#FF8AE2"/>
<path d="M1254.81 342.361H1251.76L1257.04 346.868L1251.76 351.374H1254.81L1260.09 346.868L1254.81 342.361Z" fill="#FF8AE2"/>
<path d="M1123.73 351.375H1120.64L1125.92 355.848V375.356L1122.42 378.383H1125.46L1128.97 375.356V355.848L1123.73 351.375Z" fill="#FF8AE2"/>
<path d="M1151.39 342.361H1144.34V337.854L1132.05 348.348H1137.33V375.356L1140.83 378.382L1144.34 375.356L1149.62 370.882L1147.88 369.368L1144.34 372.362V348.348L1151.39 342.361Z" fill="#9C4668"/>
<path d="M1191.35 346.868V342.361V334.86L1186.07 330.354L1180.79 334.86L1184.3 337.854V372.362L1191.35 378.382L1196.59 373.875L1191.35 369.369V346.868Z" fill="#9C4668"/>
<path d="M1191.35 346.868L1196.59 351.374V373.876L1203.64 367.856V348.348L1196.59 342.361L1191.35 346.868Z" fill="#9C4668"/>
<path d="M1043.43 372.066L1039.73 368.908V364.171V340.519V334.235V332.656L1034.18 327.919L1028.67 332.656L1032.33 335.781V343.644L1023.16 351.473V340.519V332.656L1017.61 327.919H1017.57L1006.48 337.36L1008.36 338.972L1013.91 334.268L1015.76 335.847V375.224L1019.46 378.382L1023.16 375.224V358.283L1032.33 350.453V364.171V372.066L1039.73 378.382L1043.43 375.224L1045.28 373.645L1048.98 370.487L1047.13 368.908L1043.43 372.066Z" fill="#9C4668"/>
<path d="M1162.68 346.867L1155.63 352.855V372.362L1162.68 378.382L1167.92 373.875L1162.68 369.368V346.867Z" fill="#9C4668"/>
<path d="M1162.68 346.868L1167.92 351.374V373.876L1174.97 367.856V348.348L1167.92 342.361L1162.68 346.868Z" fill="#9C4668"/>
<path d="M1230.88 348.315L1223.91 342.361L1218.63 346.868L1223.87 351.309L1218.63 355.783V346.868L1211.58 352.855V372.363L1218.63 378.382L1222.13 375.356L1223.91 373.875L1229.18 369.369L1227.41 367.856L1222.13 372.363L1218.63 369.369V358.776L1230.88 348.315Z" fill="#9C4668"/>
<path d="M1061.34 346.867L1054.29 352.855V372.362L1061.34 378.382L1066.62 373.875L1061.34 369.368V346.867Z" fill="#9C4668"/>
<path d="M1073.64 348.348L1066.62 342.361L1061.34 346.868L1066.62 351.374V373.875L1071.9 378.382L1077.14 373.875L1073.64 370.882V348.348Z" fill="#9C4668"/>
<path d="M1094.83 372.362L1091.32 369.369V346.868L1084.27 352.855V372.362L1091.32 378.383L1094.83 375.356L1096.6 373.876L1101.84 369.369L1100.11 367.856L1094.83 372.362Z" fill="#9C4668"/>
<path d="M1096.61 342.305L1091.32 346.818L1096.61 351.33L1101.9 346.818L1096.61 342.305Z" fill="#9C4668"/>
<path d="M1120.68 342.339L1115.4 346.851L1120.68 351.364L1125.97 346.851L1120.68 342.339Z" fill="#9C4668"/>
<path d="M1118.91 358.875V375.356L1122.42 378.383L1125.92 375.356V355.848L1120.64 351.375L1115.4 355.848L1118.91 358.875Z" fill="#9C4668"/>
<path d="M1115.4 342.361V334.86L1110.12 330.354L1104.85 334.86L1108.35 337.854V375.356L1111.86 378.382L1115.4 375.356V355.848V346.868V342.361Z" fill="#9C4668"/>
<path d="M1251.8 342.337L1246.52 346.85L1251.8 351.362L1257.09 346.85L1251.8 342.337Z" fill="#9C4668"/>
<path d="M1235.97 346.868L1239.47 349.861V354.368V358.875V375.356L1242.98 378.382L1246.48 375.356V358.875V354.368V346.868L1241.24 342.361L1235.97 346.868Z" fill="#9C4668"/>
<path d="M1159.79 330.781V329.005H1160.6C1161.33 329.005 1161.91 329.498 1161.91 330.123V334.959C1161.1 335.189 1160.52 335.847 1160.52 336.637C1160.52 337.13 1160.75 337.558 1161.1 337.887C1161.49 338.216 1161.99 338.413 1162.6 338.413C1163.76 338.413 1164.68 337.624 1164.68 336.637C1164.68 335.913 1164.14 335.288 1163.41 334.992V330.123C1163.41 329.465 1163.1 328.873 1162.56 328.413C1162.03 327.952 1161.33 327.689 1160.56 327.689H1159.75V325.913L1156.94 328.314L1159.79 330.781ZM1162.64 335.847C1162.91 335.847 1163.14 335.946 1163.34 336.078C1163.49 336.209 1163.61 336.439 1163.61 336.637C1163.61 336.867 1163.49 337.064 1163.34 337.196C1163.14 337.361 1162.91 337.426 1162.68 337.426C1162.14 337.426 1161.72 337.064 1161.72 336.604C1161.68 336.209 1162.1 335.847 1162.64 335.847Z" fill="#9C4668"/>
<path d="M1156.52 336.67C1156.52 335.946 1155.98 335.321 1155.24 335.025V330.024C1155.98 329.761 1156.52 329.136 1156.52 328.38C1156.52 327.393 1155.59 326.603 1154.43 326.603C1153.28 326.603 1152.35 327.393 1152.35 328.38C1152.35 328.84 1152.55 329.301 1152.93 329.63C1153.16 329.827 1153.43 329.959 1153.7 330.057V334.992C1152.89 335.222 1152.32 335.88 1152.32 336.67C1152.32 337.163 1152.55 337.591 1152.89 337.92C1153.28 338.249 1153.78 338.446 1154.4 338.446C1155.59 338.446 1156.52 337.624 1156.52 336.67ZM1154.43 329.202C1154.16 329.202 1153.93 329.103 1153.78 328.972C1153.59 328.807 1153.51 328.61 1153.51 328.413C1153.51 327.952 1153.93 327.59 1154.47 327.59C1154.74 327.59 1154.97 327.689 1155.17 327.82C1155.32 327.952 1155.44 328.182 1155.44 328.38C1155.4 328.84 1154.97 329.202 1154.43 329.202ZM1154.43 337.459C1153.89 337.459 1153.47 337.097 1153.47 336.637C1153.47 336.406 1153.59 336.209 1153.74 336.077C1153.93 335.913 1154.16 335.847 1154.4 335.847C1154.67 335.847 1154.9 335.946 1155.09 336.077C1155.24 336.209 1155.36 336.439 1155.36 336.637C1155.4 337.097 1154.97 337.459 1154.43 337.459Z" fill="#9C4668"/>
<path d="M1210.8 344.861C1211.65 344.203 1211.73 343.084 1210.96 342.361C1210.73 342.163 1210.5 341.999 1210.23 341.9V338.512C1211.69 340.124 1213.42 340.815 1214.73 341.143C1214.81 341.44 1214.97 341.703 1215.2 341.933C1215.58 342.295 1216.08 342.492 1216.62 342.525C1217.16 342.558 1217.7 342.394 1218.13 342.065C1218.97 341.407 1219.05 340.288 1218.28 339.564C1217.89 339.203 1217.39 339.005 1216.85 338.972C1216.35 338.939 1215.89 339.071 1215.47 339.334C1215.43 339.367 1215.39 339.4 1215.35 339.433C1215.2 339.564 1215.04 339.696 1214.97 339.86C1213.81 339.532 1212.27 338.808 1211.04 337.196C1211.73 336.538 1211.77 335.518 1211.04 334.827C1210.3 334.137 1209.07 334.038 1208.22 334.597C1208.18 334.63 1208.15 334.663 1208.11 334.696C1207.26 335.354 1207.18 336.472 1207.95 337.196C1208.18 337.426 1208.45 337.558 1208.76 337.656V341.867C1208.57 341.933 1208.38 341.999 1208.22 342.13C1208.18 342.163 1208.15 342.196 1208.11 342.229C1207.68 342.558 1207.45 342.986 1207.41 343.446C1207.38 343.907 1207.57 344.367 1207.95 344.729C1208.65 345.42 1209.96 345.486 1210.8 344.861ZM1216.12 340.124C1216.31 339.992 1216.55 339.893 1216.82 339.926C1217.09 339.926 1217.32 340.025 1217.47 340.189C1217.82 340.518 1217.78 341.045 1217.39 341.341C1217.39 341.341 1217.35 341.374 1217.32 341.374C1217.12 341.505 1216.93 341.538 1216.7 341.538C1216.43 341.538 1216.2 341.44 1216.05 341.275C1215.89 341.111 1215.78 340.913 1215.81 340.683C1215.81 340.486 1215.93 340.288 1216.12 340.124ZM1208.84 335.419C1209.23 335.123 1209.84 335.156 1210.19 335.485C1210.54 335.814 1210.5 336.341 1210.11 336.637L1210.07 336.67C1209.69 336.933 1209.11 336.867 1208.8 336.571C1208.42 336.209 1208.45 335.716 1208.84 335.419ZM1208.49 343.479C1208.49 343.249 1208.61 343.051 1208.8 342.92C1209.19 342.624 1209.8 342.657 1210.15 342.986C1210.5 343.315 1210.46 343.841 1210.07 344.137L1210.03 344.17C1209.65 344.433 1209.07 344.367 1208.76 344.071C1208.57 343.907 1208.45 343.676 1208.49 343.479Z" fill="#9C4668"/>
<path d="M1060.3 326.636C1060.3 326.505 1060.34 326.34 1060.42 326.209H1057.65V327.229H1060.42C1060.3 327.064 1060.27 326.834 1060.3 326.636Z" fill="#9C4668"/>
<path d="M1064.16 326.834C1064.16 326.965 1064.12 327.13 1064.04 327.261H1066.82V326.241H1064.08C1064.12 326.406 1064.16 326.603 1064.16 326.834Z" fill="#9C4668"/>
<path d="M1064.74 326.735C1064.74 326.768 1064.74 326.834 1064.74 326.866C1064.7 327.459 1064.39 327.985 1063.89 328.347C1063.39 328.742 1062.73 328.906 1062.08 328.873C1060.69 328.807 1059.61 327.788 1059.69 326.603C1059.73 326.011 1060.03 325.485 1060.54 325.123C1061.04 324.728 1061.69 324.564 1062.35 324.597C1063.73 324.63 1064.74 325.584 1064.74 326.735ZM1060.88 326.735C1060.88 327.327 1061.42 327.82 1062.15 327.886C1062.5 327.919 1062.85 327.788 1063.12 327.59C1063.39 327.393 1063.54 327.097 1063.58 326.801C1063.62 326.176 1063.08 325.649 1062.35 325.584L1062.38 325.09L1062.35 325.584C1062 325.551 1061.65 325.682 1061.38 325.88C1061.11 326.077 1060.96 326.373 1060.92 326.669C1060.88 326.669 1060.88 326.702 1060.88 326.735Z" fill="#9C4668"/>
<path d="M1232.42 380.718C1232.42 380.586 1232.46 380.422 1232.54 380.29H1229.76V381.31H1232.54C1232.46 381.146 1232.42 380.915 1232.42 380.718Z" fill="#9C4668"/>
<path d="M1236.27 380.915C1236.27 381.047 1236.23 381.212 1236.16 381.343H1238.93V380.323H1236.2C1236.27 380.488 1236.31 380.685 1236.27 380.915Z" fill="#9C4668"/>
<path d="M1236.89 380.817C1236.89 380.85 1236.89 380.915 1236.89 380.948C1236.85 381.54 1236.54 382.067 1236.04 382.429C1235.54 382.791 1234.89 382.988 1234.23 382.955C1232.84 382.889 1231.77 381.87 1231.84 380.685C1231.88 380.093 1232.19 379.567 1232.69 379.205C1233.19 378.81 1233.85 378.646 1234.5 378.678C1235.85 378.744 1236.89 379.666 1236.89 380.817ZM1233.04 380.817C1233.04 381.409 1233.58 381.902 1234.31 381.968C1234.66 382.001 1235 381.87 1235.27 381.672C1235.54 381.475 1235.7 381.178 1235.73 380.883C1235.77 380.257 1235.23 379.731 1234.5 379.666L1234.54 379.172L1234.5 379.666C1234.15 379.632 1233.81 379.764 1233.54 379.962C1233.27 380.159 1233.11 380.455 1233.08 380.751C1233.04 380.784 1233.04 380.784 1233.04 380.817Z" fill="#9C4668"/>
<path d="M1030.44 384.139C1030.44 384.008 1030.48 383.843 1030.56 383.712H1027.78V384.732H1030.56C1030.44 384.567 1030.4 384.337 1030.44 384.139Z" fill="#9C4668"/>
<path d="M1034.3 384.337C1034.3 384.468 1034.26 384.633 1034.18 384.764H1036.95V383.745H1034.22C1034.26 383.909 1034.3 384.106 1034.3 384.337Z" fill="#9C4668"/>
<path d="M1034.87 384.238C1034.87 384.271 1034.87 384.337 1034.87 384.37C1034.84 384.962 1034.53 385.488 1034.03 385.85C1033.53 386.245 1032.87 386.409 1032.22 386.376C1030.83 386.31 1029.75 385.291 1029.83 384.106C1029.87 383.514 1030.17 382.988 1030.67 382.626C1031.18 382.264 1031.83 382.067 1032.49 382.1C1033.83 382.133 1034.87 383.087 1034.87 384.238ZM1031.02 384.238C1031.02 384.83 1031.56 385.324 1032.29 385.389C1032.64 385.422 1032.99 385.291 1033.26 385.093C1033.53 384.896 1033.68 384.6 1033.72 384.304C1033.76 383.679 1033.22 383.152 1032.49 383.087L1032.52 382.56L1032.49 383.087C1032.14 383.054 1031.79 383.185 1031.52 383.383C1031.25 383.58 1031.1 383.876 1031.06 384.172C1031.02 384.205 1031.02 384.205 1031.02 384.238Z" fill="#9C4668"/>
<path d="M1129 336.736C1129 336.604 1129.04 336.439 1129.12 336.308H1126.35V337.328H1129.12C1129.04 337.13 1129 336.933 1129 336.736Z" fill="#9C4668"/>
<path d="M1132.86 336.933C1132.86 337.064 1132.82 337.229 1132.74 337.361H1135.52V336.308H1132.78C1132.86 336.505 1132.9 336.703 1132.86 336.933Z" fill="#9C4668"/>
<path d="M1133.47 336.834C1133.47 336.867 1133.47 336.933 1133.47 336.966C1133.44 337.558 1133.13 338.084 1132.63 338.446C1132.13 338.841 1131.47 339.005 1130.82 338.973C1129.43 338.907 1128.35 337.887 1128.43 336.703C1128.46 336.111 1128.77 335.584 1129.27 335.222C1129.77 334.828 1130.43 334.663 1131.08 334.696C1132.43 334.729 1133.47 335.683 1133.47 336.834ZM1129.62 336.834C1129.62 337.426 1130.16 337.92 1130.89 337.986C1131.24 338.019 1131.59 337.887 1131.86 337.69C1132.13 337.492 1132.28 337.196 1132.32 336.9C1132.36 336.275 1131.82 335.749 1131.08 335.683L1131.12 335.189L1131.08 335.683C1130.74 335.65 1130.39 335.782 1130.12 335.979C1129.85 336.176 1129.7 336.472 1129.66 336.768C1129.62 336.768 1129.62 336.801 1129.62 336.834Z" fill="#9C4668"/>
<path d="M1090.59 336.999C1089.97 336.176 1088.66 335.946 1087.7 336.505C1087.24 336.768 1086.93 337.163 1086.81 337.624C1086.7 338.084 1086.81 338.578 1087.12 338.973C1087.31 339.236 1087.74 339.499 1088.08 339.565V340.815C1088.08 341.177 1087.74 341.999 1086.7 341.999H1082.92V338.841C1083.19 338.742 1083.46 338.611 1083.65 338.38C1084.42 337.657 1084.35 336.538 1083.5 335.88C1082.65 335.222 1081.34 335.288 1080.57 336.012C1080.19 336.374 1080.03 336.834 1080.03 337.295C1080.03 337.755 1080.3 338.216 1080.73 338.512C1080.76 338.545 1080.8 338.578 1080.84 338.611C1080.99 338.709 1081.19 338.808 1081.38 338.874V343.085C1081.07 343.183 1080.8 343.348 1080.57 343.545C1079.8 344.269 1079.88 345.387 1080.73 346.045C1080.76 346.078 1080.8 346.111 1080.84 346.144C1081.69 346.703 1082.92 346.604 1083.65 345.914C1084.35 345.223 1084.35 344.17 1083.65 343.545C1083.54 343.446 1083.46 343.381 1083.38 343.315H1086.66C1088.66 343.315 1089.55 341.867 1089.55 340.881V339.663C1089.66 339.63 1089.82 339.565 1089.93 339.499C1089.97 339.466 1090.01 339.433 1090.05 339.4C1090.43 339.137 1090.7 338.775 1090.82 338.347C1091.01 337.854 1090.9 337.394 1090.59 336.999ZM1081.19 337.229C1081.19 336.999 1081.26 336.801 1081.42 336.637C1081.77 336.308 1082.31 336.275 1082.69 336.538C1082.73 336.538 1082.73 336.571 1082.73 336.571C1083.11 336.867 1083.15 337.394 1082.81 337.722C1082.46 338.051 1081.84 338.084 1081.46 337.788C1081.3 337.624 1081.19 337.426 1081.19 337.229ZM1082.88 345.223C1082.54 345.552 1081.96 345.585 1081.53 345.289C1081.15 344.993 1081.11 344.466 1081.46 344.137C1081.8 343.808 1082.34 343.775 1082.73 344.039C1082.77 344.039 1082.77 344.071 1082.77 344.071C1083.19 344.368 1083.23 344.894 1082.88 345.223ZM1089.78 338.15C1089.74 338.347 1089.59 338.545 1089.36 338.676C1089.16 338.808 1088.89 338.841 1088.62 338.808C1088.39 338.775 1088.16 338.644 1088.01 338.446C1087.85 338.282 1087.81 338.051 1087.85 337.821C1087.89 337.624 1088.01 337.459 1088.2 337.361C1088.24 337.361 1088.24 337.328 1088.28 337.328C1088.7 337.097 1089.32 337.196 1089.59 337.558C1089.78 337.722 1089.82 337.92 1089.78 338.15Z" fill="#9C4668"/>
<path d="M1019.77 334.729H1019.04V372.395H1019.77V334.729Z" fill="#FF8AE2"/>
<path d="M1036.57 334.729H1035.84V369.796H1036.57V334.729Z" fill="#FF8AE2"/>
<path d="M1111.86 336.472H1111.13V373.843H1111.86V336.472Z" fill="#FF8AE2"/>
<path d="M1187.92 336.9H1187.19V369.994H1187.92V336.9Z" fill="#FF8AE2"/>
<path d="M1070.44 349.993H1069.71V371.507H1070.44V349.993Z" fill="#FF8AE2"/>
<path d="M1141.1 349.993H1140.37V371.507H1141.1V349.993Z" fill="#FF8AE2"/>
<path d="M1243.09 348.94H1242.36V372.527H1243.09V348.94Z" fill="#FF8AE2"/>
<path d="M1171.62 349.598H1170.89V367.23H1171.62V349.598Z" fill="#FF8AE2"/>
<path d="M1200.02 349.993H1199.28V367.625H1200.02V349.993Z" fill="#FF8AE2"/>
<path d="M1215 353.809H1214.27V371.441H1215V353.809Z" fill="#FF8AE2"/>
<path d="M1159.64 353.611H1158.9V371.244H1159.64V353.611Z" fill="#FF8AE2"/>
<path d="M1088.12 353.151H1087.39V371.145H1088.12V353.151Z" fill="#FF8AE2"/>
<path d="M1058.07 353.545H1057.34V370.981H1058.07V353.545Z" fill="#FF8AE2"/>
<path d="M1122.53 357.065H1121.8V374.501H1122.53V357.065Z" fill="#FF8AE2"/>
<path d="M1019.77 357.954L1019.19 357.46L1035.91 343.15L1036.49 343.677L1019.77 357.954Z" fill="#FF8AE2"/>
<path d="M1237.47 368.349C1237.85 369.336 1238.7 370.06 1239.47 370.421V365.52C1237.62 367.165 1237.47 368.316 1237.47 368.349Z" fill="#FF8AE2"/>
<path d="M1134.01 370.553C1133.94 370.454 1133.9 370.323 1133.86 370.224C1133.9 370.356 1133.94 370.454 1134.01 370.553Z" fill="#FF8AE2"/>
<path d="M1137.29 364.5C1133.13 367.296 1134.01 370.553 1134.01 370.553C1134.67 371.738 1136.05 372.428 1137.33 372.823L1137.29 364.5Z" fill="#FF8AE2"/>
<path d="M1076.68 359.006V366.112C1077.57 365.421 1078.53 364.5 1078.99 363.48C1079.11 363.053 1079.41 361.013 1076.68 359.006Z" fill="#9C4668"/>
<path d="M1051.33 388.35C1051.33 388.35 1054.02 389.403 1053.37 395.39C1053.06 398.022 1054.72 400.456 1054.72 400.456C1054.72 400.456 1049.75 399.436 1049.05 396.245C1048.51 393.844 1050.9 391.442 1051.33 388.35Z" fill="#93C2DB"/>
<path d="M1046.36 335.091C1046.36 335.091 1052.14 331.275 1049.44 324.465C1049.44 324.465 1046.12 325.452 1046.7 328.413C1047.32 331.702 1047.36 333.742 1046.36 335.091Z" fill="#93C2DB"/>
<path d="M1235.66 362C1235.66 362 1233.08 355.388 1240.59 350.453C1240.59 350.453 1242.71 352.954 1240.24 355.585C1237.78 358.217 1235.7 360.224 1235.66 362Z" fill="#93C2DB"/>
<path d="M1132.66 361.474C1132.66 361.474 1129.89 355.289 1135.21 352.657C1135.21 352.657 1135.82 353.809 1135.55 355.717C1135.25 357.723 1133.7 358.02 1132.66 361.474Z" fill="#93C2DB"/>
<path d="M1091.17 335.782C1091.17 335.782 1093.06 331.538 1097.52 332.689C1097.52 332.656 1096.33 336.571 1091.17 335.782Z" fill="#93C2DB"/>
<path d="M1085.89 334.531C1085.89 334.531 1082.46 331.406 1086.08 328.281C1086.12 328.281 1089.24 330.781 1085.89 334.531Z" fill="#93C2DB"/>
<path d="M1079.11 335.781C1079.11 335.781 1074.1 336.472 1072.44 333.215C1072.4 333.215 1077.14 331.801 1079.11 335.781Z" fill="#93C2DB"/>
<path d="M1158.44 385.817C1158.44 385.817 1160.33 381.573 1164.8 382.725C1164.8 382.725 1163.6 386.639 1158.44 385.817Z" fill="#93C2DB"/>
<path d="M1153.16 384.6C1153.16 384.6 1149.73 381.474 1153.36 378.349C1153.36 378.349 1156.52 380.849 1153.16 384.6Z" fill="#93C2DB"/>
<path d="M1146.38 385.85C1146.38 385.85 1141.37 386.541 1139.72 383.284C1139.68 383.251 1144.42 381.837 1146.38 385.85Z" fill="#93C2DB"/>
<path d="M1209.8 331.834C1209.8 331.834 1207.92 328.413 1211.15 325.682C1211.11 325.682 1213.77 328.577 1209.8 331.834Z" fill="#93C2DB"/>
<path d="M1206.99 332.327C1206.99 332.327 1202.56 332.13 1201.29 328.38C1201.29 328.38 1205.53 327.788 1206.99 332.327Z" fill="#93C2DB"/>
<path d="M1103 442.465C1103 442.465 1098.72 444.373 1095.79 441.313C1095.79 441.313 1099.84 439.175 1103 442.465Z" fill="#93C2DB"/>
<path d="M1105 444.866C1105 444.866 1104.81 449.11 1100.38 449.735C1100.38 449.702 1100.03 445.688 1105 444.866Z" fill="#93C2DB"/>
<path d="M1161.02 428.352C1161.02 428.352 1165.03 426.74 1168.23 429.503C1168.23 429.47 1164.84 431.74 1161.02 428.352Z" fill="#93C2DB"/>
<path d="M1160.45 425.951C1160.45 425.951 1160.68 422.168 1165.07 421.082C1165.03 421.082 1165.76 424.701 1160.45 425.951Z" fill="#93C2DB"/>
<path d="M1252.61 380.553C1252.61 380.553 1257.04 381.705 1256.77 385.718C1256.77 385.685 1251.76 385.258 1252.61 380.553Z" fill="#93C2DB"/>
<path d="M1253.42 378.514C1253.42 378.514 1256.27 375.554 1260.7 377.856C1260.7 377.856 1258.2 380.817 1253.42 378.514Z" fill="#93C2DB"/>
<path d="M1004.97 340.025C1004.97 340.025 1002.78 343.611 998 341.933C998 341.933 999.927 337.985 1004.97 340.025Z" fill="#93C2DB"/>
<path d="M1007.09 341.341C1007.09 341.341 1010.52 344.631 1007.09 347.591C1007.05 347.591 1003.43 344.302 1007.09 341.341Z" fill="#93C2DB"/>
<path d="M1151.54 326.899C1151.54 326.899 1147.23 326.11 1146.65 322.261C1146.61 322.261 1150.93 322.228 1151.54 326.899Z" fill="#93C2DB"/>
<path d="M1150.27 329.103C1150.27 329.103 1147.38 331.965 1143.14 330.584C1143.18 330.584 1145.19 327.327 1150.27 329.103Z" fill="#93C2DB"/>
<path d="M1223.33 366.605C1223.33 366.605 1224.14 365.388 1224.41 364.171C1224.91 362.132 1225.14 360.092 1228.03 359.993C1228.07 359.993 1228.14 365.586 1223.33 366.605Z" fill="#93C2DB"/>
<path d="M1206.22 394.469C1206.22 394.469 1208.99 390.686 1213.85 390.258C1219.82 389.765 1221.82 386.804 1222.94 385.028C1222.94 385.028 1214.74 384.929 1211.54 386.442C1208.26 387.988 1207.34 389.732 1206.22 394.469Z" fill="#93C2DB"/>
<path d="M1118.22 374.172C1118.45 371.935 1118.45 366.375 1117.79 363.908C1116.94 360.618 1116.17 360.717 1115.67 360.881C1115.17 361.046 1115.29 361.507 1115.02 361.77C1114.71 362.033 1114.25 362.362 1113.63 361.309C1113.01 360.224 1112.55 357.131 1111.4 356.046C1110.2 354.927 1109.43 356.736 1108.89 357.164C1108.35 357.592 1108.27 357.888 1106.77 357.032C1105.27 356.177 1101.18 354.401 1099.45 355.552C1097.76 356.704 1099.61 358.151 1100.14 358.447C1101.26 359.072 1104.85 360.026 1105.12 360.552C1105.58 361.507 1103.15 361.605 1102.69 362.296C1102.23 362.987 1102.84 363.711 1103.96 363.941C1105.08 364.171 1108.08 363.678 1109.35 363.941C1110.59 364.204 1110.32 364.566 1109.89 364.796C1109.66 364.928 1107.5 365.947 1107.85 366.836C1108.24 367.888 1109.47 368.217 1112.47 367.987C1114.75 367.823 1116.44 369.204 1116.94 370.323C1117.45 371.474 1118.22 374.172 1118.22 374.172Z" fill="#93C2DB"/>
<path d="M1103.03 356.704C1102.8 356.572 1102.57 356.473 1102.5 356.441L1102.07 356.671C1102.07 356.671 1102.15 356.737 1102.76 357.033C1112.55 362.033 1116.6 367.329 1118.29 371.145C1118.29 370.816 1118.29 370.487 1118.29 370.158C1116.4 366.342 1112.2 361.375 1103.03 356.704Z" fill="#FF8AE2"/>
<path d="M1167.77 359.894C1167.77 359.894 1167.11 354.796 1168.11 350.716C1168.73 348.249 1170.66 344.992 1173.39 342.361C1176.47 339.433 1177.55 338.939 1178.25 338.939C1178.55 338.939 1178.36 339.334 1178.25 339.729C1177.94 340.683 1177.67 341.407 1177.32 342.723C1176.67 345.387 1177.32 346.44 1176.36 347.789C1175.82 348.578 1172.58 349.598 1173.43 350.585C1173.93 351.144 1176.59 348.874 1177.32 349.631C1178.05 350.355 1176.63 353.743 1174.7 354.763C1169.19 357.625 1167.77 359.894 1167.77 359.894Z" fill="#93C2DB"/>
<path d="M1189.38 392.857V390.258H1172.12V394.666H1175.24V397.43H1172.12H1172.04V400.16H1168.92H1178.4V397.43H1192.43V392.857H1189.38Z" fill="#93C2DB"/>
<path d="M1114.48 401.509H1111.28V395.226H1106.46V417.431H1109.58V414.7H1114.48V412.134V406.838H1120.3V404.765H1124.88V401.509H1114.48Z" fill="#93C2DB"/>
<path d="M1157.79 411.509H1154.59V414.24H1157.79V411.509Z" fill="#93C2DB"/>
<path d="M1127.08 412.134H1123.88V414.865H1127.08V412.134Z" fill="#93C2DB"/>
<path d="M1130.28 414.865H1127.08V417.595H1130.28V414.865Z" fill="#93C2DB"/>
<path d="M1151.39 419.733V416.97H1154.59V414.24H1151.78V408.285H1148.08V414.24H1139.1V416.772H1136.09V419.733H1140.37H1151.39Z" fill="#93C2DB"/>
<path d="M1142.45 393.021H1139.25V395.752H1142.45V393.021Z" fill="#93C2DB"/>
<path d="M1145.65 390.258H1142.45V392.988H1145.65V390.258Z" fill="#93C2DB"/>
<path d="M1100.41 393.186H1095.87V395.258H1100.41V393.186Z" fill="#93C2DB"/>
<path d="M1086 396.41H1082.81V393.679H1079.61V396.41H1082.81V401.541V406.838H1097.1V401.541H1086V396.41ZM1089.24 404.075V406.805H1086.04V404.075H1089.24Z" fill="#93C2DB"/>
<path d="M1169.97 412.878V410.576H1167.27V412.878H1169.97Z" fill="#93C2DB"/>
<path d="M1078.26 385.817H1075.37V388.185H1078.26V385.817Z" fill="#93C2DB"/>
<path d="M1123.11 329.37V326.969H1120.3V329.37H1123.11Z" fill="#93C2DB"/>
<path d="M1175.81 332.462V330.061H1173V332.462H1175.81Z" fill="#93C2DB"/>
<path d="M1264 365.772V363.371H1261.19V365.772H1264Z" fill="#93C2DB"/>
<path d="M1166.82 440.923H1169.63V438.521H1166.82V440.923Z" fill="#93C2DB"/>
<path d="M1119.66 449.679H1122.48V447.278H1119.66V449.679Z" fill="#93C2DB"/>
<path d="M1179.68 379.207V376.905H1176.98V379.207H1179.68Z" fill="#93C2DB"/>
<path d="M1207.07 382.955V380.653H1204.37V382.955H1207.07Z" fill="#93C2DB"/>
<path d="M1102.56 380.894H1105.26V378.591H1102.56V380.894Z" fill="#93C2DB"/>
<path d="M1098.28 420.581V418.278H1095.58V420.581H1098.28Z" fill="#93C2DB"/>
<path d="M1178.4 397.429V400.16H1174.32V419.733H1179.25V417.167H1182.25V397.429H1178.4Z" fill="#9C4668"/>
<path d="M1145.65 390.258V393.022H1142.45V395.752H1139.25H1136.06V405.522V402.825H1139.29V404.14H1143.3V402.825V397.43H1153.97V395.258H1156.78V390.258H1145.65Z" fill="#9C4668"/>
<path d="M1105.28 383.21H1107.97V380.907H1105.28V383.21Z" fill="#FF8AE2"/>
<path d="M1123.8 392.725V390.258H1112.71V388.186H1104.77V395.226H1111.28V401.509H1114.48V397.002H1117.75V392.725H1123.8Z" fill="#9C4668"/>
<path d="M1082.81 409.568V406.838V401.509V396.41H1079.61V393.679H1082.81V390.916H1086V390.258V388.219H1078.26V391.015V391.311V418.22H1086V409.568H1082.81Z" fill="#9C4668"/>
<path d="M1078.26 418.22H1075.37V420.589H1078.26V418.22Z" fill="#9C4668"/>
<path d="M1192.35 390.258H1189.34V392.824H1192.35V390.258Z" fill="#9C4668"/>
<path d="M1195.35 392.857H1192.35V397.43H1195.35V392.857Z" fill="#9C4668"/>
<path d="M1195.35 387.692H1192.35V390.258H1195.35V387.692Z" fill="#9C4668"/>
<path d="M1154.59 416.97H1151.39V419.7H1154.59V416.97Z" fill="#9C4668"/>
<path d="M1114.48 417.43H1109.58V419.733H1114.48V417.43Z" fill="#9C4668"/>
<path d="M1000.81 350.004V347.603H998V350.004H1000.81Z" fill="#FF8AE2"/>
<path d="M1079.66 326.506V324.105H1076.85V326.506H1079.66Z" fill="#FF8AE2"/>
<path d="M1259.8 338.1V335.698H1256.99V338.1H1259.8Z" fill="#FF8AE2"/>
<path d="M1234.68 391.92H1237.49V389.518H1234.68V391.92Z" fill="#FF8AE2"/>
<path d="M1237.43 389.605H1240.24V387.204H1237.43V389.605Z" fill="#FF8AE2"/>
<path d="M1064.1 409.475H1066.91V407.074H1064.1V409.475Z" fill="#FF8AE2"/>
<path d="M1095.17 432.497H1097.99V430.095H1095.17V432.497Z" fill="#FF8AE2"/>
<path d="M1133.28 422.12H1136.09V419.719H1133.28V422.12Z" fill="#FF8AE2"/>
<path d="M1182.13 385.393V383.09H1179.43V385.393H1182.13Z" fill="#FF8AE2"/>
<path d="M1204.33 385.271V382.969H1201.64V385.271H1204.33Z" fill="#FF8AE2"/>
<path d="M1130.89 390.258H1123.8V392.725H1117.75V397.002H1127.66V394.173H1130.89V390.258Z" fill="#FF8AE2"/>
<path d="M1133.78 387.922H1130.89V390.291H1133.78V387.922Z" fill="#FF8AE2"/>
<path d="M1222.75 328.479H1219.74V331.044H1222.75V328.479Z" fill="#FF8AE2"/>
<path d="M1185.26 419.733H1182.25V422.299H1185.26V419.733Z" fill="#FF8AE2"/>
<path d="M1182.25 417.167H1179.25V419.733H1182.25V417.167Z" fill="#FF8AE2"/>
<path d="M1157.79 411.509V406.443H1155.67V404.14H1139.29V402.824H1136.06V405.555H1139.25V408.285H1148.08H1149.77H1151.78V414.24H1154.59V411.509H1157.79Z" fill="#FF8AE2"/>
<path d="M1142.45 390.258H1139.25V392.988H1142.45V390.258Z" fill="#FF8AE2"/>
<path d="M1139.25 393.021H1136.06V395.752H1139.25V393.021Z" fill="#FF8AE2"/>
<path d="M1124.84 404.765H1120.3V406.838H1124.84V404.765Z" fill="#FF8AE2"/>
<path d="M1075.37 420.588H1072.36V423.154H1075.37V420.588Z" fill="#FF8AE2"/>
<path d="M1089.2 404.074H1086V406.805H1089.2V404.074Z" fill="#FF8AE2"/>
<path d="M1086 406.838H1082.81V409.568H1086V406.838Z" fill="#FF8AE2"/>
<path d="M1092.67 390.258V388.186H1089.24H1086V390.916H1082.81V396.41H1086V395.258H1095.87V393.186H1100.45V390.258H1092.67Z" fill="#FF8AE2"/>
<path d="M1178.44 391.936H1175.24V394.666H1178.44V391.936Z" fill="#FF8AE2"/>
<path d="M1172.12 394.666V390.258H1161.6V397.43H1168.84V400.16H1172.04V397.43H1172.12H1175.24V394.666H1172.12Z" fill="#FF8AE2"/>
<path d="M1127.08 417.595V414.865H1123.88V412.134H1114.48V414.7H1109.58V417.43H1114.48V418.22V419.733H1130.31V417.595H1127.08Z" fill="#FF8AE2"/>
<path d="M1157.79 414.24H1154.59V416.97H1157.79V414.24Z" fill="#9C4668"/>
<path d="M1172.96 334.882V332.48H1170.15V334.882H1172.96Z" fill="#9C4668"/>
<path d="M1011.37 357.043V354.642H1008.56V357.043H1011.37Z" fill="#9C4668"/>
<path d="M1086.02 382.017V379.616H1083.21V382.017H1086.02Z" fill="#9C4668"/>
<path d="M1054.59 381.269V378.867H1051.77V381.269H1054.59Z" fill="#9C4668"/>
<path d="M1261.19 368.192V365.791H1258.37V368.192H1261.19Z" fill="#9C4668"/>
<path d="M1164.02 438.505H1166.84V436.104H1164.02V438.505Z" fill="#9C4668"/>
<path d="M1192.46 409.983H1195.27V407.581H1192.46V409.983Z" fill="#9C4668"/>
<path d="M1116.83 447.293H1119.64V444.891H1116.83V447.293Z" fill="#FF8AE2"/>
<path d="M1167.24 415.162V412.859H1164.54V415.162H1167.24Z" fill="#9C4668"/>
<path d="M1123.65 383.416H1120.64V385.981H1123.65V383.416Z" fill="#9C4668"/>
<path d="M1095.58 422.897V420.594H1092.88V422.897H1095.58Z" fill="#9C4668"/>
<path d="M1142.99 440.096L1141.14 438.517L1138.06 441.149H1136.13V435.194L1137.79 433.78L1138.41 433.254L1139.06 432.727L1140.33 431.642V429.997V427.299L1137.6 424.997L1133.82 428.22L1134.48 428.747L1136.36 427.135L1137.79 428.385V432.694L1133.94 435.984L1133.63 436.247V441.642H1136.13H1140.64H1141.14L1142.99 440.096Z" fill="#9C4668"/>
<path d="M1140.33 429.997V431.642L1139.06 432.727L1138.41 433.254L1137.79 433.78L1136.13 435.194V441.149H1137.17V435.194L1138.83 433.78L1139.41 433.254L1140.06 432.727L1141.33 431.642V429.997V427.299L1138.6 424.997H1137.6L1140.33 427.299V429.997Z" fill="#FF8AE2"/>
<path d="M1142.18 438.517H1141.14L1142.99 440.096L1141.14 441.642H1142.18L1143.99 440.096L1142.18 438.517Z" fill="#FF8AE2"/>
<path d="M1136.86 427.596L1136.36 427.135L1134.48 428.747H1135.48L1136.86 427.596Z" fill="#FF8AE2"/>
<path d="M1153.09 434.504V437.958H1150.31V436.971V434.372H1148.35V429.405H1144.8V436.971H1146.61V441.84H1149.31H1150.31H1155.05V439.504V437.958V434.504H1153.09Z" fill="#93C2DB"/>
<path d="M1156.51 429.372V427.332H1153.97V429.405H1153.09V434.504H1155.05V437.958V439.339H1156.51V436.971H1157.75V429.372H1156.51Z" fill="#FF8AE2"/>
<path d="M1154.74 425.095H1148.73V426.345H1146.61V429.405H1148.35V434.372H1150.31V429.405H1153.97V427.332H1154.74V425.095Z" fill="#9C4668"/>
<path d="M1116.02 440.096L1114.17 438.517L1111.09 441.149H1109.16V435.194L1110.82 433.78L1111.43 433.254L1112.09 432.727L1113.36 431.642V429.997V427.299L1110.63 424.997L1106.85 428.22L1107.5 428.747L1109.39 427.135L1110.82 428.385V432.694L1106.96 435.984L1106.66 436.247V441.642H1109.16H1113.67H1114.17L1116.02 440.096Z" fill="#9C4668"/>
<path d="M1113.36 429.997V431.642L1112.09 432.727L1111.43 433.254L1110.82 433.78L1109.16 435.194V441.149H1110.2V435.194L1111.86 433.78L1112.44 433.254L1113.09 432.727L1114.36 431.642V429.997V427.299L1111.63 424.997H1110.63L1113.36 427.299V429.997Z" fill="#FF8AE2"/>
<path d="M1109.89 427.596L1109.39 427.135L1107.5 428.747H1108.51L1109.89 427.596Z" fill="#FF8AE2"/>
<path d="M1115.21 438.517H1114.17L1116.02 440.096L1114.17 441.642H1115.21L1117.02 440.096L1115.21 438.517Z" fill="#FF8AE2"/>
<path d="M1126.11 434.504V437.958H1123.34V436.971V434.372H1121.37V429.405H1117.83V436.971H1119.64V441.84H1122.34H1123.34H1128.08V439.504V437.958V434.504H1126.11Z" fill="#93C2DB"/>
<path d="M1129.54 429.372V427.332H1127V429.405H1126.11V434.504H1128.08V437.958V439.339H1129.54V436.971H1130.78V429.372H1129.54Z" fill="#FF8AE2"/>
<path d="M1127.77 425.095H1121.76V426.345H1119.64V429.405H1121.37V434.372H1123.34V429.405H1127V427.332H1127.77V425.095Z" fill="#9C4668"/>
<path d="M1113.01 393.876C1113.12 393.876 1113.21 393.803 1113.21 393.712C1113.21 393.621 1113.12 393.548 1113.01 393.548C1112.91 393.548 1112.82 393.621 1112.82 393.712C1112.82 393.803 1112.91 393.876 1113.01 393.876Z" fill="#FF8AE2"/>
<path d="M1112.59 398.186C1112.7 398.186 1112.78 398.112 1112.78 398.021C1112.78 397.931 1112.7 397.857 1112.59 397.857C1112.48 397.857 1112.4 397.931 1112.4 398.021C1112.4 398.112 1112.48 398.186 1112.59 398.186Z" fill="#FF8AE2"/>
<path d="M1113.44 400.521C1113.54 400.521 1113.63 400.448 1113.63 400.357C1113.63 400.266 1113.54 400.193 1113.44 400.193C1113.33 400.193 1113.24 400.266 1113.24 400.357C1113.24 400.448 1113.33 400.521 1113.44 400.521Z" fill="#FF8AE2"/>
<path d="M1112.44 396.212C1112.54 396.212 1112.63 396.138 1112.63 396.048C1112.63 395.957 1112.54 395.883 1112.44 395.883C1112.33 395.883 1112.24 395.957 1112.24 396.048C1112.24 396.138 1112.33 396.212 1112.44 396.212Z" fill="#FF8AE2"/>
<path d="M1114.17 392.265C1114.28 392.265 1114.36 392.191 1114.36 392.1C1114.36 392.009 1114.28 391.936 1114.17 391.936C1114.06 391.936 1113.98 392.009 1113.98 392.1C1113.98 392.191 1114.06 392.265 1114.17 392.265Z" fill="#FF8AE2"/>
<path d="M1110.39 390.455C1110.5 390.455 1110.59 390.382 1110.59 390.291C1110.59 390.2 1110.5 390.126 1110.39 390.126C1110.29 390.126 1110.2 390.2 1110.2 390.291C1110.2 390.382 1110.29 390.455 1110.39 390.455Z" fill="#FF8AE2"/>
<path d="M1115.87 396.015C1115.97 396.015 1116.06 395.941 1116.06 395.85C1116.06 395.76 1115.97 395.686 1115.87 395.686C1115.76 395.686 1115.67 395.76 1115.67 395.85C1115.67 395.941 1115.76 396.015 1115.87 396.015Z" fill="#FF8AE2"/>
<path d="M1118.6 391.442C1118.71 391.442 1118.79 391.369 1118.79 391.278C1118.79 391.187 1118.71 391.113 1118.6 391.113C1118.49 391.113 1118.41 391.187 1118.41 391.278C1118.41 391.369 1118.49 391.442 1118.6 391.442Z" fill="#FF8AE2"/>
<path d="M1122.34 392.067C1122.44 392.067 1122.53 391.994 1122.53 391.903C1122.53 391.812 1122.44 391.738 1122.34 391.738C1122.23 391.738 1122.15 391.812 1122.15 391.903C1122.15 391.994 1122.23 392.067 1122.34 392.067Z" fill="#FF8AE2"/>
<path d="M1106.46 392.89C1106.57 392.89 1106.66 392.816 1106.66 392.725C1106.66 392.634 1106.57 392.561 1106.46 392.561C1106.36 392.561 1106.27 392.634 1106.27 392.725C1106.27 392.816 1106.36 392.89 1106.46 392.89Z" fill="#FF8AE2"/>
<path d="M1109.43 394.337C1109.54 394.337 1109.62 394.263 1109.62 394.172C1109.62 394.082 1109.54 394.008 1109.43 394.008C1109.32 394.008 1109.24 394.082 1109.24 394.172C1109.24 394.263 1109.32 394.337 1109.43 394.337Z" fill="#FF8AE2"/>
<path d="M1109.01 392.199C1109.11 392.199 1109.2 392.125 1109.2 392.034C1109.2 391.943 1109.11 391.87 1109.01 391.87C1108.9 391.87 1108.81 391.943 1108.81 392.034C1108.81 392.125 1108.9 392.199 1109.01 392.199Z" fill="#FF8AE2"/>
<path d="M1106.19 389.896C1106.3 389.896 1106.39 389.822 1106.39 389.731C1106.39 389.641 1106.3 389.567 1106.19 389.567C1106.09 389.567 1106 389.641 1106 389.731C1106 389.822 1106.09 389.896 1106.19 389.896Z" fill="#FF8AE2"/>
<path d="M1115.67 393.284C1115.78 393.284 1115.87 393.211 1115.87 393.12C1115.87 393.029 1115.78 392.955 1115.67 392.955C1115.57 392.955 1115.48 393.029 1115.48 393.12C1115.48 393.211 1115.57 393.284 1115.67 393.284Z" fill="#FF8AE2"/>
<path d="M1137.67 398.548C1137.78 398.548 1137.87 398.474 1137.87 398.383C1137.87 398.292 1137.78 398.219 1137.67 398.219C1137.57 398.219 1137.48 398.292 1137.48 398.383C1137.48 398.474 1137.57 398.548 1137.67 398.548Z" fill="#FF8AE2"/>
<path d="M1148.46 393.745C1148.57 393.745 1148.66 393.671 1148.66 393.58C1148.66 393.489 1148.57 393.416 1148.46 393.416C1148.36 393.416 1148.27 393.489 1148.27 393.58C1148.27 393.671 1148.36 393.745 1148.46 393.745Z" fill="#FF8AE2"/>
<path d="M1141.45 401.311C1141.56 401.311 1141.64 401.238 1141.64 401.147C1141.64 401.056 1141.56 400.982 1141.45 400.982C1141.34 400.982 1141.26 401.056 1141.26 401.147C1141.26 401.238 1141.34 401.311 1141.45 401.311Z" fill="#FF8AE2"/>
<path d="M1139.87 399.897C1139.98 399.897 1140.06 399.823 1140.06 399.732C1140.06 399.641 1139.98 399.567 1139.87 399.567C1139.76 399.567 1139.68 399.641 1139.68 399.732C1139.68 399.823 1139.76 399.897 1139.87 399.897Z" fill="#FF8AE2"/>
<path d="M1141.87 403.449C1141.98 403.449 1142.07 403.376 1142.07 403.285C1142.07 403.194 1141.98 403.12 1141.87 403.12C1141.77 403.12 1141.68 403.194 1141.68 403.285C1141.68 403.376 1141.77 403.449 1141.87 403.449Z" fill="#FF8AE2"/>
<path d="M1151.81 395.587C1151.92 395.587 1152.01 395.514 1152.01 395.423C1152.01 395.332 1151.92 395.258 1151.81 395.258C1151.71 395.258 1151.62 395.332 1151.62 395.423C1151.62 395.514 1151.71 395.587 1151.81 395.587Z" fill="#FF8AE2"/>
<path d="M1137.87 401.87C1137.97 401.87 1138.06 401.797 1138.06 401.706C1138.06 401.615 1137.97 401.542 1137.87 401.542C1137.76 401.542 1137.67 401.615 1137.67 401.706C1137.67 401.797 1137.76 401.87 1137.87 401.87Z" fill="#FF8AE2"/>
<path d="M1148.27 396.212C1148.38 396.212 1148.46 396.138 1148.46 396.048C1148.46 395.957 1148.38 395.883 1148.27 395.883C1148.16 395.883 1148.08 395.957 1148.08 396.048C1148.08 396.138 1148.16 396.212 1148.27 396.212Z" fill="#FF8AE2"/>
<path d="M1152.93 392.923C1153.04 392.923 1153.12 392.849 1153.12 392.758C1153.12 392.667 1153.04 392.594 1152.93 392.594C1152.83 392.594 1152.74 392.667 1152.74 392.758C1152.74 392.849 1152.83 392.923 1152.93 392.923Z" fill="#FF8AE2"/>
<path d="M1154.67 391.771C1154.77 391.771 1154.86 391.698 1154.86 391.607C1154.86 391.516 1154.77 391.442 1154.67 391.442C1154.56 391.442 1154.47 391.516 1154.47 391.607C1154.47 391.698 1154.56 391.771 1154.67 391.771Z" fill="#FF8AE2"/>
<path d="M1144.99 394.337C1145.1 394.337 1145.19 394.263 1145.19 394.172C1145.19 394.082 1145.1 394.008 1144.99 394.008C1144.89 394.008 1144.8 394.082 1144.8 394.172C1144.8 394.263 1144.89 394.337 1144.99 394.337Z" fill="#FF8AE2"/>
<path d="M1139.1 396.903C1139.21 396.903 1139.29 396.829 1139.29 396.738C1139.29 396.647 1139.21 396.574 1139.1 396.574C1138.99 396.574 1138.91 396.647 1138.91 396.738C1138.91 396.829 1138.99 396.903 1139.1 396.903Z" fill="#FF8AE2"/>
<path d="M1150.12 392.067C1150.23 392.067 1150.31 391.994 1150.31 391.903C1150.31 391.812 1150.23 391.738 1150.12 391.738C1150.01 391.738 1149.93 391.812 1149.93 391.903C1149.93 391.994 1150.01 392.067 1150.12 392.067Z" fill="#FF8AE2"/>
<path d="M1146.61 391.442C1146.72 391.442 1146.81 391.369 1146.81 391.278C1146.81 391.187 1146.72 391.113 1146.61 391.113C1146.51 391.113 1146.42 391.187 1146.42 391.278C1146.42 391.369 1146.51 391.442 1146.61 391.442Z" fill="#FF8AE2"/>
<path d="M1141.64 398.12C1141.75 398.12 1141.83 398.046 1141.83 397.956C1141.83 397.865 1141.75 397.791 1141.64 397.791C1141.54 397.791 1141.45 397.865 1141.45 397.956C1141.45 398.046 1141.54 398.12 1141.64 398.12Z" fill="#FF8AE2"/>
<path d="M1180.4 410.752C1180.51 410.752 1180.6 410.679 1180.6 410.588C1180.6 410.497 1180.51 410.424 1180.4 410.424C1180.3 410.424 1180.21 410.497 1180.21 410.588C1180.21 410.679 1180.3 410.752 1180.4 410.752Z" fill="#FF8AE2"/>
<path d="M1180.13 404.699C1180.24 404.699 1180.33 404.626 1180.33 404.535C1180.33 404.444 1180.24 404.371 1180.13 404.371C1180.03 404.371 1179.94 404.444 1179.94 404.535C1179.94 404.626 1180.03 404.699 1180.13 404.699Z" fill="#FF8AE2"/>
<path d="M1180.17 400.094C1180.28 400.094 1180.37 400.021 1180.37 399.93C1180.37 399.839 1180.28 399.765 1180.17 399.765C1180.07 399.765 1179.98 399.839 1179.98 399.93C1179.98 400.021 1180.07 400.094 1180.17 400.094Z" fill="#FF8AE2"/>
<path d="M1179.4 407.627C1179.51 407.627 1179.59 407.554 1179.59 407.463C1179.59 407.372 1179.51 407.298 1179.4 407.298C1179.3 407.298 1179.21 407.372 1179.21 407.463C1179.21 407.554 1179.3 407.627 1179.4 407.627Z" fill="#FF8AE2"/>
<path d="M1177.59 415.588C1177.7 415.588 1177.78 415.515 1177.78 415.424C1177.78 415.333 1177.7 415.259 1177.59 415.259C1177.48 415.259 1177.4 415.333 1177.4 415.424C1177.4 415.515 1177.48 415.588 1177.59 415.588Z" fill="#FF8AE2"/>
<path d="M1176.67 418.22C1176.77 418.22 1176.86 418.146 1176.86 418.055C1176.86 417.965 1176.77 417.891 1176.67 417.891C1176.56 417.891 1176.47 417.965 1176.47 418.055C1176.47 418.146 1176.56 418.22 1176.67 418.22Z" fill="#FF8AE2"/>
<path d="M1177.59 402.462C1177.7 402.462 1177.78 402.389 1177.78 402.298C1177.78 402.207 1177.7 402.134 1177.59 402.134C1177.48 402.134 1177.4 402.207 1177.4 402.298C1177.4 402.389 1177.48 402.462 1177.59 402.462Z" fill="#FF8AE2"/>
<path d="M1180.75 415.128C1180.86 415.128 1180.94 415.054 1180.94 414.963C1180.94 414.872 1180.86 414.799 1180.75 414.799C1180.64 414.799 1180.56 414.872 1180.56 414.963C1180.56 415.054 1180.64 415.128 1180.75 415.128Z" fill="#FF8AE2"/>
<path d="M1177.82 410.654C1177.93 410.654 1178.01 410.58 1178.01 410.489C1178.01 410.398 1177.93 410.325 1177.82 410.325C1177.72 410.325 1177.63 410.398 1177.63 410.489C1177.63 410.58 1177.72 410.654 1177.82 410.654Z" fill="#FF8AE2"/>
<path d="M1176.2 413.417C1176.31 413.417 1176.4 413.343 1176.4 413.252C1176.4 413.162 1176.31 413.088 1176.2 413.088C1176.1 413.088 1176.01 413.162 1176.01 413.252C1176.01 413.343 1176.1 413.417 1176.2 413.417Z" fill="#FF8AE2"/>
<path d="M1175.7 405.291C1175.81 405.291 1175.9 405.218 1175.9 405.127C1175.9 405.036 1175.81 404.963 1175.7 404.963C1175.6 404.963 1175.51 405.036 1175.51 405.127C1175.51 405.218 1175.6 405.291 1175.7 405.291Z" fill="#FF8AE2"/>
<path d="M1079.34 417.397C1079.44 417.397 1079.53 417.324 1079.53 417.233C1079.53 417.142 1079.44 417.069 1079.34 417.069C1079.23 417.069 1079.15 417.142 1079.15 417.233C1079.15 417.324 1079.23 417.397 1079.34 417.397Z" fill="#FF8AE2"/>
<path d="M1085.08 416.509C1085.19 416.509 1085.27 416.436 1085.27 416.345C1085.27 416.254 1085.19 416.18 1085.08 416.18C1084.97 416.18 1084.89 416.254 1084.89 416.345C1084.89 416.436 1084.97 416.509 1085.08 416.509Z" fill="#FF8AE2"/>
<path d="M1079.53 398.811C1079.64 398.811 1079.72 398.737 1079.72 398.646C1079.72 398.555 1079.64 398.482 1079.53 398.482C1079.42 398.482 1079.34 398.555 1079.34 398.646C1079.34 398.737 1079.42 398.811 1079.53 398.811Z" fill="#FF8AE2"/>
<path d="M1081.34 392.626C1081.45 392.626 1081.53 392.553 1081.53 392.462C1081.53 392.371 1081.45 392.298 1081.34 392.298C1081.24 392.298 1081.15 392.371 1081.15 392.462C1081.15 392.553 1081.24 392.626 1081.34 392.626Z" fill="#FF8AE2"/>
<path d="M1084.62 389.699C1084.72 389.699 1084.81 389.625 1084.81 389.534C1084.81 389.443 1084.72 389.37 1084.62 389.37C1084.51 389.37 1084.42 389.443 1084.42 389.534C1084.42 389.625 1084.51 389.699 1084.62 389.699Z" fill="#FF8AE2"/>
<path d="M1080.11 408.746C1080.22 408.746 1080.3 408.672 1080.3 408.581C1080.3 408.49 1080.22 408.417 1080.11 408.417C1080 408.417 1079.92 408.49 1079.92 408.581C1079.92 408.672 1080 408.746 1080.11 408.746Z" fill="#FF8AE2"/>
<path d="M1079.95 415.358C1080.06 415.358 1080.15 415.284 1080.15 415.193C1080.15 415.103 1080.06 415.029 1079.95 415.029C1079.85 415.029 1079.76 415.103 1079.76 415.193C1079.76 415.284 1079.85 415.358 1079.95 415.358Z" fill="#FF8AE2"/>
<path d="M1080.69 403.778C1080.79 403.778 1080.88 403.705 1080.88 403.614C1080.88 403.523 1080.79 403.449 1080.69 403.449C1080.58 403.449 1080.49 403.523 1080.49 403.614C1080.49 403.705 1080.58 403.778 1080.69 403.778Z" fill="#FF8AE2"/>
<path d="M1082.84 413.91C1082.95 413.91 1083.04 413.837 1083.04 413.746C1083.04 413.655 1082.95 413.582 1082.84 413.582C1082.74 413.582 1082.65 413.655 1082.65 413.746C1082.65 413.837 1082.74 413.91 1082.84 413.91Z" fill="#FF8AE2"/>
<path d="M1081.73 416.246C1081.83 416.246 1081.92 416.173 1081.92 416.082C1081.92 415.991 1081.83 415.917 1081.73 415.917C1081.62 415.917 1081.53 415.991 1081.53 416.082C1081.53 416.173 1081.62 416.246 1081.73 416.246Z" fill="#FF8AE2"/>
<path d="M1082.69 389.436C1082.8 389.436 1082.88 389.362 1082.88 389.271C1082.88 389.18 1082.8 389.106 1082.69 389.106C1082.58 389.106 1082.5 389.18 1082.5 389.271C1082.5 389.362 1082.58 389.436 1082.69 389.436Z" fill="#FF8AE2"/>
<path d="M1081.69 410.226C1081.79 410.226 1081.88 410.152 1081.88 410.062C1081.88 409.971 1081.79 409.897 1081.69 409.897C1081.58 409.897 1081.5 409.971 1081.5 410.062C1081.5 410.152 1081.58 410.226 1081.69 410.226Z" fill="#FF8AE2"/>
<path d="M1084.39 411.443C1084.49 411.443 1084.58 411.37 1084.58 411.279C1084.58 411.188 1084.49 411.114 1084.39 411.114C1084.28 411.114 1084.19 411.188 1084.19 411.279C1084.19 411.37 1084.28 411.443 1084.39 411.443Z" fill="#FF8AE2"/>
<path d="M1079.53 389.962C1079.64 389.962 1079.72 389.888 1079.72 389.798C1079.72 389.707 1079.64 389.633 1079.53 389.633C1079.42 389.633 1079.34 389.707 1079.34 389.798C1079.34 389.888 1079.42 389.962 1079.53 389.962Z" fill="#FF8AE2"/>
<path d="M1080.34 406.509C1080.45 406.509 1080.53 406.435 1080.53 406.344C1080.53 406.253 1080.45 406.18 1080.34 406.18C1080.23 406.18 1080.15 406.253 1080.15 406.344C1080.15 406.435 1080.23 406.509 1080.34 406.509Z" fill="#FF8AE2"/>
<path d="M1147.54 427.53C1147.67 427.53 1147.77 427.441 1147.77 427.332C1147.77 427.223 1147.67 427.135 1147.54 427.135C1147.41 427.135 1147.31 427.223 1147.31 427.332C1147.31 427.441 1147.41 427.53 1147.54 427.53Z" fill="#FF8AE2"/>
<path d="M1152.01 426.049C1152.13 426.049 1152.24 425.961 1152.24 425.852C1152.24 425.743 1152.13 425.655 1152.01 425.655C1151.88 425.655 1151.78 425.743 1151.78 425.852C1151.78 425.961 1151.88 426.049 1152.01 426.049Z" fill="#FF8AE2"/>
<path d="M1150.27 427.859C1150.4 427.859 1150.5 427.77 1150.5 427.661C1150.5 427.552 1150.4 427.464 1150.27 427.464C1150.15 427.464 1150.04 427.552 1150.04 427.661C1150.04 427.77 1150.15 427.859 1150.27 427.859Z" fill="#FF8AE2"/>
<path d="M1152.85 428.451C1152.98 428.451 1153.09 428.362 1153.09 428.253C1153.09 428.144 1152.98 428.056 1152.85 428.056C1152.73 428.056 1152.62 428.144 1152.62 428.253C1152.62 428.362 1152.73 428.451 1152.85 428.451Z" fill="#FF8AE2"/>
<path d="M1149.54 429.141C1149.67 429.141 1149.77 429.053 1149.77 428.944C1149.77 428.835 1149.67 428.747 1149.54 428.747C1149.41 428.747 1149.31 428.835 1149.31 428.944C1149.31 429.053 1149.41 429.141 1149.54 429.141Z" fill="#FF8AE2"/>
<path d="M1149.31 433.747C1149.44 433.747 1149.54 433.659 1149.54 433.55C1149.54 433.44 1149.44 433.352 1149.31 433.352C1149.18 433.352 1149.08 433.44 1149.08 433.55C1149.08 433.659 1149.18 433.747 1149.31 433.747Z" fill="#FF8AE2"/>
<path d="M1148.96 431.28C1149.09 431.28 1149.19 431.191 1149.19 431.083C1149.19 430.973 1149.09 430.885 1148.96 430.885C1148.84 430.885 1148.73 430.973 1148.73 431.083C1148.73 431.191 1148.84 431.28 1148.96 431.28Z" fill="#FF8AE2"/>
<path d="M1120.57 427.53C1120.69 427.53 1120.8 427.441 1120.8 427.332C1120.8 427.223 1120.69 427.135 1120.57 427.135C1120.44 427.135 1120.33 427.223 1120.33 427.332C1120.33 427.441 1120.44 427.53 1120.57 427.53Z" fill="#FF8AE2"/>
<path d="M1121.99 428.451C1122.12 428.451 1122.22 428.362 1122.22 428.253C1122.22 428.144 1122.12 428.056 1121.99 428.056C1121.86 428.056 1121.76 428.144 1121.76 428.253C1121.76 428.362 1121.86 428.451 1121.99 428.451Z" fill="#FF8AE2"/>
<path d="M1126.11 426.246C1126.24 426.246 1126.35 426.158 1126.35 426.049C1126.35 425.94 1126.24 425.852 1126.11 425.852C1125.99 425.852 1125.88 425.94 1125.88 426.049C1125.88 426.158 1125.99 426.246 1126.11 426.246Z" fill="#FF8AE2"/>
<path d="M1124.8 428.056C1124.93 428.056 1125.04 427.968 1125.04 427.859C1125.04 427.75 1124.93 427.661 1124.8 427.661C1124.68 427.661 1124.57 427.75 1124.57 427.859C1124.57 427.968 1124.68 428.056 1124.8 428.056Z" fill="#FF8AE2"/>
<path d="M1122.34 430.392C1122.47 430.392 1122.57 430.303 1122.57 430.194C1122.57 430.085 1122.47 429.997 1122.34 429.997C1122.21 429.997 1122.11 430.085 1122.11 430.194C1122.11 430.303 1122.21 430.392 1122.34 430.392Z" fill="#FF8AE2"/>
<path d="M1122.57 427.102C1122.7 427.102 1122.8 427.013 1122.8 426.905C1122.8 426.796 1122.7 426.707 1122.57 426.707C1122.44 426.707 1122.34 426.796 1122.34 426.905C1122.34 427.013 1122.44 427.102 1122.57 427.102Z" fill="#FF8AE2"/>
<path d="M1122.22 433.122C1122.35 433.122 1122.45 433.033 1122.45 432.924C1122.45 432.816 1122.35 432.727 1122.22 432.727C1122.09 432.727 1121.99 432.816 1121.99 432.924C1121.99 433.033 1122.09 433.122 1122.22 433.122Z" fill="#FF8AE2"/>
<path d="M1238.93 338.051C1238.93 337.591 1237.89 337.393 1237.7 337.097C1237.58 336.933 1237.93 336.801 1238.2 336.834C1238.39 336.834 1240.05 337.097 1241.21 337.097C1245.14 337.196 1246.18 336.374 1246.14 335.913C1246.1 335.453 1244.6 335.222 1244.37 334.926C1244.17 334.63 1244.44 334.334 1245.79 334.137C1247.18 333.939 1249.57 333.841 1251.15 333.216C1252.73 332.591 1252.38 331.867 1250.38 331.341C1249.64 331.077 1250.11 330.683 1251.49 329.762C1252.88 328.84 1256.31 325.946 1255.23 324.432C1254.31 323.314 1252.61 323.972 1251.42 325.024C1250.49 325.814 1248.68 327.426 1248.03 327.459C1246.83 327.557 1247.91 326.011 1247.29 325.452C1246.68 324.893 1245.37 325.88 1244.83 326.702C1244.29 327.525 1243.86 328.84 1243.29 329.794C1242.67 330.847 1242.05 330.452 1241.86 330.09C1241.71 329.729 1241.98 328.248 1240.78 328.084C1239.74 327.952 1238.51 330.222 1237.47 331.505C1237.08 331.998 1236.58 332.459 1236.04 332.854C1235.73 333.051 1235.58 332.985 1235.5 332.854C1235.35 332.656 1235.5 331.406 1234.46 331.143C1233.54 330.946 1232.65 332.262 1231.46 333.479C1230.49 334.466 1229.15 334.992 1227.68 335.387C1225.68 335.913 1222.63 336.045 1222.63 336.045C1222.63 336.045 1224.14 336.604 1225.41 336.933C1228.49 337.722 1229.95 338.15 1233.42 338.446C1236.04 338.676 1238.78 338.907 1238.93 338.051C1238.93 338.084 1238.93 338.051 1238.93 338.051Z" fill="#93C2DB"/>
<path d="M1078.99 363.546C1080.65 360.553 1080.11 356.803 1078.26 353.842C1076.45 350.947 1074.1 348.874 1070.32 347.361C1069.4 346.999 1066.89 346.374 1066.89 346.374C1066.89 346.374 1066.93 348.184 1067.01 348.71C1067.36 350.914 1067.74 353.217 1069.32 354.73C1070.78 356.145 1072.67 356.835 1074.64 357.756C1080.07 360.355 1078.99 363.546 1078.99 363.546Z" fill="#93C2DB"/>
<path d="M1050.83 384.435C1050.83 384.435 1060.92 384.008 1064.7 390.357C1068.74 397.133 1072.71 399.436 1072.71 399.436C1072.71 399.436 1064.5 400.39 1060.61 396.377C1056.68 392.364 1058.42 388.317 1050.83 384.435Z" fill="#93C2DB"/>
<path d="M1237.47 368.349C1237.47 368.349 1235.5 363.908 1238.01 360.98C1239.97 358.645 1244.63 358.085 1248.8 358.48C1251.61 358.743 1255.19 357.197 1255.19 357.197C1255.19 357.197 1255.19 360.75 1250.65 361.868C1248.1 362.493 1245.87 361.54 1242.36 363.546C1237.78 366.145 1237.47 368.349 1237.47 368.349Z" fill="#93C2DB"/>
<path d="M1134.01 370.553C1132.36 367.56 1132.93 363.842 1134.75 360.849C1138.06 355.421 1146.11 354.368 1146.11 354.368C1146.11 354.368 1145.42 358.809 1142.91 361.342C1141.49 362.79 1138.98 363.316 1137.25 364.5C1133.13 367.296 1134.01 370.553 1134.01 370.553Z" fill="#93C2DB"/>
<path d="M1217.01 377.001C1216.7 376.803 1203.91 372.889 1215.43 364.862L1223.33 359.434C1223.33 359.434 1223.6 365.454 1218.63 369.402C1213.69 373.25 1217.01 377.001 1217.01 377.001Z" fill="#93C2DB"/>
<path d="M1089.63 377.001C1089.32 376.803 1076.53 372.889 1088.05 364.862L1095.94 359.434C1095.94 359.434 1096.21 365.454 1091.24 369.402C1086.35 373.25 1089.63 377.001 1089.63 377.001Z" fill="#93C2DB"/>
<path d="M1203.14 400.39C1203.14 400.39 1207.61 394.502 1215.24 394.008C1221.63 393.58 1229.61 396.738 1229.61 396.738C1229.61 396.738 1223.37 401.179 1215.47 400.456C1209.77 399.929 1208.11 398.317 1203.14 400.39Z" fill="#93C2DB"/>
<path d="M1047.2 343.512C1046.2 343.512 1046.12 345.881 1046.01 348.118C1045.89 351.078 1046.2 352.361 1046.7 355.092C1046.9 356.21 1047.36 357.559 1047.36 357.559C1047.36 357.559 1047.9 354.993 1048.78 353.348C1049.44 352.164 1050.21 351.078 1051.48 350.388C1053.02 349.565 1054.68 348.973 1054.6 348.184C1054.41 347.262 1052.94 347.23 1052.75 347.065C1052.64 346.966 1052.56 346.835 1052.83 346.605C1053.37 346.21 1053.99 345.848 1054.6 345.585C1056.22 344.861 1059.03 344.137 1058.99 343.249C1058.96 342.196 1057.22 342.262 1056.84 342.065C1056.41 341.867 1056.07 341.308 1057.38 340.913C1058.57 340.552 1060.15 340.387 1061.19 340.025C1062.23 339.696 1063.54 338.742 1063 338.117C1062.42 337.492 1060.5 338.216 1060.77 337.196C1060.92 336.637 1063 335.321 1064.08 334.663C1065.47 333.808 1066.47 332.426 1065.27 331.505C1063.66 330.387 1059.84 332.887 1058.57 333.939C1057.3 334.992 1056.8 335.321 1056.57 334.696C1056.22 332.952 1055.41 332.558 1054.49 333.808C1053.56 335.058 1053.1 337.065 1052.71 338.216C1052.33 339.367 1051.9 339.532 1051.6 339.334C1051.29 339.137 1051.21 337.788 1050.67 337.722C1050.17 337.624 1049.09 338.38 1048.63 341.736C1048.51 342.69 1048.55 344.137 1048.55 344.302C1048.51 344.565 1048.36 344.828 1048.17 344.697C1047.82 344.499 1047.74 343.545 1047.2 343.512Z" fill="#93C2DB"/>
<path d="M1185.22 367.757C1185.72 367.658 1185.72 366.737 1186.03 366.54C1186.22 366.408 1186.38 366.671 1186.45 366.901C1186.49 367.066 1186.57 368.513 1186.76 369.467C1187.49 372.79 1188.61 373.448 1189.11 373.316C1189.61 373.185 1189.57 371.869 1189.88 371.639C1190.19 371.408 1190.58 371.573 1191.08 372.658C1191.58 373.777 1192.19 375.751 1193.24 376.935C1194.28 378.119 1195.01 377.658 1195.2 375.882C1195.35 375.224 1195.89 375.52 1197.24 376.474C1198.59 377.428 1202.56 379.665 1204.06 378.481C1205.14 377.494 1204.02 376.178 1202.6 375.422C1201.52 374.796 1199.32 373.645 1199.13 373.086C1198.78 372.099 1200.75 372.691 1201.25 372.033C1201.75 371.375 1200.36 370.52 1199.32 370.257C1198.28 369.994 1196.7 369.895 1195.51 369.632C1194.2 369.336 1194.51 368.744 1194.89 368.513C1195.24 368.283 1196.97 368.25 1196.93 367.198C1196.9 366.309 1194.04 365.75 1192.39 365.158C1191.77 364.928 1191.15 364.599 1190.58 364.237C1190.31 364.039 1190.34 363.875 1190.46 363.776C1190.65 363.612 1192.08 363.447 1192.19 362.526C1192.19 361.737 1190.54 361.243 1188.96 360.519C1187.61 359.928 1186.76 358.908 1186.03 357.756C1185.03 356.21 1184.3 353.776 1184.3 353.776C1184.3 353.776 1183.95 355.026 1183.83 356.177C1183.6 358.94 1183.41 360.256 1183.79 363.184C1183.95 365.454 1184.22 367.823 1185.22 367.757Z" fill="#93C2DB"/>
<path d="M1172.58 345.782C1172.54 345.848 1168.54 351.045 1167.65 359.138C1167.57 358.546 1167.57 357.724 1167.53 357.098C1168.77 349.993 1172.12 345.585 1172.16 345.552L1172.58 345.782Z" fill="#FF8AE2"/>
<path d="M1066.2 396.903C1064 396.015 1063.12 394.469 1062.11 392.659C1061.38 391.343 1060.54 389.83 1058.99 388.383C1054.83 384.534 1045.39 383.678 1045.32 383.678L1045.39 383.185C1045.78 383.218 1055.14 384.073 1059.46 388.054C1061.07 389.534 1061.92 391.08 1062.69 392.429C1063.66 394.14 1064.47 395.62 1066.47 396.409L1066.2 396.903Z" fill="#FF8AE2"/>
<path d="M1047.32 361.342C1047.09 359.796 1046.2 351.868 1049.4 346.012C1053.18 339.17 1060.42 334.696 1060.5 334.663L1060.84 335.058C1060.77 335.091 1053.64 339.499 1049.94 346.243C1046.78 351.967 1047.7 359.796 1047.9 361.309L1047.32 361.342Z" fill="#FF8AE2"/>
<path d="M1228.88 336.735C1223.91 336.735 1219.44 335.814 1218.24 335.551L1218.4 335.058C1220.13 335.453 1229.07 337.262 1236.16 335.387C1244.48 333.183 1250.53 327.755 1250.61 327.689L1251.03 328.018C1250.95 328.084 1244.79 333.577 1236.35 335.847C1233.92 336.505 1231.3 336.735 1228.88 336.735Z" fill="#FF8AE2"/>
<path d="M1199.09 375.685C1199.01 375.652 1191.5 371.671 1187.19 365.092C1185.49 362.526 1184.68 359.434 1184.22 356.704C1184.1 356.046 1183.99 354.697 1183.99 354.697L1184.33 353.151C1184.53 356.342 1185.3 361.21 1187.69 364.862C1191.92 371.309 1199.32 375.257 1199.4 375.29L1199.09 375.685Z" fill="#FF8AE2"/>
<path d="M1079.92 358.94C1079.88 358.546 1079.84 358.118 1079.76 357.723C1076.53 353.381 1070.21 349.631 1069.9 349.466L1069.59 349.861C1069.63 349.894 1077.06 354.269 1079.92 358.94Z" fill="#FF8AE2"/>
<path d="M1092.44 363.776C1092.4 363.809 1090.09 365.717 1087.89 367.494C1085.19 369.665 1084.23 371.869 1084.96 374.435C1085.23 374.665 1085.5 374.895 1085.81 375.093C1084.69 372.362 1085.46 370.125 1088.32 367.856C1090.51 366.079 1092.86 364.138 1092.86 364.138L1092.44 363.776Z" fill="#FF8AE2"/>
<path d="M1219.44 364.533C1219.4 364.566 1217.09 366.474 1214.89 368.25C1212.69 370.027 1211.65 371.803 1211.73 373.777C1211.92 374.007 1212.15 374.205 1212.38 374.402C1212.04 372.297 1212.96 370.454 1215.31 368.579C1217.51 366.803 1219.86 364.862 1219.86 364.862L1219.44 364.533Z" fill="#FF8AE2"/>
<path d="M1133.24 364.697C1133.17 365.125 1133.09 365.553 1133.09 365.98C1135.86 361.112 1142.57 357.822 1142.64 357.789L1142.37 357.361C1142.34 357.361 1139.95 358.546 1137.44 360.487C1136.02 361.572 1134.44 362.987 1133.24 364.697Z" fill="#FF8AE2"/>
<path d="M1241.55 360.947C1244.21 359.829 1248.41 360.224 1248.45 360.224L1248.53 359.73C1248.33 359.697 1244.09 359.302 1241.28 360.487C1239.43 361.243 1237.93 362.46 1236.74 364.105C1236.7 364.434 1236.7 364.796 1236.74 365.125C1237.93 363.217 1239.55 361.802 1241.55 360.947Z" fill="#FF8AE2"/>
<path d="M1200.29 402.89L1199.82 402.594C1199.9 402.528 1201.36 400.883 1203.87 399.568C1205.26 398.844 1206.8 398.252 1208.76 397.66C1214.12 396.114 1222.02 396.64 1222.36 396.673L1222.33 397.166C1222.25 397.166 1214.2 396.607 1208.96 398.153C1206.99 398.712 1205.53 399.304 1204.18 399.995C1201.79 401.245 1200.32 402.89 1200.29 402.89Z" fill="#FF8AE2"/>
</g>
<defs>
<filter id="filter0_d" x="580" y="-132" width="1149" height="1058" filterUnits="userSpaceOnUse" color-interpolation-filters="sRGB">
<feFlood flood-opacity="0" result="BackgroundImageFix"/>
<feColorMatrix in="SourceAlpha" type="matrix" values="0 0 0 0 0 0 0 0 0 0 0 0 0 0 0 0 0 0 127 0"/>
<feOffset dx="-10" dy="-10"/>
<feGaussianBlur stdDeviation="25"/>
<feColorMatrix type="matrix" values="0 0 0 0 0.0313725 0 0 0 0 0.741176 0 0 0 0 0.729412 0 0 0 0.2 0"/>
<feBlend mode="normal" in2="BackgroundImageFix" result="effect1_dropShadow"/>
<feBlend mode="normal" in="SourceGraphic" in2="effect1_dropShadow" result="shape"/>
</filter>
<clipPath id="clip0">
<rect width="1280" height="720" fill="white"/>
</clipPath>
</defs>
</svg>
