<svg width="100" height="101" viewBox="0 0 100 101" fill="none" xmlns="http://www.w3.org/2000/svg">
<path d="M34.375 9.875V22.375" stroke="#BB96F7" stroke-width="4" stroke-linecap="round" stroke-linejoin="round"/>
<path d="M46.875 9.875V22.375" stroke="#BB96F7" stroke-width="4" stroke-linecap="round" stroke-linejoin="round"/>
<path d="M59.375 9.875V22.375" stroke="#BB96F7" stroke-width="4" stroke-linecap="round" stroke-linejoin="round"/>
<path d="M12.5 84.875H81.25" stroke="#BB96F7" stroke-width="4" stroke-linecap="round" stroke-linejoin="round"/>
<path d="M32.5377 84.8765C26.5572 82.1312 21.4901 77.7273 17.9383 72.1877C14.3864 66.6481 12.4989 60.2055 12.5 53.625V34.875H81.25V53.625C81.2511 60.2056 79.3636 66.6482 75.8117 72.1878C72.2597 77.7275 67.1926 82.1314 61.2121 84.8766" stroke="#BB96F7" stroke-width="4" stroke-linecap="round" stroke-linejoin="round"/>
<path d="M81.25 34.875C84.5652 34.875 87.7446 36.192 90.0888 38.5362C92.433 40.8804 93.75 44.0598 93.75 47.375V50.5C93.75 53.8152 92.433 56.9946 90.0888 59.3388C87.7446 61.683 84.5652 63 81.25 63H79.9303" stroke="#BB96F7" stroke-width="4" stroke-linecap="round" stroke-linejoin="round"/>
</svg>
